<svg id="Vector" xmlns="http://www.w3.org/2000/svg" width="382.19" height="422.49" viewBox="0 0 382.19 422.49"><defs><style>.cls-1{fill:#333;}.cls-2{fill:#f0dbbd;}.cls-3{fill:#b28b60;}.cls-4{fill:#ccab81;}.cls-5{fill:#ccb293;}.cls-6{fill:#e4eef9;}.cls-7{fill:#d2e3f7;}.cls-8{fill:#fff;}.cls-9{fill:#474747;}.cls-10{fill:#664c12;}.cls-11{fill:#49310a;}.cls-12{fill:#49535e;}</style></defs><title>hammer-man</title><path d="M154,248.62c-4.6-5.12-10.94-8.5-15.7-13.46-0.1,1.06-1.83,20.6,8.26,34.79,9.58,13.49,25.26,13.48,27.58,13.4C170.32,270.32,163.72,257.89,154,248.62Z"/><path class="cls-1" d="M171.47,266.13C162.42,254.05,154,245,141.28,235.94a18.91,18.91,0,0,1-1.88-2.27c-0.74.92-1.14,1.44-1.14,1.44v0.05c4.77,5,11.1,8.34,15.7,13.46,9.76,9.27,16.36,21.7,20.13,34.73h0.3s0.55-4.92,2.4-14.56C174.59,268.78,172.62,268.14,171.47,266.13Z"/><path class="cls-1" d="M189,226.59c1.83,11.22,9.75,56.3,24.82,95.59-2.12-9.2-5.2-18-7.93-27.07C200,272.17,203.85,245.8,189,226.59Z"/><path d="M317.15,384.24C282.15,293.05,294,217.62,294,217.62c24.72,27.33,28.35,55.76,27.61,73.22,11.84-9.77,26.06-16.54,41.83-20.49,11-2.39,9.5-12.72,5.11-21.11-14.26-20.7-28.66-36.49-49.79-56.47a79.49,79.49,0,0,0-13.08-10.08c-20.21-9.47-45.33-10.69-64.2,4.95-9.06,7.85-24.15,2.42-36.23,1.21-13.62-1.7-25.63,7.79-37.55,14.45a282.61,282.61,0,0,0-28.32,30.37,18.91,18.91,0,0,0,1.88,2.27c12.68,9.06,21.13,18.11,30.19,30.19,1.15,2,3.12,2.65,5.32,2.65,1-5.28,2.42-12,4.34-20.05,3.67-15.44,5.78-21.31,6.76-23.5l-0.12-.15,0.12,0.15a5,5,0,0,1,.68-1.26s0.14,0.93.42,2.63c14.86,19.21,11,45.58,16.89,68.51,2.73,9.11,5.81,17.87,7.93,27.07q1.15,3,2.35,5.94s13.18,48.37.43,94.37h114.5l-13.95-38.26"/><path class="cls-1" d="M368.58,249.24c4.39,8.4,5.88,18.72-5.11,21.11-15.77,3.94-30,10.72-41.83,20.49a77.8,77.8,0,0,1-2.3,16.4c7.11-11.48,16.69-21.61,27.82-26.62,10.26-4.86,22.94-7.79,35-10.08v0C377.53,262.74,373.06,255.75,368.58,249.24Z"/><path d="M347.17,280.62c-11.13,5-20.71,15.14-27.82,26.62-0.1.36-.16,0.55-0.16,0.55,49.43-3.56,62.53-36.1,63-37.25C370.11,272.83,357.43,275.76,347.17,280.62Z"/><path class="cls-2" d="M196,78.83c0-1.21-.09-1.94-0.09-1.94Z"/><path class="cls-3" d="M170.35,25.42c-0.25.57-.5,1.14-0.73,1.72,18,4.35,39-.73,56.18-9.11C208.31,25,189.13,28.7,170.35,25.42Z"/><path class="cls-4" d="M259.4,38.29c-9.57-23.89-28.94-41.23-57-37.87-16.35,2.23-26.33,12.08-32,25,18.78,3.28,38-.45,55.45-7.39q2.9-1.41,5.66-2.94a70.26,70.26,0,0,0,3.55,8.4C240.6,32.06,249.13,39.2,259.4,38.29Z"/><path class="cls-3" d="M263.41,50.89a92.47,92.47,0,0,0-4-12.6c-10.27.92-18.8-6.23-24.4-14.8C241.15,35.74,250.81,45.73,263.41,50.89Z"/><path class="cls-3" d="M202.26,144.25a28.49,28.49,0,0,0,21.42,1.65,52.68,52.68,0,0,0,24.21-15.73A63.36,63.36,0,0,1,202.26,144.25Z"/><path class="cls-4" d="M179.7,121.35c5.95,9.91,13.55,18.54,22.56,22.9a63.36,63.36,0,0,0,45.63-14.08,64.18,64.18,0,0,0,8.65-12.59C231.31,110.38,203.45,110.47,179.7,121.35Z"/><path class="cls-5" d="M232.34,145.9c-0.1-1.12-.2-2.25-0.27-3.4a52.57,52.57,0,0,1-8.38,3.39,29.14,29.14,0,0,1-10.77,1.27c0.24,0.82.54,1.89,0.88,3.15A35.19,35.19,0,0,0,232.34,145.9Z"/><path class="cls-2" d="M242.9,182.25c-2.16-4.57-8.57-14.39-10.56-36.35a35.19,35.19,0,0,1-18.55,4.42c2.48,9.13,7.13,23.27,5.67,36.14C227.66,188.52,235.79,185.89,242.9,182.25Z"/><path class="cls-5" d="M219.46,186.46c-0.1.9-.23,1.76-0.39,2.59,1.41,1.31,19.12.7,24.55-5.33,0,0-.27-0.5-0.72-1.46C235.79,185.89,227.66,188.52,219.46,186.46Z"/><path class="cls-2" d="M263.41,50.89c-15.38-6.3-26.38-19.79-32-35.8C213.31,25.16,189.67,32,169.61,27.15c-7,17.41-6.74,39.82-4,56.79a113.73,113.73,0,0,0,14,37.41c23.75-10.88,51.61-11,76.84-3.77C266.72,98.31,268.78,73.06,263.41,50.89Z"/><path class="cls-6" d="M245.56,70.65a33.4,33.4,0,0,0-2.88-15.76c-13.08.76-26,2.75-37.31,9.14A43,43,0,0,0,208.3,77.2C221,77.42,233.59,74.86,245.56,70.65Z"/><path class="cls-7" d="M208.3,77.2c0.23,0.54.48,1.08,0.75,1.61,0,0,14.94.3,36.38-7.09,0,0,.07-0.38.12-1.06C233.59,74.86,221,77.42,208.3,77.2Z"/><path class="cls-8" d="M241.81,53c-26,2.62-36.53,9.46-36.53,9.46s0,0.57.08,1.53c11.33-6.39,24.23-8.38,37.31-9.14Q242.28,54,241.81,53Z"/><path class="cls-8" d="M186.19,70.55c-0.49-1.33-.88-2.12-0.88-2.12-21.1.36-27,5.61-27,5.61s-0.07.86,0,2.22C166,70.92,176.92,68.89,186.19,70.55Z"/><path class="cls-6" d="M188.22,82.29a32,32,0,0,0-2-11.74c-9.27-1.66-20.23.37-27.94,5.72,0.06,2.84.59,7.9,3.17,12.1C170.87,89.44,179.9,86.92,188.22,82.29Z"/><path class="cls-7" d="M161.43,88.37a15.55,15.55,0,0,0,1.11,1.58S173.17,90.88,188.1,84c0.06-.58.1-1.16,0.12-1.73C179.9,86.92,170.87,89.44,161.43,88.37Z"/><path d="M360.45,379.64c-6.44-3.76-13.36-16.1-19.06-9.46q-0.85,1.68-1.81,3.3a67,67,0,0,1-6,8.49,69,69,0,0,1-6.78,7.17c1,0.6,2.14,1.26,3.29,2A39.58,39.58,0,0,1,344.45,407c4.55-4.35,8.17-9.77,11.64-14.93,2-3,4.22-5.92,6-9C362.08,381.51,361.62,380.22,360.45,379.64Z"/><path class="cls-1" d="M361.39,378.06c-3.28-1.54-6-4.28-8.47-6.85-1.27-1.31-2.45-2.72-3.78-4-1-1-3-2.86-4.56-2.58-1.31.23-1.57,2.09-2,3.12-0.36.81-.75,1.6-1.15,2.39,5.7-6.64,12.62,5.71,19.06,9.46,1.17,0.58,1.62,1.87,1.65,3.39l0.17-.28C363.48,380.62,363.75,379.16,361.39,378.06Z"/><path class="cls-2" d="M145.16,263.32a35.31,35.31,0,0,0-3.15-2.67c-2.24-1.88-4.54-3.69-6.86-5.47-1.5-1.16-2.82-2-4.72-1.16-2.88,1.32-4.58,4.63-6.55,7a131.56,131.56,0,0,1-12.67,12.5,22,22,0,0,0-4.16,4.24c-0.06.16-.13,0.33-0.18,0.49-0.6,9.06,11.47,12.08,16.91,9.06C133.18,283.14,140.86,273.31,145.16,263.32Z"/><path class="cls-2" d="M126.79,300.54c3,3.62,7.25,5.43,11.47,4.23,11.47-4.83,17.51-15.09,23.55-25.36a11.83,11.83,0,0,0,1.53-3.66,22.87,22.87,0,0,0-5.26-5.67,23.09,23.09,0,0,0-4.74-3.25,20,20,0,0,0-12.06,5.94c-5.43,7.25-11.47,12.68-15.7,19.92-0.13.18-.24,0.36-0.35,0.54A10.14,10.14,0,0,0,126.79,300.54Z"/><path class="cls-5" d="M150.94,315c-5.43-1.21-6.64-7.85-4.23-12.08,3.62-6,9.06-10.87,13.89-16.3,1.58-1.58,4.08-5,7.49-4.64a5.55,5.55,0,0,0-4-1.22,6.36,6.36,0,0,0-.7-5,11.83,11.83,0,0,1-1.53,3.66c-6,10.26-12.08,20.53-23.55,25.36-4.23,1.21-8.45-.6-11.47-4.23a10.14,10.14,0,0,1-1.56-7.31,10,10,0,0,0-1,2.36,13.29,13.29,0,0,0,4.62,9c3.33,2.83,8.92,4.33,12.77,1.69,1.08,4.26,4.93,8.7,9.33,9.75a5.5,5.5,0,0,0,4.2-.92A13.27,13.27,0,0,1,150.94,315Z"/><path class="cls-2" d="M175.92,290.28c-0.57-2.09-3.17-4.22-4.67-5.62a26.85,26.85,0,0,0-3.16-2.65c-3.41-.35-5.91,3.06-7.49,4.64-4.83,5.43-10.26,10.26-13.89,16.3-2.42,4.23-1.21,10.87,4.23,12.08a13.27,13.27,0,0,0,4.19.09c2.38-1.47,4.52-4.15,6.15-5.76a158.61,158.61,0,0,0,12.24-13.55C174.8,294.21,176.53,292.47,175.92,290.28Z"/><path class="cls-2" d="M135.85,252.84c4.83,1.81,7.85,7.25,12.68,10.26a7.27,7.27,0,0,0,4.64,1.28,13.32,13.32,0,0,0,2.23-3.14c2.82-5.23-3.92-7.25-12-9.86s-9.06-8.45-11.57-7.85c-4.59,1.31-8.53,5-10.73,7.5C124.77,254.61,131.19,251.29,135.85,252.84Z"/><path class="cls-9" d="M55.55,274.58c22.34-19.32,38.64-41.06,58.57-62.19,11.62-11.62,10-26.74,4.59-40.37-14.64-13.55-23.31-18.8-23.31-18.8A108.4,108.4,0,0,0,77,154.43S26.56,214.7.46,259.6c0,0.16.09,0.32,0.14,0.49C12.68,278.81,38,289.67,55.55,274.58Z"/><path class="cls-1" d="M127.55,180.54q-4.72-4.72-8.84-8.52c5.44,13.63,7,28.75-4.59,40.37-19.92,21.13-36.23,42.87-58.57,62.19C38,289.67,12.68,278.81.6,260.09c-0.05-.16-0.1-0.32-0.14-0.49L0,260.39s0.08,4.53.68,12.68c0,0,22.26,21.26,39.92,28.68,9.81-3.47,13-4.68,13-4.68,35.92-57.81,75.77-98,75.77-98A110,110,0,0,0,127.55,180.54Z"/><path class="cls-10" d="M98.42,257.07c4.23,4.23,9.66,7.85,16.3,6.64,4.66-1.55,8-4.89,10.75-8.48L123.95,254l-21.49-17.27-1.76-1.42C93.73,241,90.76,250.37,98.42,257.07Z"/><path class="cls-11" d="M125.47,255.23c-2.76,3.59-6.09,6.92-10.75,8.48-6.64,1.21-12.08-2.42-16.3-6.64-7.66-6.7-4.69-16,2.28-21.74l-1.86-1.5c-4.13,5.09-8.52,10.65-13.08,16.65L87.59,252l22.6,18.16,2.5,2A119.47,119.47,0,0,0,123.88,261c1.11-1.31,2.14-2.93,3.34-4.34Z"/><path class="cls-10" d="M37.43,200.92c4.19-2.39,6-6,7.8-10.16L36.79,184c-6.77,5.95-9.92,11.33-11.32,14.44C27.43,202.64,33,203.37,37.43,200.92Z"/><path class="cls-11" d="M45.74,191.16l-0.5-.4c-1.8,4.18-3.61,7.76-7.8,10.16-4.41,2.45-10,1.72-12-2.51a16.26,16.26,0,0,0-1,2.81l8.1,6.51,1.73,1.39c4.32-5.89,8.61-11.59,12.7-17Z"/><path class="cls-10" d="M238.85,40.82c-4.16-7.33-12-12.42-20.79-9-6.89,2.67-10.65,9.92-12.42,17.17C212.86,38.45,227.22,35.82,238.85,40.82Z"/><path class="cls-11" d="M205.64,49a46.25,46.25,0,0,0-1.14,7c1.86-6.44,6.33-13,12.9-15.21,7-2.34,18.1-.61,23.52,4.79a24.6,24.6,0,0,0-2.08-4.76C227.22,35.82,212.86,38.45,205.64,49Z"/><path class="cls-10" d="M182.57,57.16c-3.14-5.69-9.23-9.47-16.08-7.07C161.1,52,158.34,57.48,157.2,63,162.69,55.22,173.48,53.38,182.57,57.16Z"/><path class="cls-11" d="M157.2,63a32.22,32.22,0,0,0-.63,5,21.89,21.89,0,0,1,6.52-9c6.8-5.32,14.94-2.46,21.16,2.38a18.36,18.36,0,0,0-1.68-4.19C173.48,53.38,162.69,55.22,157.2,63Z"/><path class="cls-5" d="M348.37,366.53l0.77,0.71c1.33,1.25,2.51,2.66,3.78,4a44.25,44.25,0,0,0,5.66,5.17c0.47-.91.92-1.81,1.36-2.71-4-2.22-7.37-5.91-10.69-8.94C349,365.35,348.66,366,348.37,366.53Z"/><path class="cls-2" d="M358.44,333.55c-2.4,14.5-6,24.58-9.18,31.18,3.32,3,6.68,6.72,10.69,8.94,22.18-45,16.61-82.37,12.17-98.86a61.39,61.39,0,0,0-19.79,6.89C356.31,292.85,361.82,313.15,358.44,333.55Z"/><path class="cls-5" d="M351.26,278.83c0.34,0.87.69,1.83,1.07,2.87a61.39,61.39,0,0,1,19.79-6.89c-0.2-.73-0.39-1.42-0.58-2.07A134.16,134.16,0,0,0,351.26,278.83Z"/><path class="cls-5" d="M154,248.62c-2.9-3.23-6.49-5.76-9.94-8.44l-0.81,1.22c-1.26,1.91-2.75,4.2-4.35,6.72l-0.46.73a17.45,17.45,0,0,0,5,2.54c8.05,2.62,14.79,4.63,12,9.86a13.32,13.32,0,0,1-2.23,3.14,7.27,7.27,0,0,1-4.64-1.28c-4.83-3-7.85-8.45-12.68-10.26-4.66-1.55-11.08,1.76-14.73-1.81l-0.36.41,3.19,2.56,3.27,2.63-0.08.1a9.79,9.79,0,0,1,3.29-2.72c1.9-.87,3.22,0,4.72,1.16,2.32,1.78,4.63,3.58,6.86,5.47a35.16,35.16,0,0,1,3.14,2.67c-4.3,10-12,19.82-21.39,23.93-5.43,3-17.51,0-16.91-9.06,0.05-.16.12-0.33,0.18-0.49a5.47,5.47,0,0,0-.47,5c1.42,4,5.48,7.14,9.41,8.49,2.59,0.89,6.93,1.66,9.08-.65a10.51,10.51,0,0,0-.84,5,9.53,9.53,0,0,1,1.37-2.9c4.23-7.25,10.26-12.68,15.7-19.92a20,20,0,0,1,12-5.94l0.42,0.2c1.83-4.6,3.51-8.56,4.93-11.75l0.23-.52,0.25-.56A63.49,63.49,0,0,0,154,248.62Z"/><path class="cls-3" d="M218.62,125.1c-4.05-7.87-16.62-3.91-22.75.89C203.33,123.27,211.57,120.2,218.62,125.1Z"/><path class="cls-5" d="M185.5,95.34c9.57-4.54,12.62-14.43,11.15-24.15,0.16,6.22-1.21,17.28-12,22.32-0.59.28-1.21,0.54-1.86,0.78,0,0,.48,14.39,16.18,10.18C192.31,105.48,186.22,101.15,185.5,95.34Z"/><path class="cls-10" d="M279.55,403.18c3.62,3.62,10.87,7.25,17.51,4.83,4.58-1.25,5.72-6,5.18-10.73L294.48,391h0L178.21,297.61l-0.15-.12c-3.68,2.48-5.76,7.12-4.17,11.5,4.83,12.68,15.09,21.74,26,30.79,2.42,1.81,5.43,3,7.85,5.43,2.43,2,4.86,4,7.09,6.13C237.26,367.25,260.59,382.06,279.55,403.18Z"/><path class="cls-11" d="M304.23,398.88l-2-1.6c0.53,4.78-.6,9.48-5.18,10.73-6.64,2.42-13.89-1.21-17.51-4.83-19-21.12-42.29-35.93-64.76-51.83h0c-2.22-2.14-4.65-4.14-7.09-6.13-2.42-2.42-5.43-3.62-7.85-5.43-10.87-9.06-21.13-18.11-26-30.79-1.59-4.38.49-9,4.17-11.5l-3.57-2.87c-0.32.41-.66,0.8-1,1.19a158.61,158.61,0,0,1-12.24,13.55c-0.31.31-.64,0.65-1,1l2.15,1.72,58.75,47.21,62.36,50.11h0l8.51,6.84,2,1.64c4.53-3.81,9.78-9.54,12.52-17.1Z"/><path class="cls-5" d="M277.08,51.39c-2-3.9-5.11-6.09-7.21-5.28-6.09,2.15-10.13,7.26-11.9,9.92C263.89,50,271.89,46.15,277.08,51.39Z"/><path class="cls-12" d="M258.64,55.06c0.23-.32.49-0.66,0.76-1l-15.65.3c-0.27-.61-0.55-1.23-0.87-1.85a1.21,1.21,0,0,0-1.08-.67h-0.12c-26,2.62-36.62,9.36-37.06,9.65a1.21,1.21,0,0,0-.55,1c0,0.12,0,1,.14,2.37C193.6,64,188.67,67.33,186.9,69c-0.27-.66-0.47-1.06-0.5-1.12a1.21,1.21,0,0,0-1.08-.67h0c-21.3.36-27.54,5.69-27.8,5.92a1.21,1.21,0,0,0-.4.8c0,0.41-.81,10.14,4.5,16.76a1.21,1.21,0,0,0,.84.45s0.55,0,1.51,0c3.44,0,12.73-.59,24.67-6.09a1.21,1.21,0,0,0,.7-1,31.81,31.81,0,0,0-1.87-13.74c1.4-1.76,5.49-4.85,16.89-4.39A39.3,39.3,0,0,0,208,79.36a1.21,1.21,0,0,0,1,.65h0.28c2.63,0,16.76-.35,36.52-7.16a1.21,1.21,0,0,0,.79-0.93c0.06-.32,1.19-7-2.11-15.71ZM188.1,84c-11.74,5.4-20.81,6-24.17,6-0.91,0-1.4,0-1.4,0C157.46,83.63,158.3,74,158.3,74s5.92-5.25,27-5.61A31.83,31.83,0,0,1,188.1,84Zm57.33-12.3c-19.82,6.84-34.09,7.1-36.13,7.1h-0.25c-3.62-6.94-3.77-16.3-3.77-16.3s10.57-6.84,36.53-9.46C246.94,63.28,245.43,71.71,245.43,71.71Z"/><path class="cls-5" d="M259.56,78.51c-1,3,.58,7,4.5,6.17a11.87,11.87,0,0,0,5.49-3.07C265.22,83.53,260.35,83.11,259.56,78.51Z"/><path class="cls-2" d="M277.08,51.39C271.89,46.15,263.89,50,258,56c-0.67,1-1,1.67-1,1.67l3,20a5.29,5.29,0,0,0-.35.8c0.8,4.6,5.66,5,10,3.1,2.91-2.68,5.91-7.26,8.46-14.55A19.76,19.76,0,0,0,277.08,51.39Z"/><path class="cls-1" d="M253,174.35c-2.76.77-7,3.21-11.2,5.68h0l0.36,0.71,0.12,0.24,0.15,0.29,0.16,0.32,0.09,0.19,0.23,0.47c0.45,1,.72,1.46.72,1.46-0.15.17-.32,0.33-0.49,0.5l-0.16.14-0.41.35-0.17.13a12.72,12.72,0,0,1-1.26.85l-0.2.12-0.52.29-0.21.11c-0.49.25-1,.48-1.52,0.7l-0.24.1-0.6.23-0.24.09c-0.55.2-1.12,0.38-1.7,0.55l-0.26.08-0.65.18-0.26.07-0.89.22c-0.66.15-1.33,0.29-2,.41l-1,.17c-0.67.11-1.33,0.2-2,.28l-1,.11c-0.64.06-1.26,0.12-1.86,0.16l-0.88,0c-0.58,0-1.13,0-1.65,0h-0.75c-0.49,0-.94,0-1.34-0.06l-0.58-.05a9.07,9.07,0,0,1-.94-0.15l-0.32-.08-0.08,0-0.18-.07-0.06,0a0.75,0.75,0,0,1-.16-0.11c0.16-.83.29-1.69,0.39-2.59,0-.3.06-0.59,0.09-0.89l-0.38,0c-11.17-5.13-26.69-2.08-44,11.47-2.51,2-5,4.09-7.46,6.3,11.92-6.66,23.94-16.15,37.55-14.45,12.08,1.21,27.17,6.64,36.23-1.21,18.87-15.64,44-14.41,64.2-4.95C282.08,168.2,259.35,172.57,253,174.35Z"/><path class="cls-2" d="M297.82,388.15c0,0.08,0,.15,0,0.23s0,0.2,0,.29,0,0.15,0,.23,0,0.19,0,.29l0,0.23,0.06,0.28,0.06,0.23,0.08,0.27,0.07,0.22,0.1,0.27,0.08,0.22,0.11,0.27,0.09,0.21,0.13,0.27,0.1,0.2,0.15,0.27,0.11,0.19,0.19,0.3,0.1,0.15,0.3,0.44,0.12,0.16,0.21,0.28,0.16,0.19,0.19,0.24,0.18,0.2,0.2,0.23,0.19,0.21,0.2,0.21,0.2,0.21,0.2,0.21,0.22,0.21,0.2,0.2,0.23,0.21,0.2,0.19,0.24,0.22,0.2,0.18,0.25,0.22,0.2,0.17,0.27,0.22,0.2,0.16,0.28,0.23,0.18,0.14,0.31,0.24,0.12,0.09c0.75,0.58,1.53,1.13,2.32,1.68h0a31,31,0,0,0,1.44-7.41c1.94,20-12.48,27.69-19.16,30.18h58.6a47.5,47.5,0,0,0,0-6,40.56,40.56,0,0,0-17.79-25.34c-12.88-8.05-18.72-8.35-23.75-12.38-2.11-1.81-3.72,1.31-6.44,4.73-0.43.54-1.08,1.43-1.86,2.52,0,0.19-.08.37-0.11,0.56s0,0.12,0,.19,0,0.24,0,.36,0,0.14,0,.22,0,0.21,0,.32,0,0.15,0,.23S297.81,388.05,297.82,388.15Z"/><path class="cls-2" d="M287.75,422.49a52.12,52.12,0,0,0,5.09-3.57,3.87,3.87,0,0,0-1-1l-0.27-.24c-1.81-.6-4.23-1.81-6.64-1.21a11.85,11.85,0,0,0-5.43,5.43,5.25,5.25,0,0,0-.09.59h8.3Z"/><path class="cls-5" d="M347.87,422.49h0.77c-0.06-1.24-.19-2.48-0.36-3.71-0.1-.71-0.24-1.49-0.43-2.34A47.5,47.5,0,0,1,347.87,422.49Z"/><path class="cls-5" d="M279.45,422.49a5.25,5.25,0,0,1,.09-0.59,11.85,11.85,0,0,1,5.43-5.43c2.42-.6,4.83.6,6.64,1.21a6.08,6.08,0,0,1,1.22,1.25,52.12,52.12,0,0,1-5.09,3.57h1.51c6.68-2.49,21.1-10.21,19.16-30.18a31,31,0,0,1-1.44,7.41c-5.27-3.64-10.27-8-9-13.74-1,1.42-2.24,3.19-3.53,5.07h0l9.75,7.84,2.38,1.92h0c-0.17.46-.34,0.91-0.53,1.35l0,0.11q-0.28.66-.58,1.3a41.14,41.14,0,0,1-8.71,11.93q-0.56.55-1.12,1.06l-0.37.33-1.07.93-0.1.08-2-1.64-8.51-6.84a72.73,72.73,0,0,1-4.8,9.06,12,12,0,0,0-1.72,4h2.43Z"/></svg>