<svg id="Layer_1" data-name="Layer 1" xmlns="http://www.w3.org/2000/svg" viewBox="0 0 212 58.24"><title>feature-image</title><path d="M29,17.79l0.52,5.31L10.33,34.34a2,2,0,0,0,.34,3.61l21,7.54,0.53,5.39L2.76,40.38,2.11,33.84,29,17.79m1.68-3.33L0,32.78l0.89,9.06,33.64,12-1-9.79-22.23-8L31.62,24.18l-1-9.73h0Z"/><path d="M59,12.27a27.38,27.38,0,0,1,6.28.75,23.75,23.75,0,0,1,6.3,2.44L69,20.1a22.33,22.33,0,0,0-10.36-2.69c-0.65,0-1.31,0-2,.1a8.2,8.2,0,0,0-5.17,2.2,6,6,0,0,0-1.74,5A5.66,5.66,0,0,0,53,29.31c1,0.5,3,1.28,9.32,2.19A22,22,0,0,1,72.09,35c2.18,1.59,3.41,4.1,3.76,7.68a10.55,10.55,0,0,1-3.1,8.95c-2.51,2.53-6.09,4-10.67,4.5-0.88.09-1.76,0.13-2.63,0.13a26.54,26.54,0,0,1-15-4.83l3.22-4.85c4.56,3,8.82,4.46,12.67,4.46,0.49,0,1,0,1.45-.07a9.24,9.24,0,0,0,5.5-2.18,6,6,0,0,0,1.93-5.13,5.87,5.87,0,0,0-3-4.68c-1.48-.85-3.95-1.5-7.78-2.06-5.18-.7-9-1.89-11.46-3.51-2.19-1.47-3.44-4-3.81-7.82s0.64-6.69,3.1-9a17.27,17.27,0,0,1,10.3-4.22c0.82-.08,1.65-0.12,2.48-0.12m0-2q-1.34,0-2.67.13a19.12,19.12,0,0,0-11.46,4.74q-4.38,4-3.73,10.62T45.81,35q4,2.71,12.3,3.83,5.22,0.76,7.06,1.81a3.88,3.88,0,0,1,2,3.14,4,4,0,0,1-1.29,3.47A7.29,7.29,0,0,1,61.58,49Q61,49,60.33,49q-5.89,0-13.22-5.25L41.7,51.91a28.92,28.92,0,0,0,17.76,6.33q1.4,0,2.82-.14,7.61-.75,11.89-5.08a12.55,12.55,0,0,0,3.67-10.55q-0.61-6.22-4.57-9.1a23.79,23.79,0,0,0-10.7-3.86q-6.74-1-8.68-2a3.68,3.68,0,0,1-2.14-3,4,4,0,0,1,1.17-3.39,6.25,6.25,0,0,1,3.95-1.62q0.88-.09,1.76-0.09a21.13,21.13,0,0,1,11.12,3.43l4.48-8.06a24.94,24.94,0,0,0-8.51-3.7A29.24,29.24,0,0,0,59,10.27h0Z"/><path d="M120.35,7.17L107.53,51.1l-6,.6L80.33,11.11l6.89-.68,14.05,27.08A2,2,0,0,0,103,38.59h0.2A2,2,0,0,0,105,37.14l8.5-29.3,6.89-.68m2.75-2.28h0Zm0,0L111.92,6,103,36.59,88.37,8.31,77.19,9.41l23.15,44.41,8.73-.86,14-48.07h0Z"/><path d="M152.72,3A23.06,23.06,0,0,1,165.2,6.65l-2.66,4.78a19.71,19.71,0,0,0-4.85-2.24,17,17,0,0,0-4.62-.63c-0.61,0-1.25,0-1.88.09a15.6,15.6,0,0,0-10.87,5.69,16.26,16.26,0,0,0-3.45,12.42c0.48,4.89,2.37,8.74,5.61,11.44A14.56,14.56,0,0,0,152,41.78c0.51,0,1,0,1.56-.08a19.84,19.84,0,0,0,9.69-3.29,2,2,0,0,0,.83-1.82l-1.06-10.71,6.41-.63,1.34,13.64c-3.75,4.76-9.13,7.43-16.43,8.15-0.89.09-1.78,0.13-2.64,0.13a21.08,21.08,0,0,1-13.68-4.77,20.81,20.81,0,0,1-7.85-15A21,21,0,0,1,135.1,11a21.46,21.46,0,0,1,15-7.85C151,3.08,151.86,3,152.72,3m0-2q-1.39,0-2.83.14a23.57,23.57,0,0,0-16.32,8.55,23.13,23.13,0,0,0-5.36,17.86A22.91,22.91,0,0,0,136.8,44a23.21,23.21,0,0,0,14.93,5.21q1.39,0,2.84-.14,12.17-1.2,18.3-9.55l-1.62-16.41-10.39,1,1.25,12.7a17.81,17.81,0,0,1-8.73,2.93q-0.69.07-1.37,0.07a12.56,12.56,0,0,1-8.25-3.1q-4.26-3.55-4.9-10.1a14.27,14.27,0,0,1,3-10.95,13.61,13.61,0,0,1,9.53-5q0.85-.08,1.68-0.08a14.92,14.92,0,0,1,4.08.55,20.55,20.55,0,0,1,6.09,3.17L167.84,6a25.08,25.08,0,0,0-15.12-5h0Z"/><path d="M179.76,2.94l29.48,10.5L209.89,20,183,36l-0.53-5.39,19.16-11.5a2,2,0,0,0-.37-3.6l-21-7.28-0.52-5.31M177.46,0l1,9.73,22.2,7.7L180.38,29.57l1,9.79L212,21,211.11,12,177.46,0h0Z"/></svg>