<svg id="Layer_1" data-name="Layer 1" xmlns="http://www.w3.org/2000/svg" viewBox="0 0 19.8 19.9">
	<defs>
		<style>
			.cls-1 {
				fill: #f9855d;
			}
		</style>
	</defs>
	<title>github</title>
	<path
		class="cls-1"
		d="M10.1,0A10.1,10.1,0,0,0,0,10.3a10.1,10.1,0,0,0,7,9.6.5.5,0,0,0,.6-.2h0v-2c-2.8.6-3.4-1.4-3.4-1.4a2.6,2.6,0,0,0-1.1-1.4c-.9-.6.1-.6.1-.6a2.7,2.7,0,0,1,1.6,1,2.1,2.1,0,0,0,2.9.8h0a2.5,2.5,0,0,1,.6-1.4c-2.2-.3-4.7-1.1-4.7-5a4.8,4.8,0,0,1,1-2.8,3.6,3.6,0,0,1,.1-2.7s.8-.3,2.7,1a8.9,8.9,0,0,1,5.1,0c1.9-1.3,2.7-1,2.7-1a4.1,4.1,0,0,1,.1,2.7,3.5,3.5,0,0,1,1,2.8c0,3.8-2.4,4.9-4.7,5a2.6,2.6,0,0,1,.7,1.8v2.7a.5.5,0,0,0,.5.5H13A10.2,10.2,0,0,0,19.3,6.8h0A9.5,9.5,0,0,0,10.1,0Z"/>
</svg>
