<svg xmlns="http://www.w3.org/2000/svg" xmlns:xlink="http://www.w3.org/1999/xlink" viewBox="0 0 910.59 837.74"><defs><style>.cls-1,.cls-20,.cls-26{fill:none}.cls-2{isolation:isolate}.cls-3{fill:#b0d9f2}.cls-4{clip-path:url(#clip-path)}.cls-5{fill:#2f3c47}.cls-17,.cls-6{fill:#49535e}.cls-21,.cls-6,.cls-7{opacity:.5}.cls-21,.cls-7,.cls-8{mix-blend-mode:color-burn;animation-name:flicker;animation-duration:7.5s;animation-iteration-count:infinite;animation-timing-function:linear}.cls-7{fill:url(#linear-gradient)}.cls-8{opacity:.4}.cls-9{fill:#333}.cls-10{fill:#286fb5}.cls-11{fill:#ccb293}.cls-12{fill:#195484}.cls-13{fill:#f0dbbd}.cls-14{fill:#b28b60}.cls-15{fill:#ccab81}.cls-16{fill:#e4eef9}.cls-18{fill:#664c12}.cls-19{fill:#49310a}.cls-20{stroke:#000;stroke-miterlimit:10;stroke-width:.23px}.cls-21{fill:url(#linear-gradient-2)}.cls-22{fill:#777}.cls-23{fill:#666}.cls-24{fill:#555}.cls-25{fill:#444}.cls-26{stroke:#49310a;stroke-linecap:round;stroke-linejoin:round;stroke-width:2px}.cls-27{mix-blend-mode:multiply;fill:url(#linear-gradient-3)}@keyframes flicker{0%,11%,19%,20%,24%,28%,4%,40%,44%,46%,56%,60%,68%,72%,93%,97%,to{opacity:.5}10%,38%,6%{opacity:.4}14%,17%,8%{opacity:.6}12%{opacity:.7}16%{opacity:.75}26%{opacity:.74}42%,70%,95%{opacity:.65}58%{opacity:.8}}</style><clipPath id="clip-path" transform="translate(21 25.5)"><circle class="cls-1" cx="406.1" cy="406.1" r="374.9"/></clipPath><linearGradient id="linear-gradient" x1="529.9" y1="-15.3" x2="404.9" y2="618.7" gradientUnits="userSpaceOnUse"><stop offset=".3" stop-color="#e4eef9"/><stop offset="1" stop-color="#49535e"/></linearGradient><linearGradient id="linear-gradient-2" x1="635.6" y1="110.9" x2="357.6" y2="1034.9" xlink:href="#linear-gradient"/><linearGradient id="linear-gradient-3" x1="380.7" y1="439.4" x2="257.4" y2="767.5" xlink:href="#linear-gradient"/></defs><title>test</title><g class="cls-2"><g id="Vector"><path class="cls-3" d="M406.1 0a406.1 406.1 0 1 0 0 812.3 406.1 406.1 0 0 0 0-812.3zm0 781a374.9 374.9 0 1 1 0-749.8 374.9 374.9 0 0 1 0 749.8z" transform="translate(21 25.5)"/><g class="cls-4"><path class="cls-5" d="M40.5 42.9h817.4v701.8H40.5z"/><path class="cls-6" d="M837 26.2a.5.5 0 0 0 .5-.5v-8.3a.5.5 0 0 0-.5-.5h-8.3a.5.5 0 0 0-.5.5v8.1l-47.7 47.7a25 25 0 0 0 3.1-12.7 21.9 21.9 0 0 0-8.3-16.5.5.5 0 0 0-.6 0 21.9 21.9 0 0 0-8.2 16.5 25 25 0 0 0 3 12.7L722 25.5v-8.1a.5.5 0 0 0-.5-.5h-8.3a.5.5 0 0 0-.5.5v8.1L665 73.2a25 25 0 0 0 3.1-12.7 21.9 21.9 0 0 0-8.3-16.5.5.5 0 0 0-.6 0 21.9 21.9 0 0 0-8.3 16.5 25 25 0 0 0 3.2 12.7l-47.7-47.7v-8.1a.5.5 0 0 0-.5-.5h-8.3a.5.5 0 0 0-.5.5v8.1l-47.7 47.7a25 25 0 0 0 3.1-12.7 21.9 21.9 0 0 0-8.2-16.5.5.5 0 0 0-.7 0 21.9 21.9 0 0 0-8.2 16.5 25 25 0 0 0 3.1 12.7l-47.7-47.7v-8.1a.5.5 0 0 0-.5-.5H482a.5.5 0 0 0-.5.5v8.1l-47.7 47.7a25 25 0 0 0 3.2-12.7 21.9 21.9 0 0 0-8.3-16.5.5.5 0 0 0-.6 0 21.9 21.9 0 0 0-8.3 16.5 25 25 0 0 0 3.1 12.7l-47.6-47.7v-8.1a.5.5 0 0 0-.5-.5h-8.4a.5.5 0 0 0-.5.5v8.1l-47.7 47.7a25 25 0 0 0 3.2-12.7 21.9 21.9 0 0 0-8.3-16.6.5.5 0 0 0-.6 0 21.9 21.9 0 0 0-8.3 16.6 25 25 0 0 0 3.1 12.7l-47.6-47.7v-8.1a.5.5 0 0 0-.5-.5h-8.3a.5.5 0 0 0-.5.5v8.1l-47.7 47.7a25 25 0 0 0 3-12.7 21.9 21.9 0 0 0-8.2-16.5.5.5 0 0 0-.6 0 21.9 21.9 0 0 0-8.3 16.5 25 25 0 0 0 3.2 12.7L144 25.5v-8.1a.5.5 0 0 0-.5-.5h-8.3a.5.5 0 0 0-.5.5v8.1L87 73.2a25 25 0 0 0 3.1-12.7A21.9 21.9 0 0 0 82 44a.5.5 0 0 0-.7 0A21.9 21.9 0 0 0 73 60.5a25 25 0 0 0 3.1 12.7L28.4 25.5v-8.1a.5.5 0 0 0-.5-.5h-8.3a.5.5 0 0 0-.5.5v8.3a.5.5 0 0 0 .5.5h8.1L74.5 73a22 22 0 0 0-9.1-2.2A25.4 25.4 0 0 0 46.2 79a.5.5 0 0 0 0 .7 25.5 25.5 0 0 0 18.5 8.2h.7a22 22 0 0 0 9.1-2.3l-46.8 46.9h-8.1a.5.5 0 0 0-.5.5v8.3a.5.5 0 0 0 .5.5h8.1l46.8 46.8a22 22 0 0 0-9.1-2.2 25.4 25.4 0 0 0-19.2 8.2.5.5 0 0 0 0 .7 25.5 25.5 0 0 0 18.5 8.2h.7a22 22 0 0 0 9.1-2.3l-46.8 46.9h-8.1a.5.5 0 0 0-.5.5v8.3a.5.5 0 0 0 .5.5h8.1l46.8 46.8a22 22 0 0 0-9.1-2.3 25.4 25.4 0 0 0-19.2 8.3.5.5 0 0 0 0 .7 25.5 25.5 0 0 0 18.5 8.2h.7a22 22 0 0 0 9.1-2.3l-46.8 46.8h-8.1a.5.5 0 0 0-.5.5v8.4a.5.5 0 0 0 .5.5h8.1l46.8 46.8a22 22 0 0 0-9.1-2.3 25.4 25.4 0 0 0-19.2 8.3.5.5 0 0 0 0 .6 25.5 25.5 0 0 0 18.5 8.3h.7a22 22 0 0 0 9.1-2.3l-46.8 46.8h-8.1a.5.5 0 0 0-.5.5v8.3a.5.5 0 0 0 .5.5h8.1l46.8 46.8a22 22 0 0 0-9.1-2.2 25.4 25.4 0 0 0-19.2 8.2.5.5 0 0 0 0 .7 25.5 25.5 0 0 0 18.5 8.2h.7a22 22 0 0 0 9.1-2.2l-46.8 46.8h-8.1a.5.5 0 0 0-.5.5v8.3a.5.5 0 0 0 .5.5h8.1L74.5 651a22 22 0 0 0-9.1-2.3 25.4 25.4 0 0 0-19.2 8.2.5.5 0 0 0 0 .7 25.5 25.5 0 0 0 18.5 8.3h.7a22 22 0 0 0 9.1-2.3l-46.8 46.8h-8.1a.5.5 0 0 0-.5.5v8.3a.5.5 0 0 0 .5.5h8.3a.5.5 0 0 0 .5-.5v-8.1l46.9-46.8a22 22 0 0 0-2.3 9.1 25.4 25.4 0 0 0 8.2 19.2.5.5 0 0 0 .7 0 25.4 25.4 0 0 0 8.2-19.2 22 22 0 0 0-2.2-9.1l46.8 46.8v8.1a.5.5 0 0 0 .5.5h8.3a.5.5 0 0 0 .5-.5v-8.1l46.9-46.8a22 22 0 0 0-2.3 9.1 25.4 25.4 0 0 0 8.2 19.2.5.5 0 0 0 .7 0 25.4 25.4 0 0 0 8.2-19.2 22 22 0 0 0-2.3-9.1l46.9 46.8v8.1a.5.5 0 0 0 .5.5h8.3a.5.5 0 0 0 .5-.5v-8.1l46.8-46.8a22 22 0 0 0-2.2 9.1 25.4 25.4 0 0 0 8.2 19.2.5.5 0 0 0 .7 0 25.4 25.4 0 0 0 8.2-19.2 22 22 0 0 0-2.3-9.1l47 46.7v8.1a.5.5 0 0 0 .5.5h8.3a.5.5 0 0 0 .5-.5V711l46.8-46.8a22 22 0 0 0-2.3 9.1 25.4 25.4 0 0 0 8.3 19.2.5.5 0 0 0 .7 0 25.4 25.4 0 0 0 8.2-19.2 22 22 0 0 0-2.3-9.1l46.9 46.8v8.1a.5.5 0 0 0 .5.5h8.3a.5.5 0 0 0 .5-.5V711l46.8-46.8a22 22 0 0 0-2.3 9.1 25.4 25.4 0 0 0 8.3 19.2.5.5 0 0 0 .7 0 25.4 25.4 0 0 0 8.2-19.2 22 22 0 0 0-2.3-9.1L597 711v8.1a.5.5 0 0 0 .5.5h8.3a.5.5 0 0 0 .5-.5V711l46.9-46.8a22 22 0 0 0-2.3 9.1 25.4 25.4 0 0 0 8.2 19.2.5.5 0 0 0 .7 0 25.4 25.4 0 0 0 8.2-19.2 22 22 0 0 0-2.3-9.1l46.9 46.8v8.1a.5.5 0 0 0 .5.5h8.3a.5.5 0 0 0 .5-.5V711l46.8-46.8a22 22 0 0 0-2.3 9.1 25.4 25.4 0 0 0 8.3 19.2.5.5 0 0 0 .7 0 25.4 25.4 0 0 0 8.2-19.2 22 22 0 0 0-2.3-9.1l46.8 46.8v8.1a.5.5 0 0 0 .5.5h8.4a.5.5 0 0 0 .5-.5V711a.5.5 0 0 0-.5-.5h-8.1l-47.7-47.7a25 25 0 0 0 12 3.1h.7a21.9 21.9 0 0 0 16.5-8.2.5.5 0 0 0 0-.6 21.9 21.9 0 0 0-16.5-8.3 24.8 24.8 0 0 0-12.7 3.1l47.7-47.7h8.1a.5.5 0 0 0 .5-.5v-8.3a.5.5 0 0 0-.5-.5h-8.1l-47.7-47.7a25 25 0 0 0 12 3.2h.7a21.9 21.9 0 0 0 16.5-8.3.5.5 0 0 0 0-.6A21.9 21.9 0 0 0 794 533a24.8 24.8 0 0 0-12.7 3.1l47.7-47.7h8.1a.5.5 0 0 0 .5-.4v-8.4a.5.5 0 0 0-.5-.5H829l-47.7-47.7a25 25 0 0 0 12 3.2h.7a21.9 21.9 0 0 0 16.5-8.3.5.5 0 0 0 0-.6 21.9 21.9 0 0 0-16.5-8.3 24.7 24.7 0 0 0-12.7 3.2l47.7-47.7h8.1a.5.5 0 0 0 .5-.5v-8.3a.5.5 0 0 0-.5-.5H829L781.2 316a25 25 0 0 0 12 3.1h.7a21.9 21.9 0 0 0 16.5-8.2.5.5 0 0 0 0-.7A21.9 21.9 0 0 0 794 302a25 25 0 0 0-12.7 3.1l47.7-47.7h8.1a.5.5 0 0 0 .5-.5v-8.3a.5.5 0 0 0-.5-.5H829l-47.7-47.7a25 25 0 0 0 12 3.2h.7a21.9 21.9 0 0 0 16.5-8.3.5.5 0 0 0 0-.6 21.9 21.9 0 0 0-16.5-8.3 25 25 0 0 0-12.7 3.1l47.7-47.7h8.1a.5.5 0 0 0 .5-.5V133a.5.5 0 0 0-.5-.5H829l-47.7-47.7a25 25 0 0 0 12 3.1h.7a21.9 21.9 0 0 0 16.5-8.2.5.5 0 0 0 0-.6 21.9 21.9 0 0 0-16.5-8.3 25 25 0 0 0-12.7 3.1L829 26.2zm-7.8-8.3h7.3v7.3h-7.3zM27.4 25.2h-7.3V18h7.3zm0 115.6h-7.3v-7.3h7.3zm0 115.6h-7.3V249h7.3zm0 115.6h-7.3v-7.4h7.3zm0 115.5h-7.3v-7.3h7.3zm0 115.6h-7.3v-7.3h7.3zm0 115.6h-7.3v-7.3h7.3zm801.8-7.3h7.3v7.3h-7.3zm0-115.6h7.3v7.3h-7.3zm0-115.6h7.3v7.3h-7.3zm0-115.6h7.3v7.4h-7.3zm0-115.6h7.3v7.4h-7.3zm0-115.5h7.3v7.3h-7.3zm-61.7-73A20.9 20.9 0 0 1 775 45a20.9 20.9 0 0 1 7.6 15.5 24.1 24.1 0 0 1-4.2 14.2h-6.8a24.1 24.1 0 0 1-4.1-14.2zm6.8 18.8a22.8 22.8 0 0 0-3 3v-6l1 1a25.2 25.2 0 0 0 2 2zm-1.9-3.7h5.3a24.5 24.5 0 0 1-1.6 2l-1 1a23 23 0 0 0-2-2.2 3 3 0 0 1-.7-.7zm2.7 4.4a25.2 25.2 0 0 0 2.1 2l.8 1h-5.9a22.8 22.8 0 0 0 3-3zm2.8 1.3a23 23 0 0 0-2.1-2l1-1a24.4 24.4 0 0 1 2-1.6V82l-.9-.6zm-7.5-5.7V83a20.8 20.8 0 0 1-11.5 3.9 24.3 24.3 0 0 1-18.2-7.6 24.5 24.5 0 0 1 18.2-7.6 20.8 20.8 0 0 1 11.5 4zm-56.8-57.7h7.3v7.3h-7.3zm-.3 8.3h8L768 73a22 22 0 0 0-9.2-2.2 25.4 25.4 0 0 0-19.1 8.2.5.5 0 0 0 0 .7 25.5 25.5 0 0 0 18.5 8.2h.7a22 22 0 0 0 9.1-2.3l-46.8 46.9h-7.9l-47.7-47.7a25 25 0 0 0 12 3.1h.7a21.9 21.9 0 0 0 16.6-8.2.5.5 0 0 0 0-.7 21.9 21.9 0 0 0-16.6-8.2 25 25 0 0 0-12.7 3.1zm61 168.7a22.8 22.8 0 0 0-3 3V192l1 .8a25.2 25.2 0 0 0 2 2.1zm-1.9-3.6h5.3a24.5 24.5 0 0 1-1.6 1.9l-1 1a23 23 0 0 0-2-2.1 8 8 0 0 1-.7-.8zm2.7 4.4a25.2 25.2 0 0 0 2 2q.5.4.9 1h-5.9a22.8 22.8 0 0 0 3-3zm2.8 1.2a23 23 0 0 0-2.1-2l1-1a24.4 24.4 0 0 1 2-1.6v5.3l-.9-.7zm.5-6.6h-6.7a24.1 24.1 0 0 1-4.2-14.2 20.9 20.9 0 0 1 7.5-15.5 20.9 20.9 0 0 1 7.6 15.5 24.1 24.1 0 0 1-4.2 14.2zm-19.5-4a25.4 25.4 0 0 0-19.2 8.3.5.5 0 0 0 0 .7 25.5 25.5 0 0 0 18.5 8.2h.7a22 22 0 0 0 9.1-2.3l-46.8 46.9h-7.9l-47.7-47.7a25 25 0 0 0 12 3.1h.7a21.9 21.9 0 0 0 16.6-8.2.5.5 0 0 0 0-.7 21.9 21.9 0 0 0-16.6-8.2 25 25 0 0 0-12.7 3l47.7-47.6h8l46.7 46.8a22 22 0 0 0-9.1-2.2zm11.5 4.9v7.4a20.8 20.8 0 0 1-11.5 3.9 24.3 24.3 0 0 1-18.2-7.6 24.4 24.4 0 0 1 18.2-7.5 20.8 20.8 0 0 1 11.5 3.8zm4 119.3a22.8 22.8 0 0 0-3 3v-6l1 1a25.2 25.2 0 0 0 1.9 2zm-2-3.7h5.3a24.5 24.5 0 0 1-1.6 2l-1 1a23 23 0 0 0-2-2.1l-.7-.8zm2.7 4.4a25.2 25.2 0 0 0 2.1 2l.8 1h-5.9a22.8 22.8 0 0 0 3-3zm2.8 1.3a23 23 0 0 0-2.1-2l1-1a24.5 24.5 0 0 1 2-1.6v5.3l-.9-.7zm.5-6.7h-6.7a24.1 24.1 0 0 1-4.2-14.1A20.9 20.9 0 0 1 775 276a20.9 20.9 0 0 1 7.6 15.6 24.1 24.1 0 0 1-4.2 14.2zM759 302a25.4 25.4 0 0 0-19.2 8.3.5.5 0 0 0 0 .6 25.5 25.5 0 0 0 18.5 8.3h.7a22 22 0 0 0 9.2-2.3l-46.9 46.8h-7.9L665.6 316a25 25 0 0 0 12 3.2h.7a21.9 21.9 0 0 0 16.6-8.3.5.5 0 0 0 0-.6 21.9 21.9 0 0 0-16.6-8.3 25 25 0 0 0-12.7 3.2l47.7-47.7h8l46.7 46.8a22 22 0 0 0-9.1-2.3zm11.5 4.9v7.4a20.8 20.8 0 0 1-11.5 3.9 24.3 24.3 0 0 1-18.2-7.6A24.4 24.4 0 0 1 759 303a20.8 20.8 0 0 1 11.5 3.9zm4 119.3a22.8 22.8 0 0 0-3 3v-6l1 .9a25.2 25.2 0 0 0 1.9 2zm-2-3.7h5.3a24.4 24.4 0 0 1-1.6 2l-1 1a23 23 0 0 0-2-2.2l-.7-.8zm2.7 4.4a25.2 25.2 0 0 0 2.1 2l.8 1h-5.9a22.8 22.8 0 0 0 3-3zm2.8 1.3a23 23 0 0 0-2-2l1-1a24.6 24.6 0 0 1 1.8-1.6v5.3l-.8-.7zm.5-6.7h-6.7a24.1 24.1 0 0 1-4.2-14.2 20.9 20.9 0 0 1 7.5-15.5 20.9 20.9 0 0 1 7.6 15.6 24.1 24.1 0 0 1-4.2 14.1zm-19.5-3.9a25.3 25.3 0 0 0-19.2 8.2.5.5 0 0 0 0 .7 25.5 25.5 0 0 0 18.5 8.2h.7a22 22 0 0 0 9.2-2.2l-46.9 46.8h-7.9l-47.7-47.7a25 25 0 0 0 12 3.2h.7a21.9 21.9 0 0 0 16.6-8.3.5.5 0 0 0 0-.6 21.9 21.9 0 0 0-16.6-8.3 24.7 24.7 0 0 0-12.7 3.2l47.7-47.7h8l46.7 46.8a22 22 0 0 0-9.1-2.3zm11.5 4.8v7.5a20.8 20.8 0 0 1-11.5 3.8 24.3 24.3 0 0 1-18.2-7.5 24.4 24.4 0 0 1 18.2-7.6 20.8 20.8 0 0 1 11.5 3.9zm4 119.3a22.8 22.8 0 0 0-3 3v-5.9l1 .9a25.2 25.2 0 0 0 1.9 2zm-2-3.6h5.3a24.4 24.4 0 0 1-1.6 2l-1 1a23 23 0 0 0-2-2.2l-.7-.8zm2.7 4.4a25.2 25.2 0 0 0 2 2l1 1h-6a22.8 22.8 0 0 0 3-3zm2.8 1.3a23 23 0 0 0-2.1-2l1-1a24.6 24.6 0 0 1 1.9-1.7v5.3l-.8-.6zm.5-6.7h-6.7a24.1 24.1 0 0 1-4.2-14.2 20.9 20.9 0 0 1 7.5-15.5 20.9 20.9 0 0 1 7.6 15.6 24.1 24.1 0 0 1-4.2 14.1zm-19.5-4a25.3 25.3 0 0 0-19.2 8.3.5.5 0 0 0 0 .7 25.5 25.5 0 0 0 18.5 8.2h.7a22 22 0 0 0 9.1-2.2l-46.8 46.8h-7.9l-47.7-47.7a25 25 0 0 0 12 3.2h.7A21.9 21.9 0 0 0 695 542a.5.5 0 0 0 0-.6 21.9 21.9 0 0 0-16.6-8.3 24.8 24.8 0 0 0-12.7 3.1l47.7-47.7h8l46.7 46.9a22 22 0 0 0-9.1-2.3zm11.5 5v7.4a20.8 20.8 0 0 1-11.5 3.8 24.3 24.3 0 0 1-18.2-7.5 24.4 24.4 0 0 1 18.1-7.6 20.8 20.8 0 0 1 11.6 3.9zM721 595.9v7.3h-7.3v-7.3zm-62.2 61.4a22.8 22.8 0 0 0-3 3v-5.9l1 .8a25.2 25.2 0 0 0 2 2.1zm-1.9-3.6h5.3a24.4 24.4 0 0 1-1.6 1.9l-1 1a23 23 0 0 0-2-2.1l-.7-.8zm2.7 4.4a25.2 25.2 0 0 0 2.1 2l.8 1h-5.9a22.8 22.8 0 0 0 3-3zm2.8 1.2a23 23 0 0 0-2.1-2l1-1a24.6 24.6 0 0 1 2-1.6v5.3l-.9-.6zm.5-6.6h-6.7a24.1 24.1 0 0 1-4.2-14.2 20.9 20.9 0 0 1 7.6-15.5 20.9 20.9 0 0 1 7.5 15.5 24.1 24.1 0 0 1-4.2 14.2zm1.3 1.3a24 24 0 0 1 14.2-4.2 20.9 20.9 0 0 1 15.5 7.5 20.9 20.9 0 0 1-15.5 7.6 24 24 0 0 1-14.2-4.2zm3.9-15.5a21.9 21.9 0 0 0-8.3-16.5.5.5 0 0 0-.6 0 21.9 21.9 0 0 0-8.3 16.5 25 25 0 0 0 3.2 12.7l-47.7-47.7v-7.9l46.8-46.8a22 22 0 0 0-2.2 9.1 25.4 25.4 0 0 0 8.2 19.3.5.5 0 0 0 .7 0 25.4 25.4 0 0 0 8.2-19.3 22 22 0 0 0-2.3-9.1l46.9 46.8v8L664.9 651a25 25 0 0 0 3.1-12.7zm-70.3-43.6L550 547.1a25 25 0 0 0 12 3.2h.7a21.9 21.9 0 0 0 16.6-8.3.5.5 0 0 0 0-.6 21.9 21.9 0 0 0-16.6-8.3 24.8 24.8 0 0 0-12.7 3.1l47.7-47.7h8l46.8 46.9a22 22 0 0 0-9.2-2.3 25.3 25.3 0 0 0-19.2 8.2.5.5 0 0 0 0 .7 25.5 25.5 0 0 0 18.5 8.3h.7a22 22 0 0 0 9.2-2.3l-46.9 46.8zm7.6 1v7.3H598v-7.3zm-62.2 61.4a22.8 22.8 0 0 0-3 3v-5.9q.6.4 1 .9a25.2 25.2 0 0 0 2 2zm-1.9-3.6h5.3a24.4 24.4 0 0 1-1.6 2l-1 1a23 23 0 0 0-2-2.2 12 12 0 0 1-.7-.8zm2.7 4.4a25.2 25.2 0 0 0 2 2l1 1h-6a22.8 22.8 0 0 0 3-3zm2.8 1.3a23 23 0 0 0-2.1-2l1-1a24.6 24.6 0 0 1 2-1.6v5.2l-.9-.6zm.5-6.7h-6.7a24.1 24.1 0 0 1-4.2-14.2 20.9 20.9 0 0 1 7.5-15.5 20.9 20.9 0 0 1 7.6 15.5 24.1 24.1 0 0 1-4.2 14.2zm1.3 1.3a24 24 0 0 1 14.2-4.2 20.9 20.9 0 0 1 15.5 7.5 20.9 20.9 0 0 1-15.5 7.6 24 24 0 0 1-14.2-4.2zm4-15.5a21.9 21.9 0 0 0-8.4-16.5.5.5 0 0 0-.6 0 21.9 21.9 0 0 0-8.2 16.5 25 25 0 0 0 3 12.7l-47.6-47.7v-7.9l46.8-46.8a22 22 0 0 0-2.2 9.1 25.4 25.4 0 0 0 8.2 19.2.5.5 0 0 0 .7 0 25.4 25.4 0 0 0 8.2-19.2 22 22 0 0 0-2.3-9.1l46.9 46.8v8L549.3 651a25 25 0 0 0 3.2-12.7zM482 594.8l-47.7-47.7a25 25 0 0 0 12 3.1h.7a21.9 21.9 0 0 0 16.6-8.2.5.5 0 0 0 0-.6 21.9 21.9 0 0 0-16.5-8.3 24.8 24.8 0 0 0-12.8 3.1l47.7-47.7h7.9l46.8 46.9a22 22 0 0 0-9.1-2.3 25.3 25.3 0 0 0-19.2 8.2.5.5 0 0 0 0 .7 25.5 25.5 0 0 0 18.5 8.3h.7a22 22 0 0 0 9.1-2.3L490 594.8zm7.6 1v7.3h-7.3v-7.3zm-62.2 61.4a22.8 22.8 0 0 0-3 3v-5.9q.6.4 1 .9a25.2 25.2 0 0 0 2 2zm-1.9-3.6h5.3a24.5 24.5 0 0 1-1.6 2l-1 1a23 23 0 0 0-2-2.2l-.7-.8zm2.7 4.4a25.2 25.2 0 0 0 2.1 2l.8 1h-5.9a22.8 22.8 0 0 0 3-3zm2.8 1.3a23 23 0 0 0-2.1-2l1-1a24.6 24.6 0 0 1 2-1.7v5.3a12 12 0 0 0-.8-.6zm.5-6.7H425a24.1 24.1 0 0 1-4.2-14.2 20.9 20.9 0 0 1 7.6-15.5 20.9 20.9 0 0 1 7.5 15.5 24.1 24.1 0 0 1-4.2 14.2zm1.3 1.3a24 24 0 0 1 14.2-4.2 20.9 20.9 0 0 1 15.5 7.5 20.9 20.9 0 0 1-15.5 7.6 24 24 0 0 1-14.1-4.2zm4-15.5a21.9 21.9 0 0 0-8.3-16.6.5.5 0 0 0-.7 0 21.9 21.9 0 0 0-8.2 16.6 25 25 0 0 0 3.1 12.7L375 603.4v-7.9l46.9-46.8a22 22 0 0 0-2.3 9.1 25.4 25.4 0 0 0 8.3 19.3.5.5 0 0 0 .7 0 25.4 25.4 0 0 0 8.2-19.3 22 22 0 0 0-2.3-9.1l46.9 46.8v8L433.8 651a25 25 0 0 0 3-12.7zm-70.4-43.6L318.8 547a25 25 0 0 0 12 3.1h.7a21.9 21.9 0 0 0 16.6-8.2.5.5 0 0 0 0-.6 21.9 21.9 0 0 0-16.5-8.3 24.7 24.7 0 0 0-12.7 3.1l47.6-47.7h8l46.8 46.9a22 22 0 0 0-9.2-2.3 25.3 25.3 0 0 0-19.2 8.2.5.5 0 0 0 0 .7 25.5 25.5 0 0 0 18.5 8.3h.7a22 22 0 0 0 9.2-2.3l-46.8 46.8zm7.6 1v7.3h-7.3v-7.3zm-62 61.4a22.8 22.8 0 0 0-3 3v-5.9q.6.4 1 .9a25.2 25.2 0 0 0 2 2zm-1.9-3.6h5.3a24.4 24.4 0 0 1-1.6 2l-1 1a23 23 0 0 0-2-2.2l-.7-.8zm2.7 4.4a25.2 25.2 0 0 0 2 2l.9 1h-5.9a22.8 22.8 0 0 0 3-3zm2.8 1.3a23 23 0 0 0-2.1-2l1-1a24.6 24.6 0 0 1 2-1.6v5.3l-1-.7zm.5-6.7h-6.7a24.1 24.1 0 0 1-4.2-14.2 20.9 20.9 0 0 1 7.6-15.5 20.9 20.9 0 0 1 7.5 15.5 24.1 24.1 0 0 1-4.2 14.2zm1.3 1.3a23.9 23.9 0 0 1 14.2-4.2 20.9 20.9 0 0 1 15.5 7.6 20.9 20.9 0 0 1-15.5 7.5 23.9 23.9 0 0 1-14.2-4.2zm4-15.5a21.9 21.9 0 0 0-8.4-16.5.5.5 0 0 0-.6 0 21.9 21.9 0 0 0-8.3 16.5 25 25 0 0 0 3.1 12.7l-47.6-47.7v-7.9l46.8-46.8a22 22 0 0 0-2.3 9.1 25.4 25.4 0 0 0 8.2 19.3.5.5 0 0 0 .7 0 25.4 25.4 0 0 0 8.3-19.3 22 22 0 0 0-2.3-9.1l46.8 46.8v8L318.1 651a25 25 0 0 0 3.2-12.7zM251 594.8l-47.7-47.7a25 25 0 0 0 12 3.2h.7a21.9 21.9 0 0 0 16.5-8.3.5.5 0 0 0 0-.6A21.9 21.9 0 0 0 216 533a24.7 24.7 0 0 0-12.7 3.1l47.7-47.7h8l46.8 46.9a22 22 0 0 0-9.2-2.3 25.4 25.4 0 0 0-19.2 8.2.5.5 0 0 0 0 .7 25.5 25.5 0 0 0 18.5 8.3h.7a22 22 0 0 0 9.2-2.3l-46.9 46.8zm7.6 1v7.3h-7.3v-7.3zm-62.2 61.4a22.8 22.8 0 0 0-2.9 3v-5.9l1 .9a25.2 25.2 0 0 0 1.9 2zm-1.9-3.6h5.3a24.4 24.4 0 0 1-1.6 2l-1 1a23 23 0 0 0-2-2.2l-.7-.8zm2.7 4.4a25.2 25.2 0 0 0 2.1 2l.8 1h-5.9a22.8 22.8 0 0 0 3-3zm2.8 1.3a23 23 0 0 0-2-2l1-1a24.5 24.5 0 0 1 1.8-1.6v5.2l-.8-.6zm.5-6.7h-6.7a24.1 24.1 0 0 1-4.2-14.2 20.9 20.9 0 0 1 7.6-15.5 20.9 20.9 0 0 1 7.5 15.5 24.1 24.1 0 0 1-4.2 14.2zm1.3 1.3a24 24 0 0 1 14.2-4.2 20.9 20.9 0 0 1 15.5 7.5 20.9 20.9 0 0 1-15.5 7.6 24 24 0 0 1-14.2-4.2zm4-15.5a21.9 21.9 0 0 0-8.3-16.5.5.5 0 0 0-.7 0 21.9 21.9 0 0 0-8.2 16.5 25 25 0 0 0 3.1 12.7L144 603.4v-7.9l46.8-46.8a22 22 0 0 0-2.2 9.1 25.4 25.4 0 0 0 8.2 19.2.5.5 0 0 0 .7 0 25.4 25.4 0 0 0 8.2-19.2 22 22 0 0 0-2.3-9.1l46.9 46.8v8L202.6 651a25 25 0 0 0 3-12.7zm-70.4-43.6l-47.7-47.7a25 25 0 0 0 12 3.1h.7A21.9 21.9 0 0 0 117 542a.5.5 0 0 0 0-.6 21.9 21.9 0 0 0-16.5-8.3 24.7 24.7 0 0 0-12.7 3.1l47.7-47.7h7.9l46.8 46.9a22 22 0 0 0-9.1-2.3 25.4 25.4 0 0 0-19.3 8.2.5.5 0 0 0 0 .7 25.5 25.5 0 0 0 18.6 8.3h.7a22 22 0 0 0 9.2-2.3l-46.9 46.8zm7.6 1v7.3h-7.3v-7.3zM85 537h-6.7a24.1 24.1 0 0 1-4.2-14.1 20.9 20.9 0 0 1 7.6-15.6A20.9 20.9 0 0 1 89 523a24.1 24.1 0 0 1-4 14zm1.3 1.3a24 24 0 0 1 14.2-4.2 20.9 20.9 0 0 1 15.5 7.6 20.9 20.9 0 0 1-15.5 7.5 24 24 0 0 1-14.2-4.2zm-5.4 3.3a22.8 22.8 0 0 0-3 3v-5.9q.6.4 1 .9a25.2 25.2 0 0 0 2 2zm-2-3.6h5.4a24.5 24.5 0 0 1-1.6 2l-1 1a23 23 0 0 0-2-2.2l-.7-.8zm2.8 4.4a25.2 25.2 0 0 0 2 2l.9 1h-5.9a22.8 22.8 0 0 0 3-3zm2.8 1.3a23 23 0 0 0-2.1-2l1-1a24.5 24.5 0 0 1 1.9-1.7v5.3l-.8-.6zm.8 2.6a20.8 20.8 0 0 1 3.9 11.5 24.4 24.4 0 0 1-7.6 18.2 24.4 24.4 0 0 1-7.5-18.1 20.8 20.8 0 0 1 3.9-11.5zM85 421.4h-6.7a24.1 24.1 0 0 1-4.2-14.1 20.9 20.9 0 0 1 7.6-15.6 20.9 20.9 0 0 1 7.5 15.6 24.1 24.1 0 0 1-4.2 14.1zm1.3 1.3a24 24 0 0 1 14.2-4.2 20.9 20.9 0 0 1 15.5 7.6 20.9 20.9 0 0 1-15.5 7.6 24 24 0 0 1-14.2-4.2zm-5.4 3.4a22.8 22.8 0 0 0-3 3v-6l1 .9a25.2 25.2 0 0 0 2 2zm-1.9-3.7h5.3a24.4 24.4 0 0 1-1.6 2l-1 1a23 23 0 0 0-2-2.2l-.7-.8zm2.7 4.4a25.2 25.2 0 0 0 2 2l.9 1h-5.9a22.8 22.8 0 0 0 3-3zm2.8 1.3a23 23 0 0 0-2.1-2l1-1a24.5 24.5 0 0 1 2-1.6v5.3l-.9-.7zm.9 2.6a20.8 20.8 0 0 1 3.8 11.6 24.4 24.4 0 0 1-7.6 18.1 24.4 24.4 0 0 1-7.5-18.1 20.8 20.8 0 0 1 3.9-11.5zm14.4 4h.7a21.9 21.9 0 0 0 16.5-8.3.5.5 0 0 0 0-.6 21.9 21.9 0 0 0-16.5-8.3 24.7 24.7 0 0 0-12.7 3.1l47.7-47.6h7.9l46.8 46.8a22 22 0 0 0-9.1-2.2 25.4 25.4 0 0 0-19.3 8.2.5.5 0 0 0 0 .7 25.5 25.5 0 0 0 18.6 8.2h.7a22 22 0 0 0 9.2-2.3l-46.9 46.9h-7.9l-47.7-47.7a25 25 0 0 0 12 3zM84.9 305.9h-6.7a24.1 24.1 0 0 1-4.2-14.2 20.9 20.9 0 0 1 7.6-15.5 20.9 20.9 0 0 1 7.5 15.5 24.1 24.1 0 0 1-4.2 14.2zm1.3 1.3a24.2 24.2 0 0 1 14.2-4.3 20.9 20.9 0 0 1 15.5 7.6 20.9 20.9 0 0 1-15.5 7.6 24 24 0 0 1-14.2-4.2zm-5.4 3.3a22.8 22.8 0 0 0-3 3v-6l1 1a25.2 25.2 0 0 0 2 2zm-1.9-3.7h5.3a24.4 24.4 0 0 1-1.6 2l-1 1a23 23 0 0 0-2-2.2l-.7-.8zm2.7 4.4a25.2 25.2 0 0 0 2 2l.9 1h-5.9a22.8 22.8 0 0 0 3-3zm2.8 1.3a23 23 0 0 0-2.1-2l1-1a24.3 24.3 0 0 1 2-1.6v5.3l-.9-.7zm.9 2.7a20.8 20.8 0 0 1 3.8 11.5 24.4 24.4 0 0 1-7.6 18.1 24.4 24.4 0 0 1-7.5-18.1 20.8 20.8 0 0 1 3.9-11.5zm14.4 3.9h.7a21.9 21.9 0 0 0 16.5-8.3.5.5 0 0 0 0-.6 21.9 21.9 0 0 0-16.5-8.3 25 25 0 0 0-12.7 3.2l47.7-47.7h7.9l46.8 46.8a22 22 0 0 0-9.1-2.3 25.4 25.4 0 0 0-19.3 8.3.5.5 0 0 0 0 .6 25.5 25.5 0 0 0 18.5 8.3h.8a22 22 0 0 0 9.2-2.3l-46.9 46.8h-7.9L87.7 316a25 25 0 0 0 12 3.2zM84.9 190.3h-6.7A24.1 24.1 0 0 1 74 176a20.9 20.9 0 0 1 7.6-15.5A20.9 20.9 0 0 1 89 176a24.1 24.1 0 0 1-4.2 14.2zm1.3 1.3a24.2 24.2 0 0 1 14.2-4.2 20.9 20.9 0 0 1 15.5 7.5 20.9 20.9 0 0 1-15.5 7.6 24 24 0 0 1-14.2-4.2zm-5.4 3.3a22.8 22.8 0 0 0-3 3V192l1 .8a25.2 25.2 0 0 0 2 2.1zm-1.9-3.6h5.3a24.4 24.4 0 0 1-1.6 1.9l-1 1a23 23 0 0 0-2-2.1 7 7 0 0 1-.7-.8zm2.7 4.4a25.2 25.2 0 0 0 2 2q.5.4.9 1h-5.9a22.8 22.8 0 0 0 3-3zm2.8 1.2a23 23 0 0 0-2.1-2l1-1a24.4 24.4 0 0 1 2-1.6v5.3l-.9-.7zm.9 2.7A20.8 20.8 0 0 1 89 211a24.4 24.4 0 0 1-7.6 18.2A24.4 24.4 0 0 1 74 211a20.8 20.8 0 0 1 3.9-11.5zm14.4 3.9h.7a21.9 21.9 0 0 0 16.5-8.3.5.5 0 0 0 0-.6 21.9 21.9 0 0 0-16.5-8.2 25 25 0 0 0-12.7 3l47.7-47.6h7.9l46.8 46.8a22 22 0 0 0-9.1-2.2 25.4 25.4 0 0 0-19.3 8.2.5.5 0 0 0 0 .7 25.5 25.5 0 0 0 18.5 8.2h.8a22 22 0 0 0 9.2-2.3l-46.9 46.9h-7.9l-47.7-47.7a25 25 0 0 0 12 3.1zm36-62.7v-7.3h7.3v7.3zM200 81.3a23 23 0 0 0-2.1-2l1-1a24.4 24.4 0 0 1 2-1.6V82c-.4-.2-.7-.4-.9-.7zm.1 1.7h-5.9a22.8 22.8 0 0 0 3-3 25.2 25.2 0 0 0 2.1 2l.8 1zm-2-5.4l-1 1a23 23 0 0 0-2-2.1l-.5-.8h5.2a24.5 24.5 0 0 1-1.6 2zm-1.7 1.7a22.8 22.8 0 0 0-3 3v-6l1 1a25.2 25.2 0 0 0 2 2zm4.4 4.7a20.8 20.8 0 0 1 3.9 11.5 24.4 24.4 0 0 1-7.6 18.2 24.4 24.4 0 0 1-7.5-18.2 20.8 20.8 0 0 1 3.8-11.5zm-12.3 11.5a25.4 25.4 0 0 0 8.3 19.2.5.5 0 0 0 .7 0 25.4 25.4 0 0 0 8.2-19.2 22 22 0 0 0-2.3-9.2l46.8 46.9v7.9l-47.6 47.7a25 25 0 0 0 3-12.7 21.9 21.9 0 0 0-8.2-16.6.5.5 0 0 0-.6 0 21.9 21.9 0 0 0-8.3 16.6 25 25 0 0 0 3.2 12.7L144 141v-8l46.8-46.8a22 22 0 0 0-2.3 9.2zm70.4 46.3l46.8 46.8a22 22 0 0 0-9.1-2.2 25.4 25.4 0 0 0-19.3 8.2.5.5 0 0 0 0 .7 25.5 25.5 0 0 0 18.5 8.2h.8a22 22 0 0 0 9.1-2.3l-46.8 46.9H251l-47.7-47.7a25 25 0 0 0 12 3.1h.7a21.9 21.9 0 0 0 16.5-8.2.5.5 0 0 0 0-.7 21.9 21.9 0 0 0-16.5-8.2 25 25 0 0 0-12.7 3l47.7-47.6zm-7.6-1v-7.3h7.3v7.3zm64.3-59.4a23 23 0 0 0-2.2-2l1-1a24.5 24.5 0 0 1 2-1.6V82l-.8-.6zm0 1.6h-5.8a22.8 22.8 0 0 0 3-3 25.2 25.2 0 0 0 2 2l.9 1zm-1.9-5.4l-1 1a23 23 0 0 0-2-2.1l-.6-.8h5.3a24.4 24.4 0 0 1-1.7 2zm-1.7 1.7a22.8 22.8 0 0 0-3 3v-6l1 1a25.2 25.2 0 0 0 2 2zm4.4 4.7a20.8 20.8 0 0 1 3.9 11.5 24.4 24.4 0 0 1-7.6 18.2 24.4 24.4 0 0 1-7.6-18.2A20.8 20.8 0 0 1 309 84zm-12.3 11.5a25.4 25.4 0 0 0 8.3 19.2.5.5 0 0 0 .7 0 25.4 25.4 0 0 0 8.2-19.2 22 22 0 0 0-2.3-9.2l46.8 46.9v7.9l-47.6 47.7a25 25 0 0 0 3-12.7 21.9 21.9 0 0 0-8.2-16.6.5.5 0 0 0-.6 0 21.9 21.9 0 0 0-8.3 16.6 25 25 0 0 0 3.1 12.7L259.6 141v-8l46.8-46.8a22 22 0 0 0-2.3 9.2zm70.4 46.3l46.8 46.8a22 22 0 0 0-9.2-2.2 25.4 25.4 0 0 0-19.2 8.2.5.5 0 0 0 0 .7 25.5 25.5 0 0 0 18.5 8.2h.7a22 22 0 0 0 9.2-2.3l-46.9 46.9h-7.9l-47.7-47.7a25 25 0 0 0 12 3.1h.8a21.9 21.9 0 0 0 16.5-8.2.5.5 0 0 0 0-.7 21.9 21.9 0 0 0-16.5-8.2 25 25 0 0 0-12.8 3.1l47.7-47.7zm-7.7-1v-7.3h7.4v7.3zm64.4-59.4a23 23 0 0 0-2.2-2l1-1a24.4 24.4 0 0 1 2-1.7V82l-.9-.6zm0 1.6h-5.8a22.8 22.8 0 0 0 3-3 25.2 25.2 0 0 0 2 2l.9 1zm-1.9-5.4l-1 1a23 23 0 0 0-2-2.1l-.6-.8h5.3a24.5 24.5 0 0 1-1.7 2zm-1.7 1.7a22.8 22.8 0 0 0-3 3v-6l1 1a25.2 25.2 0 0 0 2 2zM432 84a20.8 20.8 0 0 1 3.9 11.5 24.4 24.4 0 0 1-7.6 18.2 24.4 24.4 0 0 1-7.6-18.2 20.8 20.8 0 0 1 3.9-11.5zm-12.3 11.5a25.4 25.4 0 0 0 8.3 19.2.5.5 0 0 0 .7 0 25.4 25.4 0 0 0 8.2-19.2 22 22 0 0 0-2.3-9.2l46.9 46.9v7.9l-47.7 47.7a25 25 0 0 0 3.1-12.7 21.9 21.9 0 0 0-8.2-16.6.5.5 0 0 0-.7 0 21.9 21.9 0 0 0-8.2 16.6 25 25 0 0 0 3 12.7L375.3 141v-8L422 86.4a22 22 0 0 0-2.3 9.2zm70.3 46.3l46.8 46.8a22 22 0 0 0-9.1-2.2 25.4 25.4 0 0 0-19.2 8.2.5.5 0 0 0 0 .7 25.5 25.5 0 0 0 18.5 8.2h.7a22 22 0 0 0 9.1-2.3L490 248.1h-8l-47.6-47.7a25 25 0 0 0 12 3.1h.7a21.9 21.9 0 0 0 16.5-8.2.5.5 0 0 0 0-.7 21.9 21.9 0 0 0-16.5-8.2 25 25 0 0 0-12.7 3l47.7-47.6zm-7.6-1v-7.3h7.3v7.3zm64.3-59.4a23 23 0 0 0-2.1-2l1-1a24.5 24.5 0 0 1 1.9-1.6V82l-.8-.7zm0 1.6H541a22.8 22.8 0 0 0 3-3 25.2 25.2 0 0 0 2.1 2l.8 1zm-1.8-5.4l-1 1a23 23 0 0 0-2-2.1l-.7-.8h5.3a24.4 24.4 0 0 1-1.6 2zm-1.8 1.7a22.8 22.8 0 0 0-3 3v-6l1 1a25.2 25.2 0 0 0 2 2zm4.5 4.7a20.8 20.8 0 0 1 3.8 11.5 24.4 24.4 0 0 1-7.5 18.2 24.4 24.4 0 0 1-7.6-18.2 20.8 20.8 0 0 1 3.9-11.5zm-12.3 11.5a25.4 25.4 0 0 0 8.2 19.2.5.5 0 0 0 .7 0 25.4 25.4 0 0 0 8.2-19.2 22 22 0 0 0-2.2-9.2l46.8 46.9v7.9l-47.7 47.7a25 25 0 0 0 3.1-12.7 21.9 21.9 0 0 0-8.2-16.6.5.5 0 0 0-.7 0 21.9 21.9 0 0 0-8.2 16.6 25 25 0 0 0 3.1 12.7L490.7 141v-8l46.9-46.8a22 22 0 0 0-2.3 9.2zm70.3 46.3l46.9 46.8a22 22 0 0 0-9.2-2.2 25.4 25.4 0 0 0-19.2 8.2.5.5 0 0 0 0 .7 25.5 25.5 0 0 0 18.5 8.2h.7a22 22 0 0 0 9.2-2.3l-46.9 46.9h-7.9L550 200.4a25 25 0 0 0 12 3.1h.7a21.9 21.9 0 0 0 16.6-8.2.5.5 0 0 0 0-.7 21.9 21.9 0 0 0-16.6-8.2 25 25 0 0 0-12.7 3l47.7-47.6zm-7.6-1v-7.3h7.3v7.3zm64.3-59.4a23 23 0 0 0-2.1-2l1-1a24.4 24.4 0 0 1 2-1.6V82l-.9-.6zm.1 1.6h-5.9a22.8 22.8 0 0 0 3-3 25.2 25.2 0 0 0 2.1 2l.8 1zm-2-5.4l-1 1a23 23 0 0 0-2-2.1l-.5-.8h5.2a24.4 24.4 0 0 1-1.6 2zm-1.7 1.7a22.8 22.8 0 0 0-3 3v-6l1 1a25.2 25.2 0 0 0 2 2zm4.5 4.7a20.8 20.8 0 0 1 3.8 11.5 24.4 24.4 0 0 1-7.6 18.2 24.4 24.4 0 0 1-7.5-18.2 20.8 20.8 0 0 1 3.8-11.5zm-12.3 11.5a25.4 25.4 0 0 0 8.2 19.2.5.5 0 0 0 .7 0 25.4 25.4 0 0 0 8.2-19.2 22 22 0 0 0-2.3-9.2l46.9 46.9v7.9l-47.7 47.7A25 25 0 0 0 668 176a21.9 21.9 0 0 0-8.3-16.6.5.5 0 0 0-.6 0 21.9 21.9 0 0 0-8.3 16.6 25 25 0 0 0 3.2 12.7L606.3 141v-8l46.8-46.8a22 22 0 0 0-2.2 9.2zm7.8 446.2a22.8 22.8 0 0 0-2.9 3v-6l1 .9a25.2 25.2 0 0 0 2 2zm-1.9-3.7h5.3a24.5 24.5 0 0 1-1.6 2l-1 1a23 23 0 0 0-2-2.2l-.7-.8zm2.7 4.4a25.2 25.2 0 0 0 2.1 2l.8 1h-5.9a22.8 22.8 0 0 0 3-3zm2.8 1.3a23 23 0 0 0-2-2l1-1a24.6 24.6 0 0 1 1.8-1.6v5.3l-.8-.7zm.5-6.7h-6.7a24.1 24.1 0 0 1-4.2-14.1 20.9 20.9 0 0 1 7.6-15.6A20.9 20.9 0 0 1 667 523a24.1 24.1 0 0 1-4.2 14.1zm-7 9.3h7.4A20.8 20.8 0 0 1 667 558a24.4 24.4 0 0 1-7.5 18.1 24.4 24.4 0 0 1-7.6-18.1 20.8 20.8 0 0 1 3.8-11.6zm-1-1a20.8 20.8 0 0 1-11.5 4 24.3 24.3 0 0 1-18.2-7.6 24.4 24.4 0 0 1 18.2-7.6 20.8 20.8 0 0 1 11.5 3.9zm9.3-7a24 24 0 0 1 14.2-4.2 20.9 20.9 0 0 1 15.5 7.6 20.9 20.9 0 0 1-15.5 7.5A24 24 0 0 1 664 545zm3.9-15.5a21.9 21.9 0 0 0-8.3-16.5.5.5 0 0 0-.6 0 21.9 21.9 0 0 0-8.3 16.5 25 25 0 0 0 3.2 12.7l-47.7-47.7V480l46.8-46.8a22 22 0 0 0-2.2 9.1 25.4 25.4 0 0 0 8.2 19.3.5.5 0 0 0 .7 0 25.4 25.4 0 0 0 8.2-19.3 22 22 0 0 0-2.3-9.1l46.9 46.8v8l-47.7 47.6a25 25 0 0 0 3.1-12.7zm-70.3-43.6L550 431.5a25 25 0 0 0 12 3.2h.7a21.9 21.9 0 0 0 16.6-8.3.5.5 0 0 0 0-.6 21.9 21.9 0 0 0-16.6-8.3 24.7 24.7 0 0 0-12.7 3.1l47.7-47.6h8l46.8 46.8a22 22 0 0 0-9.2-2.2 25.3 25.3 0 0 0-19.2 8.2.5.5 0 0 0 0 .7 25.5 25.5 0 0 0 18.5 8.2h.7a22 22 0 0 0 9.2-2.3l-46.9 46.9zm7.6 1v7.4H598v-7.4zm-62.2 61.5a22.8 22.8 0 0 0-3 3v-6l1 .9a25.2 25.2 0 0 0 2 2zm-1.9-3.7h5.3a24.4 24.4 0 0 1-1.6 2l-1 1a23 23 0 0 0-2-2.2l-.7-.8zm2.7 4.4a25.2 25.2 0 0 0 2 2l1 1h-6a22.8 22.8 0 0 0 3-3zm2.8 1.3a23 23 0 0 0-2.1-2l1-1a24.6 24.6 0 0 1 2-1.6v5.3l-.9-.7zm.5-6.7h-6.7a24.1 24.1 0 0 1-4.2-14.2 20.9 20.9 0 0 1 7.6-15.5 20.9 20.9 0 0 1 7.5 15.5 24.1 24.1 0 0 1-4.2 14.2zm-7 9.3h7.4a20.8 20.8 0 0 1 3.8 11.6A24.4 24.4 0 0 1 544 576a24.4 24.4 0 0 1-7.6-18.1 20.8 20.8 0 0 1 3.9-11.6zm-1-1a20.8 20.8 0 0 1-11.5 4 24.3 24.3 0 0 1-18.2-7.6 24.4 24.4 0 0 1 18.2-7.6 20.8 20.8 0 0 1 11.5 3.9zm9.3-7a23.9 23.9 0 0 1 14.2-4.2 20.9 20.9 0 0 1 15.5 7.6 20.9 20.9 0 0 1-15.5 7.5 24 24 0 0 1-14.2-4.2zm4-15.5a21.9 21.9 0 0 0-8.3-16.5.5.5 0 0 0-.7 0 21.9 21.9 0 0 0-8.2 16.5 25 25 0 0 0 3.1 12.7l-47.7-47.7V480l46.8-46.8a22 22 0 0 0-2.2 9.1 25.4 25.4 0 0 0 8.2 19.2.5.5 0 0 0 .7 0 25.4 25.4 0 0 0 8.2-19.2 22 22 0 0 0-2.3-9.1L597 480v8l-47.7 47.6a25 25 0 0 0 3.2-12.7zM482 479.2l-47.7-47.7a25 25 0 0 0 12 3.2h.7a21.9 21.9 0 0 0 16.6-8.3.5.5 0 0 0 0-.6 21.9 21.9 0 0 0-16.6-8.3 24.7 24.7 0 0 0-12.7 3.1L482 373h7.9l46.8 46.8a22 22 0 0 0-9.1-2.2 25.3 25.3 0 0 0-19.2 8.2.5.5 0 0 0 0 .7 25.5 25.5 0 0 0 18.5 8.2h.7a22 22 0 0 0 9.1-2.3L490 479.2zm7.6 1v7.3h-7.3v-7.3zm-62.2 61.4a22.8 22.8 0 0 0-2.9 3v-5.9l1 .9a25.2 25.2 0 0 0 2 2zm-1.9-3.6h5.3a24.4 24.4 0 0 1-1.6 2l-1 1a23 23 0 0 0-2-2.2l-.7-.8zm2.7 4.4a25.2 25.2 0 0 0 2.1 2l.8 1h-5.9a22.8 22.8 0 0 0 3-3zm2.8 1.3a23 23 0 0 0-2-2l1-1a24.6 24.6 0 0 1 1.9-1.7v5.3l-.8-.6zm.5-6.7H425a24.1 24.1 0 0 1-4.2-14.2 20.9 20.9 0 0 1 7.6-15.5 20.9 20.9 0 0 1 7.5 15.5 24.1 24.1 0 0 1-4.2 14.2zm-7 9.3h7.4a20.8 20.8 0 0 1 3.9 11.5 24.4 24.4 0 0 1-7.6 18.2 24.4 24.4 0 0 1-7.6-18.1 20.8 20.8 0 0 1 3.9-11.6zm-1-1a20.8 20.8 0 0 1-11.5 4 24.3 24.3 0 0 1-18.1-7.6 24.4 24.4 0 0 1 18.1-7.6 20.8 20.8 0 0 1 11.5 3.9zm9.3-7a24 24 0 0 1 14.2-4.2 20.9 20.9 0 0 1 15.5 7.5 20.9 20.9 0 0 1-15.5 7.6 24 24 0 0 1-14-4.2zm4-15.5a21.9 21.9 0 0 0-8.3-16.5.5.5 0 0 0-.7 0 21.9 21.9 0 0 0-8.2 16.5 25 25 0 0 0 3.1 12.7L375 487.8V480l46.9-46.8a22 22 0 0 0-2.3 9.2 25.4 25.4 0 0 0 8.3 19.2.5.5 0 0 0 .7 0 25.4 25.4 0 0 0 8.2-19.2 22 22 0 0 0-2.3-9.2l46.9 46.8v8l-47.7 47.6a25 25 0 0 0 3-12.7zm-70.4-43.6l-47.7-47.7a25 25 0 0 0 12 3.1h.7a21.9 21.9 0 0 0 16.6-8.2.5.5 0 0 0 0-.6 21.9 21.9 0 0 0-16.6-8.3 24.7 24.7 0 0 0-12.7 3.1l47.7-47.6h8l46.8 46.8a22 22 0 0 0-9.2-2.2 25.3 25.3 0 0 0-19.2 8.2.5.5 0 0 0 0 .7 25.5 25.5 0 0 0 18.5 8.2h.7a22 22 0 0 0 9.2-2.3l-46.8 46.9zm7.6 1v7.3h-7.3v-7.3zm-62 61.5a22.8 22.8 0 0 0-3 3v-6l1 .9a25.2 25.2 0 0 0 2 2zm-1.9-3.7h5.3a24.4 24.4 0 0 1-1.6 2l-1 1a23 23 0 0 0-2-2.2l-.7-.8zm2.7 4.4a25.2 25.2 0 0 0 2 2l.9 1h-5.9a22.8 22.8 0 0 0 3-3zm2.8 1.3a23 23 0 0 0-2.1-2l1-1a24.6 24.6 0 0 1 2-1.6v5.3l-1-.7zm.5-6.7h-6.7a24.1 24.1 0 0 1-4.2-14.1 20.9 20.9 0 0 1 7.6-15.6 20.9 20.9 0 0 1 7.5 15.6 24.1 24.1 0 0 1-4.2 14.1zm-7.1 9.3h7.4a20.8 20.8 0 0 1 3.9 11.6 24.4 24.4 0 0 1-7.6 18.1 24.4 24.4 0 0 1-7.6-18.1 20.8 20.8 0 0 1 3.9-11.6zm-1-.9a20.8 20.8 0 0 1-11.5 3.9 24.3 24.3 0 0 1-18.1-7.6 24.3 24.3 0 0 1 18.1-7.6A20.8 20.8 0 0 1 308 538zm9.4-7a23.9 23.9 0 0 1 14.1-4.3 20.9 20.9 0 0 1 15.6 7.6 20.9 20.9 0 0 1-15.6 7.5 23.9 23.9 0 0 1-14.1-4.2zm3.9-15.6a21.9 21.9 0 0 0-8.3-16.5.5.5 0 0 0-.6 0 21.9 21.9 0 0 0-8.3 16.5 25 25 0 0 0 3.1 12.7l-47.6-47.7V480l46.8-46.8a22 22 0 0 0-2.3 9.1 25.4 25.4 0 0 0 8.2 19.3.5.5 0 0 0 .7 0 25.4 25.4 0 0 0 8.3-19.3 22 22 0 0 0-2.3-9.1l46.8 46.8v8l-47.6 47.6a25 25 0 0 0 3-12.7zM251 479.2l-47.7-47.7a25 25 0 0 0 12 3.2h.7a21.9 21.9 0 0 0 16.6-8.3.5.5 0 0 0 0-.6 21.9 21.9 0 0 0-16.6-8.3 24.7 24.7 0 0 0-12.7 3.1L251 373h8l46.8 46.8a22 22 0 0 0-9.2-2.2 25.4 25.4 0 0 0-19.2 8.2.5.5 0 0 0 0 .7 25.5 25.5 0 0 0 18.5 8.2h.7a22 22 0 0 0 9.2-2.3l-46.9 46.9zm7.6 1v7.4h-7.3v-7.4zm-62.2 61.5a22.8 22.8 0 0 0-2.9 3v-6l1 .9a25.2 25.2 0 0 0 1.9 2zm-1.9-3.7h5.3a24.4 24.4 0 0 1-1.6 2l-1 1a23 23 0 0 0-2-2.2l-.7-.8zm2.7 4.4a25.2 25.2 0 0 0 2.1 2l.8 1h-5.9a22.8 22.8 0 0 0 3-3zm2.8 1.3a23 23 0 0 0-2.1-2l1-1a24.6 24.6 0 0 1 2-1.6v5.3l-.9-.7zm.5-6.7h-6.7a24.1 24.1 0 0 1-4.2-14.1 20.9 20.9 0 0 1 7.5-15.6 20.9 20.9 0 0 1 7.6 15.6 24.1 24.1 0 0 1-4.2 14.1zm-7 9.3h7.3a20.8 20.8 0 0 1 3.9 11.6 24.4 24.4 0 0 1-7.6 18.1 24.4 24.4 0 0 1-7.5-18.1 20.8 20.8 0 0 1 3.8-11.6zm-1-.9a20.8 20.8 0 0 1-11.6 3.9 24.3 24.3 0 0 1-18.1-7.6 24.3 24.3 0 0 1 18.1-7.6 20.8 20.8 0 0 1 11.6 3.9zm9.3-7a24 24 0 0 1 14.1-4.3 20.9 20.9 0 0 1 15.6 7.6 20.9 20.9 0 0 1-15.6 7.6 24 24 0 0 1-14.1-4.3zm3.9-15.6a21.9 21.9 0 0 0-8.3-16.5.5.5 0 0 0-.6 0 21.9 21.9 0 0 0-8.3 16.5 25 25 0 0 0 3.2 12.7L144 487.8V480l46.8-46.8a22 22 0 0 0-2.2 9.1 25.4 25.4 0 0 0 8.2 19.3.5.5 0 0 0 .7 0 25.4 25.4 0 0 0 8.2-19.3 22 22 0 0 0-2.3-9.1l46.9 46.8v8l-47.7 47.6a25 25 0 0 0 3-12.7zM200 197a23 23 0 0 0-2.1-2l1-1a24.4 24.4 0 0 1 2-1.6v5.3c-.4-.2-.7-.4-.9-.7zm.1 1.7h-5.9a22.8 22.8 0 0 0 3-3 25.2 25.2 0 0 0 2.1 2l.8 1zm-2-5.4l-1 1a23 23 0 0 0-2-2.1l-.5-.8h5.2a24.5 24.5 0 0 1-1.6 1.9zm-1.7 1.7a22.8 22.8 0 0 0-3 3v-6l1 .8a25.2 25.2 0 0 0 2 2.1zm4.5 4.7a20.8 20.8 0 0 1 3.8 11.5 24.4 24.4 0 0 1-7.6 18.2 24.4 24.4 0 0 1-7.5-18.2 20.8 20.8 0 0 1 3.8-11.5zm-.4-9.3h-6.7a24.1 24.1 0 0 1-4.2-14.2 20.9 20.9 0 0 1 7.5-15.5 20.9 20.9 0 0 1 7.6 15.5 24.1 24.1 0 0 1-4.2 14.2zm1.3 1.3a24.2 24.2 0 0 1 14.2-4.2 20.9 20.9 0 0 1 15.5 7.5 20.9 20.9 0 0 1-15.5 7.6 24 24 0 0 1-14.2-4.2zm-9.3 7a20.8 20.8 0 0 1-11.5 3.9 24.4 24.4 0 0 1-18.2-7.6 24.4 24.4 0 0 1 18.1-7.5 20.8 20.8 0 0 1 11.6 3.8zm-4 12.5a25.4 25.4 0 0 0 8.3 19.2.5.5 0 0 0 .7 0 25.4 25.4 0 0 0 8.2-19.2 22 22 0 0 0-2.3-9.2l46.9 46.9v7.9l-47.7 47.7a25 25 0 0 0 3.1-12.7 21.9 21.9 0 0 0-8.2-16.6.5.5 0 0 0-.7 0 21.9 21.9 0 0 0-8.2 16.6 25 25 0 0 0 3 12.7L144 256.7v-8l46.8-46.8a22 22 0 0 0-2.3 9.2zm70.4 46.3l46.8 46.8a22 22 0 0 0-9.1-2.3 25.4 25.4 0 0 0-19.3 8.3.5.5 0 0 0 0 .7 25.5 25.5 0 0 0 18.7 8h.7a22 22 0 0 0 9.1-2.3l-46.8 47h-8L203.3 316a25 25 0 0 0 12 3.1h.7a21.9 21.9 0 0 0 16.5-8.3.5.5 0 0 0 0-.6A21.9 21.9 0 0 0 216 302a25 25 0 0 0-12.7 3.2l47.7-47.7zm-7.6-1V249h7.3v7.3zm64.3-59.5a23 23 0 0 0-2.1-2l1-1a24.5 24.5 0 0 1 1.9-1.6v5.3l-.8-.7zm0 1.7h-5.8a22.8 22.8 0 0 0 3-3 25.2 25.2 0 0 0 2.1 2l.8 1zm-1.8-5.4l-1 1a23 23 0 0 0-2-2.1l-.7-.8h5.3a24.4 24.4 0 0 1-1.7 1.9zM312 195a22.8 22.8 0 0 0-3 3v-6l1 .8a25.2 25.2 0 0 0 2 2.1zm4.5 4.7a20.8 20.8 0 0 1 3.8 11.5 24.4 24.4 0 0 1-7.6 18.2 24.4 24.4 0 0 1-7.5-18.2 20.8 20.8 0 0 1 3.8-11.5zm-.4-9.3h-6.7a24.1 24.1 0 0 1-4.2-14.2 20.9 20.9 0 0 1 7.5-15.5 20.9 20.9 0 0 1 7.6 15.5 24.1 24.1 0 0 1-4.2 14.2zm1.3 1.3a24 24 0 0 1 14.2-4.2 20.9 20.9 0 0 1 15.5 7.5 20.9 20.9 0 0 1-15.5 7.6 24 24 0 0 1-14.2-4.2zm-9.4 7a20.8 20.8 0 0 1-11.5 3.9 24.4 24.4 0 0 1-18.2-7.6 24.4 24.4 0 0 1 18.2-7.5 20.8 20.8 0 0 1 11.5 3.8zm-4 12.5a25.4 25.4 0 0 0 8.3 19.2.5.5 0 0 0 .7 0 25.4 25.4 0 0 0 8.2-19.2 22 22 0 0 0-2.2-9.2l46.8 46.9v7.9L318 304.4a25 25 0 0 0 3.1-12.7A21.9 21.9 0 0 0 313 275a.5.5 0 0 0-.6 0 21.9 21.9 0 0 0-8.3 16.5 25 25 0 0 0 3.1 12.8l-47.6-47.7v-8l46.8-46.8a22 22 0 0 0-2.3 9.2zm70.4 46.3l46.8 46.8a22 22 0 0 0-9.1-2.3 25.4 25.4 0 0 0-19.2 8.3.5.5 0 0 0 0 .7 25.5 25.5 0 0 0 18.5 8.2h.7a22 22 0 0 0 9.1-2.3l-46.8 46.9h-8L318.9 316a25 25 0 0 0 12 3.1h.7a21.9 21.9 0 0 0 16.5-8.3.5.5 0 0 0 0-.6 21.9 21.9 0 0 0-16.5-8.2 25 25 0 0 0-12.7 3l47.7-47.6zm-7.6-1V249h7.3v7.3zm64.3-59.5a23 23 0 0 0-2.1-2l1-1a24.4 24.4 0 0 1 2-1.6v5.3l-.9-.7zm.1 1.7h-5.9a22.8 22.8 0 0 0 3-3 25.2 25.2 0 0 0 2.1 2l.9 1zm-2-5.4l-1 1a23 23 0 0 0-2-2.1l-.6-.8h5.3a24.5 24.5 0 0 1-1.6 1.9zm-1.7 1.7a22.8 22.8 0 0 0-3 3v-6l1 .8a25.2 25.2 0 0 0 2 2.1zm4.5 4.7a20.8 20.8 0 0 1 3.8 11.5 24.4 24.4 0 0 1-7.6 18.2 24.4 24.4 0 0 1-7.5-18.2 20.8 20.8 0 0 1 3.8-11.5zm-.4-9.3h-6.7a24.1 24.1 0 0 1-4.2-14.2 20.9 20.9 0 0 1 7.5-15.5 20.9 20.9 0 0 1 7.6 15.5 24.1 24.1 0 0 1-4.2 14.2zm1.3 1.3a24.2 24.2 0 0 1 14.2-4.2 20.9 20.9 0 0 1 15.5 7.5 20.9 20.9 0 0 1-15.5 7.6 24 24 0 0 1-14.1-4.2zm-9.3 7a20.8 20.8 0 0 1-11.6 3.9 24.3 24.3 0 0 1-18-7.6 24.4 24.4 0 0 1 18.1-7.5 20.8 20.8 0 0 1 11.6 3.8zm-4 12.5a25.4 25.4 0 0 0 8.4 19.2.5.5 0 0 0 .7 0 25.4 25.4 0 0 0 8.2-19.2 22 22 0 0 0-2.3-9.2l46.9 46.9v7.9l-47.7 47.7a25 25 0 0 0 3.1-12.7 21.9 21.9 0 0 0-8.2-16.6.5.5 0 0 0-.7 0 21.9 21.9 0 0 0-8.2 16.6 25 25 0 0 0 3 12.7l-47.6-47.7v-8L422 202a22 22 0 0 0-2.3 9.2zm70.4 46.3l46.8 46.8a22 22 0 0 0-9.1-2.3 25.4 25.4 0 0 0-19.2 8.3.5.5 0 0 0 0 .7 25.5 25.5 0 0 0 18.5 8h.7a22 22 0 0 0 9.1-2.3L490 363.6h-8L434.5 316a25 25 0 0 0 12 3.2h.7a21.9 21.9 0 0 0 16.5-8.3.5.5 0 0 0 0-.6 21.9 21.9 0 0 0-16.5-8.3 25 25 0 0 0-12.7 3.2l47.7-47.7zm-7.6-1V249h7.3v7.3zm64.3-59.5a23 23 0 0 0-2.1-2l1-1a24.4 24.4 0 0 1 2-1.6v5.3l-.9-.7zm0 1.7H541a22.8 22.8 0 0 0 3-3 25.2 25.2 0 0 0 2.1 2l.8 1zm-1.8-5.4l-1 1a23 23 0 0 0-2-2.1l-.7-.8h5.3a24.4 24.4 0 0 1-1.6 1.9zm-1.8 1.7a22.8 22.8 0 0 0-3 3v-6l1 .8a25.2 25.2 0 0 0 2 2.1zm4.5 4.7a20.8 20.8 0 0 1 3.8 11.5 24.4 24.4 0 0 1-7.6 18.2 24.4 24.4 0 0 1-7.5-18.2 20.8 20.8 0 0 1 3.8-11.5zm-.4-9.3h-6.7a24.1 24.1 0 0 1-4.2-14.2 20.9 20.9 0 0 1 7.5-15.5 20.9 20.9 0 0 1 7.6 15.5 24.1 24.1 0 0 1-4.2 14.2zm1.3 1.3a24.2 24.2 0 0 1 14.2-4.2 20.9 20.9 0 0 1 15.5 7.5 20.9 20.9 0 0 1-15.5 7.6 24 24 0 0 1-14.2-4.2zm-9.3 7a20.8 20.8 0 0 1-11.6 3.9 24.3 24.3 0 0 1-18.1-7.6 24.4 24.4 0 0 1 18.1-7.5 20.8 20.8 0 0 1 11.6 3.8zm-4 12.5a25.4 25.4 0 0 0 8.3 19.2.5.5 0 0 0 .7 0 25.4 25.4 0 0 0 8.2-19.2 22 22 0 0 0-2.3-9.2l46.9 46.9v7.9l-47.7 47.7a25 25 0 0 0 3.1-12.7 21.9 21.9 0 0 0-8.2-16.6.5.5 0 0 0-.7 0 21.9 21.9 0 0 0-8.2 16.6 25 25 0 0 0 3.1 12.7l-47.7-47.7v-8l46.9-46.8a22 22 0 0 0-2.3 9.2zm70.4 46.3l46.8 46.8a22 22 0 0 0-9.1-2.3 25.4 25.4 0 0 0-19.3 8.3.5.5 0 0 0 0 .7 25.5 25.5 0 0 0 18.5 8.2h.8a22 22 0 0 0 9.1-2.3l-46.8 46.9h-8L550 315.9a25 25 0 0 0 12 3.2h.7a21.9 21.9 0 0 0 16.6-8.3.5.5 0 0 0 0-.6 21.9 21.9 0 0 0-16.6-8.3 25 25 0 0 0-12.7 3.2l47.7-47.7zm-7.6-1V249h7.3v7.3zm60.7 54a22.8 22.8 0 0 0-3 3v-5.8l1 .8a25.2 25.2 0 0 0 2 2zm-2-3.5h5.4a24.5 24.5 0 0 1-1.6 1.9l-1 1a23 23 0 0 0-2-2.1l-.7-.8zm2.7 4.4a25.2 25.2 0 0 0 2.2 2l.8.9h-6a22.8 22.8 0 0 0 3-3zm2.9 1.2a23 23 0 0 0-2.1-2l1-1a24.4 24.4 0 0 1 1.9-1.6v5.3l-.8-.7zm.5-6.6H656a24.1 24.1 0 0 1-4.2-14.2 20.9 20.9 0 0 1 7.6-15.5 20.9 20.9 0 0 1 7.5 15.5 24.1 24.1 0 0 1-4.2 14.2zm-8 .9v7.4a20.8 20.8 0 0 1-11.5 3.9 24.3 24.3 0 0 1-18.2-7.6 24.4 24.4 0 0 1 18.2-7.6 20.8 20.8 0 0 1 11.5 3.9zm-49.5 57.8v7.4H598v-7.3zm-62.2 61.5a22.8 22.8 0 0 0-3 3v-6l1 .9a25.2 25.2 0 0 0 2 2zm-1.9-3.7h5.3a24.5 24.5 0 0 1-1.6 2l-1 1a23 23 0 0 0-2-2.2l-.7-.8zm2.7 4.4a25.2 25.2 0 0 0 2.1 2l.8 1H541a22.8 22.8 0 0 0 3-3zm2.8 1.3a23 23 0 0 0-2.1-2l1-1a24.6 24.6 0 0 1 2-1.6v5.3l-.9-.7zm.5-6.7h-6.7a24.1 24.1 0 0 1-4.2-14.1 20.9 20.9 0 0 1 7.6-15.6 20.9 20.9 0 0 1 7.5 15.6 24.1 24.1 0 0 1-4.2 14.1zm-7 9.4h7.4a20.8 20.8 0 0 1 3.8 11.5 24.4 24.4 0 0 1-7.5 18.1 24.4 24.4 0 0 1-7.6-18.1 20.8 20.8 0 0 1 3.9-11.5zm-1-1a20.8 20.8 0 0 1-11.5 3.9 24.3 24.3 0 0 1-18.2-7.6 24.3 24.3 0 0 1 18.2-7.6 20.8 20.8 0 0 1 11.5 3.9zm9.3-7a24 24 0 0 1 14.2-4.3 20.9 20.9 0 0 1 15.5 7.6 20.9 20.9 0 0 1-15.5 7.6 24 24 0 0 1-14.2-4.2zm4-15.6a21.9 21.9 0 0 0-8.3-16.5.5.5 0 0 0-.7 0 21.9 21.9 0 0 0-8.2 16.5 25 25 0 0 0 3.1 12.8l-47.6-47.7v-7.9l46.8-46.8a22 22 0 0 0-2.3 9.1 25.4 25.4 0 0 0 8.2 19.2.5.5 0 0 0 .7 0 25.4 25.4 0 0 0 8.2-19.2 22 22 0 0 0-2.2-9.1l46.8 46.8v7.9L549.3 420a25 25 0 0 0 3.2-12.8zm-5.8-94.7a23 23 0 0 0-2.1-2l1-1a24.5 24.5 0 0 1 2-1.6v5.3l-.9-.7zm.1 1.7H541a22.8 22.8 0 0 0 3-3 25.2 25.2 0 0 0 2.2 2l.7 1zm-2-5.4l-1 1a23 23 0 0 0-2-2.2l-.5-.8h5.3a24.4 24.4 0 0 1-1.7 2zm-1.7 1.7a22.8 22.8 0 0 0-2.9 3v-6l1 1a25.2 25.2 0 0 0 2 2zm4.5 4.7a20.8 20.8 0 0 1 3.8 11.5 24.4 24.4 0 0 1-7.5 18.1 24.4 24.4 0 0 1-7.6-18.1 20.8 20.8 0 0 1 3.8-11.5zm-.4-9.4h-6.7a24.1 24.1 0 0 1-4.2-14.1 20.9 20.9 0 0 1 7.6-15.6 20.9 20.9 0 0 1 7.5 15.6 24.1 24.1 0 0 1-4.2 14.2zm1.3 1.3a24.1 24.1 0 0 1 14.2-4.2 20.9 20.9 0 0 1 15.5 7.6 20.9 20.9 0 0 1-15.5 7.6 24.1 24.1 0 0 1-14.2-4.2zm-9.3 7.1a20.8 20.8 0 0 1-11.5 3.9 24.3 24.3 0 0 1-18.2-7.6 24.4 24.4 0 0 1 18.2-7.6 20.8 20.8 0 0 1 11.5 3.9zm-49.5 50.4v7.4h-7.3v-7.3zm-62.2 61.5a22.8 22.8 0 0 0-2.9 3v-6l1 .9a25.2 25.2 0 0 0 2 2zm-1.9-3.7h5.3a24.4 24.4 0 0 1-1.6 2l-1 1a23 23 0 0 0-2-2.2l-.7-.8zm2.7 4.4a25.2 25.2 0 0 0 2.1 2l.8 1h-5.8a22.8 22.8 0 0 0 3-3zm2.8 1.3a23 23 0 0 0-2-2l1-1a24.5 24.5 0 0 1 1.8-1.6v5.3l-.7-.7zm.5-6.7H425a24.1 24.1 0 0 1-4.2-14.2 20.9 20.9 0 0 1 7.6-15.5 20.9 20.9 0 0 1 7.6 15.5 24.1 24.1 0 0 1-4.3 14.2zm-7 9.3h7.4a20.8 20.8 0 0 1 3.9 11.6 24.4 24.4 0 0 1-7.6 18.1 24.4 24.4 0 0 1-7.6-18.1 20.8 20.8 0 0 1 3.9-11.5zm-1-1a20.8 20.8 0 0 1-11.5 4A24.3 24.3 0 0 1 394 426a24.4 24.4 0 0 1 18.1-7.6 20.8 20.8 0 0 1 11.6 3.9zm9.3-7a24 24 0 0 1 14.2-4.2 20.9 20.9 0 0 1 15.5 7.6 20.9 20.9 0 0 1-15.5 7.5 24 24 0 0 1-14.1-4.1zm4-15.5a21.9 21.9 0 0 0-8.3-16.5.5.5 0 0 0-.6 0 21.9 21.9 0 0 0-8.3 16.5 25 25 0 0 0 3.2 12.8l-47.7-47.7v-7.9l46.8-46.9a22 22 0 0 0-2.3 9.2A25.4 25.4 0 0 0 428 346a.5.5 0 0 0 .7 0 25.4 25.4 0 0 0 8.2-19.2 22 22 0 0 0-2.3-9.2l46.9 46.8v8L433.7 420a25 25 0 0 0 3.2-12.8zm-5.8-94.7a23 23 0 0 0-2-2l1-1a24.4 24.4 0 0 1 1.8-1.6v5.3l-.8-.7zm.1 1.6h-5.8a22.8 22.8 0 0 0 3-2.9 25.2 25.2 0 0 0 2 2l.9 1zm-1.9-5.4l-1 1a23 23 0 0 0-2-2l-.6-.9h5.3a24.4 24.4 0 0 1-1.7 2zm-1.8 1.8a22.8 22.8 0 0 0-2.9 3v-6l1 .9a25.2 25.2 0 0 0 2 2zm4.5 4.6a20.8 20.8 0 0 1 3.9 11.6 24.4 24.4 0 0 1-7.6 18.1 24.4 24.4 0 0 1-7.6-18.1 20.8 20.8 0 0 1 3.9-11.6zm-.4-9.3H425a24.1 24.1 0 0 1-4.2-14.1 20.9 20.9 0 0 1 7.6-15.6 20.9 20.9 0 0 1 7.6 15.6 24.1 24.1 0 0 1-4.3 14.2zm1.3 1.3a24.1 24.1 0 0 1 14.2-4.2 20.9 20.9 0 0 1 15.5 7.6 20.9 20.9 0 0 1-15.5 7.6A24.1 24.1 0 0 1 433 314zm-9.3 7.1a20.8 20.8 0 0 1-11.5 3.9 24.3 24.3 0 0 1-18.1-7.6 24.4 24.4 0 0 1 18.1-7.6 20.8 20.8 0 0 1 11.6 3.9zm-49.4 50.4v7.4h-7.4v-7.3zM312 426.1a22.8 22.8 0 0 0-3 3v-6l1 .9a25.2 25.2 0 0 0 2 2zm-1.9-3.7h5.3a24.4 24.4 0 0 1-1.6 2l-1 1a23 23 0 0 0-2-2.2l-.7-.8zm2.7 4.4a25.2 25.2 0 0 0 2 2l.9 1h-5.9a22.8 22.8 0 0 0 3-3zm2.8 1.3a23 23 0 0 0-2.1-2l1-1a24.6 24.6 0 0 1 2-1.6v5.3l-1-.7zm.5-6.7h-6.7a24.1 24.1 0 0 1-4.2-14.1 20.9 20.9 0 0 1 7.6-15.6 20.9 20.9 0 0 1 7.5 15.6 24.1 24.1 0 0 1-4.2 14.1zm-7.1 9.4h7.4a20.8 20.8 0 0 1 3.9 11.5 24.4 24.4 0 0 1-7.6 18.1 24.4 24.4 0 0 1-7.5-18.1 20.8 20.8 0 0 1 3.8-11.5zm-1-1a20.8 20.8 0 0 1-11.5 3.9 24.3 24.3 0 0 1-18.1-7.6 24.3 24.3 0 0 1 18.1-7.6 20.8 20.8 0 0 1 11.5 3.9zm9.4-7a23.9 23.9 0 0 1 14.1-4.3 20.9 20.9 0 0 1 15.6 7.6 20.9 20.9 0 0 1-15.6 7.6 23.9 23.9 0 0 1-14.1-4.2zm3.9-15.6a21.9 21.9 0 0 0-8.3-16.5.5.5 0 0 0-.6 0 21.9 21.9 0 0 0-8.3 16.5 25 25 0 0 0 3.2 12.8l-47.7-47.7v-7.9l46.8-46.8a22 22 0 0 0-2.3 9.1 25.4 25.4 0 0 0 8.3 19.2.5.5 0 0 0 .7 0 25.4 25.4 0 0 0 8.2-19.2 22 22 0 0 0-2.3-9.1l46.8 46.8v8L318.1 420a25 25 0 0 0 3.2-12.8zm-5.7-94.7a23 23 0 0 0-2.1-2l1-1a24.5 24.5 0 0 1 1.9-1.6v5.3l-.8-.7zm0 1.7h-5.8a22.8 22.8 0 0 0 3-3 25.2 25.2 0 0 0 2.1 2l.8 1zm-1.9-5.4l-1 1a23 23 0 0 0-2-2.2l-.6-.8h5.3a24.4 24.4 0 0 1-1.7 2zm-1.7 1.7a22.8 22.8 0 0 0-3 3v-5.9l1 .8a25.2 25.2 0 0 0 2 2zm4.5 4.7a20.8 20.8 0 0 1 3.8 11.5 24.4 24.4 0 0 1-7.6 18.1 24.4 24.4 0 0 1-7.5-18 20.8 20.8 0 0 1 3.8-11.6zm-.4-9.3h-6.7a24.1 24.1 0 0 1-4.2-14.2 20.9 20.9 0 0 1 7.5-15.5 20.9 20.9 0 0 1 7.6 15.5 24.1 24.1 0 0 1-4.2 14.2zm1.3 1.3a24.1 24.1 0 0 1 14.2-4.2 20.9 20.9 0 0 1 15.5 7.5 20.9 20.9 0 0 1-15.5 7.6 24.1 24.1 0 0 1-14.2-4.2zm-9.4 7a20.8 20.8 0 0 1-11.5 3.9 24.4 24.4 0 0 1-18.2-7.6 24.4 24.4 0 0 1 18.2-7.6 20.8 20.8 0 0 1 11.5 3.9zm-49.5 50.4v7.4h-7.3v-7.3zm-58-58.8h-6.8a24.1 24.1 0 0 1-4.2-14.1 20.9 20.9 0 0 1 7.6-15.6 20.9 20.9 0 0 1 7.5 15.6 24.1 24.1 0 0 1-4.1 14.2zm1.2 1.3A24.2 24.2 0 0 1 216 303a20.9 20.9 0 0 1 15.5 7.6 20.9 20.9 0 0 1-15.5 7.6 24 24 0 0 1-14.2-4.2zm-5.4 3.4a22.8 22.8 0 0 0-2.9 3v-6l1 1a25.2 25.2 0 0 0 2 2zm-1.9-3.7h5.3a24.4 24.4 0 0 1-1.6 2l-1 1a23 23 0 0 0-2-2.2l-.6-.8zm2.7 4.4a25.2 25.2 0 0 0 2.1 2l.8 1h-5.9a22.8 22.8 0 0 0 3-3zm2.8 1.3a23 23 0 0 0-2-2l1-1a24.4 24.4 0 0 1 1.9-1.6v5.3l-.8-.7zm1 2.7a20.8 20.8 0 0 1 3.8 11.5 24.4 24.4 0 0 1-7.6 18.1 24.4 24.4 0 0 1-7.6-18.1 20.8 20.8 0 0 1 3.9-11.5zm-8.5-8.4v7.4a20.8 20.8 0 0 1-11.5 3.9 24.4 24.4 0 0 1-18.1-7.6 24.4 24.4 0 0 1 18.1-7.6 20.8 20.8 0 0 1 11.6 3.9zm-3.9 19.9a25.4 25.4 0 0 0 8.2 19.2.5.5 0 0 0 .7 0 25.4 25.4 0 0 0 8.3-19.2 22 22 0 0 0-2.3-9.2l46.8 46.8v8L202.6 420a25 25 0 0 0 3-12.7 21.9 21.9 0 0 0-8.2-16.5.5.5 0 0 0-.6 0 21.9 21.9 0 0 0-8.3 16.5 25 25 0 0 0 3.2 12.7L144 372.3v-8l46.8-46.8a22 22 0 0 0-2.3 9.2zm7.8 99.4a22.8 22.8 0 0 0-2.9 3v-6l1 .9a25.2 25.2 0 0 0 2 2zm-1.9-3.7h5.3a24.4 24.4 0 0 1-1.6 2l-1 1a23 23 0 0 0-2-2.2l-.6-.8zm2.7 4.4a25.2 25.2 0 0 0 2.1 2l.8 1h-5.8a22.8 22.8 0 0 0 3-3zm2.9 1.3a23 23 0 0 0-2.2-2l1-1a24.5 24.5 0 0 1 2-1.6v5.3l-.8-.7zm.4-6.7h-6.7a24.1 24.1 0 0 1-4.2-14.2 20.9 20.9 0 0 1 7.6-15.5 20.9 20.9 0 0 1 7.6 15.5 24.1 24.1 0 0 1-4.2 14.2zm.4 9.3a20.8 20.8 0 0 1 3.9 11.5 24.4 24.4 0 0 1-7.6 18.2 24.4 24.4 0 0 1-7.6-18.2 20.8 20.8 0 0 1 3.9-11.5zm1-8a24 24 0 0 1 14.1-4.2 20.9 20.9 0 0 1 15.5 7.6 20.9 20.9 0 0 1-15.5 7.6 24 24 0 0 1-14.2-4.3zm-9.4-.3v7.4a20.8 20.8 0 0 1-11.5 3.9 24.3 24.3 0 0 1-18.1-7.6 24.3 24.3 0 0 1 18.1-7.6 20.8 20.8 0 0 1 11.6 3.9zm466.3 3.7a22.8 22.8 0 0 0-3 3v-6l1 .9a25.2 25.2 0 0 0 2 2zm-2-3.7h5.4a24.4 24.4 0 0 1-1.6 2q-.6.4-1 1a23 23 0 0 0-2-2.2l-.7-.8zm2.8 4.4a25.2 25.2 0 0 0 2 2l.9 1h-5.9a22.8 22.8 0 0 0 3-3zm2.8 1.3a23 23 0 0 0-2.1-2l1-1a24.6 24.6 0 0 1 1.9-1.6v5.3l-.8-.7zm.5-6.7H656a24.1 24.1 0 0 1-4.2-14.1 20.9 20.9 0 0 1 7.6-15.6 20.9 20.9 0 0 1 7.5 15.6 24.1 24.1 0 0 1-4.2 14.1zm-8 1v7.4a20.8 20.8 0 0 1-11.5 3.8 24.3 24.3 0 0 1-18.2-7.5 24.3 24.3 0 0 1 18.2-7.6 20.8 20.8 0 0 1 11.5 3.9zm12.2 19.9a24.4 24.4 0 0 1-7.6 18.1 24.4 24.4 0 0 1-7.5-18.1 20.8 20.8 0 0 1 3.8-11.6h7.4a20.8 20.8 0 0 1 3.9 11.6zm-3-19.6a24 24 0 0 1 14.3-4.2 20.9 20.9 0 0 1 15.5 7.6 20.9 20.9 0 0 1-15.5 7.6 24 24 0 0 1-14.2-4.3zm4-15.5a21.9 21.9 0 0 0-8.3-16.5.5.5 0 0 0-.6 0 21.9 21.9 0 0 0-8.3 16.5A25 25 0 0 0 654 420l-47.7-47.7v-7.9l46.8-46.8a22 22 0 0 0-2.2 9.1A25.4 25.4 0 0 0 659 346a.5.5 0 0 0 .7 0 25.4 25.4 0 0 0 8.2-19.2 22 22 0 0 0-2.3-9.2l46.9 46.8v8L664.9 420a25 25 0 0 0 3.1-12.8zm-1-80.5a24.4 24.4 0 0 1-7.6 18.1 24.4 24.4 0 0 1-7.5-18.1 20.8 20.8 0 0 1 3.8-11.5h7.4a20.8 20.8 0 0 1 3.9 11.5zm-3-19.6a24.1 24.1 0 0 1 14.3-4.2 20.9 20.9 0 0 1 15.5 7.6 20.9 20.9 0 0 1-15.5 7.6 24.1 24.1 0 0 1-14.2-4.2zm4-15.4a21.9 21.9 0 0 0-8.3-16.6.5.5 0 0 0-.6 0 21.9 21.9 0 0 0-8.3 16.6 25 25 0 0 0 3.2 12.7l-47.7-47.7v-8l46.8-46.8a22 22 0 0 0-2.2 9.2 25.4 25.4 0 0 0 8.2 19.2.5.5 0 0 0 .7 0 25.4 25.4 0 0 0 8.2-19.2 22 22 0 0 0-2.3-9.2l46.9 46.9v7.9l-47.7 47.7a25 25 0 0 0 3.1-12.7zm-9.3-96.8a22.8 22.8 0 0 0-3 3V192l1 .8a25.2 25.2 0 0 0 2 2.1zm-2-3.6h5.4a24.4 24.4 0 0 1-1.6 1.9l-1 1a23 23 0 0 0-2-2.1l-.7-.8zm2.8 4.4a25.2 25.2 0 0 0 2 2q.5.4.9 1h-5.9a22.8 22.8 0 0 0 3-3zm2.8 1.2a23 23 0 0 0-2.1-2l1-1a24.4 24.4 0 0 1 2-1.6v5.3l-.9-.7zm.5-6.6h-6.7a24.1 24.1 0 0 1-4.2-14.2 20.9 20.9 0 0 1 7.6-15.5A20.9 20.9 0 0 1 667 176a24.1 24.1 0 0 1-4.2 14.2zM667 211a24.4 24.4 0 0 1-7.6 18.2A24.4 24.4 0 0 1 652 211a20.8 20.8 0 0 1 3.8-11.5h7.4A20.8 20.8 0 0 1 667 211zm-23.8-8.6a24.3 24.3 0 0 1-18.1-7.6 24.4 24.4 0 0 1 18.1-7.5 20.8 20.8 0 0 1 11.6 3.8v7.4a20.8 20.8 0 0 1-11.5 3.9zm20.9-11a24.2 24.2 0 0 1 14.2-4.1 20.9 20.9 0 0 1 15.5 7.5 20.9 20.9 0 0 1-15.5 7.6 24 24 0 0 1-14.2-4.2zM143 249.2v7.3h-7.3V249zm0 115.5v7.4h-7.3v-7.3zm0 115.6v7.3h-7.3v-7.3zm570.6 7.3v-7.3h7.3v7.3zm0-115.5v-7.4h7.3v7.4zm0-115.6V249h7.3v7.3zm0-115.6v-7.3h7.3v7.3zm-35.3-69a20.9 20.9 0 0 1 15.5 7.6 20.9 20.9 0 0 1-15.5 7.5 24 24 0 0 1-14.2-4.2V76a24.1 24.1 0 0 1 14.2-4.2zm-26.4-11.3a20.9 20.9 0 0 1 7.6-15.5 20.9 20.9 0 0 1 7.5 15.5 24.1 24.1 0 0 1-4.2 14.2H656a24.1 24.1 0 0 1-4.2-14.2zm2.9 15.1v7.5a20.8 20.8 0 0 1-11.5 3.8 24.3 24.3 0 0 1-18.2-7.6 24.5 24.5 0 0 1 18.2-7.5 20.8 20.8 0 0 1 11.5 3.8zM598 18h7.3v7.3H598zm-.3 8.3h8l46.8 46.9a22 22 0 0 0-9.2-2.3 25.4 25.4 0 0 0-19.2 8.2.5.5 0 0 0 0 .7 25.5 25.5 0 0 0 18.5 8.2h.7a22 22 0 0 0 9.2-2.3l-46.9 46.9h-7.9L550 84.8a25 25 0 0 0 12 3.1h.7a21.9 21.9 0 0 0 16.6-8.2.5.5 0 0 0 0-.7 21.9 21.9 0 0 0-16.6-8.2 25 25 0 0 0-12.7 3.1zm-35 45.6a20.9 20.9 0 0 1 15.5 7.5 20.9 20.9 0 0 1-15.5 7.6 24 24 0 0 1-14.2-4.2V76a24.1 24.1 0 0 1 14.2-4.2zm-26.4-11.3a20.9 20.9 0 0 1 7.6-15.5 20.9 20.9 0 0 1 7.5 15.5 24.1 24.1 0 0 1-4.2 14.2h-6.7a24.1 24.1 0 0 1-4.2-14.2zm3 15.1v7.5a20.8 20.8 0 0 1-11.6 3.8 24.3 24.3 0 0 1-18.2-7.6 24.5 24.5 0 0 1 18.2-7.5 20.8 20.8 0 0 1 11.5 3.8zm-57-57.7h7.3v7.3h-7.3zm-.3 8.3h7.9l46.8 46.9a22 22 0 0 0-9.1-2.3 25.4 25.4 0 0 0-19.2 8.2.5.5 0 0 0 0 .7 25.5 25.5 0 0 0 18.5 8.2h.7a22 22 0 0 0 9.2-2.2L490 132.4h-8l-47.6-47.7a25 25 0 0 0 12 3.1h.7a21.9 21.9 0 0 0 16.5-8.2.5.5 0 0 0 0-.7 21.9 21.9 0 0 0-16.5-8.2 25 25 0 0 0-12.7 3.1zm-35 45.6a20.9 20.9 0 0 1 15.6 7.5A20.9 20.9 0 0 1 447 87a24 24 0 0 1-14.1-4.2V76a24.1 24.1 0 0 1 14.1-4.2zm-26.4-11.3a20.9 20.9 0 0 1 7.6-15.5 20.9 20.9 0 0 1 7.6 15.5 24.1 24.1 0 0 1-4.2 14.2h-6.8a24.1 24.1 0 0 1-4.2-14.2zm3 15.1v7.5A20.8 20.8 0 0 1 412 87a24.3 24.3 0 0 1-18.1-7.6 24.5 24.5 0 0 1 18.1-7.5 20.8 20.8 0 0 1 11.5 3.8zM366.7 18h7.4v7.3h-7.4zm-.3 8.3h8l46.8 46.9a22 22 0 0 0-9.2-2.3 25.4 25.4 0 0 0-19 8.1.5.5 0 0 0 0 .7 25.5 25.5 0 0 0 18.5 8.2h.7a22 22 0 0 0 9.2-2.3l-46.9 46.9h-7.9l-47.7-47.7a25 25 0 0 0 12 3.1h.8a21.9 21.9 0 0 0 16.5-8.2.5.5 0 0 0 0-.7 21.9 21.9 0 0 0-16.5-8.2 24.9 24.9 0 0 0-12.8 3.1zm-35 45.6a20.9 20.9 0 0 1 15.6 7.5 20.9 20.9 0 0 1-15.6 7.6 24.1 24.1 0 0 1-14.1-4.2V76a24.1 24.1 0 0 1 14.1-4.2zM305 60.6a20.9 20.9 0 0 1 7.6-15.5 20.9 20.9 0 0 1 7.6 15.5 24.1 24.1 0 0 1-4.2 14.2h-6.8a24.1 24.1 0 0 1-4.2-14.2zm2.9 15.1v7.5a20.8 20.8 0 0 1-11.5 3.8 24.4 24.4 0 0 1-18.2-7.6 24.4 24.4 0 0 1 18.2-7.5 20.8 20.8 0 0 1 11.5 3.8zM251.2 18h7.4v7.3h-7.4zm-.2 8.3h8l46.8 46.9a22 22 0 0 0-9.2-2.3 25.4 25.4 0 0 0-19.3 8.2.5.5 0 0 0 0 .7 25.5 25.5 0 0 0 18.5 8.2h.7a22 22 0 0 0 9.2-2.3l-46.8 46.9H251l-47.7-47.7a25 25 0 0 0 12 3.1h.7a21.9 21.9 0 0 0 16.5-8.2.5.5 0 0 0 0-.7 21.9 21.9 0 0 0-16.5-8.2 24.9 24.9 0 0 0-12.7 3.1zm-35 45.6a20.9 20.9 0 0 1 15.5 7.5A20.9 20.9 0 0 1 216 87a24.1 24.1 0 0 1-14.2-4.2V76a24.2 24.2 0 0 1 14.1-4.2zm-26.4-11.3A20.9 20.9 0 0 1 197 45a20.9 20.9 0 0 1 7.6 15.5 24.1 24.1 0 0 1-4.2 14.2h-6.7a24.1 24.1 0 0 1-4.3-14.2zm2.9 15.1v7.5a20.8 20.8 0 0 1-11.6 3.8 24.4 24.4 0 0 1-18.1-7.6 24.4 24.4 0 0 1 18.1-7.5 20.8 20.8 0 0 1 11.6 3.8zM135.7 18h7.3v7.3h-7.3zm-.3 8.3h7.9L190 73.1a22 22 0 0 0-9.1-2.3 25.4 25.4 0 0 0-19.3 8.2.5.5 0 0 0 0 .7 25.5 25.5 0 0 0 18.5 8.2h.8a22 22 0 0 0 9.2-2.3l-46.9 46.9h-7.9L87.7 84.8a25 25 0 0 0 12 3.1h.7a21.9 21.9 0 0 0 16.6-8.2.5.5 0 0 0 0-.7 21.9 21.9 0 0 0-16.6-8.2 24.9 24.9 0 0 0-12.7 3.1zm-51 55.2a23 23 0 0 0-2.1-2l1-1a24.4 24.4 0 0 1 1.9-1.7V82l-.8-.7zm.1 1.6h-5.9a22.8 22.8 0 0 0 3-3 25.2 25.2 0 0 0 2.1 2l.8 1zm-2-5.4l-1 1a23 23 0 0 0-2-2.1l-.6-.8h5.3a24.5 24.5 0 0 1-1.6 2zm-1.7 1.7a22.8 22.8 0 0 0-3 3v-6l1 1a25.2 25.2 0 0 0 2 2zm4.5 4.7A20.8 20.8 0 0 1 89 95.5a24.4 24.4 0 0 1-7.6 18.2A24.4 24.4 0 0 1 74 95.5 20.8 20.8 0 0 1 77.8 84zm15-12.2a20.9 20.9 0 0 1 15.6 7.5 20.9 20.9 0 0 1-15.5 7.6 24.1 24.1 0 0 1-14.2-4.2V76a24.2 24.2 0 0 1 14.2-4.2zM74 60.5A20.9 20.9 0 0 1 81.5 45a20.9 20.9 0 0 1 7.6 15.5A24.1 24.1 0 0 1 85 74.7h-6.7A24.1 24.1 0 0 1 74 60.5zM65.4 87a24.4 24.4 0 0 1-18.2-7.6 24.4 24.4 0 0 1 18.2-7.5 20.8 20.8 0 0 1 11.5 3.8v7.5A20.8 20.8 0 0 1 65.3 87zm-37 54.2v-8l46.8-46.8a22 22 0 0 0-2.2 9.2 25.4 25.4 0 0 0 8.2 19.2.5.5 0 0 0 .7 0 25.4 25.4 0 0 0 8.2-19.2 22 22 0 0 0-2.3-9.2l46.9 46.9v7.9L87 188.8a25 25 0 0 0 3.1-12.7 21.9 21.9 0 0 0-8.2-16.6.5.5 0 0 0-.7 0 21.9 21.9 0 0 0-8.2 16.6 25 25 0 0 0 3.1 12.7zm37 61.4a24.4 24.4 0 0 1-18.2-7.6 24.4 24.4 0 0 1 18.1-7.5 20.8 20.8 0 0 1 11.6 3.8v7.5a20.8 20.8 0 0 1-11.6 3.8zm-37 54.2v-8L75.3 202a22 22 0 0 0-2.3 9.2 25.4 25.4 0 0 0 8.2 19.2.5.5 0 0 0 .7 0 25.4 25.4 0 0 0 8.2-19.2 22 22 0 0 0-2.2-9.2l46.8 46.9v7.9L87 304.4a25 25 0 0 0 3.1-12.7A21.9 21.9 0 0 0 82 275a.5.5 0 0 0-.7 0 21.9 21.9 0 0 0-8.2 16.6 25 25 0 0 0 3.1 12.7zm37 61.4a24.4 24.4 0 0 1-18.2-7.6 24.4 24.4 0 0 1 18.1-7.6 20.8 20.8 0 0 1 11.6 3.9v7.4a20.8 20.8 0 0 1-11.6 3.9zm-37 54.2v-8l46.9-46.8a22 22 0 0 0-2.3 9.2 25.4 25.4 0 0 0 8.2 19.2.5.5 0 0 0 .7 0 25.4 25.4 0 0 0 8.2-19.2 22 22 0 0 0-2.2-9.2l46.8 46.9v7.9L87 420a25 25 0 0 0 3.1-12.7 21.9 21.9 0 0 0-8.2-16.5.5.5 0 0 0-.7 0 21.9 21.9 0 0 0-8.2 16.4 25 25 0 0 0 3.1 12.8zm37 61.4a24.3 24.3 0 0 1-18.2-7.6 24.3 24.3 0 0 1 18.1-7.6 20.8 20.8 0 0 1 11.6 3.9v7.4a20.8 20.8 0 0 1-11.6 3.9zm-37 54.1V480l46.8-46.8a22 22 0 0 0-2.2 9.1 25.4 25.4 0 0 0 8.2 19.3.5.5 0 0 0 .7 0 25.4 25.4 0 0 0 8.2-19.2A22 22 0 0 0 88 433l46.8 46.8v8L87 535.5a25 25 0 0 0 3.1-12.7 21.9 21.9 0 0 0-8.2-16.5.5.5 0 0 0-.7 0 21.9 21.9 0 0 0-8.2 16.5 25 25 0 0 0 3.1 12.7zm37 61.4a24.3 24.3 0 0 1-18.2-7.5 24.3 24.3 0 0 1 18.1-7.6A20.8 20.8 0 0 1 77 538v7.4a20.8 20.8 0 0 1-11.6 3.9zm-37 54.2v-7.9l46.9-46.8a22 22 0 0 0-2.3 9.1 25.4 25.4 0 0 0 8.2 19.3.5.5 0 0 0 .7 0 25.4 25.4 0 0 0 8.2-19.3 22 22 0 0 0-2.2-9.1l46.8 46.8v8L87 651a25 25 0 0 0 3.1-12.7A21.9 21.9 0 0 0 82 622a.5.5 0 0 0-.7 0 21.9 21.9 0 0 0-8.2 16.5 25 25 0 0 0 3.1 12.7zm52.4 53.8a22.8 22.8 0 0 0-3 3v-5.9q.6.4 1 .9a25.2 25.2 0 0 0 2 2zm-1.9-3.6h5.3a24.5 24.5 0 0 1-1.6 2l-1 1a23 23 0 0 0-2-2.2l-.7-.8zm2.7 4.4a25.2 25.2 0 0 0 2 2l.9 1h-5.9a22.8 22.8 0 0 0 3-3zm2.8 1.3a23 23 0 0 0-2.1-2l1-1a24.5 24.5 0 0 1 2-1.6v5.2l-.9-.6zm.5-6.7h-6.7a24.1 24.1 0 0 1-4.2-14.2 20.9 20.9 0 0 1 7.6-15.5 20.9 20.9 0 0 1 7.5 15.5 24.1 24.1 0 0 1-4.2 14.2zm1.3 1.3a24 24 0 0 1 14.2-4.2 20.9 20.9 0 0 1 15.5 7.5 20.9 20.9 0 0 1-15.5 7.6 24 24 0 0 1-14.2-4.2zm-20.9 11a24.3 24.3 0 0 1-18-7.6 24.3 24.3 0 0 1 18-7.6 20.8 20.8 0 0 1 11.6 3.8v7.5a20.8 20.8 0 0 1-11.6 3.8zm23.8 8.5a24.4 24.4 0 0 1-7.6 18.2 24.4 24.4 0 0 1-7.5-18.1 20.8 20.8 0 0 1 3.9-11.6h7.4a20.8 20.8 0 0 1 3.8 11.6zm53.9 45.3h-7.3v-7.3h7.3zm.3-8.3h-8l-47.6-47.7a25 25 0 0 0 12 3.1h.7a21.9 21.9 0 0 0 16.5-8.2.5.5 0 0 0 0-.6 21.9 21.9 0 0 0-16.5-8.3 24.8 24.8 0 0 0-12.7 3.1l47.7-47.7h7.9L190 651a22 22 0 0 0-9.1-2.3 25.4 25.4 0 0 0-19.3 8.2.5.5 0 0 0 0 .7 25.5 25.5 0 0 0 18.5 8.3h.8a22 22 0 0 0 9.2-2.3zm37.6-45.6a24.3 24.3 0 0 1-18.1-7.5 24.3 24.3 0 0 1 18.1-7.6 20.8 20.8 0 0 1 11.6 3.8v7.5a20.8 20.8 0 0 1-11.6 3.8zm23.8 8.6a24.4 24.4 0 0 1-7.6 18.2 24.4 24.4 0 0 1-7.5-18.2 20.8 20.8 0 0 1 3.8-11.5h7.4a20.8 20.8 0 0 1 3.9 11.6zm53.9 45.3h-7.3v-7.3h7.3zm.3-8.3H251l-47.7-47.7a25 25 0 0 0 12 3.1h.7a21.9 21.9 0 0 0 16.6-8.2.5.5 0 0 0 0-.6 21.9 21.9 0 0 0-16.6-8.3 24.8 24.8 0 0 0-12.7 3.1l47.7-47.7h8l46.7 46.9a22 22 0 0 0-9.2-2.3 25.4 25.4 0 0 0-19.2 8.2.5.5 0 0 0 0 .7 25.5 25.5 0 0 0 18.5 8.3h.7a22 22 0 0 0 9.2-2.3zm37.6-45.6a24.3 24.3 0 0 1-18.1-7.5 24.3 24.3 0 0 1 18.1-7.6 20.8 20.8 0 0 1 11.5 3.8v7.5a20.8 20.8 0 0 1-11.5 3.8zm23.8 8.6a24.4 24.4 0 0 1-7.6 18.2 24.4 24.4 0 0 1-7.6-18.2A20.8 20.8 0 0 1 309 662h7.4a20.8 20.8 0 0 1 3.9 11.6zm53.9 45.3h-7.4v-7.3h7.4zm.2-8.3h-7.9l-47.7-47.7a25 25 0 0 0 12 3.1h.8a21.9 21.9 0 0 0 16.5-8.2.5.5 0 0 0 0-.6 21.9 21.9 0 0 0-16.5-8.3 24.8 24.8 0 0 0-12.7 3.1l47.6-47.7h8l46.8 46.9a22 22 0 0 0-9.2-2.3A25.3 25.3 0 0 0 393 657a.5.5 0 0 0 0 .7 25.5 25.5 0 0 0 18.5 8.3h.7a22 22 0 0 0 9.2-2.3zm37.7-45.6a24.3 24.3 0 0 1-18.1-7.5 24.4 24.4 0 0 1 18.1-7.6 20.8 20.8 0 0 1 11.6 3.8v7.5a20.8 20.8 0 0 1-11.6 3.8zm23.8 8.7a24.4 24.4 0 0 1-7.6 18.1 24.4 24.4 0 0 1-7.6-18.1 20.8 20.8 0 0 1 3.9-11.6h7.4a20.8 20.8 0 0 1 3.9 11.6zm53.8 45.2h-7.3v-7.3h7.3zm.3-8.3h-7.9l-47.7-47.7a25 25 0 0 0 12 3.2h.7a21.9 21.9 0 0 0 16.6-8.3.5.5 0 0 0 0-.6 21.9 21.9 0 0 0-16.6-8.3 24.8 24.8 0 0 0-12.7 3.1l47.7-47.7h7.9l46.9 46.9a22 22 0 0 0-9.2-2.3 25.3 25.3 0 0 0-19.2 8.2.5.5 0 0 0 0 .7A25.5 25.5 0 0 0 527 666h.7a22 22 0 0 0 9.2-2.3zm37.7-45.6a24.3 24.3 0 0 1-18.2-7.5 24.4 24.4 0 0 1 18.2-7.6 20.8 20.8 0 0 1 11.5 3.9v7.4a20.8 20.8 0 0 1-11.5 3.8zm23.7 8.7a24.4 24.4 0 0 1-7.5 18.1 24.4 24.4 0 0 1-7.6-18.1 20.8 20.8 0 0 1 3.8-11.6h7.5a20.8 20.8 0 0 1 3.9 11.6zm54 45.2H598v-7.3h7.3zm.2-8.3h-7.9L550 662.7a25 25 0 0 0 12 3.1h.7a21.9 21.9 0 0 0 16.6-8.2.5.5 0 0 0 0-.6 21.9 21.9 0 0 0-16.6-8.3 24.8 24.8 0 0 0-12.7 3.1l47.7-47.7h8l46.8 46.9a22 22 0 0 0-9.2-2.3 25.3 25.3 0 0 0-19.2 8.2.5.5 0 0 0 0 .7 25.5 25.5 0 0 0 18.5 8.3h.7a22 22 0 0 0 9.2-2.3zm37.7-45.5a24.3 24.3 0 0 1-18.2-7.6 24.4 24.4 0 0 1 18.2-7.6 20.8 20.8 0 0 1 11.5 3.9v7.4a20.8 20.8 0 0 1-11.5 3.8zm23.7 8.6a24.4 24.4 0 0 1-7.6 18 24.4 24.4 0 0 1-7.5-18 20.8 20.8 0 0 1 3.8-11.6h7.4a20.8 20.8 0 0 1 3.9 11.6zm53.9 45.2h-7.3v-7.3h7.3zm.3-8.3h-7.9l-47.7-47.7a25 25 0 0 0 12 3.1h.7a21.9 21.9 0 0 0 16.6-8.2.5.5 0 0 0 0-.6 21.9 21.9 0 0 0-16.6-8.3 24.8 24.8 0 0 0-12.7 3.1l47.7-47.7h8L768 651a22 22 0 0 0-9.2-2.3 25.3 25.3 0 0 0-19.2 8.2.5.5 0 0 0 0 .7 25.5 25.5 0 0 0 18.5 8.3h.7a22 22 0 0 0 9.2-2.3zm37.6-45.6a24.3 24.3 0 0 1-18.1-7.5 24.4 24.4 0 0 1 18.1-7.6 20.8 20.8 0 0 1 11.5 3.8v7.5a20.8 20.8 0 0 1-11.4 3.8zm15.5-7.6a22.8 22.8 0 0 0-3 3v-5.9l1 .9a25.2 25.2 0 0 0 2 2zm-2-3.6h5.4a24.4 24.4 0 0 1-1.7 2l-1 1a23 23 0 0 0-2-2.2 16 16 0 0 1-.6-.8zm2.7 4.4a25.2 25.2 0 0 0 2.1 2l.9 1h-6a22.8 22.8 0 0 0 3-3zm2.9 1.3a23 23 0 0 0-2.1-2l1-1a24.6 24.6 0 0 1 1.9-1.6v5.2l-.8-.6zm.5-6.7h-6.8a24.1 24.1 0 0 1-4.2-14.2A20.9 20.9 0 0 1 775 623a20.9 20.9 0 0 1 7.6 15.5 24.1 24.1 0 0 1-4.2 14.2zm4.2 20.8a24.4 24.4 0 0 1-7.6 18.2 24.4 24.4 0 0 1-7.6-18.1 20.8 20.8 0 0 1 3.9-11.6h7.4a20.8 20.8 0 0 1 4 11.6zm11.2-23.7a20.9 20.9 0 0 1 15.6 7.5 20.9 20.9 0 0 1-15.6 7.6 24 24 0 0 1-14.1-4.2V654a24 24 0 0 1 14.2-4.2zm34.3-54.2v8L780.4 651a25 25 0 0 0 3.2-12.7 21.9 21.9 0 0 0-8.3-16.5.5.5 0 0 0-.6 0 21.9 21.9 0 0 0-8.3 16.5 25 25 0 0 0 3.2 12.7l-47.7-47.7v-7.9l46.8-46.8a22 22 0 0 0-2.3 9.1 25.4 25.4 0 0 0 8.3 19.2.5.5 0 0 0 .6 0 25.4 25.4 0 0 0 8.3-19.2 22 22 0 0 0-2.3-9.1zM782.6 558a24.4 24.4 0 0 1-7.6 18 24.4 24.4 0 0 1-7.6-18.1 20.8 20.8 0 0 1 3.9-11.6h7.4a20.8 20.8 0 0 1 4 11.6zm11.2-23.8a20.9 20.9 0 0 1 15.6 7.6 20.9 20.9 0 0 1-15.6 7.5 24 24 0 0 1-14.1-4.2v-6.7a23.9 23.9 0 0 1 14.2-4.2zm34.3-54.2v8l-47.7 47.6a25 25 0 0 0 3.2-12.7 21.9 21.9 0 0 0-8.3-16.5.5.5 0 0 0-.6 0 21.9 21.9 0 0 0-8.3 16.5 25 25 0 0 0 3.2 12.7l-47.7-47.7V480l46.8-46.8a22 22 0 0 0-2.3 9.1 25.4 25.4 0 0 0 8.3 19.3.5.5 0 0 0 .6 0 25.4 25.4 0 0 0 8.3-19.3 22 22 0 0 0-2.3-9.1zm-45.5-37.6a24.4 24.4 0 0 1-7.6 18.1 24.4 24.4 0 0 1-7.6-18.1 20.8 20.8 0 0 1 3.9-11.5h7.4a20.8 20.8 0 0 1 4 11.5zm11.2-23.8a20.9 20.9 0 0 1 15.6 7.6 20.9 20.9 0 0 1-15.6 7.6 24 24 0 0 1-14.1-4.2v-6.8a24 24 0 0 1 14.2-4.2zm34.3-54.1v7.9L780.5 420a25 25 0 0 0 3.1-12.7 21.9 21.9 0 0 0-8.3-16.5.5.5 0 0 0-.6 0 21.9 21.9 0 0 0-8.2 16.5 25 25 0 0 0 3.1 12.7L722 372.3v-7.9l46.9-46.8a22 22 0 0 0-2.3 9.1 25.4 25.4 0 0 0 8.2 19.2.5.5 0 0 0 .7 0 25.4 25.4 0 0 0 8.2-19.2 22 22 0 0 0-2.3-9.1zm-45.5-37.7a24.4 24.4 0 0 1-7.6 18.1 24.4 24.4 0 0 1-7.6-18.1 20.8 20.8 0 0 1 3.9-11.5h7.4a20.8 20.8 0 0 1 4 11.5zm11.3-23.8a20.9 20.9 0 0 1 15.5 7.6 20.9 20.9 0 0 1-15.5 7.6 24.1 24.1 0 0 1-14.2-4.2v-6.7a24.1 24.1 0 0 1 14.2-4.3zm34.3-54.1v7.9l-47.7 47.7a25 25 0 0 0 3.1-12.7 21.9 21.9 0 0 0-8.3-16.6.5.5 0 0 0-.6 0 21.9 21.9 0 0 0-8.2 16.6 25 25 0 0 0 3 12.7L722 256.7v-8l46.8-46.8a22 22 0 0 0-2.2 9.2 25.4 25.4 0 0 0 8.2 19.2.5.5 0 0 0 .7 0 25.4 25.4 0 0 0 8.2-19.2 22 22 0 0 0-2.3-9.2zM782.6 211a24.4 24.4 0 0 1-7.6 18.2 24.4 24.4 0 0 1-7.6-18.2 20.8 20.8 0 0 1 3.9-11.5h7.4a20.8 20.8 0 0 1 4 11.5zm11.3-23.7a20.9 20.9 0 0 1 15.5 7.5 20.9 20.9 0 0 1-15.5 7.6 24 24 0 0 1-14.2-4.2v-6.7a24.2 24.2 0 0 1 14.2-4.2zm34.3-54.2v7.9l-47.7 47.7a25 25 0 0 0 3.1-12.7 21.9 21.9 0 0 0-8.3-16.6.5.5 0 0 0-.6 0 21.9 21.9 0 0 0-8.2 16.6 25 25 0 0 0 3 12.7L722 141v-8l46.8-46.8a22 22 0 0 0-2.2 9.2 25.4 25.4 0 0 0 8.2 19.2.5.5 0 0 0 .7 0 25.4 25.4 0 0 0 8.2-19.2 22 22 0 0 0-2.3-9.2zm-45.6-37.7a24.4 24.4 0 0 1-7.6 18.2 24.4 24.4 0 0 1-7.6-18.2 20.8 20.8 0 0 1 4-11.5h7.4a20.8 20.8 0 0 1 3.8 11.5zM794 71.8a20.9 20.9 0 0 1 15.5 7.5 20.9 20.9 0 0 1-15.5 7.6 24 24 0 0 1-14.2-4.2V76a24.1 24.1 0 0 1 14.2-4.2z" transform="translate(21 25.5)"/><path class="cls-7" d="M40.5 42.9h817.4v701.8H40.5z"/><path class="cls-8" d="M889.6 549.5A53.7 53.7 0 0 0 884 529a228.9 228.9 0 0 0-32-49.6q-4.8-5.7-10.1-11.1a661.9 661.9 0 0 0-91-78.6c-27.8-19.7-56.1-39-87.2-53a277.2 277.2 0 0 0-50.8-17 308 308 0 0 0-48.8-7.3l.8-.7q4.1-4.5 7.9-9.3c15.5-19.7 27-42.8 35-67 6.3-2 12.8-7.4 18.7-14.2 9.5-11 17.3-25.6 20-34 3.2-10.1 5.4-25 1-35.5a22.3 22.3 0 0 0-2.6-4.6 19.2 19.2 0 0 0-8.9-6.7 24.9 24.9 0 0 0-4.3-1.2 23.4 23.4 0 0 0-7-.2 260.2 260.2 0 0 0-4.4-57l-.9-4.2a142.7 142.7 0 0 0-29.5-63 109.2 109.2 0 0 0-23-20.4c-26.8-17.7-66-25.2-97.5-15.9l-6.9 2.4C425.1-4.5 392.7 32.7 379.2 70a200 200 0 0 0-6.8 25.3c-5.7 26.6-9.3 58.6-8 65a27.5 27.5 0 0 0 .7 3l.4 1-.4.7.5-.4c2 5.6 5.7 10 9.8 14.6l3.2 3.6h-1.1c-1 .3-2 .4-3.2.6l-.5.1-2.8.6-.8.2-3.3.8v.4l-.1.4v.1l-.1.5v.1l-.1.5v.1l-.1.5v.5l-.2.5v.5l-.1.7v.6l-.2 1.2v1.7l-.1 1v7.6l.1 1.2v.6l.3 1.8.3 1.8.1.5.3 1.3.1.6a81.4 81.4 0 0 0 1.1 3.7h.5l.4.1h.1l.7.2h.2l.7.2h.3l.8.2h.3l1.2.3h.3l1 .3h.5l1.2.2h.4l1.7.3h.3l1.6.2h.8c-3 4-5.4 8.4-3.7 15a114 114 0 0 0 12.7 27.1 12.3 12.3 0 0 0-4.5 3.7 5.7 5.7 0 0 0-1 3.6 8 8 0 0 0 .2 1.4l.2.8c1.6 5.2 8.6 10 16.1 13.3l.7 3a84.8 84.8 0 0 1 1.4 11.3 22.2 22.2 0 0 1-1 8v.3c-7 .5-9.2 1.6-9.2 1.6l1 1.5a104 104 0 0 0 23.1 27.9l1.8 1.4c-43 19.6-76 54.5-98.4 95.6a287 287 0 0 0-28.5 77.5l42.1 85.2c31.2 0 50.2-5.7 50.2-5.7.1-13.7.5-26.5 1-38.4l1.6 10.7c4.1 24.8 11.9 36.3 14.8 40a5.7 5.7 0 0 0 2.7 1.8 107.8 107.8 0 0 0 32 5 103.2 103.2 0 0 0 17-1.4c3 27.1 4 59.2 0 92.6q-1 8-2.3 16.2c70.4 1.5 141 1.5 211.3.8a90 90 0 0 1-5.2 7.1c18.2-.3 36.3.1 54.4.5a3263.3 3263.3 0 0 0-32.5-138l22 2c29.8 2.7 59.1 7.6 88.9 11.5 25.1 3.2 50.2 3.5 73-8 1.9-1 3.8-2 5.7-3.2a42.1 42.1 0 0 0 19.4-24.6 40.9 40.9 0 0 0 1.4-13.2zM389.7 494c3.3-30 7-48.6 8.6-55.5l.6-2.9s.3 2.3 1.1 6.3a226.5 226.5 0 0 0 17.5 50.6c-12 .2-22.3.7-27.8 1.5zM643 331zm50 207.7c-8.2 1-17 1.5-25.9 1.7a1425.7 1425.7 0 0 0-36.7-114.3s81.8 29.3 107.1 98l1.8 5c-15.3 3.9-30.6 7.9-46.3 9.6z" transform="translate(21 25.5)"/><path d="M389.1 384.5a16.3 16.3 0 0 1-4.3-6.6c-44.5 15.5-78.3 49-100.3 89.5 26.7-37.9 59.4-73.2 104.6-83zm187.1 187.9c4.8.1 9.6.4 14.4.7a1291 1291 0 0 0-31.2-100.3c9.4 32.7 19.1 65.5 16.8 99.6zm9.8 23.8a166.3 166.3 0 0 1 5 16c4 19 8 38 6 57-1 7-1 15-3 22-1 7-4 14-7 20a82.1 82.1 0 0 1-7.7 11.4c16-.3 31.8 0 47.6.4-10.7-49.9-20.8-92-30-126.8H586z" transform="translate(21 25.5)"/><path class="cls-9" d="M726 544.2a21.2 21.2 0 0 0 24-8.7 13.6 13.6 0 0 0 0-9.3c-8-21-31-33-48-49a33.5 33.5 0 0 1-3-3.5c-12.5-11.2-24.7-23-38-33.5a399.4 399.4 0 0 0-94.2-60.3 134.5 134.5 0 0 0-30.8-7.7c-21.7-3-59 2.8-54.2 30.8-11.4-4.2-13.4-16.4-10.8-27.8a114.3 114.3 0 0 1 4.3-12.4q-7.9 0-15.7.6a298.4 298.4 0 0 0-69.1 12.6l-5.7 1.9a16.3 16.3 0 0 0 4.3 6.6c-45.2 9.7-78 45-104.7 83a251.4 251.4 0 0 0-24.9 67.8l36.9 74.6c27.3 0 43.9-5 43.9-5 1-75.4 9.8-120 12.2-130.8l.6-2.6s.2 2 1 5.5c2.4 12 10.6 42.6 33.8 76.2 0 0 22.4 70.1 13 148.4l-2 14.1a5434 5434 0 0 0 185 .7l3.1-5.2c3-6 6-13 7-20 2-7 2-15 3-22 2-19-2-38-6-57a166.3 166.3 0 0 0-5-16l10.9.1-6.2-23.1-14.5-.8c2.3-34-7.3-66.8-16.7-99.5l-3.7-9.8s71.6 25.7 93.8 85.8c25.1-4 50.4-13.4 76.4-4.7z" transform="translate(21 25.5)"/><path d="M749.8 509.7q-4.3-5-8.9-9.7a582.8 582.8 0 0 0-79.7-68.8 460.8 460.8 0 0 0-76.4-46.4 242.7 242.7 0 0 0-44.4-15 275.8 275.8 0 0 0-65.1-7 114.3 114.3 0 0 0-4.3 12.4c-2.6 11.4-.6 23.6 10.8 27.8-4.7-28 32.5-33.8 54.2-30.8a134.5 134.5 0 0 1 30.7 7.6 398.7 398.7 0 0 1 94.3 60.4c13.3 10.5 25.5 22.3 38 33.5a33.5 33.5 0 0 0 3 3.5c17 16 40 28 48 49a13.6 13.6 0 0 1 0 9.3 21.2 21.2 0 0 1-24 8.7c-26-8.7-51.3.7-76.5 4.6a104 104 0 0 1 3.3 10.5s28.2-10 80.3-9.2a428.1 428.1 0 0 1 44.7 3 200.4 200.4 0 0 0-28-43.4z" transform="translate(21 25.5)"/><path class="cls-10" d="M448 593.8c-8.3 4-20.6 4-23.4 13.4h1.5c6.7.4 15 .5 22-1.9-1.2-3.6.4-7.9-.2-11.5z" transform="translate(21 25.5)"/><path class="cls-11" d="M456.3 555.7H454a46 46 0 0 0-8.4.1 31.6 31.6 0 0 0-8.3 2 17.1 17.1 0 0 1 7.8.4c2.4 1.2 3 3.5 3 6a17.5 17.5 0 0 1-.5 3.6 20 20 0 0 0 10.6.6c.6-4.2-.8-8.5-1.8-12.7z" transform="translate(21 25.5)"/><path class="cls-12" d="M451.8 568.3v1c0 17.5-7.6 27.4-25.7 26h-2.3l-4.4 11.8h5.2c2.8-9.4 15-9.4 23.3-13.4a7 7 0 0 0-.9-2.6 7 7 0 0 1 1 2.6c.5 3.6-1 7.9.2 11.6a21.4 21.4 0 0 0 8-4.7c7.5-7.2 10-21.3 10-31.3V568z" transform="translate(21 25.5)"/><path class="cls-11" d="M481.4 397.7a76.5 76.5 0 0 1-68.6 15.7l-1.3 2.6a13 13 0 0 0 2.2 1c6 2.3 25 6.6 62.9-9.5l7.4-3.3a50.9 50.9 0 0 1-2.6-6.5z" transform="translate(21 25.5)"/><path class="cls-13" d="M478 376.4l-61.5 22.1a60.3 60.3 0 0 1-1.3 7.4 48 48 0 0 1-2.4 7.5c23.2 6.4 51 0 68.6-15.7a63.2 63.2 0 0 1-2-7.4 69.4 69.4 0 0 1-1.4-14z" transform="translate(21 25.5)"/><path class="cls-14" d="M515.3 168.4c-44.3 8.9-89 11.3-133.9 11.9 45.7 3.5 91 .1 134-12zm5-65.5A95.6 95.6 0 0 0 500 85a108.7 108.7 0 0 0-85.4-13.9c37.2-5.5 76.4 7 105.6 31.8zm26.6 58.9c1.7 16.6 4 33.4-5.9 47.4-.8 1.2-10.8 11.2-14.2 15.3l1.1 3a103 103 0 0 0 8.1 16.1 103 103 0 0 1 12.3-2.8 253 253 0 0 0-1.4-79z" transform="translate(21 25.5)"/><path class="cls-15" d="M546.9 161.8l-.8-3.7a125.3 125.3 0 0 0-25.8-55.2A135 135 0 0 0 414.7 71l-6 2.1c-32.7 12.8-61 45.4-72.9 78a175 175 0 0 0-6 22.2 487.1 487.1 0 0 0 51.6 6.8c44.9-.5 89.6-3 134-11.9 3.3-1 6.6-1.9 9.8-3a91 91 0 0 0 1.6 59.2c3.4-4.2 13.4-14.1 14.2-15.3 9.9-14 7.6-30.8 5.9-47.4z" transform="translate(21 25.5)"/><path class="cls-11" d="M526.8 224.5a49.3 49.3 0 0 0-5.8 8.6 39.5 39.5 0 0 0 7.8-3.4l-2-5.2zm-113.6 25.8a151.7 151.7 0 0 0 67.9-2.4c-22-6.7-46.8-9.6-68 2.4zm-80.8-3.5l5.7 6.4h29.4a53.5 53.5 0 0 0-35.1-6.4zM491.9 174a392.6 392.6 0 0 1-108.5 6.4c36 7.7 73.7 4.7 108.5-6.3zM372 254v2.4c12.1-4.3 25-5.8 37-1.6a7.8 7.8 0 0 1 .3-1.9 52.9 52.9 0 0 0-37.3 1z" transform="translate(21 25.5)"/><path class="cls-13" d="M536 243.6a102.8 102.8 0 0 1-5.2-9.6l-2-4.3a39.5 39.5 0 0 1-7.8 3.4 49.3 49.3 0 0 1 5.8-8.6c-7-19.1-8-40-1.6-59A337 337 0 0 1 492 174c-34.8 11-72.5 14-108.5 6.3a485.8 485.8 0 0 1-53.6-7c-5 23.3-8.1 51.4-7 56.9a24.1 24.1 0 0 0 .6 2.6 41 41 0 0 0 9 14 53 53 0 0 1 35.2 6.4H338l1.6 2c15.2 19.5-9.9 19.9-5.5 36.7a93.5 93.5 0 0 0 12.2 25.4 48.8 48.8 0 0 1 8 16.2c6.3 2.9 14.3 1.3 20.4 4a34.9 34.9 0 0 1-19.2.7 74.3 74.3 0 0 1 1.2 9.9c16.2-3.4 61.5-2 102.3 5.2a258.1 258.1 0 0 1 36.2 8.5l3 1q3.7-4 7-8.2a170.8 170.8 0 0 0 26-59.4l5-.1a283 283 0 0 0 11.2-47.8l.8-6.5a103 103 0 0 0-12.3 2.7zm-208.7-13.8c5.2-12 18.8-19 30.7-12.6a25 25 0 0 1 8.5 9.1 37.6 37.6 0 0 0-39.2 3.4zM464 211.2c5.5 2.8 9.4 8.1 13.9 13.6-3.1-1.2-5-4.4-7.9-6.6-19-10-37.8-2-54.5 7a36.2 36.2 0 0 1 48.5-14zm-55 43.7c-12-4.4-25-2.8-37 1.6v-2.6a53 53 0 0 1 37.3-1 7.8 7.8 0 0 0-.3 2zm4.1-4.6c21.1-12 46-9.1 68-2.4a151.7 151.7 0 0 1-68 2.4z" transform="translate(21 25.5)"/><path class="cls-3" d="M373.3 256l-.6-4.7s-23.9-5.7-47.7.7a43.5 43.5 0 0 0-.8 4.8c16-4.7 33-3.7 49-.7z" transform="translate(21 25.5)"/><path class="cls-16" d="M324.2 256.8c-.6 4.9-.8 12.7 1.8 20 0 0 20 6 46-.3a71.8 71.8 0 0 0 1.2-20.5c-16-2.8-33-4-49 .8z" transform="translate(21 25.5)"/><path class="cls-3" d="M487.5 257.4a63.1 63.1 0 0 0-.8-9c-48.5-8.7-77.7 2.3-77.7 2.3a49.7 49.7 0 0 0-.7 6.2c26-8 54-7.4 79.2.5z" transform="translate(21 25.5)"/><path class="cls-16" d="M408.3 256.8a63.5 63.5 0 0 0 1.7 19.8s30.6 10.3 76.1-1.4a88 88 0 0 0 1.4-17.8 136 136 0 0 0-79.2-.6z" transform="translate(21 25.5)"/><path class="cls-11" d="M464 211.2a36.2 36.2 0 0 0-48.5 14c16.7-9 35.6-17 54.5-7 3 2.2 4.8 5.4 7.9 6.6-4.5-5.5-8.3-10.8-13.9-13.6z" transform="translate(21 25.5)"/><path class="cls-5" d="M471.4 270.5v1-1z"/><path class="cls-17" d="M532.1 226a1 1 0 0 0-1.4-.3l-14.3 9a87.3 87.3 0 0 1-25.1 15.9l-4 2.5-.1-1-.2.1h.2c-.2-2.5-.5-3.9-.5-3.9a207 207 0 0 0-36.2-3.3v2a205 205 0 0 1 34.4 3 83.3 83.3 0 0 1-.6 23.6 169 169 0 0 1-41 5.2c-17 0-28.3-2.9-31.7-3.8a63 63 0 0 1-.8-22.9 135 135 0 0 1 39.7-5.1v-2c-26.4 0-41.5 5.6-41.5 5.6l-.4 3a52.6 52.6 0 0 0-35.5 1l-.2-2c-16.4-3-32.6-3.1-48.3 1.2a48 48 0 0 0 1.4 23s8.6 2.6 21.8 2.6a101.5 101.5 0 0 0 24.2-2.9 71.4 71.4 0 0 0 1.3-19.7c1.6-.8 16-7 35-1.2a63.9 63.9 0 0 0 1.6 21s12.5 4.2 33.3 4.2a171.3 171.3 0 0 0 42.8-5.6 87.8 87.8 0 0 0 1.3-20l44.4-27.7a1 1 0 0 0 .4-1.4zm-161.8 49a99.5 99.5 0 0 1-22.5 2.5 86 86 0 0 1-20.2-2.2 47.6 47.6 0 0 1-1-21.5 93.3 93.3 0 0 1 23-2.7 112.8 112.8 0 0 1 21.3 2 72.3 72.3 0 0 1-.6 21.9z" transform="translate(21 25.5)"/><path class="cls-5" d="M491.3 250.5a87.3 87.3 0 0 0 25.1-15.8zm-118.4 2.1l-.2-1.3a109.2 109.2 0 0 0-23.1-2.3 94.8 94.8 0 0 0-24.6 3l-.3 1.8c15.6-4.3 31.9-4.3 48.2-1.2z" transform="translate(21 25.5)"/><path class="cls-11" d="M366.5 226.3a25 25 0 0 0-8.5-9.1c-11.9-6.4-25.5.6-30.7 12.6a37.6 37.6 0 0 1 39.2-3.5zm8.3 111.3c-6.1-2.7-14-1.2-20.4-4a58 58 0 0 1 1.2 4.7 34.9 34.9 0 0 0 19.2-.7z" transform="translate(21 25.5)"/><path class="cls-14" d="M371.2 384c27 21 64 23.2 97.2 3.4l2.2-1.4a130.4 130.4 0 0 0 19-14.5c-32.7 25.7-81 33.5-118.4 12.6zm2.8-28.8h-18v.2c-6 .5-8 1.5-8 1.5l.7 1.3a112 112 0 0 1 25.3-2.8z" transform="translate(21 25.5)"/><path class="cls-15" d="M356.8 348.1a19.4 19.4 0 0 1-.8 7h18v.2a112 112 0 0 0-25.3 2.9 91 91 0 0 0 20.4 24.2 86 86 0 0 0 2 1.6c37.4 21 85.8 13.1 118.5-12.5q4.6-4.2 8.7-8.7c-45.3-15-119.7-19.2-141.5-14.7z" transform="translate(21 25.5)"/><path class="cls-18" d="M480.8 226.1a44.2 44.2 0 0 0-34.2-16.3 50.5 50.5 0 0 0-31.3 14.8c21-8.4 45.5-8.5 65.5 1.5z" transform="translate(21 25.5)"/><path class="cls-19" d="M415.3 224.6a60 60 0 0 0-6.3 6.8s42.7-25.3 78 3a54.1 54.1 0 0 0-6.2-8.3c-20-10-44.6-10-65.5-1.5z" transform="translate(21 25.5)"/><path class="cls-18" d="M368.2 226.9a28 28 0 0 0-22.3-10c-8.5.5-14.7 6.3-18.4 11 13-5.6 27.3-5.5 40.7-1z" transform="translate(21 25.5)"/><path class="cls-19" d="M327.5 228a38 38 0 0 0-4.1 6.4s19.2-17.3 48.9-2a34.1 34.1 0 0 0-4.1-5.5 56.5 56.5 0 0 0-40.7 1z" transform="translate(21 25.5)"/><path class="cls-14" d="M403.6 355.8a374.1 374.1 0 0 0-41.4-.7l-6.3.4 6.3-.2a703.4 703.4 0 0 1 41.3 2c7.3.6 19 1.5 28.7 2.5l7 .7 5.6.6 5.2.6-5.2-.9-5.6-.8-6.9-1c-9.8-1.4-21.4-2.7-28.7-3.2z" transform="translate(21 25.5)"/><path class="cls-11" d="M560.6 212.8a21.8 21.8 0 0 0-3.8-1c-14-2.6-26.7 10.1-35.3 21.7 10-10.9 22.7-22.8 39.1-20.7z" transform="translate(21 25.5)"/><path class="cls-13" d="M570.6 222.6a17.3 17.3 0 0 0-10-9.8c-16.4-2.2-29 9.8-39.1 20.7l-1.8 2.5a165 165 0 0 0-3.7 5.3s1.2 37.5 4 47.7a8 8 0 0 0 .3 1 10.5 10.5 0 0 0 6.7 4.2 22 22 0 0 0 14.7-2.7 61.3 61.3 0 0 0 10-9.4 75.3 75.3 0 0 0 19-59.5z" transform="translate(21 25.5)"/><path class="cls-11" d="M570.6 222.6c3.5 22-5 43-18.8 59.5a61.4 61.4 0 0 1-10 9.4 22 22 0 0 1-14.7 2.7 10.5 10.5 0 0 1-6.8-4.2c1.6 4 6.3 6.3 10.7 6.7a173.6 173.6 0 0 1-25.7 58A194 194 0 0 0 536 296a39.3 39.3 0 0 0 16.3-12.5 99.6 99.6 0 0 0 17.5-29.8c2.8-9 4.8-21.9.8-31.2zm-29.9 3.4a45.5 45.5 0 0 0-5.8 6.5 66.7 66.7 0 0 0-5.3 8.2 76 76 0 0 0-3.4 7.2L525 251l1.5-3a87 87 0 0 1 4-6.8 76 76 0 0 1 5.7-7.8 60.6 60.6 0 0 1 5.8-6 43.1 43.1 0 0 1 6.6-5 29.7 29.7 0 0 1 8.7-3.5 27.6 27.6 0 0 1 7.8-.7c1 0 1.9.2 2.4.3h.9l-.9-.1c-.5-.1-1.3-.4-2.4-.5a27.2 27.2 0 0 0-8 0 29.2 29.2 0 0 0-9.3 3.2 35.5 35.5 0 0 0-7.1 5zm-33.2 324.6a52.8 52.8 0 0 1-26.6-30c.4 14.6 13.1 25.7 26.6 30zm-39.5-20c-2 10.7 4.5 21.5 14.6 27.2a35.7 35.7 0 0 1-14.7-27.2z" transform="translate(21 25.5)"/><path class="cls-13" d="M524.4 556.4c-3.4-.9-6.8-1.8-10-3a54.7 54.7 0 0 1-7-2.9c-13.4-4.2-26.1-15.3-26.5-29.8l-.3-.8a3.6 3.6 0 0 0-6-1.5 23.5 23.5 0 0 0-6.6 12.2 35.7 35.7 0 0 0 14.6 27.1 30.3 30.3 0 0 0 13.4 4z" transform="translate(21 25.5)"/><path class="cls-12" d="M434.7 535.4a63 63 0 0 0-8.6 0v11.8a39.2 39.2 0 0 1 7.7.1c-1.5-3.9-1.5-8.6.9-11.9z" transform="translate(21 25.5)"/><path class="cls-10" d="M424.9 583.4c-.6-15.2 4-30.7 1.1-46.2a17.6 17.6 0 0 0-4.2-8.4 23 23 0 0 0-10.7-4.5c-23.8-2.3-47.8-2-71.3 3-.3 8-.9 31.3 2.8 53.4 3.6 21.6 10.4 31.7 13 35a5 5 0 0 0 2.3 1.6 94.4 94.4 0 0 0 28 4.4 92 92 0 0 0 17.7-1.8 18.6 18.6 0 0 0 6.4-3.7c11.2-7.8 14.3-20 14.9-32.8z" transform="translate(21 25.5)"/><path class="cls-12" d="M432 527v-.6a4 4 0 0 0-1.7-3c-4.5-3-84.2-3-88.7 0a4 4 0 0 0-1.7 3v1a232 232 0 0 1 71.3-3 23 23 0 0 1 10.7 4.4 17.6 17.6 0 0 1 4.2 8.4c3 15.5-1.7 31-1.1 46.2-.7 12.8-3.7 25-14.9 32.8a18.6 18.6 0 0 1-6.4 3.7 91.5 91.5 0 0 0 9.6-2.4 84.8 84.8 0 0 0 12.8-25 179.5 179.5 0 0 0 2.8-9.5l.4-2.3a224.3 224.3 0 0 0 2.5-24c.7-13.5.4-24.9.2-29.7z" transform="translate(21 25.5)"/><path class="cls-12" d="M413.3 617.5l.6-.2a5 5 0 0 0 2.3-1.7 72 72 0 0 0 12.3-31 96.4 96.4 0 0 1-15.3 32.9z" transform="translate(21 25.5)"/><path class="cls-11" d="M529.3 586.2a52.6 52.6 0 0 1-35.5 36c-6.8 1.4-13.2-1-15.8-7a15.8 15.8 0 0 1-1.5-9.3 30 30 0 0 1-17.5 3.3c-7.6-2-10.7-10.2-10.1-18a19 19 0 0 1-19.6-10.3c1.7 5.8 6.3 13.7 17.5 12.2 0 0-.9 10.5 3.3 17.1s15.5 2 23.2-1a30.5 30.5 0 0 0 6 14.4c3.5 3.9 8.8 4.2 17-.2 9-4.8 17.6-10.1 26.3-15.4l12.2-21.8z" transform="translate(21 25.5)"/><path class="cls-10" d="M465 557.9a44.2 44.2 0 0 0-24.9-21.8 51 51 0 0 0-5.4-.7c-2.4 3.3-2.4 8-.9 12 10.3 1.2 17 7.1 18 18.2a28 28 0 0 0 14.3-.2 40.1 40.1 0 0 0-1.1-7.5z" transform="translate(21 25.5)"/><path class="cls-13" d="M526 559.3l-1.6-2.9-27.4-.3v5.4c-13 3.7-26 7.3-39 7.7l.1-.8a20.3 20.3 0 0 1-10.1-.4l-.6-.2a17.6 17.6 0 0 0 .7-3.6c-.1-2.5-.7-4.8-3.1-6a17.1 17.1 0 0 0-7.9-.5 19 19 0 0 0-2.8 1.4c-7.6 4.6-6.6 13.4-5.7 18.8a25.6 25.6 0 0 0 .7 3 19 19 0 0 0 19.6 10.4c-.6 7.7 2.4 16 10 18 6.5.8 12-.8 17.6-3.3a15.8 15.8 0 0 0 1.5 9.2c2.6 6 9 8.4 15.8 7a52.6 52.6 0 0 0 35.4-36c2.3-13.2-3.1-27-3.1-27z" transform="translate(21 25.5)"/><path class="cls-12" d="M465 557.9c-3.2-12.5-12.3-19.6-24.9-21.8a44.2 44.2 0 0 1 24.9 21.8zm-13.3 7.7l.1 2.7 14.4-.2v-2.8a28 28 0 0 1-14.5.3z" transform="translate(21 25.5)"/><path class="cls-11" d="M466.6 567.2c-2.3.3-5.3.5-8.5.6a87 87 0 0 1-9.8-.4 90.7 90.7 0 0 1-11.3-1.8l3.2 1a79 79 0 0 0 8 1.9 73.3 73.3 0 0 0 10 1.2 55.2 55.2 0 0 0 8.7-.3 95.8 95.8 0 0 0 18.3-4c6-1.8 11-3.7 11-3.7s-5 1.3-11.3 2.6a211 211 0 0 1-18.3 2.9z" transform="translate(21 25.5)"/><path d="M558.8 562.2a210.4 210.4 0 0 1-34.4-5.8l1 3.4a200.7 200.7 0 0 0 35 5.7 22.2 22.2 0 0 0-1.6-3.3z" transform="translate(21 25.5)"/><path class="cls-9" d="M563 590.8c1-12.5-1-21-2.7-25.3a200.7 200.7 0 0 1-34.8-5.7c2.2 7.8 6.5 28-2.5 47.3 14.8-.4 31.6-3.6 40-16.3z" transform="translate(21 25.5)"/><path d="M523 607.1l-.4.8s15.5 1 39.3-8.7c.5-3 .9-5.8 1.1-8.4-8.4 12.7-25.2 15.9-40 16.3z" transform="translate(21 25.5)"/><path class="cls-11" d="M379.8 274.3l-.2.8a75.8 75.8 0 0 1-6.5 14.3 67 67 0 0 1-14 17.2 60.9 60.9 0 0 1-10.9 7.6c-2.4 1.3-5.4 2.5-6.9 4.7a51.4 51.4 0 0 0 38.5-44.6z" transform="translate(21 25.5)"/><path class="cls-13" d="M381.4 267.9a54.4 54.4 0 0 1-1.6 6.4 51.3 51.3 0 0 1-38.5 44.6 5 5 0 0 0-.8 3.1 7 7 0 0 0 .2 1.3l.2.7c2.2 7.5 17.5 14.3 26.6 15.1l1.8.1H387zM774 558.2c-7.4-7.4-20-6.2-31.5-6a42.7 42.7 0 0 1 10.7 7.7 34 34 0 0 1 5 6.5 62.5 62.5 0 0 0-22.4-14.2 96.5 96.5 0 0 0-26.7-5.6h-.2l-7-.3c-38.3 1.5-76.2 20.4-114.4 19.6-10.2.4-20.5-1.5-30.5-1-3.3 5.5-8.4 18.6 4.9 34.4q27.8 2.2 55.7 4.7c26.2 2.4 51.9 6.7 77.9 10 22 2.8 44 3 63.9-7 11.4-7.5 21.6-17 21.7-31.4a26.8 26.8 0 0 0-7.1-17.4z" transform="translate(21 25.5)"/><path class="cls-11" d="M782.7 571a47 47 0 0 0-4.9-17.8 439.2 439.2 0 0 0-39.5-3q2.2.9 4.2 2c11.4-.2 24-1.5 31.5 6a26.9 26.9 0 0 1 7.2 17.3c-.2 14.4-10.4 23.8-21.8 31.4l5-2.8a37 37 0 0 0 17-21.5 35.8 35.8 0 0 0 1.3-11.5z" transform="translate(21 25.5)"/><path class="cls-11" d="M758.2 566.4C748 549 723.3 544 704.8 544a157.6 157.6 0 0 0-31.2 3.8c-21 4.3-41.6 11.3-63 13.8a264.9 264.9 0 0 1-46.6.9l-5.2-.4a19.6 19.6 0 0 0-1.8 2.7c10-.6 20.3 1.4 30.5 1 38.2.8 76.1-18.1 114.5-19.7h-1c21.2.4 42.3 5.2 57.2 20.2z" transform="translate(21 25.5)"/><path class="cls-21" d="M782.7 571a47 47 0 0 0-4.9-17.8 200.4 200.4 0 0 0-28-43.5q-4.3-5-8.9-9.7a582.8 582.8 0 0 0-79.7-68.8 460.8 460.8 0 0 0-76.4-46.4 242.7 242.7 0 0 0-44.4-15 269.7 269.7 0 0 0-42.7-6.3l.7-.7q3.6-4 6.9-8.2a194 194 0 0 0 30.7-58.5 39.3 39.3 0 0 0 16.3-12.5 99.6 99.6 0 0 0 17.5-29.8c2.8-8.9 4.8-21.9.8-31.1a19.6 19.6 0 0 0-2.2-4 16.8 16.8 0 0 0-7.8-5.9 21.8 21.8 0 0 0-3.8-1 20.5 20.5 0 0 0-6.2-.2 227.8 227.8 0 0 0-3.7-49.8l-.8-3.7a125.3 125.3 0 0 0-25.8-55.2A95.6 95.6 0 0 0 500.1 85a108.7 108.7 0 0 0-85.4-13.9l-6 2c-32.7 12.9-61 45.5-72.9 78a175 175 0 0 0-6 22.2c-5 23.4-8.1 51.4-7 57a24.1 24.1 0 0 0 .7 2.5l.3.9-.4.7.5-.4c1.8 4.9 5 8.8 8.5 12.8l2.9 3.1h-.2l-.7.1-2.8.5h-.5l-2.4.6-.8.1-2.9.8v.7l-.1.5-.1.5v.5l-.1.4-.1.5v.5l-.1.5-.1.5v.1l-.1 1v1.6l-.1.8v6.7l.1 1v.5l.2 1.6v.1l.3 1.5v.5l.3 1.1.1.6.3 1 .2.6.5 1.6h.3l.5.1.6.2h.2l.6.1h.3l.7.2h.2l1 .2h.3l1 .2h.4l1 .2.4.1 1.5.2h.3l1.3.2h.7c-2.7 3.4-4.7 7.3-3.2 13.1 1.4 5.6 6.6 17 11.1 23.8a10.8 10.8 0 0 0-4 3.1 5 5 0 0 0-.8 3.2 7 7 0 0 0 .2 1.2c0 .3 0 .5.2.7 1.3 4.6 7.4 8.9 14 11.7l.7 2.7a74.3 74.3 0 0 1 1.2 9.8 19.4 19.4 0 0 1-.8 7l-.1.3c-6 .5-8 1.4-8 1.4l.8 1.3a91 91 0 0 0 20.4 24.2l1.5 1.2a190.5 190.5 0 0 0-86.1 83.9 251.4 251.4 0 0 0-25 67.8l36.9 74.6c27.3 0 43.9-5 43.9-5 .1-12 .5-23.2 1-33.6l1.3 9.4c3.6 21.7 10.4 31.8 13 35a5 5 0 0 0 2.3 1.6 94.4 94.4 0 0 0 28 4.4 90.3 90.3 0 0 0 15-1.3c2.6 23.8 3.5 52 0 81.2l-2 14.1a5434 5434 0 0 0 185 .7c-1.5 2.2-3 4.3-4.6 6.3 16-.3 31.8 0 47.6.4-10-47-19.7-87.2-28.4-120.8l19.2 1.7c26.2 2.3 51.9 6.7 77.9 10 22 2.8 44 3 63.9-7l5-2.8a37 37 0 0 0 17-21.5 35.8 35.8 0 0 0 1-11.3zM345 522.6a459 459 0 0 1 7.5-48.5l.6-2.6s.2 2 1 5.5a198.3 198.3 0 0 0 15.3 44.3c-10.5.3-19.6.7-24.4 1.3zm221.7-142.7zm43.8 181.8c-7.2.9-14.8 1.4-22.6 1.5a1240.9 1240.9 0 0 0-32.2-100s71.7 25.6 93.8 85.7l1.5 4.4a298.6 298.6 0 0 1-40.5 8.4z" transform="translate(21 25.5)"/><path class="cls-18" d="M146.3 696.2s120.3 104.6 266.5 104.6 257.5-104.6 257.5-104.6z" transform="translate(21 25.5)"/><path class="cls-22" d="M270 528.2a239 239 0 0 0 54-.4l-11.1-50.2a6 6 0 0 0-5.9-4.7H178.5c16.1 34.1 56.4 50.7 91.5 55.3z" transform="translate(21 25.5)"/><path class="cls-23" d="M270 528.2c-35.1-4.6-75.4-21.2-91.5-55.3h-84c19 39.4 46.7 76 85.5 97.3 49.5 27.7 104.5 25.7 159.3 26.7L324 528a239 239 0 0 1-54 .3z" transform="translate(21 25.5)"/><path class="cls-24" d="M223 634.2c43.3 8.3 84 8 126.2 7.2l-9.9-44.5c-54.8-1-109.8 1-159.3-26.7-38.8-21.3-66.5-58-85.5-97.3H24.6c39 78.8 109.2 145 198.4 161.3z" transform="translate(21 25.5)"/><path class="cls-25" d="M223 634.2c-89.2-16.4-159.3-82.5-198.3-161.3H-15a6 6 0 0 0-5.9 7.3l44.7 201.6h334.3l-9-40.4c-42 .9-82.8 1-126.1-7.2z" transform="translate(21 25.5)"/><path class="cls-25" d="M358.1 681.8H24v9a5.4 5.4 0 0 0 5.3 5.4h401.4a5.4 5.4 0 0 0 5.4-5.4v-9z" transform="translate(21 25.5)"/><path class="cls-26" d="M167.3 721.7h524"/><path class="cls-27" d="M670.3 695.2H433.7a5.3 5.3 0 0 0 2.3-4.4v-9h-78l-9-40.3-9.8-44.5-15.3-69.1-11.1-50.3a6 6 0 0 0-5.9-4.7H-15a6 6 0 0 0-5.9 7.3l44.7 201.6v9a5.4 5.4 0 0 0 5.4 5.4h116.1a1 1 0 0 0 1 1h1.2c12.7 10.6 127.5 103.6 265.3 103.6s244.6-93 256.4-103.6h1.1a1 1 0 1 0 0-2z" transform="translate(21 25.5)"/></g></g></g></svg>
