<svg xmlns="http://www.w3.org/2000/svg" xmlns:xlink="http://www.w3.org/1999/xlink" viewBox="0 0 320 320">
	<defs>
		<style>
			.cls-1 {
				isolation: isolate;
			}

			.cls-2 {
				fill: #233d55;
			}

			.cls-3 {
				fill: #d0c5c6;
				opacity: 0.15;
			}

			.cls-20,
			.cls-4 {
				opacity: 0.5;
			}

			.cls-20,
			.cls-4,
			.cls-5 {
				mix-blend-mode: color-burn;
			}

			.cls-4 {
				fill: url("#linear-gradient");
			}

			.cls-5 {
				opacity: 0.4;
			}

			.cls-6 {
				fill: #110e0a;
			}

			.cls-7 {
				fill: #333;
			}

			.cls-8 {
				fill: #63839b;
			}

			.cls-9 {
				fill: #ccb293;
			}

			.cls-10 {
				fill: #f0dbbd;
			}

			.cls-11 {
				fill: #b28b60;
			}

			.cls-12 {
				fill: #ccab81;
			}

			.cls-13 {
				fill: #d2e3f7;
			}

			.cls-14 {
				fill: #e4eef9;
			}

			.cls-15 {
				fill: #2f3c47;
			}

			.cls-16 {
				fill: #49535e;
			}

			.cls-17 {
				fill: #664c12;
			}

			.cls-18 {
				fill: #49310a;
			}

			.cls-19 {
				fill: none;
				stroke: #000;
				stroke-miterlimit: 10;
				stroke-width: 0.09px;
			}

			.cls-20 {
				fill: url("#linear-gradient-2");
			}

			.cls-20 {
				-webkit-animation-delay: 0.1s;
				-moz-animation-delay: 0.1s;
				-ms-animation-delay: 0.1s;
				-o-animation-delay: 0.1s;
				animation-delay: 0.1s;
			}

			.cls-20,
			.cls-25,
			.cls-4 {
				display: none;
			}

			.cls-21 {
				fill: #777;
			}

			.cls-22 {
				fill: #666;
			}

			.cls-23 {
				fill: #555;
			}

			.cls-24 {
				fill: #444;
			}

			.cls-25 {
				mix-blend-mode: multiply;
				fill: url("#linear-gradient-3");
			}

			.cls-26 {
				fill: #b0d9f2;
			}

			@keyframes flicker {
				0%,
				11%,
				19%,
				20%,
				24%,
				28%,
				4%,
				40%,
				44%,
				46%,
				56%,
				60%,
				68%,
				72%,
				93%,
				97%,
				to {
					opacity: 0.5;
				}

				10%,
				38%,
				6% {
					opacity: 0.4;
				}
				14%,
				17%,
				8% {
					opacity: 0.6;
				}
				12% {
					opacity: 0.7;
				}
				16% {
					opacity: 0.75;
				}
				26% {
					opacity: 0.74;
				}
				42%,
				70%,
				95% {
					opacity: 0.65;
				}
				58% {
					opacity: 0.8;
				}
			}

			@media (prefers-reduced-motion: reduce) {
				.cls-20,
				.cls-4 {
					-webkit-animation: none 0s linear 0s infinite backwards;
					-moz-animation: none 0s linear 0s infinite backwards;
					-ms-animation: none 0s linear 0s infinite backwards;
					-o-animation: none 0s linear 0s infinite backwards;
					animation: none 0s linear 0s infinite backwards;
				}
			}

			@supports (mix-blend-mode: color-burn) {
				.cls-20,
				.cls-25,
				.cls-4 {
					-webkit-animation: flicker 8s linear 0s infinite backwards;
					-moz-animation: flicker 8s linear 0s infinite backwards;
					-ms-animation: flicker 8s linear 0s infinite backwards;
					-o-animation: flicker 8s linear 0s infinite backwards;
					animation: flicker 8s linear 0s infinite backwards;
					display: inline;
				}
			}
		</style>
		<linearGradient id="linear-gradient" x1="188.16" y1="17.18" x2="146.16" y2="230.18" gradientUnits="userSpaceOnUse">
			<stop offset="0.25" stop-color="#e4eef9"/>
			<stop offset="1" stop-color="#49535e"/>
		</linearGradient>
		<linearGradient id="linear-gradient-2" x1="241.45" y1="-17.43" x2="186.45" y2="291.57" xlink:href="#linear-gradient"/>
		<linearGradient id="linear-gradient-3" x1="154.3" y1="177.04" x2="110.37" y2="293.87" xlink:href="#linear-gradient"/>
	</defs>
	<title>jeremy</title>
	<g class="cls-1">
		<g id="Layer_1" data-name="Layer 1">
			<g>
				<path class="cls-2" d="M160,12.31a147.7,147.7,0,0,0-81.26,271H241.26A147.7,147.7,0,0,0,160,12.31Z"/>
				<g>
					<path class="cls-3" d="M35.11,83.17a9.6,9.6,0,0,1-3,7.15,9.62,9.62,0,0,1-1.42-1.73l-.22.39A10,10,0,0,0,32,90.73a.2.2,0,0,0,.27,0,10,10,0,0,0,3.24-7.57A8.8,8.8,0,0,0,35.17,81l-.3.47A8.4,8.4,0,0,1,35.11,83.17Z"/>
					<path class="cls-3" d="M45.66,76.79a8.22,8.22,0,0,1-6.12,3,9.14,9.14,0,0,1-3.23-.5l-.22.33a9.62,9.62,0,0,0,3.17.57h.28a8.61,8.61,0,0,0,6.52-3.25.2.2,0,0,0,0-.25,8.6,8.6,0,0,0-5.77-3.19l-.27.37A8.2,8.2,0,0,1,45.66,76.79Z"/>
					<path class="cls-3" d="M291.4,213.27a.2.2,0,0,0,0,.27,10.12,10.12,0,0,0,5.09,3l.15-.37a9.72,9.72,0,0,1-4.83-2.74,9.6,9.6,0,0,1,7.05-3L299,210h0A10,10,0,0,0,291.4,213.27Z"/>
					<path class="cls-3" d="M91.2,31.26a8.22,8.22,0,0,1-6.12,3A9,9,0,0,1,82.86,34l-.47.29a9.51,9.51,0,0,0,2.41.32h.28a8.61,8.61,0,0,0,6.52-3.25.2.2,0,0,0,0-.25,9,9,0,0,0-1.35-1.35l-.38.2A8.55,8.55,0,0,1,91.2,31.26Z"/>
					<path
						class="cls-3"
						d="M266.53,262.29l.36-.37a9.47,9.47,0,0,1-5.26-1.65v-2.65a9.44,9.44,0,0,1,5.58-1.66,8.22,8.22,0,0,1,4,1.19l.26-.3a8.61,8.61,0,0,0-4.29-1.28,9.76,9.76,0,0,0-5,1.23L281,238h3.12l.8.8.21-.34-.74-.74v-3.12l6.87-6.87.58-1.14-7.73,7.73H281l-18.79-18.79a9.85,9.85,0,0,0,4.73,1.24h.28a8.61,8.61,0,0,0,6.52-3.25.2.2,0,0,0,0-.25,8.61,8.61,0,0,0-6.52-3.25,9.75,9.75,0,0,0-5,1.23L281,192.47h3.12L299.7,208l.15-.41L284.4,192.19v-3.12l18.45-18.45a8.66,8.66,0,0,0-.9,3.61,10,10,0,0,0,3.24,7.57.2.2,0,0,0,.27,0,9.88,9.88,0,0,0,.73-.74l.11-.77a9.56,9.56,0,0,1-1,1.09,9.6,9.6,0,0,1-3-7.15,8.2,8.2,0,0,1,1.52-4.54h2.93a8.16,8.16,0,0,1,.52.85c0-.41.05-.81.08-1.22l-.22-.14v-2.65l.38-.24q0-.48,0-1l-.11.11c0-.08.08-.17.12-.25,0-.33,0-.67,0-1a9.79,9.79,0,0,1-1,1.84H304a9.5,9.5,0,0,1-1.66-5.58,8.22,8.22,0,0,1,3-6.12,8.29,8.29,0,0,1,2.33,3.15c0-.31,0-.62,0-.93a8.79,8.79,0,0,0-2.19-2.63.2.2,0,0,0-.25,0,8.61,8.61,0,0,0-3.25,6.52,9.82,9.82,0,0,0,1.23,5L284.4,146.65v-3.12l18.45-18.45a8.66,8.66,0,0,0-.9,3.61,10,10,0,0,0,3.24,7.57.2.2,0,0,0,.27,0c.1-.09.18-.19.27-.28l-.08-.48c-.11.12-.21.24-.33.35a9.6,9.6,0,0,1-3-7.15,8.21,8.21,0,0,1,1.12-3.88l-.21-.88a8.19,8.19,0,0,1-4.3,1.37,9.57,9.57,0,0,1-7.15-3,9.63,9.63,0,0,1,7.15-3,8.26,8.26,0,0,1,3.29.8l-.13-.5A8.68,8.68,0,0,0,299,119a10,10,0,0,0-7.57,3.24.2.2,0,0,0,0,.27,10,10,0,0,0,7.29,3.25H299a8.66,8.66,0,0,0,3.61-.9l-18.45,18.45H281l-18.79-18.79a9.85,9.85,0,0,0,4.73,1.24h.28a8.61,8.61,0,0,0,6.52-3.25.2.2,0,0,0,0-.25,8.61,8.61,0,0,0-6.52-3.25,9.83,9.83,0,0,0-5,1.24L281,101.4h3.12L302,119.28c-.08-.27-.16-.53-.24-.79L284.4,101.12V98l6.48-6.48-.19-.36-6.57,6.57H281L262.22,78.93a9.85,9.85,0,0,0,4.73,1.24h.28a8.61,8.61,0,0,0,6.52-3.25.2.2,0,0,0,0-.25,8.61,8.61,0,0,0-6.52-3.25,9.82,9.82,0,0,0-5,1.24l10.31-10.31-.26-.3L261.94,74.37a9.82,9.82,0,0,0,1.23-5,8.62,8.62,0,0,0-3.25-6.52.2.2,0,0,0-.25,0,8.61,8.61,0,0,0-3.25,6.52,9.82,9.82,0,0,0,1.23,5L238.87,55.58V52.47l10.25-10.25L248.8,42,238.59,52.19h-3.12L216.68,33.4a9.85,9.85,0,0,0,4.73,1.24h.28a8.61,8.61,0,0,0,6.52-3.25.2.2,0,0,0,0-.25,8.61,8.61,0,0,0-6.52-3.25,9.81,9.81,0,0,0-5,1.23l3.87-3.87-.39-.17-3.76,3.76A9.83,9.83,0,0,0,217.63,24l-.39-.16v0a9.5,9.5,0,0,1-1.66,5.58h-2.65a9.5,9.5,0,0,1-1.66-5.58,8.37,8.37,0,0,1,.38-2.24l-.37-.14a8.77,8.77,0,0,0-.41,2.37,9.82,9.82,0,0,0,1.23,5L201.51,18.23l-.79-.24,10.79,10.79a8.66,8.66,0,0,0-3.61-.9,10,10,0,0,0-7.57,3.24.2.2,0,0,0,0,.27,10,10,0,0,0,7.29,3.25h.28a8.66,8.66,0,0,0,3.61-.9L193.05,52.19h-3.12L171.14,33.4a9.85,9.85,0,0,0,4.73,1.24h.28a8.61,8.61,0,0,0,6.52-3.25.2.2,0,0,0,0-.25,8.61,8.61,0,0,0-6.52-3.25,9.81,9.81,0,0,0-5,1.23l14.57-14.57-.48-.08L170.87,28.84a9.82,9.82,0,0,0,1.23-5,8.61,8.61,0,0,0-3.25-6.52.2.2,0,0,0-.25,0,8.61,8.61,0,0,0-3.25,6.52,9.82,9.82,0,0,0,1.23,5L150.37,12.63l-.52,0L166,28.78a8.66,8.66,0,0,0-3.61-.9,10,10,0,0,0-7.57,3.24.2.2,0,0,0,0,.27,10,10,0,0,0,7.29,3.25h.28a8.66,8.66,0,0,0,3.61-.9L147.52,52.19H144.4L125.61,33.4a9.85,9.85,0,0,0,4.73,1.24h.28a8.61,8.61,0,0,0,6.52-3.25.2.2,0,0,0,0-.25,8.61,8.61,0,0,0-6.52-3.25,9.81,9.81,0,0,0-5,1.23l15.63-15.63-.65.09L125.33,28.84a9.81,9.81,0,0,0,1.23-5,8.61,8.61,0,0,0-3.25-6.52.2.2,0,0,0-.25,0,8.61,8.61,0,0,0-3.25,6.52,9.81,9.81,0,0,0,1.23,5l-8.68-8.68-.41.15,8.48,8.48a8.66,8.66,0,0,0-3.61-.9,10,10,0,0,0-7.57,3.24.2.2,0,0,0,0,.27,10,10,0,0,0,7.29,3.25h.28a8.66,8.66,0,0,0,3.61-.9L102,52.19H98.87L81.54,34.86l-.34.21L98.59,52.47v3.12L79.8,74.37a9.81,9.81,0,0,0,1.23-5,8.61,8.61,0,0,0-3.25-6.52.2.2,0,0,0-.25,0,8.61,8.61,0,0,0-3.25,6.52,9.81,9.81,0,0,0,1.23,5L56.73,55.58V54.43l-.39.38v.65h-.67l-.39.39h1.17L74.9,74.31a8.66,8.66,0,0,0-3.61-.9,10,10,0,0,0-7.57,3.24.2.2,0,0,0,0,.27A10,10,0,0,0,71,80.17h.28a8.66,8.66,0,0,0,3.61-.9L56.45,97.72H53.33L35.74,80.14l-.22.34L53.05,98v3.12L34.26,119.91a9.82,9.82,0,0,0,1.23-5,8.61,8.61,0,0,0-3.25-6.52.2.2,0,0,0-.25,0,8.61,8.61,0,0,0-3.25,6.52,9.81,9.81,0,0,0,1.23,5l-9.23-9.23-.15.41,8.76,8.76a8.66,8.66,0,0,0-3.61-.9,10,10,0,0,0-7.57,3.24.2.2,0,0,0,0,.27,10,10,0,0,0,7.29,3.25h.28a8.66,8.66,0,0,0,3.61-.9L13.57,140.6c0,.22-.06.43-.09.65l16.16-16.16a8.66,8.66,0,0,0-.9,3.61A10,10,0,0,0,32,136.27a.2.2,0,0,0,.27,0,10,10,0,0,0,3.24-7.57,8.66,8.66,0,0,0-.9-3.61l18.45,18.45v3.12L34.26,165.44a9.81,9.81,0,0,0,1.23-5,8.61,8.61,0,0,0-3.25-6.52.2.2,0,0,0-.25,0,8.61,8.61,0,0,0-3.25,6.52,9.81,9.81,0,0,0,1.23,5L12.77,148.23c0,.17,0,.34,0,.51l16.64,16.64a8.66,8.66,0,0,0-3.61-.9,10,10,0,0,0-7.57,3.24.2.2,0,0,0,0,.27,10,10,0,0,0,7.29,3.25h.28a8.66,8.66,0,0,0,3.61-.9l-14.9,14.9.08.48,15.1-15.1a8.66,8.66,0,0,0-.9,3.61A10,10,0,0,0,32,181.8a.2.2,0,0,0,.27,0,10,10,0,0,0,3.24-7.57,8.66,8.66,0,0,0-.9-3.61l18.45,18.45v3.12L34.26,211a9.81,9.81,0,0,0,1.23-5,8.61,8.61,0,0,0-3.25-6.52.2.2,0,0,0-.25,0A8.61,8.61,0,0,0,28.75,206,9.81,9.81,0,0,0,30,211L17.34,198.34l.21.76,11.82,11.82a8.66,8.66,0,0,0-3.61-.9,9.7,9.7,0,0,0-4.42.95l.14.37a9.27,9.27,0,0,1,4.27-.92,8.2,8.2,0,0,1,4.54,1.52v2.93a8.2,8.2,0,0,1-4.54,1.52,9,9,0,0,1-2.39-.26l.18.45a9.47,9.47,0,0,0,1.94.21h.28a8.66,8.66,0,0,0,3.61-.9l-4.28,4.28.17.39,4.39-4.39a8.66,8.66,0,0,0-.9,3.61A10,10,0,0,0,32,227.34a.2.2,0,0,0,.27,0,10,10,0,0,0,3.24-7.57,8.66,8.66,0,0,0-.9-3.61l18.45,18.45v3.12L42,248.8l.24.32L53.33,238h3.12L74.9,256.45a8.66,8.66,0,0,0-3.61-.9,10,10,0,0,0-7.57,3.24.2.2,0,0,0,0,.27A10,10,0,0,0,71,262.31h.28a8.66,8.66,0,0,0,3.61-.9L64,272.27l.3.26,10.83-10.83a8.66,8.66,0,0,0-.9,3.61,10,10,0,0,0,3.24,7.57.2.2,0,0,0,.27,0A10,10,0,0,0,81,265.3a8.66,8.66,0,0,0-.9-3.61l18.45,18.45v3.2a.2.2,0,0,0,.2.2h3.28a.2.2,0,0,0,.2-.2v-3.2l18.45-18.45a8.66,8.66,0,0,0-.9,3.61,10,10,0,0,0,3.24,7.57.2.2,0,0,0,.27,0,10,10,0,0,0,3.24-7.57,8.66,8.66,0,0,0-.9-3.61l18.45,18.45v3.2a.2.2,0,0,0,.2.2h3.28a.2.2,0,0,0,.2-.2v-3.2l18.45-18.45a8.66,8.66,0,0,0-.9,3.61,10,10,0,0,0,3.24,7.57.2.2,0,0,0,.27,0,10,10,0,0,0,3.24-7.57,8.66,8.66,0,0,0-.9-3.61l18.45,18.45v3.2a.2.2,0,0,0,.2.2h3.28a.2.2,0,0,0,.2-.2v-3.2l18.45-18.45a8.66,8.66,0,0,0-.9,3.61,10,10,0,0,0,3.24,7.57.2.2,0,0,0,.27,0,10,10,0,0,0,3.24-7.57,8.66,8.66,0,0,0-.9-3.61l18.45,18.45v3.2a.2.2,0,0,0,.2.2h3.28a.2.2,0,0,0,.2-.2v-3.2l18.45-18.45a8.66,8.66,0,0,0-.9,3.61,9.84,9.84,0,0,0,1.43,5.32l.3-.27a9.43,9.43,0,0,1-1.33-5,8.2,8.2,0,0,1,1.52-4.54h2.93a8.2,8.2,0,0,1,1.52,4.54c0,.25,0,.51,0,.76l.4-.39c0-.13,0-.25,0-.38a8.66,8.66,0,0,0-.9-3.61l2.45,2.45.28-.28-2.79-2.79A9.89,9.89,0,0,0,266.53,262.29Zm14.59-27.56H284v2.88h-2.88Zm23.05-65.42a9,9,0,0,0,1.17-1.15,9.94,9.94,0,0,0,.83.78l.32.37Zm2.6-2.49v2.09l-.31-.25a9.06,9.06,0,0,0-.84-.8l.39-.4A9.69,9.69,0,0,1,306.78,166.82Zm-.4-.4a9.63,9.63,0,0,1-.63.76l-.4.39a9.08,9.08,0,0,0-.8-.83l-.25-.32Zm-2.48.28.38.32a9.94,9.94,0,0,0,.77.83,9,9,0,0,0-1.15,1.17ZM281.12,98.12H284V101h-2.88Zm-.39,136.49v3.12l-18.79,18.79a9.82,9.82,0,0,0,1.23-5,8.61,8.61,0,0,0-3.25-6.52.2.2,0,0,0-.25,0,8.61,8.61,0,0,0-3.25,6.52,9.82,9.82,0,0,0,1.23,5l-18.79-18.79v-3.12l18.45-18.45a8.66,8.66,0,0,0-.9,3.61,10,10,0,0,0,3.24,7.57.2.2,0,0,0,.27,0,10,10,0,0,0,3.24-7.57,8.66,8.66,0,0,0-.9-3.61Zm-45.26-.28-18.79-18.79a9.85,9.85,0,0,0,4.73,1.24h.28a8.61,8.61,0,0,0,6.52-3.25.2.2,0,0,0,0-.25,8.61,8.61,0,0,0-6.52-3.25,9.75,9.75,0,0,0-5,1.23l18.78-18.78h3.12L257,210.92a8.66,8.66,0,0,0-3.61-.9,10,10,0,0,0-7.57,3.24.2.2,0,0,0,0,.27,10,10,0,0,0,7.29,3.25h.28a8.66,8.66,0,0,0,3.61-.9l-18.45,18.45Zm3,.39v2.88h-2.88v-2.88ZM214,258.92a9,9,0,0,0-1.15,1.17v-2.32l.38.32A9.92,9.92,0,0,0,214,258.92Zm-.75-1.43h2.08a9.64,9.64,0,0,1-.63.76l-.4.39a9.07,9.07,0,0,0-.8-.83Zm1.05,1.74a9.92,9.92,0,0,0,.83.78l.32.37h-2.32A9,9,0,0,0,214.27,259.23Zm1.12.5a9.07,9.07,0,0,0-.84-.8l.39-.4a9.68,9.68,0,0,1,.76-.64V260Zm.19-2.63h-2.65a9.5,9.5,0,0,1-1.66-5.58,8.22,8.22,0,0,1,3-6.12,8.22,8.22,0,0,1,3,6.12A9.5,9.5,0,0,1,215.59,257.1Zm.51.51a9.43,9.43,0,0,1,5.58-1.66,8.22,8.22,0,0,1,6.12,3,8.22,8.22,0,0,1-6.12,3,9.44,9.44,0,0,1-5.58-1.66Zm1.54-6.1a8.61,8.61,0,0,0-3.25-6.52.2.2,0,0,0-.25,0,8.61,8.61,0,0,0-3.25,6.52,9.82,9.82,0,0,0,1.23,5l-18.79-18.79v-3.12l18.45-18.45a8.66,8.66,0,0,0-.9,3.61,10,10,0,0,0,3.24,7.57.2.2,0,0,0,.27,0,10,10,0,0,0,3.24-7.57,8.66,8.66,0,0,0-.9-3.61l18.45,18.45v3.12l-18.79,18.79A9.82,9.82,0,0,0,217.64,251.51Zm-27.7-17.18-18.79-18.79a9.85,9.85,0,0,0,4.73,1.24h.28a8.61,8.61,0,0,0,6.52-3.25.2.2,0,0,0,0-.25,8.61,8.61,0,0,0-6.52-3.25,9.75,9.75,0,0,0-5,1.23l18.78-18.78h3.12l18.45,18.45a8.66,8.66,0,0,0-3.61-.9,10,10,0,0,0-7.57,3.24.2.2,0,0,0,0,.27,10,10,0,0,0,7.29,3.25h.28a8.66,8.66,0,0,0,3.61-.9l-18.45,18.45Zm3,.39v2.88h-2.88v-2.88Zm-24.5,24.2a9,9,0,0,0-1.15,1.17v-2.32l.38.32A9.93,9.93,0,0,0,168.44,258.92Zm-.75-1.43h2.08a9.63,9.63,0,0,1-.63.76l-.4.39a9.08,9.08,0,0,0-.8-.83Zm1.05,1.74a9.92,9.92,0,0,0,.83.78l.32.37h-2.32A9,9,0,0,0,168.74,259.23Zm1.12.5a9.06,9.06,0,0,0-.84-.8l.39-.4a9.67,9.67,0,0,1,.76-.64V260Zm.19-2.63H167.4a9.5,9.5,0,0,1-1.66-5.58,8.22,8.22,0,0,1,3-6.12,8.22,8.22,0,0,1,3,6.12A9.5,9.5,0,0,1,170.05,257.1Zm.51.51a9.44,9.44,0,0,1,5.58-1.66,8.22,8.22,0,0,1,6.12,3,8.22,8.22,0,0,1-6.12,3,9.44,9.44,0,0,1-5.58-1.66Zm1.54-6.1a8.61,8.61,0,0,0-3.25-6.52.2.2,0,0,0-.25,0,8.61,8.61,0,0,0-3.25,6.52,9.82,9.82,0,0,0,1.23,5L147.8,237.72v-3.12l18.45-18.45a8.66,8.66,0,0,0-.9,3.61,10,10,0,0,0,3.24,7.57.2.2,0,0,0,.27,0,10,10,0,0,0,3.24-7.57,8.66,8.66,0,0,0-.9-3.61l18.45,18.45v3.12l-18.79,18.79A9.82,9.82,0,0,0,172.1,251.51Zm-27.7-17.18-18.79-18.79a9.85,9.85,0,0,0,4.73,1.24h.28a8.61,8.61,0,0,0,6.52-3.25.2.2,0,0,0,0-.25,8.61,8.61,0,0,0-6.52-3.25,9.75,9.75,0,0,0-5,1.23l18.78-18.78h3.12L166,210.92a8.66,8.66,0,0,0-3.61-.9,10,10,0,0,0-7.57,3.24.2.2,0,0,0,0,.27,10,10,0,0,0,7.29,3.25h.28a8.66,8.66,0,0,0,3.61-.9l-18.45,18.45Zm3,.39v2.88h-2.88v-2.88Zm-24.5,24.2a9,9,0,0,0-1.15,1.17v-2.32l.38.32A9.92,9.92,0,0,0,122.9,258.92Zm-.75-1.43h2.08a9.63,9.63,0,0,1-.63.76l-.4.39a9.07,9.07,0,0,0-.8-.83Zm1.05,1.74a9.94,9.94,0,0,0,.84.78l.32.37H122A9,9,0,0,0,123.2,259.23Zm1.12.5a9.08,9.08,0,0,0-.84-.81l.39-.4a9.71,9.71,0,0,1,.76-.64V260Zm.19-2.63h-2.65a9.5,9.5,0,0,1-1.66-5.58,8.22,8.22,0,0,1,3-6.12,8.22,8.22,0,0,1,3,6.12A9.5,9.5,0,0,1,124.52,257.1Zm.51.51a9.4,9.4,0,0,1,5.58-1.66,8.22,8.22,0,0,1,6.12,3,8.22,8.22,0,0,1-6.12,3,9.41,9.41,0,0,1-5.58-1.66Zm1.54-6.1a8.61,8.61,0,0,0-3.25-6.52.2.2,0,0,0-.25,0,8.61,8.61,0,0,0-3.25,6.52,9.81,9.81,0,0,0,1.23,5l-18.79-18.79v-3.12l18.45-18.45a8.66,8.66,0,0,0-.9,3.61,10,10,0,0,0,3.24,7.57.2.2,0,0,0,.27,0,10,10,0,0,0,3.24-7.57,8.66,8.66,0,0,0-.9-3.61l18.45,18.45v3.12l-18.79,18.79A9.82,9.82,0,0,0,126.57,251.51Zm-27.7-17.18L80.07,215.54a9.85,9.85,0,0,0,4.73,1.24h.28a8.61,8.61,0,0,0,6.52-3.25.2.2,0,0,0,0-.25A8.61,8.61,0,0,0,85.09,210a9.75,9.75,0,0,0-5,1.23l18.78-18.78H102l18.45,18.45a8.66,8.66,0,0,0-3.61-.9,10,10,0,0,0-7.57,3.24.2.2,0,0,0,0,.27,10,10,0,0,0,7.29,3.25h.28a8.66,8.66,0,0,0,3.61-.9L102,234.33Zm3,.39v2.88H99v-2.88ZM102,101.4l18.45,18.45a8.66,8.66,0,0,0-3.61-.9,10,10,0,0,0-7.57,3.24.2.2,0,0,0,0,.27,10,10,0,0,0,7.29,3.25h.28a8.66,8.66,0,0,0,3.61-.9L102,143.26H98.87L80.07,124.47a9.85,9.85,0,0,0,4.73,1.24h.28a8.61,8.61,0,0,0,6.52-3.25.2.2,0,0,0,0-.25A8.61,8.61,0,0,0,85.09,119a9.82,9.82,0,0,0-5,1.23L98.87,101.4ZM99,101V98.12h2.88V101Zm25.34-23.42a9.06,9.06,0,0,0-.84-.8l.39-.4a9.66,9.66,0,0,1,.76-.63v2.08Zm0,.65H122a9,9,0,0,0,1.17-1.15,9.94,9.94,0,0,0,.84.78Zm-.76-2.13-.4.39a9.07,9.07,0,0,0-.8-.83l-.25-.31h2.08A9.64,9.64,0,0,1,123.6,76.11Zm-.7.68a9,9,0,0,0-1.15,1.17V75.63l.38.32A9.93,9.93,0,0,0,122.9,76.78Zm1.76,1.85a8.2,8.2,0,0,1,1.52,4.54,9.6,9.6,0,0,1-3,7.15,9.61,9.61,0,0,1-3-7.15,8.2,8.2,0,0,1,1.52-4.54ZM124.52,75h-2.65a9.5,9.5,0,0,1-1.66-5.58,8.22,8.22,0,0,1,3-6.12,8.22,8.22,0,0,1,3,6.12A9.5,9.5,0,0,1,124.52,75Zm.51.51a9.48,9.48,0,0,1,5.58-1.66,8.22,8.22,0,0,1,6.12,3,8.22,8.22,0,0,1-6.12,3A9.48,9.48,0,0,1,125,78.12Zm-3.67,2.79a8.2,8.2,0,0,1-4.54,1.52,9.59,9.59,0,0,1-7.15-3,9.62,9.62,0,0,1,7.15-3,8.2,8.2,0,0,1,4.54,1.52Zm-1.54,4.9a10,10,0,0,0,3.24,7.57.2.2,0,0,0,.27,0,10,10,0,0,0,3.24-7.57,8.66,8.66,0,0,0-.9-3.61L144.12,98v3.12l-18.79,18.79a9.81,9.81,0,0,0,1.23-5,8.61,8.61,0,0,0-3.25-6.52.2.2,0,0,0-.25,0,8.61,8.61,0,0,0-3.25,6.52,9.82,9.82,0,0,0,1.23,5l-18.79-18.79V98l18.45-18.45A8.66,8.66,0,0,0,119.82,83.16Zm27.7,18.24L166,119.85a8.66,8.66,0,0,0-3.61-.9,10,10,0,0,0-7.57,3.24.2.2,0,0,0,0,.27,10,10,0,0,0,7.29,3.25h.28a8.66,8.66,0,0,0,3.61-.9l-18.45,18.45H144.4l-18.79-18.79a9.85,9.85,0,0,0,4.73,1.24h.28a8.61,8.61,0,0,0,6.52-3.25.2.2,0,0,0,0-.25,8.61,8.61,0,0,0-6.52-3.25,9.83,9.83,0,0,0-5,1.23L144.4,101.4Zm-3-.39V98.12h2.88V101Zm25.34-23.42a9.07,9.07,0,0,0-.84-.8l.39-.4a9.6,9.6,0,0,1,.76-.64v2.08Zm0,.65h-2.32a9,9,0,0,0,1.17-1.15,9.93,9.93,0,0,0,.84.78Zm-.76-2.13-.4.39a9.07,9.07,0,0,0-.8-.83l-.25-.32h2.08A9.62,9.62,0,0,1,169.13,76.11Zm-.7.67a9,9,0,0,0-1.15,1.17V75.63l.38.32A9.92,9.92,0,0,0,168.44,76.78Zm1.76,1.85a8.2,8.2,0,0,1,1.52,4.54,9.6,9.6,0,0,1-3,7.15,9.6,9.6,0,0,1-3-7.15,8.2,8.2,0,0,1,1.52-4.54ZM170.05,75H167.4a9.5,9.5,0,0,1-1.66-5.58,8.22,8.22,0,0,1,3-6.12,8.22,8.22,0,0,1,3,6.12A9.5,9.5,0,0,1,170.05,75Zm.51.51a9.53,9.53,0,0,1,5.58-1.66,8.22,8.22,0,0,1,6.12,3,8.22,8.22,0,0,1-6.12,3,9.48,9.48,0,0,1-5.58-1.66Zm-3.67,2.79a8.2,8.2,0,0,1-4.54,1.52,9.56,9.56,0,0,1-7.15-3,9.63,9.63,0,0,1,7.15-3,8.2,8.2,0,0,1,4.54,1.52Zm-1.54,4.9a10,10,0,0,0,3.24,7.57.2.2,0,0,0,.27,0,10,10,0,0,0,3.24-7.57,8.66,8.66,0,0,0-.9-3.61L189.66,98v3.12l-18.79,18.79a9.82,9.82,0,0,0,1.23-5,8.61,8.61,0,0,0-3.25-6.52.2.2,0,0,0-.25,0,8.61,8.61,0,0,0-3.25,6.52,9.82,9.82,0,0,0,1.23,5L147.8,101.12V98l18.45-18.45A8.66,8.66,0,0,0,165.35,83.16Zm27.7,18.24,18.45,18.45a8.66,8.66,0,0,0-3.61-.9,10,10,0,0,0-7.57,3.24.2.2,0,0,0,0,.27,10,10,0,0,0,7.29,3.25h.28a8.66,8.66,0,0,0,3.61-.9l-18.45,18.45h-3.12l-18.79-18.79a9.85,9.85,0,0,0,4.73,1.24h.28a8.61,8.61,0,0,0,6.52-3.25.2.2,0,0,0,0-.25,8.61,8.61,0,0,0-6.52-3.25,9.83,9.83,0,0,0-5,1.23l18.79-18.79Zm-3-.39V98.12h2.88V101Zm25.34-23.42a9.08,9.08,0,0,0-.84-.8l.39-.4a9.64,9.64,0,0,1,.76-.64v2.08Zm0,.65h-2.32a9,9,0,0,0,1.17-1.15,9.93,9.93,0,0,0,.84.78Zm-.76-2.13-.4.39a9.07,9.07,0,0,0-.8-.83l-.25-.32h2.08A9.62,9.62,0,0,1,214.67,76.11Zm-.7.67a9,9,0,0,0-1.15,1.17V75.63l.38.32A9.93,9.93,0,0,0,214,76.78Zm1.76,1.85a8.2,8.2,0,0,1,1.52,4.54,9.6,9.6,0,0,1-3,7.15,9.6,9.6,0,0,1-3-7.15,8.2,8.2,0,0,1,1.52-4.54ZM215.59,75h-2.65a9.5,9.5,0,0,1-1.66-5.58,8.22,8.22,0,0,1,3-6.12,8.22,8.22,0,0,1,3,6.12A9.5,9.5,0,0,1,215.59,75Zm.51.51a9.52,9.52,0,0,1,5.58-1.66,8.22,8.22,0,0,1,6.12,3,8.22,8.22,0,0,1-6.12,3,9.48,9.48,0,0,1-5.58-1.66Zm-3.67,2.79a8.2,8.2,0,0,1-4.54,1.52,9.57,9.57,0,0,1-7.15-3,9.62,9.62,0,0,1,7.15-3,8.2,8.2,0,0,1,4.54,1.52Zm-1.54,4.9a10,10,0,0,0,3.24,7.57.2.2,0,0,0,.27,0,10,10,0,0,0,3.24-7.57,8.66,8.66,0,0,0-.9-3.61L235.19,98v3.12l-18.79,18.79a9.82,9.82,0,0,0,1.23-5,8.61,8.61,0,0,0-3.25-6.52.2.2,0,0,0-.25,0,8.62,8.62,0,0,0-3.25,6.52,9.82,9.82,0,0,0,1.23,5l-18.79-18.79V98l18.45-18.45A8.66,8.66,0,0,0,210.89,83.16Zm27.7,18.24L257,119.85a8.66,8.66,0,0,0-3.61-.9,10,10,0,0,0-7.57,3.24.2.2,0,0,0,0,.27,10,10,0,0,0,7.29,3.25h.28a8.66,8.66,0,0,0,3.61-.9l-18.45,18.45h-3.12l-18.79-18.79a9.85,9.85,0,0,0,4.73,1.24h.28a8.61,8.61,0,0,0,6.52-3.25.2.2,0,0,0,0-.25,8.61,8.61,0,0,0-6.52-3.25,9.83,9.83,0,0,0-5,1.24l18.79-18.79Zm-3-.39V98.12h2.88V101Zm23.92,21.32a9,9,0,0,0-1.15,1.17v-2.32l.38.32A9.92,9.92,0,0,0,259.51,122.32Zm-.75-1.43h2.08a9.64,9.64,0,0,1-.64.76l-.4.39a9.07,9.07,0,0,0-.8-.83Zm1.05,1.74a10,10,0,0,0,.84.78l.32.37h-2.32A9,9,0,0,0,259.81,122.62Zm1.12.5a9.08,9.08,0,0,0-.83-.8l.39-.4a9.64,9.64,0,0,1,.76-.64v2.08Zm.2-2.63h-2.65a9.5,9.5,0,0,1-1.66-5.58,8.22,8.22,0,0,1,3-6.12,8.22,8.22,0,0,1,3,6.12A9.5,9.5,0,0,1,261.12,120.49Zm-3.16.37v2.93a8.2,8.2,0,0,1-4.54,1.52,9.56,9.56,0,0,1-7.15-3,9.63,9.63,0,0,1,7.15-3A8.2,8.2,0,0,1,258,120.86Zm3,47.79a9.06,9.06,0,0,0-.84-.8l.39-.4a9.68,9.68,0,0,1,.76-.64v2.09Zm0,.65h-2.32a9,9,0,0,0,1.17-1.15,9.94,9.94,0,0,0,.83.78Zm-.76-2.13-.4.39a9.08,9.08,0,0,0-.8-.83l-.25-.32h2.08A9.63,9.63,0,0,1,260.21,167.18Zm-.7.68a9,9,0,0,0-1.15,1.17V166.7l.38.32A9.93,9.93,0,0,0,259.51,167.85Zm1.76,1.85a8.2,8.2,0,0,1,1.52,4.54,9.6,9.6,0,0,1-3,7.15,9.6,9.6,0,0,1-3-7.15,8.2,8.2,0,0,1,1.52-4.54Zm-.14-3.67h-2.65a9.5,9.5,0,0,1-1.66-5.58,8.22,8.22,0,0,1,3-6.12,8.22,8.22,0,0,1,3,6.12A9.5,9.5,0,0,1,261.12,166Zm.51.51a9.44,9.44,0,0,1,5.58-1.66,8.22,8.22,0,0,1,6.12,3,8.22,8.22,0,0,1-6.12,3,9.46,9.46,0,0,1-5.58-1.66ZM258,169.33a8.2,8.2,0,0,1-4.54,1.52,9.58,9.58,0,0,1-7.15-3,9.59,9.59,0,0,1,7.15-3A8.2,8.2,0,0,1,258,166.4Zm-4.53-4.84a10,10,0,0,0-7.57,3.24.2.2,0,0,0,0,.27,10,10,0,0,0,7.29,3.25h.28a8.66,8.66,0,0,0,3.61-.9l-18.45,18.45h-3.12L216.68,170a9.85,9.85,0,0,0,4.73,1.24h.28a8.61,8.61,0,0,0,6.52-3.25.2.2,0,0,0,0-.25,8.61,8.61,0,0,0-6.52-3.25,9.74,9.74,0,0,0-5,1.23l18.78-18.78h3.12L257,165.38A8.66,8.66,0,0,0,253.43,164.49Zm-15,24.7v2.88h-2.88v-2.88ZM214,213.39a9,9,0,0,0-1.15,1.17v-2.32l.38.32A9.92,9.92,0,0,0,214,213.39Zm-.75-1.43h2.08a9.62,9.62,0,0,1-.63.76l-.4.39a9.06,9.06,0,0,0-.8-.83Zm1.05,1.74a9.93,9.93,0,0,0,.83.78l.32.37h-2.32A9,9,0,0,0,214.27,213.69Zm1.12.5a9.06,9.06,0,0,0-.84-.8l.39-.4a9.72,9.72,0,0,1,.76-.64v2.09Zm.2-2.63h-2.65a9.5,9.5,0,0,1-1.66-5.58,8.22,8.22,0,0,1,3-6.12,8.22,8.22,0,0,1,3,6.12A9.5,9.5,0,0,1,215.59,211.56Zm-2.79,3.67h2.93a8.2,8.2,0,0,1,1.52,4.54,9.6,9.6,0,0,1-3,7.15,9.6,9.6,0,0,1-3-7.15A8.2,8.2,0,0,1,212.8,215.23Zm-.37-.37a8.2,8.2,0,0,1-4.54,1.52,9.57,9.57,0,0,1-7.15-3,9.59,9.59,0,0,1,7.15-3,8.2,8.2,0,0,1,4.54,1.52Zm3.67-2.79a9.42,9.42,0,0,1,5.58-1.66,8.22,8.22,0,0,1,6.12,3,8.22,8.22,0,0,1-6.12,3,9.45,9.45,0,0,1-5.58-1.66Zm1.54-6.1a8.61,8.61,0,0,0-3.25-6.52.2.2,0,0,0-.25,0,8.61,8.61,0,0,0-3.25,6.52,9.82,9.82,0,0,0,1.23,5l-18.79-18.79v-3.12l18.45-18.45a8.66,8.66,0,0,0-.9,3.61,10,10,0,0,0,3.24,7.57.2.2,0,0,0,.27,0,10,10,0,0,0,3.24-7.57,8.66,8.66,0,0,0-.9-3.61l18.45,18.45v3.12L216.41,211A9.82,9.82,0,0,0,217.64,206Zm-27.7-17.18L171.14,170a9.85,9.85,0,0,0,4.73,1.24h.28a8.61,8.61,0,0,0,6.52-3.25.2.2,0,0,0,0-.25,8.61,8.61,0,0,0-6.52-3.25,9.74,9.74,0,0,0-5,1.23l18.78-18.78h3.12l18.45,18.45a8.66,8.66,0,0,0-3.61-.9,10,10,0,0,0-7.57,3.24.2.2,0,0,0,0,.27,10,10,0,0,0,7.29,3.25h.28a8.66,8.66,0,0,0,3.61-.9l-18.45,18.45Zm3,.39v2.88h-2.88v-2.88Zm-24.5,24.2a9,9,0,0,0-1.15,1.17v-2.32l.38.32A9.93,9.93,0,0,0,168.44,213.39Zm-.75-1.43h2.08a9.62,9.62,0,0,1-.63.76l-.4.39a9.07,9.07,0,0,0-.8-.83Zm1.05,1.74a9.93,9.93,0,0,0,.83.78l.32.37h-2.32A9,9,0,0,0,168.74,213.69Zm1.12.5a9.08,9.08,0,0,0-.84-.8l.39-.4a9.68,9.68,0,0,1,.76-.64v2.09Zm.19-2.63H167.4a9.5,9.5,0,0,1-1.66-5.58,8.22,8.22,0,0,1,3-6.12,8.22,8.22,0,0,1,3,6.12A9.5,9.5,0,0,1,170.05,211.56Zm-2.79,3.67h2.93a8.2,8.2,0,0,1,1.52,4.54,9.6,9.6,0,0,1-3,7.15,9.6,9.6,0,0,1-3-7.15A8.2,8.2,0,0,1,167.26,215.23Zm-.37-.37a8.2,8.2,0,0,1-4.54,1.52,9.58,9.58,0,0,1-7.15-3,9.6,9.6,0,0,1,7.15-3,8.2,8.2,0,0,1,4.54,1.52Zm3.67-2.79a9.42,9.42,0,0,1,5.58-1.66,8.22,8.22,0,0,1,6.12,3,8.22,8.22,0,0,1-6.12,3,9.45,9.45,0,0,1-5.58-1.66Zm1.54-6.1a8.61,8.61,0,0,0-3.25-6.52.2.2,0,0,0-.25,0,8.61,8.61,0,0,0-3.25,6.52,9.82,9.82,0,0,0,1.23,5L147.8,192.19v-3.12l18.45-18.45a8.66,8.66,0,0,0-.9,3.61,10,10,0,0,0,3.24,7.57.2.2,0,0,0,.27,0,10,10,0,0,0,3.24-7.57,8.66,8.66,0,0,0-.9-3.61l18.45,18.45v3.12L170.87,211A9.82,9.82,0,0,0,172.1,206Zm-27.7-17.18L125.61,170a9.85,9.85,0,0,0,4.73,1.24h.28a8.61,8.61,0,0,0,6.52-3.25.2.2,0,0,0,0-.25,8.61,8.61,0,0,0-6.52-3.25,9.74,9.74,0,0,0-5,1.23l18.78-18.78h3.12L166,165.38a8.66,8.66,0,0,0-3.61-.9,10,10,0,0,0-7.57,3.24.2.2,0,0,0,0,.27,10,10,0,0,0,7.29,3.25h.28a8.66,8.66,0,0,0,3.61-.9l-18.45,18.45Zm3,.39v2.88h-2.88v-2.88Zm-24.5,24.2a9,9,0,0,0-1.15,1.17v-2.32l.38.32A9.92,9.92,0,0,0,122.9,213.39Zm-.75-1.43h2.08a9.62,9.62,0,0,1-.63.76l-.4.39a9.07,9.07,0,0,0-.8-.83Zm1.05,1.74a9.93,9.93,0,0,0,.84.78l.32.37H122A9,9,0,0,0,123.2,213.69Zm1.12.5a9.07,9.07,0,0,0-.84-.81l.39-.4a9.7,9.7,0,0,1,.76-.64v2.09Zm.19-2.63h-2.65a9.5,9.5,0,0,1-1.66-5.58,8.22,8.22,0,0,1,3-6.12,8.22,8.22,0,0,1,3,6.12A9.5,9.5,0,0,1,124.52,211.56Zm-2.79,3.67h2.93a8.2,8.2,0,0,1,1.52,4.54,9.6,9.6,0,0,1-3,7.15,9.61,9.61,0,0,1-3-7.15A8.2,8.2,0,0,1,121.73,215.23Zm-.37-.37a8.2,8.2,0,0,1-4.54,1.52,9.57,9.57,0,0,1-7.15-3,9.57,9.57,0,0,1,7.15-3,8.2,8.2,0,0,1,4.54,1.52Zm3.67-2.79a9.42,9.42,0,0,1,5.58-1.66,8.22,8.22,0,0,1,6.12,3,8.22,8.22,0,0,1-6.12,3,9.41,9.41,0,0,1-5.58-1.66Zm1.54-6.1a8.61,8.61,0,0,0-3.25-6.52.2.2,0,0,0-.25,0,8.61,8.61,0,0,0-3.25,6.52,9.81,9.81,0,0,0,1.23,5l-18.79-18.79v-3.12l18.45-18.45a8.66,8.66,0,0,0-.9,3.61,10,10,0,0,0,3.24,7.57.2.2,0,0,0,.27,0,10,10,0,0,0,3.24-7.57,8.66,8.66,0,0,0-.9-3.61l18.45,18.45v3.12L125.33,211A9.82,9.82,0,0,0,126.57,206Zm-27.7-17.18L80.07,170a9.85,9.85,0,0,0,4.73,1.24h.28A8.61,8.61,0,0,0,91.6,168a.2.2,0,0,0,0-.25,8.61,8.61,0,0,0-6.52-3.25,9.74,9.74,0,0,0-5,1.23l18.78-18.78H102l18.45,18.45a8.66,8.66,0,0,0-3.61-.9,10,10,0,0,0-7.57,3.24.2.2,0,0,0,0,.27,10,10,0,0,0,7.29,3.25h.28a8.66,8.66,0,0,0,3.61-.9L102,188.79Zm3,.39v2.88H99v-2.88ZM79,166H76.33a9.5,9.5,0,0,1-1.66-5.58,8.22,8.22,0,0,1,3-6.12,8.22,8.22,0,0,1,3,6.12A9.5,9.5,0,0,1,79,166Zm.51.51a9.47,9.47,0,0,1,5.58-1.66,8.22,8.22,0,0,1,6.12,3,8.22,8.22,0,0,1-6.12,3,9.46,9.46,0,0,1-5.58-1.66Zm-2.13,1.31A9,9,0,0,0,76.22,169V166.7l.38.32A9.92,9.92,0,0,0,77.37,167.85Zm-.75-1.43H78.7a9.63,9.63,0,0,1-.63.76l-.4.39a9.08,9.08,0,0,0-.8-.83Zm1.05,1.74a9.92,9.92,0,0,0,.84.78l.32.37H76.5A9,9,0,0,0,77.67,168.16Zm1.12.5a9.06,9.06,0,0,0-.84-.8l.39-.4a9.64,9.64,0,0,1,.76-.64v2.08Zm.34,1a8.2,8.2,0,0,1,1.52,4.54,9.6,9.6,0,0,1-3,7.15,9.6,9.6,0,0,1-3-7.15,8.2,8.2,0,0,1,1.52-4.54ZM99,146.54v-2.88h2.88v2.88Zm25.34-23.42a9.06,9.06,0,0,0-.84-.8l.39-.4a9.64,9.64,0,0,1,.76-.63v2.08Zm0,.65H122a9,9,0,0,0,1.17-1.15,9.93,9.93,0,0,0,.84.78Zm-.76-2.13-.4.39a9.07,9.07,0,0,0-.8-.83l-.25-.31h2.08A9.61,9.61,0,0,1,123.6,121.64Zm-.7.67a9,9,0,0,0-1.15,1.17v-2.32l.38.32A9.93,9.93,0,0,0,122.9,122.32Zm1.76,1.85a8.2,8.2,0,0,1,1.52,4.54,9.6,9.6,0,0,1-3,7.15,9.61,9.61,0,0,1-3-7.15,8.2,8.2,0,0,1,1.52-4.54Zm-.14-3.67h-2.65a9.5,9.5,0,0,1-1.66-5.58,8.22,8.22,0,0,1,3-6.12,8.22,8.22,0,0,1,3,6.12A9.5,9.5,0,0,1,124.52,120.49Zm.51.51a9.5,9.5,0,0,1,5.58-1.66,8.22,8.22,0,0,1,6.12,3,8.22,8.22,0,0,1-6.12,3,9.51,9.51,0,0,1-5.58-1.66Zm-3.67,2.79a8.2,8.2,0,0,1-4.54,1.52,9.6,9.6,0,0,1-7.15-3,9.61,9.61,0,0,1,7.15-3,8.2,8.2,0,0,1,4.54,1.52Zm-1.54,4.9a10,10,0,0,0,3.24,7.57.2.2,0,0,0,.27,0,10,10,0,0,0,3.24-7.57,8.66,8.66,0,0,0-.9-3.61l18.45,18.45v3.12l-18.79,18.79a9.81,9.81,0,0,0,1.23-5,8.61,8.61,0,0,0-3.25-6.52.2.2,0,0,0-.25,0,8.61,8.61,0,0,0-3.25,6.52,9.81,9.81,0,0,0,1.23,5l-18.79-18.79v-3.12l18.45-18.45A8.66,8.66,0,0,0,119.82,128.69Zm3.08,39.16a9,9,0,0,0-1.15,1.17V166.7l.38.32A9.92,9.92,0,0,0,122.9,167.85Zm-.75-1.43h2.08a9.62,9.62,0,0,1-.63.76l-.4.39a9.08,9.08,0,0,0-.8-.83Zm1.05,1.74a9.93,9.93,0,0,0,.84.78l.32.37H122A9,9,0,0,0,123.2,168.16Zm1.12.5a9.06,9.06,0,0,0-.84-.81l.39-.4a9.7,9.7,0,0,1,.76-.64v2.09Zm.19-2.63h-2.65a9.5,9.5,0,0,1-1.66-5.58,8.22,8.22,0,0,1,3-6.12,8.22,8.22,0,0,1,3,6.12A9.5,9.5,0,0,1,124.52,166Zm-2.79,3.67h2.93a8.2,8.2,0,0,1,1.52,4.54,9.6,9.6,0,0,1-3,7.15,9.6,9.6,0,0,1-3-7.15A8.2,8.2,0,0,1,121.73,169.7Zm-.37-.37a8.2,8.2,0,0,1-4.54,1.52,9.58,9.58,0,0,1-7.15-3,9.57,9.57,0,0,1,7.15-3,8.2,8.2,0,0,1,4.54,1.52Zm3.67-2.79a9.4,9.4,0,0,1,5.58-1.66,8.22,8.22,0,0,1,6.12,3,8.22,8.22,0,0,1-6.12,3,9.41,9.41,0,0,1-5.58-1.66Zm19.49-20v-2.88h2.88v2.88Zm25.34-23.42a9.08,9.08,0,0,0-.83-.8l.39-.4a9.62,9.62,0,0,1,.76-.64v2.08Zm0,.65h-2.32a9,9,0,0,0,1.17-1.15,9.94,9.94,0,0,0,.84.78Zm-.76-2.13-.4.39a9.06,9.06,0,0,0-.8-.83l-.25-.32h2.08A9.64,9.64,0,0,1,169.13,121.64Zm-.7.67a9,9,0,0,0-1.15,1.17v-2.32l.38.32A9.92,9.92,0,0,0,168.44,122.32Zm1.76,1.85a8.2,8.2,0,0,1,1.52,4.54,9.6,9.6,0,0,1-3,7.15,9.6,9.6,0,0,1-3-7.15,8.2,8.2,0,0,1,1.52-4.54Zm-.14-3.67H167.4a9.5,9.5,0,0,1-1.66-5.58,8.22,8.22,0,0,1,3-6.12,8.22,8.22,0,0,1,3,6.12A9.5,9.5,0,0,1,170.05,120.49Zm.51.51a9.5,9.5,0,0,1,5.58-1.66,8.22,8.22,0,0,1,6.12,3,8.22,8.22,0,0,1-6.12,3,9.51,9.51,0,0,1-5.58-1.66Zm-3.67,2.79a8.2,8.2,0,0,1-4.54,1.52,9.56,9.56,0,0,1-7.15-3,9.63,9.63,0,0,1,7.15-3,8.2,8.2,0,0,1,4.54,1.52Zm-1.54,4.9a10,10,0,0,0,3.24,7.57.2.2,0,0,0,.27,0,10,10,0,0,0,3.24-7.57,8.66,8.66,0,0,0-.9-3.61l18.45,18.45v3.12l-18.79,18.79a9.82,9.82,0,0,0,1.23-5,8.61,8.61,0,0,0-3.25-6.52.2.2,0,0,0-.25,0,8.61,8.61,0,0,0-3.25,6.52,9.81,9.81,0,0,0,1.23,5L147.8,146.65v-3.12l18.45-18.45A8.66,8.66,0,0,0,165.35,128.69Zm3.08,39.16a9,9,0,0,0-1.15,1.17V166.7l.38.32A9.94,9.94,0,0,0,168.44,167.85Zm-.75-1.43h2.08a9.62,9.62,0,0,1-.63.76l-.4.39a9.08,9.08,0,0,0-.8-.83Zm1.05,1.74a9.93,9.93,0,0,0,.83.78l.32.37h-2.32A9,9,0,0,0,168.74,168.16Zm1.12.5a9.07,9.07,0,0,0-.84-.8l.39-.4a9.65,9.65,0,0,1,.76-.64v2.08Zm.2-2.63H167.4a9.5,9.5,0,0,1-1.66-5.58,8.22,8.22,0,0,1,3-6.12,8.22,8.22,0,0,1,3,6.12A9.5,9.5,0,0,1,170.05,166Zm-2.79,3.67h2.93a8.2,8.2,0,0,1,1.52,4.54,9.6,9.6,0,0,1-3,7.15,9.6,9.6,0,0,1-3-7.15A8.2,8.2,0,0,1,167.26,169.7Zm-.37-.37a8.2,8.2,0,0,1-4.54,1.52,9.58,9.58,0,0,1-7.15-3,9.59,9.59,0,0,1,7.15-3,8.2,8.2,0,0,1,4.54,1.52Zm3.67-2.79a9.44,9.44,0,0,1,5.58-1.66,8.22,8.22,0,0,1,6.12,3,8.22,8.22,0,0,1-6.12,3,9.46,9.46,0,0,1-5.58-1.66Zm19.49-20v-2.88h2.88v2.88Zm25.34-23.42a9.09,9.09,0,0,0-.83-.8l.39-.4a9.63,9.63,0,0,1,.76-.64v2.08Zm0,.65h-2.32a9,9,0,0,0,1.17-1.15,9.94,9.94,0,0,0,.84.78Zm-.76-2.13-.4.39a9.06,9.06,0,0,0-.8-.83l-.25-.32h2.08A9.64,9.64,0,0,1,214.67,121.64Zm-.7.67a9,9,0,0,0-1.15,1.17v-2.32l.38.32A9.93,9.93,0,0,0,214,122.32Zm1.76,1.85a8.2,8.2,0,0,1,1.52,4.54,9.6,9.6,0,0,1-3,7.15,9.6,9.6,0,0,1-3-7.15,8.2,8.2,0,0,1,1.52-4.54Zm-.14-3.67h-2.65a9.5,9.5,0,0,1-1.66-5.58,8.22,8.22,0,0,1,3-6.12,8.22,8.22,0,0,1,3,6.12A9.5,9.5,0,0,1,215.59,120.49Zm.51.51a9.5,9.5,0,0,1,5.58-1.66,8.22,8.22,0,0,1,6.12,3,8.22,8.22,0,0,1-6.12,3,9.51,9.51,0,0,1-5.58-1.66Zm-3.67,2.79a8.2,8.2,0,0,1-4.54,1.52,9.57,9.57,0,0,1-7.15-3,9.63,9.63,0,0,1,7.15-3,8.2,8.2,0,0,1,4.54,1.52Zm-1.54,4.9a10,10,0,0,0,3.24,7.57.2.2,0,0,0,.27,0,10,10,0,0,0,3.24-7.57,8.66,8.66,0,0,0-.9-3.61l18.45,18.45v3.12l-18.79,18.79a9.82,9.82,0,0,0,1.23-5,8.61,8.61,0,0,0-3.25-6.52.2.2,0,0,0-.25,0,8.62,8.62,0,0,0-3.25,6.52,9.82,9.82,0,0,0,1.23,5l-18.79-18.79v-3.12l18.45-18.45A8.66,8.66,0,0,0,210.89,128.69ZM214,167.85a9,9,0,0,0-1.15,1.17V166.7l.38.32A9.93,9.93,0,0,0,214,167.85Zm-.75-1.43h2.08a9.62,9.62,0,0,1-.63.76l-.4.39a9.08,9.08,0,0,0-.8-.83Zm1.05,1.74a9.93,9.93,0,0,0,.83.78l.32.37h-2.32A9,9,0,0,0,214.27,168.16Zm1.12.5a9.06,9.06,0,0,0-.84-.8l.39-.4a9.68,9.68,0,0,1,.76-.64v2.08Zm.2-2.63h-2.65a9.5,9.5,0,0,1-1.66-5.58,8.22,8.22,0,0,1,3-6.12,8.22,8.22,0,0,1,3,6.12A9.5,9.5,0,0,1,215.59,166Zm-2.79,3.67h2.93a8.2,8.2,0,0,1,1.52,4.54,9.6,9.6,0,0,1-3,7.15,9.6,9.6,0,0,1-3-7.15A8.2,8.2,0,0,1,212.8,169.7Zm-.37-.37a8.2,8.2,0,0,1-4.54,1.52,9.58,9.58,0,0,1-7.15-3,9.59,9.59,0,0,1,7.15-3,8.2,8.2,0,0,1,4.54,1.52Zm3.67-2.79a9.44,9.44,0,0,1,5.58-1.66,8.22,8.22,0,0,1,6.12,3,8.22,8.22,0,0,1-6.12,3,9.46,9.46,0,0,1-5.58-1.66Zm19.49-20v-2.88h2.88v2.88ZM78.79,123.12a9.07,9.07,0,0,0-.83-.8l.39-.4a9.61,9.61,0,0,1,.76-.64v2.08Zm0,.65H76.5a9,9,0,0,0,1.17-1.15,9.93,9.93,0,0,0,.84.78Zm-.76-2.13-.4.39a9.08,9.08,0,0,0-.8-.83l-.25-.31H78.7A9.65,9.65,0,0,1,78.06,121.64Zm-.7.67a9,9,0,0,0-1.15,1.17v-2.32l.38.32A9.93,9.93,0,0,0,77.36,122.32Zm1.76,1.85a8.2,8.2,0,0,1,1.52,4.54,9.6,9.6,0,0,1-3,7.15,9.6,9.6,0,0,1-3-7.15,8.2,8.2,0,0,1,1.52-4.54Zm5.95-4.82a8.22,8.22,0,0,1,6.12,3,8.22,8.22,0,0,1-6.12,3,9.48,9.48,0,0,1-5.58-1.66V121A9.55,9.55,0,0,1,85.07,119.35ZM79,120.49H76.33a9.5,9.5,0,0,1-1.66-5.58,8.22,8.22,0,0,1,3-6.12,8.22,8.22,0,0,1,3,6.12A9.5,9.5,0,0,1,79,120.49Zm-3.16,3.3a8.2,8.2,0,0,1-4.54,1.52,9.61,9.61,0,0,1-7.15-3,9.62,9.62,0,0,1,7.15-3,8.2,8.2,0,0,1,4.54,1.52Zm-1.54,4.9a10,10,0,0,0,3.24,7.57.2.2,0,0,0,.27,0A10,10,0,0,0,81,128.69a8.66,8.66,0,0,0-.9-3.61l18.45,18.45v3.12L79.8,165.44a9.81,9.81,0,0,0,1.23-5,8.61,8.61,0,0,0-3.25-6.52.2.2,0,0,0-.25,0,8.61,8.61,0,0,0-3.25,6.52,9.81,9.81,0,0,0,1.23,5L56.73,146.65v-3.12l18.45-18.45A8.66,8.66,0,0,0,74.28,128.69Zm1.54,37.71v2.93a8.2,8.2,0,0,1-4.54,1.52,9.57,9.57,0,0,1-7.15-3,9.57,9.57,0,0,1,7.15-3A8.2,8.2,0,0,1,75.82,166.4Zm-1.54,7.83a10,10,0,0,0,3.24,7.57.2.2,0,0,0,.27,0A10,10,0,0,0,81,174.23a8.66,8.66,0,0,0-.9-3.61l18.45,18.45v3.12L79.8,211A9.81,9.81,0,0,0,81,206a8.61,8.61,0,0,0-3.25-6.52.2.2,0,0,0-.25,0A8.61,8.61,0,0,0,74.28,206a9.81,9.81,0,0,0,1.23,5L56.73,192.19v-3.12l18.45-18.45A8.66,8.66,0,0,0,74.28,174.23Zm3.08,39.16a9,9,0,0,0-1.15,1.17v-2.32l.38.32A9.92,9.92,0,0,0,77.37,213.39ZM76.62,212H78.7a9.63,9.63,0,0,1-.63.76l-.4.39a9.08,9.08,0,0,0-.8-.83Zm1.05,1.74a9.92,9.92,0,0,0,.84.78l.32.37H76.5A9,9,0,0,0,77.67,213.69Zm1.12.5a9.08,9.08,0,0,0-.84-.8l.39-.4a9.67,9.67,0,0,1,.76-.64v2.08Zm.19-2.63H76.33A9.5,9.5,0,0,1,74.67,206a8.22,8.22,0,0,1,3-6.12,8.22,8.22,0,0,1,3,6.12A9.5,9.5,0,0,1,79,211.56Zm.51.51a9.44,9.44,0,0,1,5.58-1.66,8.22,8.22,0,0,1,6.12,3,8.22,8.22,0,0,1-6.12,3,9.44,9.44,0,0,1-5.58-1.66Zm-3.67-.14v2.93a8.2,8.2,0,0,1-4.54,1.52,9.56,9.56,0,0,1-7.15-3,9.57,9.57,0,0,1,7.15-3A8.2,8.2,0,0,1,75.82,211.93Zm.37,3.3h2.93a8.2,8.2,0,0,1,1.52,4.54,9.6,9.6,0,0,1-3,7.15,9.6,9.6,0,0,1-3-7.15A8.2,8.2,0,0,1,76.19,215.23Zm183.31-1.85a9,9,0,0,0-1.15,1.17v-2.32l.38.32A9.92,9.92,0,0,0,259.51,213.39Zm-.75-1.43h2.08a9.63,9.63,0,0,1-.63.76l-.4.39a9.06,9.06,0,0,0-.8-.83Zm1.05,1.74a9.94,9.94,0,0,0,.83.78l.32.37h-2.32A9,9,0,0,0,259.81,213.69Zm1.12.5a9.07,9.07,0,0,0-.84-.8l.39-.4a9.7,9.7,0,0,1,.76-.64v2.09Zm.19-2.63h-2.65a9.5,9.5,0,0,1-1.66-5.58,8.22,8.22,0,0,1,3-6.12,8.22,8.22,0,0,1,3,6.12A9.5,9.5,0,0,1,261.12,211.56Zm-3.16.37v2.93a8.2,8.2,0,0,1-4.54,1.52,9.58,9.58,0,0,1-7.15-3,9.6,9.6,0,0,1,7.15-3A8.2,8.2,0,0,1,258,211.93Zm4.82,7.84a9.6,9.6,0,0,1-3,7.15,9.6,9.6,0,0,1-3-7.15,8.2,8.2,0,0,1,1.52-4.54h2.93A8.2,8.2,0,0,1,262.78,219.78Zm4.43-9.36a8.22,8.22,0,0,1,6.12,3,8.22,8.22,0,0,1-6.12,3,9.45,9.45,0,0,1-5.58-1.66v-2.65A9.42,9.42,0,0,1,267.21,210.42Zm13.52-18.23L261.94,211a9.82,9.82,0,0,0,1.23-5,8.61,8.61,0,0,0-3.25-6.52.2.2,0,0,0-.25,0,8.61,8.61,0,0,0-3.25,6.52,9.82,9.82,0,0,0,1.23,5l-18.79-18.79v-3.12l18.45-18.45a8.66,8.66,0,0,0-.9,3.61,10,10,0,0,0,3.24,7.57.2.2,0,0,0,.27,0,10,10,0,0,0,3.24-7.57,8.66,8.66,0,0,0-.9-3.61l18.45,18.45Zm3.28-.12h-2.88v-2.88H284ZM303.5,166.4v2.93a8.2,8.2,0,0,1-4.54,1.52,9.58,9.58,0,0,1-7.15-3,9.59,9.59,0,0,1,7.15-3A8.2,8.2,0,0,1,303.5,166.4Zm-22.37-22.74H284v2.88h-2.88Zm3,3.28,18.45,18.45a8.66,8.66,0,0,0-3.61-.9,10,10,0,0,0-7.57,3.24.2.2,0,0,0,0,.27,10,10,0,0,0,7.29,3.25H299a8.66,8.66,0,0,0,3.61-.9l-18.45,18.45H281L262.21,170a9.85,9.85,0,0,0,4.73,1.24h.28a8.61,8.61,0,0,0,6.52-3.25.2.2,0,0,0,0-.25,8.61,8.61,0,0,0-6.52-3.25,9.74,9.74,0,0,0-5,1.23L281,146.93Zm-3.39-3.39v3.12l-18.79,18.79a9.82,9.82,0,0,0,1.23-5,8.62,8.62,0,0,0-3.25-6.52.2.2,0,0,0-.25,0,8.61,8.61,0,0,0-3.25,6.52,9.82,9.82,0,0,0,1.23,5l-18.79-18.79v-3.12l18.45-18.45a8.66,8.66,0,0,0-.9,3.61,10,10,0,0,0,3.24,7.57.2.2,0,0,0,.27,0,10,10,0,0,0,3.24-7.57,8.66,8.66,0,0,0-.9-3.61Zm-17.95-14.83a9.6,9.6,0,0,1-3,7.15,9.6,9.6,0,0,1-3-7.15,8.2,8.2,0,0,1,1.52-4.54h2.93A8.2,8.2,0,0,1,262.78,128.71Zm4.43-9.36a8.22,8.22,0,0,1,6.12,3,8.22,8.22,0,0,1-6.12,3,9.51,9.51,0,0,1-5.58-1.66V121A9.5,9.5,0,0,1,267.21,119.35ZM280.73,98v3.12l-18.79,18.79a9.82,9.82,0,0,0,1.23-5,8.62,8.62,0,0,0-3.25-6.52.2.2,0,0,0-.25,0,8.61,8.61,0,0,0-3.25,6.52,9.82,9.82,0,0,0,1.23,5l-18.79-18.79V98l18.45-18.45a8.66,8.66,0,0,0-.9,3.61,10,10,0,0,0,3.24,7.57.2.2,0,0,0,.27,0,10,10,0,0,0,3.24-7.57,8.66,8.66,0,0,0-.9-3.61ZM262.78,83.17a9.6,9.6,0,0,1-3,7.15,9.6,9.6,0,0,1-3-7.15,8.2,8.2,0,0,1,1.52-4.54h2.93A8.2,8.2,0,0,1,262.78,83.17Zm-1.85-5.58a9.08,9.08,0,0,0-.84-.8l.39-.4a9.62,9.62,0,0,1,.76-.64v2.08Zm0,.65h-2.32a9,9,0,0,0,1.17-1.15,9.94,9.94,0,0,0,.84.78Zm-.76-2.13-.4.39a9.08,9.08,0,0,0-.8-.83l-.25-.32h2.08A9.63,9.63,0,0,1,260.2,76.11Zm-.7.67a9,9,0,0,0-1.15,1.17V75.63l.38.32A9.92,9.92,0,0,0,259.51,76.78Zm7.71-3a8.22,8.22,0,0,1,6.12,3,8.22,8.22,0,0,1-6.12,3,9.48,9.48,0,0,1-5.58-1.66V75.47A9.52,9.52,0,0,1,267.21,73.81Zm-10.4-4.43a8.22,8.22,0,0,1,3-6.12,8.22,8.22,0,0,1,3,6.12A9.5,9.5,0,0,1,261.12,75h-2.65A9.5,9.5,0,0,1,256.82,69.38ZM258,75.33v2.93a8.2,8.2,0,0,1-4.54,1.52,9.56,9.56,0,0,1-7.15-3,9.62,9.62,0,0,1,7.15-3A8.2,8.2,0,0,1,258,75.33ZM235.59,52.58h2.88v2.88h-2.88Zm3,3.28L257,74.31a8.66,8.66,0,0,0-3.61-.9,10,10,0,0,0-7.57,3.24.2.2,0,0,0,0,.27,10,10,0,0,0,7.29,3.25h.28a8.66,8.66,0,0,0,3.61-.9L238.59,97.72h-3.12L216.68,78.93a9.85,9.85,0,0,0,4.73,1.24h.28a8.61,8.61,0,0,0,6.52-3.25.2.2,0,0,0,0-.25,8.61,8.61,0,0,0-6.52-3.25,9.82,9.82,0,0,0-5,1.23l18.79-18.79ZM216.1,29.93a9.51,9.51,0,0,1,5.58-1.66,8.22,8.22,0,0,1,6.12,3,8.22,8.22,0,0,1-6.12,3,9.49,9.49,0,0,1-5.58-1.66Zm-.39.28V32.3l-.31-.25a9.07,9.07,0,0,0-.83-.8l.39-.4A9.63,9.63,0,0,1,215.71,30.22Zm-.28,2.48h-2.32a9,9,0,0,0,1.17-1.15,9.92,9.92,0,0,0,.84.78Zm-.12-2.88a9.62,9.62,0,0,1-.64.76l-.4.39a9.07,9.07,0,0,0-.8-.83l-.25-.32Zm-2.48.28.38.32a9.93,9.93,0,0,0,.77.83,9,9,0,0,0-1.15,1.17Zm2.91,3a8.2,8.2,0,0,1,1.52,4.54,9.6,9.6,0,0,1-3,7.15,9.6,9.6,0,0,1-3-7.15,8.2,8.2,0,0,1,1.52-4.54Zm-7.84,1.15a9.59,9.59,0,0,1-7.15-3,9.64,9.64,0,0,1,7.15-3,8.2,8.2,0,0,1,4.54,1.52v2.93A8.2,8.2,0,0,1,207.89,34.24ZM193.33,52.47,211.78,34a8.66,8.66,0,0,0-.9,3.61,10,10,0,0,0,3.24,7.57.2.2,0,0,0,.27,0,10,10,0,0,0,3.24-7.57,8.66,8.66,0,0,0-.9-3.61l18.45,18.45v3.12L216.41,74.37a9.82,9.82,0,0,0,1.23-5,8.61,8.61,0,0,0-3.25-6.52.2.2,0,0,0-.25,0,8.62,8.62,0,0,0-3.25,6.52,9.82,9.82,0,0,0,1.23,5L193.33,55.58Zm-3.28.12h2.88v2.88h-2.88Zm3,3.28,18.45,18.45a8.66,8.66,0,0,0-3.61-.9,10,10,0,0,0-7.57,3.24.2.2,0,0,0,0,.27,10,10,0,0,0,7.29,3.25h.28a8.66,8.66,0,0,0,3.61-.9L193.05,97.72h-3.12L171.14,78.93a9.85,9.85,0,0,0,4.73,1.24h.28a8.61,8.61,0,0,0,6.52-3.25.2.2,0,0,0,0-.25,8.61,8.61,0,0,0-6.52-3.25,9.82,9.82,0,0,0-5,1.23l18.79-18.79Zm-23.2-23.81a9.07,9.07,0,0,0-.83-.8l.39-.4a9.6,9.6,0,0,1,.76-.64V32.3Zm0,.65h-2.32a9,9,0,0,0,1.17-1.15,9.92,9.92,0,0,0,.84.78Zm-.76-2.13-.4.39a9.07,9.07,0,0,0-.8-.83l-.25-.32h2.08A9.63,9.63,0,0,1,169.13,30.57Zm-.7.67a9,9,0,0,0-1.15,1.17V30.09l.38.32A9.92,9.92,0,0,0,168.44,31.25Zm1.76,1.85a8.2,8.2,0,0,1,1.52,4.54,9.6,9.6,0,0,1-3,7.15,9.6,9.6,0,0,1-3-7.15,8.2,8.2,0,0,1,1.52-4.54Zm5.95-4.82a8.22,8.22,0,0,1,6.12,3,8.22,8.22,0,0,1-6.12,3,9.49,9.49,0,0,1-5.58-1.66V29.93A9.51,9.51,0,0,1,176.14,28.28Zm-10.4-4.43a8.22,8.22,0,0,1,3-6.12,8.22,8.22,0,0,1,3,6.12,9.5,9.5,0,0,1-1.66,5.58H167.4A9.5,9.5,0,0,1,165.75,23.84Zm-3.39,10.4a9.58,9.58,0,0,1-7.15-3,9.65,9.65,0,0,1,7.15-3,8.2,8.2,0,0,1,4.54,1.52v2.93A8.2,8.2,0,0,1,162.35,34.24ZM147.8,52.47,166.25,34a8.66,8.66,0,0,0-.9,3.61,10,10,0,0,0,3.24,7.57.2.2,0,0,0,.27,0,10,10,0,0,0,3.24-7.57,8.66,8.66,0,0,0-.9-3.61l18.45,18.45v3.12L170.87,74.37a9.82,9.82,0,0,0,1.23-5,8.61,8.61,0,0,0-3.25-6.52.2.2,0,0,0-.25,0,8.61,8.61,0,0,0-3.25,6.52,9.82,9.82,0,0,0,1.23,5L147.8,55.58Zm-3.28.12h2.88v2.88h-2.88Zm3,3.28L166,74.31a8.66,8.66,0,0,0-3.61-.9,10,10,0,0,0-7.57,3.24.2.2,0,0,0,0,.27,10,10,0,0,0,7.29,3.25h.28a8.66,8.66,0,0,0,3.61-.9L147.52,97.72H144.4L125.61,78.93a9.85,9.85,0,0,0,4.73,1.24h.28a8.61,8.61,0,0,0,6.52-3.25.2.2,0,0,0,0-.25,8.61,8.61,0,0,0-6.52-3.25,9.82,9.82,0,0,0-5,1.23L144.4,55.86Zm-23.2-23.81a9.06,9.06,0,0,0-.84-.8l.39-.4a9.66,9.66,0,0,1,.76-.63V32.3Zm0,.65H122a9,9,0,0,0,1.17-1.15,9.93,9.93,0,0,0,.84.78Zm-.76-2.13-.4.39a9.07,9.07,0,0,0-.8-.83l-.25-.31h2.08A9.63,9.63,0,0,1,123.6,30.57Zm-.7.67a9,9,0,0,0-1.15,1.17V30.09l.38.32A9.93,9.93,0,0,0,122.9,31.25Zm1.76,1.85a8.2,8.2,0,0,1,1.52,4.54,9.6,9.6,0,0,1-3,7.15,9.61,9.61,0,0,1-3-7.15,8.2,8.2,0,0,1,1.52-4.54Zm5.95-4.82a8.22,8.22,0,0,1,6.12,3,8.22,8.22,0,0,1-6.12,3A9.5,9.5,0,0,1,125,32.58V29.93A9.5,9.5,0,0,1,130.61,28.28Zm-10.4-4.43a8.22,8.22,0,0,1,3-6.12,8.22,8.22,0,0,1,3,6.12,9.5,9.5,0,0,1-1.66,5.58h-2.65A9.5,9.5,0,0,1,120.21,23.84Zm-3.39,10.4a9.6,9.6,0,0,1-7.15-3,9.62,9.62,0,0,1,7.15-3,8.2,8.2,0,0,1,4.54,1.52v2.93A8.2,8.2,0,0,1,116.82,34.24ZM102.26,52.47,120.71,34a8.66,8.66,0,0,0-.9,3.61,10,10,0,0,0,3.24,7.57.2.2,0,0,0,.27,0,10,10,0,0,0,3.24-7.57,8.66,8.66,0,0,0-.9-3.61l18.45,18.45v3.12L125.33,74.37a9.81,9.81,0,0,0,1.23-5,8.61,8.61,0,0,0-3.25-6.52.2.2,0,0,0-.25,0,8.61,8.61,0,0,0-3.25,6.52,9.82,9.82,0,0,0,1.23,5L102.26,55.58ZM99,52.58h2.88v2.88H99Zm-.12,3.28H102l18.45,18.45a8.66,8.66,0,0,0-3.61-.9,10,10,0,0,0-7.57,3.24.2.2,0,0,0,0,.27,10,10,0,0,0,7.29,3.25h.28a8.66,8.66,0,0,0,3.61-.9L102,97.72H98.87L80.07,78.93a9.85,9.85,0,0,0,4.73,1.24h.28a8.61,8.61,0,0,0,6.52-3.25.2.2,0,0,0,0-.25,8.61,8.61,0,0,0-6.52-3.25,9.82,9.82,0,0,0-5,1.23ZM78.79,77.59a9.06,9.06,0,0,0-.83-.8l.39-.4a9.62,9.62,0,0,1,.76-.64v2.08Zm0,.65H76.5a9,9,0,0,0,1.17-1.15,9.93,9.93,0,0,0,.84.78Zm-.76-2.13-.4.39a9.08,9.08,0,0,0-.8-.83l-.25-.31H78.7A9.65,9.65,0,0,1,78.06,76.11Zm-.7.68a9,9,0,0,0-1.15,1.17V75.63l.38.32A9.93,9.93,0,0,0,77.36,76.78Zm1.76,1.85a8.2,8.2,0,0,1,1.52,4.54,9.6,9.6,0,0,1-3,7.15,9.6,9.6,0,0,1-3-7.15,8.2,8.2,0,0,1,1.52-4.54Zm5.95-4.82a8.22,8.22,0,0,1,6.12,3,8.22,8.22,0,0,1-6.12,3,9.48,9.48,0,0,1-5.58-1.66V75.47A9.54,9.54,0,0,1,85.07,73.81Zm-10.4-4.43a8.22,8.22,0,0,1,3-6.12,8.22,8.22,0,0,1,3,6.12A9.5,9.5,0,0,1,79,75H76.33A9.5,9.5,0,0,1,74.67,69.38Zm-3.39,10.4a9.6,9.6,0,0,1-7.15-3,9.62,9.62,0,0,1,7.15-3,8.2,8.2,0,0,1,4.54,1.52v2.93A8.2,8.2,0,0,1,71.28,79.78ZM56.73,98,75.18,79.55a8.66,8.66,0,0,0-.9,3.61,10,10,0,0,0,3.24,7.57.2.2,0,0,0,.27,0A10,10,0,0,0,81,83.16a8.66,8.66,0,0,0-.9-3.61L98.59,98v3.12L79.8,119.91a9.81,9.81,0,0,0,1.23-5,8.61,8.61,0,0,0-3.25-6.52.2.2,0,0,0-.25,0,8.61,8.61,0,0,0-3.25,6.52,9.81,9.81,0,0,0,1.23,5L56.73,101.12Zm-3.28.12h2.88V101H53.45ZM29.14,114.91a8.22,8.22,0,0,1,3-6.12,8.22,8.22,0,0,1,3,6.12,9.5,9.5,0,0,1-1.66,5.58H30.8A9.5,9.5,0,0,1,29.14,114.91Zm10.4,4.43a8.22,8.22,0,0,1,6.12,3,8.22,8.22,0,0,1-6.12,3A9.48,9.48,0,0,1,34,123.65V121A9.54,9.54,0,0,1,39.54,119.35Zm-7.71,3a9,9,0,0,0-1.15,1.17v-2.32l.38.32A9.93,9.93,0,0,0,31.83,122.32Zm-.75-1.43h2.08a9.64,9.64,0,0,1-.63.76l-.4.39a9.08,9.08,0,0,0-.8-.83Zm1.05,1.74a9.93,9.93,0,0,0,.84.78l.32.37H31A9,9,0,0,0,32.13,122.62Zm1.12.5a9.07,9.07,0,0,0-.83-.8l.39-.4a9.59,9.59,0,0,1,.76-.64v2.08Zm-7.5,2.19a9.6,9.6,0,0,1-7.15-3,9.62,9.62,0,0,1,7.15-3,8.2,8.2,0,0,1,4.54,1.52v2.93A8.2,8.2,0,0,1,25.75,125.31Zm9.36,3.39a9.6,9.6,0,0,1-3,7.15,9.6,9.6,0,0,1-3-7.15,8.2,8.2,0,0,1,1.52-4.54h2.93A8.2,8.2,0,0,1,35.11,128.71Zm-.57-4.24a9.85,9.85,0,0,0,4.73,1.24h.28a8.61,8.61,0,0,0,6.52-3.25.2.2,0,0,0,0-.25A8.61,8.61,0,0,0,39.55,119a9.82,9.82,0,0,0-5,1.23L53.33,101.4h3.12L74.9,119.85a8.66,8.66,0,0,0-3.61-.9,10,10,0,0,0-7.57,3.24.2.2,0,0,0,0,.27A10,10,0,0,0,71,125.71h.28a8.66,8.66,0,0,0,3.61-.9L56.45,143.26H53.33Zm21.79,19.19v2.88H53.45v-2.88ZM29.14,160.45a8.22,8.22,0,0,1,3-6.12,8.22,8.22,0,0,1,3,6.12A9.5,9.5,0,0,1,33.45,166H30.8A9.5,9.5,0,0,1,29.14,160.45Zm10.4,4.43a8.22,8.22,0,0,1,6.12,3,8.22,8.22,0,0,1-6.12,3A9.46,9.46,0,0,1,34,169.19v-2.65A9.47,9.47,0,0,1,39.54,164.88Zm-7.71,3A9,9,0,0,0,30.68,169V166.7l.38.32A9.92,9.92,0,0,0,31.83,167.85Zm-.75-1.43h2.08a9.62,9.62,0,0,1-.63.76l-.4.39a9.08,9.08,0,0,0-.8-.83Zm1.05,1.74a9.92,9.92,0,0,0,.84.78l.32.37H31A9,9,0,0,0,32.13,168.16Zm1.12.5a9.07,9.07,0,0,0-.84-.8l.39-.4a9.64,9.64,0,0,1,.76-.64v2.08Zm-7.51,2.19a9.58,9.58,0,0,1-7.15-3,9.57,9.57,0,0,1,7.15-3,8.2,8.2,0,0,1,4.54,1.52v2.93A8.2,8.2,0,0,1,25.75,170.85Zm9.36,3.39a9.6,9.6,0,0,1-3,7.15,9.6,9.6,0,0,1-3-7.15,8.2,8.2,0,0,1,1.52-4.54h2.93A8.2,8.2,0,0,1,35.11,174.24ZM34.54,170a9.85,9.85,0,0,0,4.73,1.24h.28A8.61,8.61,0,0,0,46.07,168a.2.2,0,0,0,0-.25,8.61,8.61,0,0,0-6.52-3.25,9.74,9.74,0,0,0-5,1.23l18.78-18.78h3.12L74.9,165.38a8.66,8.66,0,0,0-3.61-.9,10,10,0,0,0-7.57,3.24.2.2,0,0,0,0,.27A10,10,0,0,0,71,171.24h.28a8.66,8.66,0,0,0,3.61-.9L56.45,188.79H53.33Zm21.79,19.19v2.88H53.45v-2.88ZM29.14,206a8.22,8.22,0,0,1,3-6.12,8.22,8.22,0,0,1,3,6.12,9.5,9.5,0,0,1-1.66,5.58H30.8A9.5,9.5,0,0,1,29.14,206Zm10.4,4.43a8.22,8.22,0,0,1,6.12,3,8.22,8.22,0,0,1-6.12,3A9.44,9.44,0,0,1,34,214.72v-2.65A9.44,9.44,0,0,1,39.54,210.42Zm-7.71,3a9,9,0,0,0-1.15,1.17v-2.32l.38.32A9.92,9.92,0,0,0,31.83,213.39ZM31.08,212h2.08a9.65,9.65,0,0,1-.63.76l-.4.39a9.08,9.08,0,0,0-.8-.83Zm1.05,1.74a9.92,9.92,0,0,0,.84.78l.32.37H31A9,9,0,0,0,32.13,213.69Zm1.12.5a9.07,9.07,0,0,0-.84-.8l.39-.4a9.65,9.65,0,0,1,.76-.64v2.08Zm1.85,5.58a9.6,9.6,0,0,1-3,7.15,9.6,9.6,0,0,1-3-7.15,8.2,8.2,0,0,1,1.52-4.54h2.93A8.2,8.2,0,0,1,35.11,219.77Zm21.23,17.83H53.45v-2.88h2.88Zm-3-3.28L34.54,215.54a9.85,9.85,0,0,0,4.73,1.24h.28a8.61,8.61,0,0,0,6.52-3.25.2.2,0,0,0,0-.25A8.61,8.61,0,0,0,39.55,210a9.75,9.75,0,0,0-5,1.23l18.78-18.78h3.12L74.9,210.92a8.66,8.66,0,0,0-3.61-.9,10,10,0,0,0-7.57,3.24.2.2,0,0,0,0,.27A10,10,0,0,0,71,216.78h.28a8.66,8.66,0,0,0,3.61-.9L56.45,234.33Zm3.39,3.39v-3.12l18.45-18.45a8.66,8.66,0,0,0-.9,3.61,10,10,0,0,0,3.24,7.57.2.2,0,0,0,.27,0A10,10,0,0,0,81,219.76a8.66,8.66,0,0,0-.9-3.61l18.45,18.45v3.12L79.8,256.51a9.81,9.81,0,0,0,1.23-5A8.61,8.61,0,0,0,77.78,245a.2.2,0,0,0-.25,0,8.61,8.61,0,0,0-3.25,6.52,9.81,9.81,0,0,0,1.23,5Zm20.64,21.2a9,9,0,0,0-1.15,1.17v-2.32l.38.32A9.92,9.92,0,0,0,77.37,258.92Zm-.75-1.43H78.7a9.64,9.64,0,0,1-.63.76l-.4.39a9.08,9.08,0,0,0-.8-.83Zm1.05,1.74a9.93,9.93,0,0,0,.84.78l.32.37H76.5A9,9,0,0,0,77.67,259.23Zm1.12.5a9.07,9.07,0,0,0-.84-.8l.39-.4a9.67,9.67,0,0,1,.76-.64V260ZM79,257.1H76.33a9.5,9.5,0,0,1-1.66-5.58,8.22,8.22,0,0,1,3-6.12,8.22,8.22,0,0,1,3,6.12A9.5,9.5,0,0,1,79,257.1Zm.51.51A9.44,9.44,0,0,1,85.07,256a8.22,8.22,0,0,1,6.12,3,8.22,8.22,0,0,1-6.12,3,9.45,9.45,0,0,1-5.58-1.66Zm-8.21,4.31a9.57,9.57,0,0,1-7.15-3,9.57,9.57,0,0,1,7.15-3,8.2,8.2,0,0,1,4.54,1.52v2.93A8.2,8.2,0,0,1,71.28,261.92Zm9.36,3.39a9.6,9.6,0,0,1-3,7.15,9.6,9.6,0,0,1-3-7.15,8.2,8.2,0,0,1,1.52-4.54h2.93A8.2,8.2,0,0,1,80.64,265.31Zm21.23,17.83H99v-2.88h2.88Zm.12-3.28H98.87L80.07,261.07a9.85,9.85,0,0,0,4.73,1.24h.28a8.61,8.61,0,0,0,6.52-3.25.2.2,0,0,0,0-.25,8.61,8.61,0,0,0-6.52-3.25,9.76,9.76,0,0,0-5,1.23L98.87,238H102l18.45,18.45a8.66,8.66,0,0,0-3.61-.9,10,10,0,0,0-7.57,3.24.2.2,0,0,0,0,.27,10,10,0,0,0,7.29,3.25h.28a8.66,8.66,0,0,0,3.61-.9Zm14.83-17.95a9.58,9.58,0,0,1-7.15-3,9.57,9.57,0,0,1,7.15-3,8.2,8.2,0,0,1,4.54,1.52v2.93A8.2,8.2,0,0,1,116.82,261.92Zm9.36,3.39a9.6,9.6,0,0,1-3,7.15,9.6,9.6,0,0,1-3-7.15,8.2,8.2,0,0,1,1.52-4.54h2.93A8.2,8.2,0,0,1,126.18,265.31Zm21.23,17.83h-2.88v-2.88h2.88Zm.12-3.28H144.4l-18.79-18.79a9.85,9.85,0,0,0,4.73,1.24h.28a8.61,8.61,0,0,0,6.52-3.25.2.2,0,0,0,0-.25,8.61,8.61,0,0,0-6.52-3.25,9.76,9.76,0,0,0-5,1.23L144.4,238h3.12L166,256.45a8.66,8.66,0,0,0-3.61-.9,10,10,0,0,0-7.57,3.24.2.2,0,0,0,0,.27,10,10,0,0,0,7.29,3.25h.28a8.66,8.66,0,0,0,3.61-.9Zm14.83-17.95a9.57,9.57,0,0,1-7.15-3,9.61,9.61,0,0,1,7.15-3,8.2,8.2,0,0,1,4.54,1.52v2.93A8.2,8.2,0,0,1,162.35,261.92Zm9.36,3.39a9.6,9.6,0,0,1-3,7.15,9.6,9.6,0,0,1-3-7.15,8.2,8.2,0,0,1,1.52-4.54h2.93A8.2,8.2,0,0,1,171.71,265.31Zm21.23,17.83h-2.88v-2.88h2.88Zm.12-3.28h-3.12l-18.79-18.79a9.85,9.85,0,0,0,4.73,1.24h.28a8.61,8.61,0,0,0,6.52-3.25.2.2,0,0,0,0-.25,8.61,8.61,0,0,0-6.52-3.25,9.76,9.76,0,0,0-5,1.23L189.94,238h3.12l18.45,18.45a8.66,8.66,0,0,0-3.61-.9,10,10,0,0,0-7.57,3.24.2.2,0,0,0,0,.27,10,10,0,0,0,7.29,3.25h.28a8.66,8.66,0,0,0,3.61-.9Zm14.83-17.95a9.57,9.57,0,0,1-7.15-3,9.6,9.6,0,0,1,7.15-3,8.2,8.2,0,0,1,4.54,1.52v2.93A8.2,8.2,0,0,1,207.89,261.92Zm9.36,3.39a9.6,9.6,0,0,1-3,7.15,9.6,9.6,0,0,1-3-7.15,8.2,8.2,0,0,1,1.52-4.54h2.93A8.2,8.2,0,0,1,217.25,265.31Zm21.23,17.83h-2.88v-2.88h2.88Zm.12-3.28h-3.12l-18.79-18.79a9.85,9.85,0,0,0,4.73,1.24h.28a8.61,8.61,0,0,0,6.52-3.25.2.2,0,0,0,0-.25,8.61,8.61,0,0,0-6.52-3.25,9.76,9.76,0,0,0-5,1.23L235.47,238h3.12L257,256.45a8.66,8.66,0,0,0-3.61-.9,10,10,0,0,0-7.57,3.24.2.2,0,0,0,0,.27,10,10,0,0,0,7.29,3.25h.28a8.66,8.66,0,0,0,3.61-.9ZM258,260.4a8.2,8.2,0,0,1-4.54,1.52,9.57,9.57,0,0,1-7.15-3,9.6,9.6,0,0,1,7.15-3,8.2,8.2,0,0,1,4.54,1.52Zm1.54-1.48a9,9,0,0,0-1.15,1.17v-2.32l.38.32A9.92,9.92,0,0,0,259.51,258.92Zm-.75-1.43h2.08a9.64,9.64,0,0,1-.63.76l-.4.39a9.07,9.07,0,0,0-.8-.83Zm-.11,2.88a9,9,0,0,0,1.17-1.15,9.93,9.93,0,0,0,.83.78l.32.37Zm2.6-.4-.31-.25a9.06,9.06,0,0,0-.84-.8l.39-.4a9.7,9.7,0,0,1,.76-.64Zm-.12-2.88h-2.65a9.5,9.5,0,0,1-1.66-5.58,8.22,8.22,0,0,1,3-6.12,8.22,8.22,0,0,1,3,6.12A9.5,9.5,0,0,1,261.12,257.1Z"/>
					<path class="cls-3" d="M80.64,37.63a9.6,9.6,0,0,1-3,7.15,9.7,9.7,0,0,1-2.86-5.43l-.36.25a10.11,10.11,0,0,0,3.09,5.59.2.2,0,0,0,.27,0A10,10,0,0,0,81,37.62a8.78,8.78,0,0,0-.37-2.22l-.35.22A8.37,8.37,0,0,1,80.64,37.63Z"/>
				</g>
				<path class="cls-4" d="M160,12.31a147.7,147.7,0,0,0-81.26,271H241.26A147.7,147.7,0,0,0,160,12.31Z"/>
				<path
					class="cls-5"
					d="M295.81,153.54c-10.93-7.76-22.1-15.36-34.36-20.88a109.2,109.2,0,0,0-20-6.72,121.34,121.34,0,0,0-19.21-2.86l.29-.3q1.63-1.78,3.12-3.68a87.18,87.18,0,0,0,13.81-26.35c2.48-.77,5-2.93,7.33-5.62a44.78,44.78,0,0,0,7.87-13.41c1.27-4,2.15-9.84.39-14a8.8,8.8,0,0,0-1-1.8h0a7.57,7.57,0,0,0-3.48-2.63,9.8,9.8,0,0,0-1.72-.48,9.21,9.21,0,0,0-2.78-.08,110.28,110.28,0,0,0-.6-15.2A147,147,0,0,0,160,12.31l-2.34,0a62,62,0,0,0-8.28,15.25,78.76,78.76,0,0,0-2.69,10C144.46,48,143,60.65,143.53,63.14a10.86,10.86,0,0,0,.29,1.15c0,.14.1.27.15.4l-.17.33.22-.18a18.44,18.44,0,0,0,3.84,5.74L149.15,72,149,72l-.32,0-1.26.21-.21,0-1.09.22-.35.08-1.29.32v0l0,.09v0l0,.16v0l0,.2v0l0,.2v0l0,.19,0,.18,0,.21,0,.21,0,.24,0,.23v0q0,.21,0,.43v.06q0,.22,0,.46v.18c0,.12,0,.25,0,.38v.21c0,.13,0,.27,0,.4s0,.13,0,.2,0,.41,0,.62v.06q0,.29,0,.59c0,.07,0,.15,0,.22s0,.3,0,.46l0,.24c0,.16,0,.32,0,.48l0,.22c0,.23.05.46.09.7v0c0,.23.07.45.12.68l0,.22q.05.25.11.5l.06.25c0,.17.09.33.13.5l.06.22c.07.24.15.47.23.71h.06l.09,0h0l.17,0h0l.27.07.08,0,.26.06.11,0,.33.07.1,0,.48.1.12,0,.43.08.18,0,.46.08.16,0,.67.1h.11l.61.08.24,0h.08a6.23,6.23,0,0,0-1.44,5.89,44.89,44.89,0,0,0,5,10.68,4.84,4.84,0,0,0-1.78,1.43,2.24,2.24,0,0,0-.38,1.42,3.12,3.12,0,0,0,.08.56c0,.11.06.21.09.31.62,2,3.36,4,6.34,5.25.1.4.19.8.27,1.19a33.41,33.41,0,0,1,.54,4.44,8.75,8.75,0,0,1-.36,3.17l0,.11a12.51,12.51,0,0,0-3.6.64c.12.21.24.41.36.61a41,41,0,0,0,9.18,10.88l.68.54c-16.88,7.75-29.91,21.49-38.76,37.71a113.1,113.1,0,0,0-11.21,30.51l16.57,33.57c12.3,0,19.76-2.25,19.76-2.25.07-5.39.22-10.43.44-15.12.16,1.41.36,2.83.59,4.24,1.63,9.75,4.68,14.29,5.85,15.73a2.24,2.24,0,0,0,1,.72,42.47,42.47,0,0,0,12.59,2,40.65,40.65,0,0,0,6.74-.59,163.24,163.24,0,0,1,0,36.51q-.38,3.16-.92,6.35c21.82.49,43.72.58,65.55.46a148.51,148.51,0,0,0,30.24-27.5q-3.09-13-6-24l8.63.76c4.16.37,8.29.86,12.41,1.4a147,147,0,0,0,19.06-70.11C303.81,159.43,299.87,156.42,295.81,153.54Zm-142.28,41.1a207.24,207.24,0,0,1,3.36-21.83c.17-.77.27-1.15.27-1.15s.11.88.44,2.47a89.22,89.22,0,0,0,6.9,19.93C159.77,194.15,155.68,194.35,153.53,194.64Zm99.74-64.22h0ZM273,212.23c-3.24.36-6.67.59-10.19.66-5.91-21.08-10.48-34.34-12.79-40.65-1.08-3-1.67-4.39-1.67-4.39s32.24,11.56,42.21,38.61q.36,1,.68,2A135,135,0,0,1,273,212.23Z"/>
				<path class="cls-6" d="M153.29,151.47a6.44,6.44,0,0,1-1.71-2.6c-17.51,6.12-30.83,19.34-39.52,35.28C122.59,169.21,135.46,155.28,153.29,151.47Z"/>
				<path d="M227,225.49c1.9.07,3.8.19,5.71.28C227,205,222.57,192.16,220.4,186.25,224.09,199.14,227.91,212.06,227,225.49Z"/>
				<path
					class="cls-6"
					d="M235.14,234.89c-1.44,0-2.86,0-4.3,0a65.51,65.51,0,0,1,2,6.32c1.58,7.49,3.15,15,2.36,22.46-.39,2.76-.39,5.91-1.18,8.67a26.74,26.74,0,0,1-2.76,7.88,32.35,32.35,0,0,1-3.07,4.5c3.68-.07,7.34,0,11,0q3.45-2.19,6.76-4.57C242.11,262.53,238.45,247.5,235.14,234.89Z"/>
				<path
					class="cls-7"
					d="M286,214.39a8.36,8.36,0,0,0,9.47-3.44,5.37,5.37,0,0,0,0-3.66c-3.15-8.27-12.21-13-18.91-19.3a13.2,13.2,0,0,1-1.21-1.38c-4.91-4.41-9.72-9-14.95-13.2-11.7-9.71-23.87-18-37.11-23.77a53,53,0,0,0-12.13-3c-8.54-1.16-23.21,1.12-21.36,12.12-4.49-1.63-5.28-6.44-4.24-10.94a45,45,0,0,1,1.69-4.88q-3.09,0-6.18.22a117.55,117.55,0,0,0-27.23,5c-.76.23-1.51.49-2.25.75a6.44,6.44,0,0,0,1.71,2.6c-17.83,3.82-30.7,17.74-41.23,32.68a99,99,0,0,0-9.81,26.72l14.51,29.39c10.77,0,17.3-2,17.3-2,.37-29.71,3.85-47.3,4.8-51.54.15-.67.24-1,.24-1s.1.77.38,2.16a84.38,84.38,0,0,0,13.33,30s8.81,27.63,5.1,58.45q-.33,2.77-.8,5.56c24.28.54,48.68.53,72.9.29q.65-1,1.26-2A26.74,26.74,0,0,0,234,272.3c.79-2.76.79-5.91,1.18-8.67.79-7.49-.79-15-2.36-22.46a65.5,65.5,0,0,0-2-6.32c1.44,0,2.86,0,4.3,0q-1.26-4.79-2.45-9.12c-1.9-.09-3.8-.21-5.71-.28.93-13.43-2.89-26.35-6.58-39.23-.95-2.59-1.46-3.84-1.46-3.84s28.23,10.13,37,33.81C265.81,214.67,275.76,211,286,214.39Z"/>
				<path
					class="cls-6"
					d="M295.37,200.81q-1.67-2-3.49-3.83a229.59,229.59,0,0,0-31.39-27.1c-9.57-6.8-19.35-13.45-30.09-18.29a95.61,95.61,0,0,0-17.51-5.88,108.63,108.63,0,0,0-25.65-2.77,45,45,0,0,0-1.69,4.88c-1,4.5-.25,9.31,4.24,10.94-1.85-11,12.82-13.29,21.36-12.12a53,53,0,0,1,12.08,3c13.26,5.78,25.45,14.07,37.17,23.79,5.23,4.15,10,8.79,14.95,13.2a13.21,13.21,0,0,0,1.21,1.38c6.7,6.3,15.76,11,18.91,19.3a5.37,5.37,0,0,1,0,3.67,8.37,8.37,0,0,1-9.45,3.42c-10.25-3.42-20.21.28-30.12,1.83a41,41,0,0,1,1.28,4.13s11.11-4,31.63-3.65c2.37,0,4.87.13,7.49.29q2.07-4.94,3.78-10.06A76.05,76.05,0,0,0,295.37,200.81Z"/>
				<path class="cls-8" d="M176.46,233.91c-3.25,1.57-8.08,1.57-9.2,5.28h.6a23.44,23.44,0,0,0,8.71-.71C176,237,176.69,235.36,176.46,233.91Z"/>
				<path class="cls-9" d="M179.78,218.93h-.94a18.14,18.14,0,0,0-3.33,0,12.43,12.43,0,0,0-3.29.75,6.75,6.75,0,0,1,3.09.2,2.43,2.43,0,0,1,1.22,2.33,6.9,6.9,0,0,1-.25,1.46,7.88,7.88,0,0,0,4.19.22A14,14,0,0,0,179.78,218.93Z"/>
				<path
					class="cls-2"
					d="M178,223.89q0,.2,0,.41c0,6.9-3,10.77-10.13,10.25l-.9,0-1.74,4.62h2c1.12-3.7,5.94-3.71,9.2-5.28a2.79,2.79,0,0,0-.36-1,2.79,2.79,0,0,1,.36,1l.43-.22-.43.22c.23,1.44-.41,3.11.11,4.57a8.42,8.42,0,0,0,3.16-1.82c3-2.84,3.94-8.4,3.94-12.36q0-.24,0-.48Z"/>
				<path class="cls-9" d="M189.66,156.69a30.13,30.13,0,0,1-27,6.15c-.15.36-.32.71-.5,1a5.14,5.14,0,0,0,.85.4c2.37.91,9.87,2.61,24.76-3.75,1-.41,1.93-.84,2.95-1.31A20,20,0,0,1,189.66,156.69Z"/>
				<path class="cls-10" d="M188.33,148.27,164.1,157a23.74,23.74,0,0,1-.52,2.9,19,19,0,0,1-1,2.95,30.13,30.13,0,0,0,27-6.15,24.91,24.91,0,0,1-.78-3A27.33,27.33,0,0,1,188.33,148.27Z"/>
				<path class="cls-11" d="M203,66.33c-17.48,3.51-35.09,4.48-52.76,4.69A151.08,151.08,0,0,0,203,66.33Z"/>
				<path class="cls-11" d="M205,40.53a37.66,37.66,0,0,0-7.95-7c-9.24-6.09-22.78-8.68-33.64-5.47C178,25.85,193.48,30.76,205,40.53Z"/>
				<path class="cls-11" d="M215.44,63.73c.66,6.56,1.59,13.16-2.31,18.68-.33.47-4.24,4.4-5.59,6,.14.39.28.79.44,1.17A40.54,40.54,0,0,0,211.17,96a40.55,40.55,0,0,1,4.86-1.1C217.26,85.06,217.47,74,215.44,63.73Z"/>
				<path
					class="cls-12"
					d="M215.44,63.73c-.1-.49-.19-1-.3-1.46-1.77-8.07-5-15.64-10.18-21.74C193.48,30.76,178,25.85,163.38,28c-.81.24-1.6.51-2.38.81-12.88,5-24,17.88-28.73,30.74a69,69,0,0,0-2.35,8.73A191.9,191.9,0,0,0,150.26,71c17.67-.22,35.28-1.19,52.76-4.69,1.3-.37,2.6-.75,3.89-1.16a35.61,35.61,0,0,0,.62,23.28c1.35-1.63,5.27-5.57,5.59-6C217,76.89,216.11,70.29,215.44,63.73Z"/>
				<path class="cls-9" d="M207.54,88.45a19.44,19.44,0,0,0-2.27,3.36,15.56,15.56,0,0,0,3.07-1.33Q207.91,89.48,207.54,88.45Z"/>
				<path class="cls-9" d="M162.77,98.6a59.78,59.78,0,0,0,26.75-.93C180.86,95,171.08,93.88,162.77,98.6Z"/>
				<path class="cls-9" d="M131,97.22c.73.82,1.5,1.64,2.24,2.52h11.6A21,21,0,0,0,131,97.22Z"/>
				<path class="cls-9" d="M146.55,100v1c4.77-1.7,9.83-2.33,14.58-.63a3.08,3.08,0,0,1,.11-.75A20.82,20.82,0,0,0,146.55,100Z"/>
				<path
					class="cls-10"
					d="M211.17,96a40.48,40.48,0,0,1-2.06-3.78q-.4-.84-.77-1.7a15.56,15.56,0,0,1-3.07,1.33,19.44,19.44,0,0,1,2.27-3.36,35.62,35.62,0,0,1-.62-23.29,132.73,132.73,0,0,1-13.14,3.4,155.19,155.19,0,0,1-42.72,2.51,191.39,191.39,0,0,1-21.13-2.77c-2,9.19-3.2,20.23-2.77,22.41a9.49,9.49,0,0,0,.26,1,15.21,15.21,0,0,0,3.54,5.5,21,21,0,0,1,13.83,2.52h-11.6c.22.26.43.52.64.79,6,7.69-3.89,7.85-2.18,14.49a38.13,38.13,0,0,0,4.83,10,19.2,19.2,0,0,1,3.15,6.38c2.49,1.12,5.61.52,8,1.58a13.73,13.73,0,0,1-7.56.28,29.26,29.26,0,0,1,.47,3.88c6.4-1.34,24.23-.76,40.3,2a101.7,101.7,0,0,1,14.26,3.34l1.22.39q1.42-1.56,2.73-3.22c4.57-7.14,8.62-14.86,10.25-23.42.64,0,1.3,0,2,0a111.48,111.48,0,0,0,4.4-18.81c.12-.85.24-1.71.35-2.58A40.54,40.54,0,0,0,211.17,96Zm-82.24-5.46C131,85.8,136.35,83,141,85.56a9.87,9.87,0,0,1,3.33,3.6C139.54,86.51,133.44,87.33,128.93,90.51Zm32.21,9.89c-4.75-1.69-9.82-1.07-14.58.63v-1a20.82,20.82,0,0,1,14.69-.38A3.08,3.08,0,0,0,161.14,100.4ZM182.8,83.2c2.18,1.09,3.7,3.19,5.47,5.37-1.22-.48-2-1.75-3.1-2.61-7.45-3.9-14.9-.77-21.49,2.76A14.25,14.25,0,0,1,182.8,83.2Zm-20,15.4c8.31-4.72,18.09-3.59,26.75-.93A59.78,59.78,0,0,1,162.77,98.6Z"/>
				<path class="cls-13" d="M147,100.88c-.09-1.16-.22-1.86-.22-1.86a42.68,42.68,0,0,0-18.8.28,17.13,17.13,0,0,0-.31,1.88C134,99.31,140.74,99.73,147,100.88Z"/>
				<path class="cls-14" d="M127.72,101.17a18.14,18.14,0,0,0,.72,7.89,37.36,37.36,0,0,0,18.12-.13,28.3,28.3,0,0,0,.48-8.05C140.74,99.73,134,99.31,127.72,101.17Z"/>
				<path class="cls-13" d="M192,101.39a24.87,24.87,0,0,0-.3-3.57c-19.11-3.4-30.6.92-30.6.92a19.57,19.57,0,0,0-.3,2.43A53.54,53.54,0,0,1,192,101.39Z"/>
				<path class="cls-14" d="M160.84,101.17a25,25,0,0,0,.66,7.79s12.06,4.08,30-.55a34.66,34.66,0,0,0,.56-7A53.54,53.54,0,0,0,160.84,101.17Z"/>
				<path class="cls-9" d="M182.8,83.2a14.25,14.25,0,0,0-19.13,5.52c6.59-3.54,14-6.67,21.49-2.76,1.15.86,1.88,2.13,3.1,2.61C186.5,86.4,185,84.29,182.8,83.2Z"/>
				<polygon class="cls-15" points="177.47 96.52 177.47 96.52 177.47 96.92 177.47 96.52"/>
				<path
					class="cls-16"
					d="M209.62,89.06a.39.39,0,0,0-.54-.12l-5.63,3.54a34.38,34.38,0,0,1-9.92,6.24l-1.58,1c0-.13,0-.25,0-.37l-.07,0,.07,0c-.09-1-.19-1.51-.19-1.51a81.54,81.54,0,0,0-14.27-1.3v.79A80.73,80.73,0,0,1,191,98.5a32.8,32.8,0,0,1-.24,9.28,66.6,66.6,0,0,1-16.17,2.06,47.06,47.06,0,0,1-12.46-1.5,24.82,24.82,0,0,1-.33-9,53.14,53.14,0,0,1,15.63-2v-.79c-10.41,0-16.33,2.23-16.33,2.23s-.09.42-.18,1.15a20.73,20.73,0,0,0-14,.44c0-.34-.07-.61-.1-.83a42.07,42.07,0,0,0-19,.48,19,19,0,0,0,.55,9.08,32.46,32.46,0,0,0,8.58,1,40,40,0,0,0,9.54-1.16,28.14,28.14,0,0,0,.5-7.77,20,20,0,0,1,13.81-.48,25.16,25.16,0,0,0,.62,8.27,44.75,44.75,0,0,0,13.12,1.66,67.47,67.47,0,0,0,16.86-2.21,34.58,34.58,0,0,0,.52-7.88L209.5,89.6A.39.39,0,0,0,209.62,89.06ZM145.9,108.28a39.19,39.19,0,0,1-8.87,1,33.9,33.9,0,0,1-8-.89,18.74,18.74,0,0,1-.35-8.48,36.75,36.75,0,0,1,9-1.06,44.45,44.45,0,0,1,8.41.8A28.47,28.47,0,0,1,145.9,108.28Z"/>
				<path class="cls-15" d="M193.54,98.7a34.38,34.38,0,0,0,9.92-6.24Z"/>
				<path class="cls-15" d="M146.9,99.5c0-.31-.07-.49-.07-.49a43,43,0,0,0-9.11-.93A37.34,37.34,0,0,0,128,99.29s-.06.25-.14.69A42.07,42.07,0,0,1,146.9,99.5Z"/>
				<path class="cls-9" d="M144.37,89.17a9.87,9.87,0,0,0-3.33-3.6c-4.69-2.52-10,.23-12.11,4.95C133.44,87.33,139.54,86.51,144.37,89.17Z"/>
				<path class="cls-9" d="M147.64,133c-2.4-1.06-5.52-.46-8-1.58.18.62.33,1.24.45,1.86A13.73,13.73,0,0,0,147.64,133Z"/>
				<path class="cls-11" d="M146.23,151.31c10.64,8.23,25.21,9.12,38.32,1.3l.85-.53a51.39,51.39,0,0,0,7.49-5.71C180,156.48,160.94,159.55,146.23,151.31Z"/>
				<path class="cls-11" d="M147.34,139.93h-7.11l0,.1a11,11,0,0,0-3.15.56l.32.53a44.13,44.13,0,0,1,10-1.11Z"/>
				<path class="cls-12" d="M140.55,137.16a7.66,7.66,0,0,1-.32,2.78h7.11V140a44.13,44.13,0,0,0-10,1.11,35.86,35.86,0,0,0,8,9.53l.83.66c14.71,8.23,33.77,5.17,46.66-4.94q1.8-1.64,3.44-3.43C178.48,137,149.16,135.35,140.55,137.16Z"/>
				<path class="cls-17" d="M189.41,89.08c-2.58-2.9-7.16-6.65-13.46-6.42-5.36.2-9.76,3.39-12.34,5.81C171.85,85.17,181.52,85.15,189.41,89.08Z"/>
				<path class="cls-18" d="M163.61,88.47a23.63,23.63,0,0,0-2.49,2.68s16.83-9.94,30.71,1.19a21.32,21.32,0,0,0-2.42-3.25C181.52,85.15,171.85,85.17,163.61,88.47Z"/>
				<path class="cls-17" d="M145,89.39a11,11,0,0,0-8.75-3.95c-3.37.2-5.81,2.47-7.27,4.36A22.29,22.29,0,0,1,145,89.39Z"/>
				<path class="cls-18" d="M129,89.8a15,15,0,0,0-1.62,2.56s7.59-6.85,19.28-.81A13.45,13.45,0,0,0,145,89.39,22.29,22.29,0,0,0,129,89.8Z"/>
				<path
					class="cls-11"
					d="M159,140.16c-2.86-.23-7.47-.42-11.35-.41-1.94,0-3.71.06-5,.13s-2.49.15-2.49.15,1.22,0,2.49-.05,3,0,5,.08c3.88.13,8.46.48,11.31.71s7.44.57,11.3,1L173,142l2.23.25,2.06.23-2-.32L173,141.8l-2.71-.38C166.46,140.88,161.89,140.36,159,140.16Z"/>
				<path class="cls-9" d="M220.86,83.83a8.58,8.58,0,0,0-1.51-.42c-5.53-1-10.5,4-13.92,8.59C209.42,87.71,214.38,83,220.86,83.83Z"/>
				<path
					class="cls-10"
					d="M224.81,87.71a6.8,6.8,0,0,0-3.95-3.88c-6.48-.85-11.44,3.88-15.43,8.17l-.7,1c-.53.74-1,1.46-1.45,2.12,0,0,.48,14.76,1.54,18.76a3.12,3.12,0,0,0,.13.39,4.12,4.12,0,0,0,2.66,1.67,8.68,8.68,0,0,0,5.79-1.06,24.14,24.14,0,0,0,4-3.72C222.79,104.66,226.16,96.35,224.81,87.71Z"/>
				<path
					class="cls-9"
					d="M224.81,87.71c1.35,8.64-2,16.95-7.43,23.41a24.17,24.17,0,0,1-4,3.72,8.69,8.69,0,0,1-5.8,1.06,4.12,4.12,0,0,1-2.66-1.67,5,5,0,0,0,4.23,2.65c-1.71,8.32-5.67,15.86-10.13,22.83a76.33,76.33,0,0,0,12.09-23.07c2.17-.68,4.41-2.57,6.42-4.92A39.21,39.21,0,0,0,224.47,100C225.58,96.48,226.35,91.37,224.81,87.71Z"/>
				<path
					class="cls-9"
					d="M213,89.07a17.94,17.94,0,0,0-2.28,2.52,26.29,26.29,0,0,0-2.08,3.24,29.92,29.92,0,0,0-1.36,2.85c-.31.75-.47,1.22-.47,1.22s.2-.46.57-1.17S208.31,96,209,95a29.92,29.92,0,0,1,2.25-3,23.9,23.9,0,0,1,2.28-2.35,17,17,0,0,1,2.6-2,11.7,11.7,0,0,1,3.44-1.41,10.86,10.86,0,0,1,3.08-.25c.4,0,.72.08.95.1l.35,0-.34-.07c-.22,0-.54-.14-.94-.18a10.72,10.72,0,0,0-3.17,0,11.51,11.51,0,0,0-3.68,1.23A14,14,0,0,0,213,89.07Z"/>
				<path class="cls-9" d="M199.92,216.9a20.81,20.81,0,0,1-10.48-11.77C189.61,210.85,194.6,215.22,199.92,216.9Z"/>
				<path class="cls-9" d="M184.35,209c-.78,4.21,1.81,8.49,5.75,10.71C186.83,217.1,184.4,213.41,184.35,209Z"/>
				<path
					class="cls-10"
					d="M206.59,219.21c-1.35-.35-2.67-.74-3.95-1.17a21.55,21.55,0,0,1-2.72-1.14c-5.33-1.67-10.32-6.05-10.48-11.77,0-.11-.08-.21-.11-.32a1.44,1.44,0,0,0-2.4-.55,9.25,9.25,0,0,0-2.58,4.77c0,4.39,2.48,8.08,5.75,10.71a11.94,11.94,0,0,0,5.31,1.55Z"/>
				<path
					class="cls-8"
					d="M167.38,229.82c-.23-6,1.61-12.07.45-18.19a7,7,0,0,0-1.67-3.3,9,9,0,0,0-4.22-1.77,91.35,91.35,0,0,0-28.07,1.19,109.88,109.88,0,0,0,1.1,21c1.43,8.54,4.1,12.52,5.12,13.77a2,2,0,0,0,.91.63,37.19,37.19,0,0,0,11,1.75,36.25,36.25,0,0,0,7-.7,7.31,7.31,0,0,0,2.54-1.46C165.94,239.7,167.14,234.88,167.38,229.82Z"/>
				<path
					class="cls-2"
					d="M171.25,210.93c-.32,0-.66,0-1,0,0-1.41-.06-2.54-.09-3.28v-.22a1.56,1.56,0,0,0-.69-1.23c-1.77-1.19-33.14-1.19-34.91,0a1.56,1.56,0,0,0-.69,1.23l0,.35a91.35,91.35,0,0,1,28.07-1.19,9,9,0,0,1,4.22,1.77,7,7,0,0,1,1.67,3.3c1.16,6.12-.68,12.23-.45,18.19-.24,5.06-1.44,9.88-5.85,12.94a7.31,7.31,0,0,1-2.54,1.46,36.06,36.06,0,0,0,3.82-1,33.34,33.34,0,0,0,5-9.82c.35-1,.67-2.06,1-3.1l.13-.67c.05-.29.11-.59.16-.9a88.38,88.38,0,0,0,1-9.47c.07-1.31.12-2.57.15-3.76l.67.09A5,5,0,0,1,171.25,210.93Z"/>
				<path class="cls-2" d="M162.8,243.25l.25-.08a2,2,0,0,0,.91-.63c1-1.18,3.36-4.74,4.83-12.2C167.46,234.89,165.8,239.37,162.8,243.25Z"/>
				<path
					class="cls-9"
					d="M208.51,230.94a20.74,20.74,0,0,1-14,14.15c-2.7.57-5.21-.33-6.24-2.73a6.23,6.23,0,0,1-.59-3.65,11.8,11.8,0,0,1-6.89,1.29c-3-.75-4.22-4-4-7.06a7.49,7.49,0,0,1-7.73-4.07c.68,2.28,2.47,5.39,6.91,4.78,0,0-.34,4.14,1.28,6.75s6.11.79,9.16-.39c.54,2.56,1.24,4.51,2.32,5.66,1.43,1.53,3.51,1.65,6.72-.07,3.53-1.89,6.95-4,10.36-6.08l4.8-8.57Z"/>
				<path
					class="cls-10"
					d="M207.26,220.33l-.67-1.12-10.79-.11v2.1c-5.12,1.46-10.24,2.89-15.36,3,0-.1,0-.2,0-.31a8,8,0,0,1-4-.15l-.22-.07a6.94,6.94,0,0,0,.25-1.42,2.46,2.46,0,0,0-1.22-2.38,6.75,6.75,0,0,0-3.09-.2,7.47,7.47,0,0,0-1.12.55c-3,1.82-2.61,5.27-2.27,7.39a10.09,10.09,0,0,0,.28,1.23,7.49,7.49,0,0,0,7.73,4.07c-.24,3,1,6.3,4,7.06a11.8,11.8,0,0,0,6.89-1.29,6.23,6.23,0,0,0,.59,3.65c1,2.39,3.53,3.3,6.24,2.73a20.74,20.74,0,0,0,14-14.15A22.93,22.93,0,0,0,207.26,220.33Z"/>
				<path class="cls-8" d="M183.19,219.78c-1.25-4.93-4.87-7.71-9.8-8.59a20.09,20.09,0,0,0-2.14-.25,5,5,0,0,0-.34,4.69c4,.49,6.69,2.83,7.05,7.21a11,11,0,0,0,5.68-.11A15.81,15.81,0,0,0,183.19,219.78Z"/>
				<path class="cls-19" d="M134.06,206.75"/>
				<path
					class="cls-2"
					d="M183.64,222.72a15.81,15.81,0,0,0-.45-2.94c-1.25-4.93-4.87-7.71-9.8-8.59a20.09,20.09,0,0,0-2.14-.25,3.83,3.83,0,0,0-.58,1.23,1.65,1.65,0,0,1,1.76-.82c1.45.09,6.68,1.39,8.57,4.73s2,5.38,2,6.14c0,.5-.48.71-.81.8a11.79,11.79,0,0,1-4.26-.19c0,.34,0,.69,0,1.06l5.67-.07C183.68,223.44,183.66,223.08,183.64,222.72Z"/>
				<path class="cls-19" d="M170,206.75"/>
				<path
					class="cls-9"
					d="M183.82,223.45c-.9.1-2.08.21-3.34.23a34.25,34.25,0,0,1-3.86-.16c-1.24-.12-2.36-.29-3.17-.44s-1.3-.27-1.3-.27.48.18,1.27.41,1.9.52,3.14.75a28.9,28.9,0,0,0,3.91.47,21.75,21.75,0,0,0,3.47-.1c.93-.12,2.12-.32,3.39-.61s2.59-.64,3.79-1c2.41-.71,4.31-1.46,4.31-1.46s-2,.53-4.42,1c-1.22.25-2.56.49-3.83.69S184.72,223.34,183.82,223.45Z"/>
				<path class="cls-9" d="M149.63,108l-.1.32A29.88,29.88,0,0,1,147,114a26.43,26.43,0,0,1-5.53,6.78,24,24,0,0,1-4.29,3,7.31,7.31,0,0,0-2.71,1.85A20.22,20.22,0,0,0,149.63,108Z"/>
				<path class="cls-10" d="M150.26,105.53a21.44,21.44,0,0,1-.63,2.52,20.22,20.22,0,0,1-15.17,17.58,2,2,0,0,0-.33,1.24,2.73,2.73,0,0,0,.07.49c0,.09.06.18.08.27.89,3,6.91,5.63,10.49,6,.24,0,.48,0,.7,0h7Z"/>
				<g>
					<path class="cls-10" d="M295.29,219.31c.27-.62.55-1.23.81-1.86-1.2,0-2.4.05-3.58.08A18.12,18.12,0,0,1,295.29,219.31Z"/>
					<path
						class="cls-10"
						d="M289.88,217.54a38,38,0,0,0-10.54-2.2h-.05c-.91-.07-1.82-.11-2.73-.13-15.12.6-30,8.05-45.09,7.73-4,.16-8.09-.6-12-.41-1.28,2.14-3.3,7.34,1.93,13.53q11,.87,22,1.87c10.31.93,20.43,2.63,30.68,4a74.6,74.6,0,0,0,8.5.66,147.42,147.42,0,0,0,12.46-22.45A26.42,26.42,0,0,0,289.88,217.54Z"/>
				</g>
				<path class="cls-9" d="M290.86,216.75q.85.36,1.66.78c1.17,0,2.38-.07,3.58-.08l.18-.45C294.42,216.89,292.6,216.8,290.86,216.75Z"/>
				<path
					class="cls-9"
					d="M265.38,215.83c-8.3,1.73-16.41,4.48-24.86,5.43a104.36,104.36,0,0,1-18.32.37l-2-.15a7.73,7.73,0,0,0-.73,1.05c3.95-.2,8,.56,12,.41h0c15,.33,30-7.13,45.09-7.73h-.37c6.68.12,13.35,1.37,18.77,4.89l.34-.78c-4.8-3.77-11.94-5-17.61-4.95A62.08,62.08,0,0,0,265.38,215.83Z"/>
				<path class="cls-6" d="M220.16,221.48a82.91,82.91,0,0,1-13.57-2.26s.18.48.42,1.31a79.06,79.06,0,0,0,13.72,2.26A8.76,8.76,0,0,0,220.16,221.48Z"/>
				<path class="cls-7" d="M221.79,232.74a23.33,23.33,0,0,0-1.05-10A79.06,79.06,0,0,1,207,220.53c.89,3.07,2.57,11.07-1,18.66C211.88,239,218.49,237.74,221.79,232.74Z"/>
				<path class="cls-6" d="M206,239.18l-.15.32s6.09.36,15.48-3.45c.21-1.18.35-2.28.44-3.31C218.49,237.74,211.88,239,206,239.18Z"/>
				<path
					class="cls-20"
					d="M295.37,200.81q-1.67-2-3.49-3.83a229.59,229.59,0,0,0-31.39-27.1c-9.57-6.8-19.35-13.45-30.09-18.29a95.61,95.61,0,0,0-17.51-5.88,106.25,106.25,0,0,0-16.82-2.51l.25-.27q1.42-1.56,2.73-3.22a76.33,76.33,0,0,0,12.09-23.07c2.17-.68,4.41-2.57,6.42-4.92A39.21,39.21,0,0,0,224.47,100c1.11-3.5,1.88-8.62.34-12.27a7.7,7.7,0,0,0-.9-1.58h0a6.63,6.63,0,0,0-3-2.3,8.57,8.57,0,0,0-1.51-.42,8.06,8.06,0,0,0-2.43-.07,89.74,89.74,0,0,0-1.48-19.61c-.1-.49-.19-1-.3-1.46-1.77-8.07-5-15.64-10.18-21.74a37.66,37.66,0,0,0-7.95-7c-9.24-6.09-22.78-8.68-33.64-5.47-.81.24-1.6.51-2.38.81-12.88,5-24,17.88-28.73,30.74a69,69,0,0,0-2.35,8.73c-2,9.19-3.2,20.23-2.77,22.41a9.49,9.49,0,0,0,.26,1c0,.12.09.23.13.35l-.14.29.19-.16a16.14,16.14,0,0,0,3.37,5l1.12,1.25H132l-.28,0-1.1.18-.18,0-1,.2-.3.07-1.13.28v0l0,.08v0l0,.14v0l0,.17v0l0,.17v0l0,.17,0,.16,0,.19,0,.18,0,.21,0,.2v0q0,.18,0,.38v.06q0,.19,0,.4v.16c0,.11,0,.22,0,.33v.19c0,.12,0,.23,0,.35s0,.12,0,.18,0,.36,0,.54v.05q0,.25,0,.51c0,.06,0,.13,0,.19s0,.27,0,.4l0,.21c0,.14,0,.28,0,.42l0,.19c0,.2,0,.41.08.61v0c0,.2.06.4.1.6l0,.2q0,.22.09.43l.05.22c0,.15.08.29.12.44l.06.2c.06.21.13.42.2.62h.05l.08,0h0l.15,0h0l.24.06.07,0,.23.05.1,0,.29.06.08,0,.42.08.1,0,.38.07.16,0,.41.07.14,0,.59.08h.1l.54.07.21,0h.07a5.45,5.45,0,0,0-1.26,5.16,39.31,39.31,0,0,0,4.37,9.35,4.24,4.24,0,0,0-1.56,1.25,2,2,0,0,0-.33,1.24,2.74,2.74,0,0,0,.07.49c0,.09.06.18.08.27.54,1.79,2.95,3.47,5.55,4.6.09.35.17.7.23,1a29.26,29.26,0,0,1,.47,3.88,7.66,7.66,0,0,1-.32,2.78l0,.1a11,11,0,0,0-3.15.56l.32.53a35.86,35.86,0,0,0,8,9.53l.6.47c-14.78,6.79-26.19,18.82-33.93,33a99,99,0,0,0-9.81,26.72l14.51,29.39c10.77,0,17.3-2,17.3-2,.06-4.72.2-9.13.39-13.24.14,1.23.32,2.48.52,3.71,1.43,8.54,4.1,12.52,5.12,13.77a2,2,0,0,0,.91.63,37.19,37.19,0,0,0,11,1.75,35.59,35.59,0,0,0,5.9-.51,142.94,142.94,0,0,1,0,32q-.33,2.77-.8,5.56c24.27.54,48.67.53,72.89.29-.58.87-1.18,1.69-1.8,2.45,3.68-.07,7.34,0,11,0q3.45-2.19,6.76-4.57c-3.59-16.51-7-30.75-10.18-42.86l7.56.66c10.31.93,20.43,2.63,30.68,4a74.6,74.6,0,0,0,8.5.66,147.14,147.14,0,0,0,17.58-35.6A76,76,0,0,0,295.37,200.81Zm-159.46,5.05a181.45,181.45,0,0,1,2.94-19.11c.15-.67.24-1,.24-1s.1.77.38,2.16a78.13,78.13,0,0,0,6,17.45C141.37,205.43,137.8,205.6,135.91,205.86Zm104.61,15.4c-2.83.32-5.84.52-8.92.58-5.17-18.45-9.18-30.07-11.2-35.59-.95-2.59-1.46-3.84-1.46-3.84s28.23,10.13,37,33.81q.32.86.6,1.74A118.25,118.25,0,0,1,240.53,221.26Z"/>
				<path class="cls-17" d="M253.58,274.27H66.42a147.69,147.69,0,0,0,187.15,0Z"/>
				<path class="cls-21" d="M106.37,208.09a94.16,94.16,0,0,0,21.27-.14l-4.39-19.8a2.37,2.37,0,0,0-2.31-1.85H70.32C76.68,199.72,92.53,206.26,106.37,208.09Z"/>
				<path class="cls-22" d="M106.37,208.09c-13.84-1.82-29.69-8.36-36.05-21.79H37.22c7.48,15.52,18.39,30,33.69,38.33,19.48,10.92,41.17,10.12,62.76,10.52l-6-27.21A94.16,94.16,0,0,1,106.37,208.09Z"/>
				<path class="cls-23" d="M70.91,224.63c-15.3-8.38-26.21-22.82-33.69-38.33H14.64A146.74,146.74,0,0,0,18,200.73c16.11,24.44,40.33,43.7,69.86,49.12,17.06,3.27,33.11,3.19,49.71,2.85l-3.89-17.54C112.09,234.75,90.4,235.55,70.91,224.63Z"/>
				<path class="cls-24" d="M137.56,252.69c-16.59.34-32.65.42-49.71-2.85C58.33,244.42,34.1,225.17,18,200.73a147.81,147.81,0,0,0,48.43,73.54H169.64a2.11,2.11,0,0,0,2.11-2.11V268.6H141.09Z"/>
				<path class="cls-18" d="M254.06,273.87H65.94l1,.79H253.09Z"/>
				<path class="cls-25" d="M254.06,273.87h-83.2a2.11,2.11,0,0,0,.89-1.72V268.6H141.09l-3.53-15.9-3.89-17.54-6-27.21-4.39-19.8a2.37,2.37,0,0,0-2.31-1.85H14.64a147.72,147.72,0,0,0,239.42,87.58Z"/>
				<path class="cls-26" d="M160,0A160,160,0,1,0,320,160,160,160,0,0,0,160,0Zm0,307.69A147.69,147.69,0,1,1,307.69,160,147.69,147.69,0,0,1,160,307.69Z"/>
			</g>
		</g>
	</g>
</svg>
