<svg xmlns="http://www.w3.org/2000/svg" xmlns:xlink="http://www.w3.org/1999/xlink" viewBox="0 0 320 320">
  <defs>
    <style>
      .cls-1 {
        isolation: isolate;
      }

      .cls-2 {
        fill: #b0d9f2;
      }

      .cls-3 {
        fill: #233d55;
      }

      .cls-4 {
        fill: #d0c5c6;
        opacity: 0.15;
      }

      .cls-21, .cls-5 {
        opacity: 0.5;
      }

      .cls-21, .cls-5, .cls-6 {
        mix-blend-mode: color-burn;
      }

      .cls-5 {
        fill: url(#linear-gradient);
      }

      .cls-6 {
        opacity: 0.4;
      }

      .cls-7 {
        fill: #110e0a;
      }

      .cls-8 {
        fill: #333;
      }

      .cls-9 {
        fill: #63839b;
      }

      .cls-10 {
        fill: #ccb293;
      }

      .cls-11 {
        fill: #f0dbbd;
      }

      .cls-12 {
        fill: #b28b60;
      }

      .cls-13 {
        fill: #ccab81;
      }

      .cls-14 {
        fill: #d2e3f7;
      }

      .cls-15 {
        fill: #e4eef9;
      }

      .cls-16 {
        fill: #2f3c47;
      }

      .cls-17 {
        fill: #49535e;
      }

      .cls-18 {
        fill: #664c12;
      }

      .cls-19 {
        fill: #49310a;
      }

      .cls-20, .cls-27 {
        fill: none;
      }

      .cls-20 {
        stroke: #000;
        stroke-miterlimit: 10;
        stroke-width: 0.09px;
      }

      .cls-21 {
        fill: url(#linear-gradient-2);
      }

      .cls-22 {
        fill: #777;
      }

      .cls-23 {
        fill: #666;
      }

      .cls-24 {
        fill: #555;
      }

      .cls-25 {
        fill: #444;
      }

      .cls-26 {
        mix-blend-mode: multiply;
        fill: url(#linear-gradient-3);
      }
    </style>
    <linearGradient id="linear-gradient" x1="188.16" y1="17.18" x2="146.16" y2="230.18" gradientUnits="userSpaceOnUse">
      <stop offset="0.25" stop-color="#e4eef9"/>
      <stop offset="1" stop-color="#49535e"/>
    </linearGradient>
    <linearGradient id="linear-gradient-2" x1="247.19" y1="-16.4" x2="192.19" y2="292.6" xlink:href="#linear-gradient"/>
    <linearGradient id="linear-gradient-3" x1="154.3" y1="177.04" x2="110.37" y2="293.87" xlink:href="#linear-gradient"/>
  </defs>
  <title>jeremy</title>
  <g class="cls-1">
    <g id="Layer_1" data-name="Layer 1">
      <path class="cls-2" d="M160,0A160,160,0,1,0,320,160,160,160,0,0,0,160,0Zm0,307.7A147.7,147.7,0,1,1,307.7,160,147.7,147.7,0,0,1,160,307.7Z"/>
      <path class="cls-3" d="M160,12.3a147.7,147.7,0,0,0-81.3,271H241.3A147.7,147.7,0,0,0,160,12.3Z"/>
      <g>
        <path class="cls-4" d="M35.1,83.2a9.6,9.6,0,0,1-3,7.1,9.6,9.6,0,0,1-1.4-1.7l-.2.4A10,10,0,0,0,32,90.7h.3a10,10,0,0,0,3.2-7.6,8.8,8.8,0,0,0-.3-2.1l-.3.5A8.4,8.4,0,0,1,35.1,83.2Z"/>
        <path class="cls-4" d="M291.4,213.3a.2.2,0,0,0,0,.3,10.1,10.1,0,0,0,5.1,3l.2-.4a9.7,9.7,0,0,1-4.8-2.7,9.6,9.6,0,0,1,7.1-3V210h0A10,10,0,0,0,291.4,213.3Z"/>
        <path class="cls-4" d="M45.7,76.8a8.2,8.2,0,0,1-6.1,3,9.1,9.1,0,0,1-3.2-.5l-.2.3a9.6,9.6,0,0,0,3.2.6h.3a8.6,8.6,0,0,0,6.5-3.3.2.2,0,0,0,0-.2,8.6,8.6,0,0,0-5.8-3.2l-.3.4A8.2,8.2,0,0,1,45.7,76.8Z"/>
        <path class="cls-4" d="M266.5,262.3l.4-.4a9.5,9.5,0,0,1-5.3-1.7v-2.7a9.4,9.4,0,0,1,5.6-1.7,8.2,8.2,0,0,1,4,1.2l.3-.3a8.6,8.6,0,0,0-4.3-1.3,9.8,9.8,0,0,0-5,1.2L281,238h3.1l.8.8.2-.3-.7-.7v-3.1l6.9-6.9.6-1.1-7.7,7.7H281l-18.8-18.8a9.9,9.9,0,0,0,4.7,1.2h.3a8.6,8.6,0,0,0,6.5-3.3.2.2,0,0,0,0-.2,8.6,8.6,0,0,0-6.5-3.3,9.8,9.8,0,0,0-5,1.2L281,192.5h3.1L299.7,208v-.4l-15.4-15.4v-3.1l18.5-18.5a8.7,8.7,0,0,0-.9,3.6,10,10,0,0,0,3.2,7.6h.3l.7-.7v-.8l-1,1.1a9.6,9.6,0,0,1-3-7.1,8.2,8.2,0,0,1,1.5-4.5h2.9l.5.9v-1.2h-.2v-2.7l.4-.2v-1h-.1v-1.3a9.8,9.8,0,0,1-1,1.8H304a9.5,9.5,0,0,1-1.7-5.6,8.2,8.2,0,0,1,3-6.1,8.3,8.3,0,0,1,2.3,3.1c0-.3,0-.6,0-.9a8.8,8.8,0,0,0-2.2-2.6h-.2a8.6,8.6,0,0,0-3.3,6.5,9.8,9.8,0,0,0,1.2,5l-18.8-18.8v-3.1l18.5-18.5a8.7,8.7,0,0,0-.9,3.6,10,10,0,0,0,3.2,7.6h.3l.3-.3v-.5l-.3.3a9.6,9.6,0,0,1-3-7.1,8.2,8.2,0,0,1,1.1-3.9l-.2-.9a8.2,8.2,0,0,1-4.3,1.4,9.6,9.6,0,0,1-7.1-3,9.6,9.6,0,0,1,7.1-3,8.3,8.3,0,0,1,3.3.8v-.5a8.7,8.7,0,0,0-3.1-.7,10,10,0,0,0-7.6,3.2.2.2,0,0,0,0,.3,10,10,0,0,0,7.3,3.2h.3a8.7,8.7,0,0,0,3.6-.9l-18.5,18.5H281l-18.8-18.8a9.9,9.9,0,0,0,4.7,1.2h.3a8.6,8.6,0,0,0,6.5-3.3.2.2,0,0,0,0-.2,8.6,8.6,0,0,0-6.5-3.3,9.8,9.8,0,0,0-5,1.2L281,101.4h3.1L302,119.3l-.2-.8-17.4-17.4V98l6.5-6.5-.2-.4-6.6,6.6H281L262.2,78.9a9.9,9.9,0,0,0,4.7,1.2h.3a8.6,8.6,0,0,0,6.5-3.3.2.2,0,0,0,0-.2,8.6,8.6,0,0,0-6.5-3.3,9.8,9.8,0,0,0-5,1.2l10.3-10.3-.3-.3L261.9,74.4a9.8,9.8,0,0,0,1.2-5,8.6,8.6,0,0,0-3.3-6.5h-.2a8.6,8.6,0,0,0-3.3,6.5,9.8,9.8,0,0,0,1.2,5L238.9,55.6V52.5l10.2-10.2-.3-.2L238.6,52.2h-3.1L216.7,33.4a9.9,9.9,0,0,0,4.7,1.2h.3a8.6,8.6,0,0,0,6.5-3.3.2.2,0,0,0,0-.2,8.6,8.6,0,0,0-6.5-3.3,9.8,9.8,0,0,0-5,1.2l3.9-3.9-.4-.2-3.8,3.8a9.8,9.8,0,0,0,1.2-4.9l-.4-.2h0a9.5,9.5,0,0,1-1.7,5.6h-2.6a9.5,9.5,0,0,1-1.7-5.6,8.4,8.4,0,0,1,.4-2.2h-.4a8.8,8.8,0,0,0-.4,2.4,9.8,9.8,0,0,0,1.2,5L201.5,18.2l-.8-.2,10.8,10.8a8.7,8.7,0,0,0-3.6-.9,10,10,0,0,0-7.6,3.2.2.2,0,0,0,0,.3,10,10,0,0,0,7.3,3.2h.3a8.7,8.7,0,0,0,3.6-.9L193.1,52.2h-3.1L171.1,33.4a9.9,9.9,0,0,0,4.7,1.2h.3a8.6,8.6,0,0,0,6.5-3.3.2.2,0,0,0,0-.2,8.6,8.6,0,0,0-6.5-3.3,9.8,9.8,0,0,0-5,1.2l14.6-14.6h-.5L170.9,28.8a9.8,9.8,0,0,0,1.2-5,8.6,8.6,0,0,0-3.3-6.5h-.2a8.6,8.6,0,0,0-3.3,6.5,9.8,9.8,0,0,0,1.2,5L150.4,12.6h-.5L166,28.8a8.7,8.7,0,0,0-3.6-.9,10,10,0,0,0-7.6,3.2.2.2,0,0,0,0,.3,10,10,0,0,0,7.3,3.2h.3a8.7,8.7,0,0,0,3.6-.9L147.5,52.2h-3.1L125.6,33.4a9.9,9.9,0,0,0,4.7,1.2h.3a8.6,8.6,0,0,0,6.5-3.3.2.2,0,0,0,0-.2,8.6,8.6,0,0,0-6.5-3.3,9.8,9.8,0,0,0-5,1.2l15.6-15.6h-.6L125.3,28.8a9.8,9.8,0,0,0,1.2-5,8.6,8.6,0,0,0-3.3-6.5h-.2a8.6,8.6,0,0,0-3.3,6.5,9.8,9.8,0,0,0,1.2,5l-8.7-8.7H112l8.5,8.5a8.7,8.7,0,0,0-3.6-.9,10,10,0,0,0-7.6,3.2.2.2,0,0,0,0,.3,10,10,0,0,0,7.3,3.2h.3a8.7,8.7,0,0,0,3.6-.9L102,52.2H98.9L81.5,34.9l-.3.2L98.6,52.5v3.1L79.8,74.4a9.8,9.8,0,0,0,1.2-5,8.6,8.6,0,0,0-3.3-6.5h-.2a8.6,8.6,0,0,0-3.3,6.5,9.8,9.8,0,0,0,1.2,5L56.7,55.6V54.4l-.4.4v.7h-.7l-.4.4h1.2L74.9,74.3a8.7,8.7,0,0,0-3.6-.9,10,10,0,0,0-7.6,3.2.2.2,0,0,0,0,.3A10,10,0,0,0,71,80.2h.3a8.7,8.7,0,0,0,3.6-.9L56.4,97.7H53.3L35.7,80.1l-.2.3L53.1,98v3.1L34.3,119.9a9.8,9.8,0,0,0,1.2-5,8.6,8.6,0,0,0-3.3-6.5H32a8.6,8.6,0,0,0-3.3,6.5,9.8,9.8,0,0,0,1.2,5l-9.2-9.2v.4l8.8,8.8a8.7,8.7,0,0,0-3.6-.9,10,10,0,0,0-7.6,3.2.2.2,0,0,0,0,.3,10,10,0,0,0,7.3,3.2h.3a8.7,8.7,0,0,0,3.6-.9L13.6,140.6v.6l16.2-16.2a8.7,8.7,0,0,0-.9,3.6,10,10,0,0,0,3.2,7.6h.3a10,10,0,0,0,3.2-7.6,8.7,8.7,0,0,0-.9-3.6l18.5,18.5v3.1L34.3,165.4a9.8,9.8,0,0,0,1.2-5,8.6,8.6,0,0,0-3.3-6.5H32a8.6,8.6,0,0,0-3.3,6.5,9.8,9.8,0,0,0,1.2,5L12.8,148.2v.5l16.6,16.6a8.7,8.7,0,0,0-3.6-.9,10,10,0,0,0-7.6,3.2.2.2,0,0,0,0,.3,10,10,0,0,0,7.3,3.2h.3a8.7,8.7,0,0,0,3.6-.9L14.5,185.2v.5l15.1-15.1a8.7,8.7,0,0,0-.9,3.6,10,10,0,0,0,3.2,7.6h.3a10,10,0,0,0,3.2-7.6,8.7,8.7,0,0,0-.9-3.6l18.5,18.5v3.1L34.3,211a9.8,9.8,0,0,0,1.2-5,8.6,8.6,0,0,0-3.3-6.5H32a8.6,8.6,0,0,0-3.3,6.5,9.8,9.8,0,0,0,1.2,5L17.3,198.3l.2.8,11.8,11.8a8.7,8.7,0,0,0-3.6-.9,9.7,9.7,0,0,0-4.4.9v.4a9.3,9.3,0,0,1,4.3-.9,8.2,8.2,0,0,1,4.5,1.5v2.9a8.2,8.2,0,0,1-4.5,1.5,9,9,0,0,1-2.4-.3l.2.4,1.9.2h.3a8.7,8.7,0,0,0,3.6-.9l-4.3,4.3.2.4,4.4-4.4a8.7,8.7,0,0,0-.9,3.6,10,10,0,0,0,3.2,7.6h.3a10,10,0,0,0,3.2-7.6,8.7,8.7,0,0,0-.9-3.6l18.5,18.5v3.1L42,248.8l.2.3L53.3,238h3.1l18.5,18.5a8.7,8.7,0,0,0-3.6-.9,10,10,0,0,0-7.6,3.2.2.2,0,0,0,0,.3,10,10,0,0,0,7.3,3.2h.3a8.7,8.7,0,0,0,3.6-.9L64,272.3l.3.3,10.8-10.8a8.7,8.7,0,0,0-.9,3.6,10,10,0,0,0,3.2,7.6h.3a10,10,0,0,0,3.2-7.6,8.7,8.7,0,0,0-.9-3.6l18.5,18.5v3.2a.2.2,0,0,0,.2.2h3.3a.2.2,0,0,0,.2-.2v-3.2l18.5-18.5a8.7,8.7,0,0,0-.9,3.6,10,10,0,0,0,3.2,7.6h.3a10,10,0,0,0,3.2-7.6,8.7,8.7,0,0,0-.9-3.6l18.5,18.5v3.2a.2.2,0,0,0,.2.2h3.3a.2.2,0,0,0,.2-.2v-3.2l18.5-18.5a8.7,8.7,0,0,0-.9,3.6,10,10,0,0,0,3.2,7.6h.3a10,10,0,0,0,3.2-7.6,8.7,8.7,0,0,0-.9-3.6l18.5,18.5v3.2a.2.2,0,0,0,.2.2h3.3a.2.2,0,0,0,.2-.2v-3.2l18.5-18.5a8.7,8.7,0,0,0-.9,3.6,10,10,0,0,0,3.2,7.6h.3a10,10,0,0,0,3.2-7.6,8.7,8.7,0,0,0-.9-3.6l18.5,18.5v3.2a.2.2,0,0,0,.2.2h3.3a.2.2,0,0,0,.2-.2v-3.2l18.5-18.5a8.7,8.7,0,0,0-.9,3.6,9.8,9.8,0,0,0,1.4,5.3l.3-.3a9.4,9.4,0,0,1-1.3-5,8.2,8.2,0,0,1,1.5-4.5h2.9a8.2,8.2,0,0,1,1.5,4.5c0,.3,0,.5,0,.8l.4-.4c0-.1,0-.3,0-.4a8.7,8.7,0,0,0-.9-3.6l2.4,2.4.3-.3-2.8-2.8A9.9,9.9,0,0,0,266.5,262.3Zm14.6-27.6H284v2.9h-2.9Zm23.1-65.4,1.2-1.1.8.8.3.4Zm2.6-2.5v2.1l-.3-.2-.8-.8.4-.4Zm-.4-.4-.6.8-.4.4-.8-.8-.2-.3Zm-2.5.3.4.3.8.8-1.1,1.2ZM281.1,98.1H284V101h-2.9Zm-.4,136.5v3.1l-18.8,18.8a9.8,9.8,0,0,0,1.2-5,8.6,8.6,0,0,0-3.3-6.5h-.2a8.6,8.6,0,0,0-3.3,6.5,9.8,9.8,0,0,0,1.2,5l-18.8-18.8v-3.1l18.5-18.5a8.7,8.7,0,0,0-.9,3.6,10,10,0,0,0,3.2,7.6h.3a10,10,0,0,0,3.2-7.6,8.7,8.7,0,0,0-.9-3.6Zm-45.3-.3-18.8-18.8a9.9,9.9,0,0,0,4.7,1.2h.3a8.6,8.6,0,0,0,6.5-3.3.2.2,0,0,0,0-.2,8.6,8.6,0,0,0-6.5-3.3,9.7,9.7,0,0,0-5,1.2l18.8-18.8h3.1L257,210.9a8.7,8.7,0,0,0-3.6-.9,10,10,0,0,0-7.6,3.2.2.2,0,0,0,0,.3,10,10,0,0,0,7.3,3.2h.3a8.7,8.7,0,0,0,3.6-.9l-18.5,18.5Zm3,.4v2.9h-2.9v-2.9ZM214,258.9l-1.1,1.2v-2.3l.4.3Zm-.7-1.4h2.1l-.6.8-.4.4-.8-.8Zm1.1,1.7.8.8.3.4h-2.3Zm1.1.5-.8-.8.4-.4.8-.6V260Zm.2-2.6h-2.6a9.5,9.5,0,0,1-1.7-5.6,8.2,8.2,0,0,1,3-6.1,8.2,8.2,0,0,1,3,6.1A9.5,9.5,0,0,1,215.6,257.1Zm.5.5a9.4,9.4,0,0,1,5.6-1.7,8.2,8.2,0,0,1,6.1,3,8.2,8.2,0,0,1-6.1,3,9.4,9.4,0,0,1-5.6-1.7Zm1.5-6.1a8.6,8.6,0,0,0-3.3-6.5h-.2a8.6,8.6,0,0,0-3.3,6.5,9.8,9.8,0,0,0,1.2,5l-18.8-18.8v-3.1l18.5-18.5a8.7,8.7,0,0,0-.9,3.6,10,10,0,0,0,3.2,7.6h.3a10,10,0,0,0,3.2-7.6,8.7,8.7,0,0,0-.9-3.6l18.5,18.5v3.1l-18.8,18.8A9.8,9.8,0,0,0,217.6,251.5Zm-27.7-17.2-18.8-18.8a9.9,9.9,0,0,0,4.7,1.2h.3a8.6,8.6,0,0,0,6.5-3.3.2.2,0,0,0,0-.2,8.6,8.6,0,0,0-6.5-3.3,9.7,9.7,0,0,0-5,1.2l18.8-18.8h3.1l18.5,18.5a8.7,8.7,0,0,0-3.6-.9,10,10,0,0,0-7.6,3.2.2.2,0,0,0,0,.3,10,10,0,0,0,7.3,3.2h.3a8.7,8.7,0,0,0,3.6-.9l-18.5,18.5Zm3,.4v2.9h-2.9v-2.9Zm-24.5,24.2-1.1,1.2v-2.3l.4.3Zm-.7-1.4h2.1l-.6.8-.4.4-.8-.8Zm1.1,1.7.8.8.3.4h-2.3Zm1.1.5-.8-.8.4-.4.8-.6V260Zm.2-2.6h-2.6a9.5,9.5,0,0,1-1.7-5.6,8.2,8.2,0,0,1,3-6.1,8.2,8.2,0,0,1,3,6.1A9.5,9.5,0,0,1,170.1,257.1Zm.5.5a9.4,9.4,0,0,1,5.6-1.7,8.2,8.2,0,0,1,6.1,3,8.2,8.2,0,0,1-6.1,3,9.4,9.4,0,0,1-5.6-1.7Zm1.5-6.1a8.6,8.6,0,0,0-3.3-6.5h-.2a8.6,8.6,0,0,0-3.3,6.5,9.8,9.8,0,0,0,1.2,5l-18.8-18.8v-3.1l18.5-18.5a8.7,8.7,0,0,0-.9,3.6,10,10,0,0,0,3.2,7.6h.3a10,10,0,0,0,3.2-7.6,8.7,8.7,0,0,0-.9-3.6l18.5,18.5v3.1l-18.8,18.8A9.8,9.8,0,0,0,172.1,251.5Zm-27.7-17.2-18.8-18.8a9.9,9.9,0,0,0,4.7,1.2h.3a8.6,8.6,0,0,0,6.5-3.3.2.2,0,0,0,0-.2,8.6,8.6,0,0,0-6.5-3.3,9.7,9.7,0,0,0-5,1.2l18.8-18.8h3.1L166,210.9a8.7,8.7,0,0,0-3.6-.9,10,10,0,0,0-7.6,3.2.2.2,0,0,0,0,.3,10,10,0,0,0,7.3,3.2h.3a8.7,8.7,0,0,0,3.6-.9l-18.5,18.5Zm3,.4v2.9h-2.9v-2.9Zm-24.5,24.2-1.1,1.2v-2.3l.4.3Zm-.7-1.4h2.1l-.6.8-.4.4-.8-.8Zm1.1,1.7.8.8.3.4H122Zm1.1.5-.8-.8.4-.4.8-.6V260Zm.2-2.6h-2.6a9.5,9.5,0,0,1-1.7-5.6,8.2,8.2,0,0,1,3-6.1,8.2,8.2,0,0,1,3,6.1A9.5,9.5,0,0,1,124.5,257.1Zm.5.5a9.4,9.4,0,0,1,5.6-1.7,8.2,8.2,0,0,1,6.1,3,8.2,8.2,0,0,1-6.1,3,9.4,9.4,0,0,1-5.6-1.7Zm1.5-6.1a8.6,8.6,0,0,0-3.3-6.5h-.2a8.6,8.6,0,0,0-3.3,6.5,9.8,9.8,0,0,0,1.2,5l-18.8-18.8v-3.1l18.5-18.5a8.7,8.7,0,0,0-.9,3.6,10,10,0,0,0,3.2,7.6h.3a10,10,0,0,0,3.2-7.6,8.7,8.7,0,0,0-.9-3.6l18.5,18.5v3.1l-18.8,18.8A9.8,9.8,0,0,0,126.6,251.5ZM98.9,234.3,80.1,215.5a9.9,9.9,0,0,0,4.7,1.2h.3a8.6,8.6,0,0,0,6.5-3.3.2.2,0,0,0,0-.2,8.6,8.6,0,0,0-6.5-3.3,9.7,9.7,0,0,0-5,1.2l18.8-18.8H102l18.5,18.5a8.7,8.7,0,0,0-3.6-.9,10,10,0,0,0-7.6,3.2.2.2,0,0,0,0,.3,10,10,0,0,0,7.3,3.2h.3a8.7,8.7,0,0,0,3.6-.9L102,234.3Zm3,.4v2.9H99v-2.9Zm.1-133.3,18.5,18.5a8.7,8.7,0,0,0-3.6-.9,10,10,0,0,0-7.6,3.2.2.2,0,0,0,0,.3,10,10,0,0,0,7.3,3.2h.3a8.7,8.7,0,0,0,3.6-.9L102,143.3H98.9L80.1,124.5a9.9,9.9,0,0,0,4.7,1.2h.3a8.6,8.6,0,0,0,6.5-3.3.2.2,0,0,0,0-.2,8.6,8.6,0,0,0-6.5-3.3,9.8,9.8,0,0,0-5,1.2l18.8-18.8Zm-3-.4V98.1h2.9V101Zm25.3-23.4-.8-.8.4-.4.8-.6v2.1Zm0,.6H122l1.2-1.1.8.8Zm-.8-2.1-.4.4-.8-.8-.2-.3h2.1Zm-.7.7-1.1,1.2V75.6l.4.3Zm1.8,1.8a8.2,8.2,0,0,1,1.5,4.5,9.6,9.6,0,0,1-3,7.1,9.6,9.6,0,0,1-3-7.1,8.2,8.2,0,0,1,1.5-4.5Zm-.1-3.7h-2.6a9.5,9.5,0,0,1-1.7-5.6,8.2,8.2,0,0,1,3-6.1,8.2,8.2,0,0,1,3,6.1A9.5,9.5,0,0,1,124.5,75Zm.5.5a9.5,9.5,0,0,1,5.6-1.7,8.2,8.2,0,0,1,6.1,3,8.2,8.2,0,0,1-6.1,3,9.5,9.5,0,0,1-5.6-1.7Zm-3.7,2.8a8.2,8.2,0,0,1-4.5,1.5,9.6,9.6,0,0,1-7.1-3,9.6,9.6,0,0,1,7.1-3,8.2,8.2,0,0,1,4.5,1.5Zm-1.5,4.9a10,10,0,0,0,3.2,7.6h.3a10,10,0,0,0,3.2-7.6,8.7,8.7,0,0,0-.9-3.6L144.1,98v3.1l-18.8,18.8a9.8,9.8,0,0,0,1.2-5,8.6,8.6,0,0,0-3.3-6.5h-.2a8.6,8.6,0,0,0-3.3,6.5,9.8,9.8,0,0,0,1.2,5l-18.8-18.8V98l18.5-18.5A8.7,8.7,0,0,0,119.8,83.2Zm27.7,18.2L166,119.8a8.7,8.7,0,0,0-3.6-.9,10,10,0,0,0-7.6,3.2.2.2,0,0,0,0,.3,10,10,0,0,0,7.3,3.2h.3a8.7,8.7,0,0,0,3.6-.9l-18.5,18.5h-3.1l-18.8-18.8a9.9,9.9,0,0,0,4.7,1.2h.3a8.6,8.6,0,0,0,6.5-3.3.2.2,0,0,0,0-.2,8.6,8.6,0,0,0-6.5-3.3,9.8,9.8,0,0,0-5,1.2l18.8-18.8Zm-3-.4V98.1h2.9V101Zm25.3-23.4-.8-.8.4-.4.8-.6v2.1Zm0,.6h-2.3l1.2-1.1.8.8Zm-.8-2.1-.4.4-.8-.8-.2-.3h2.1Zm-.7.7-1.1,1.2V75.6l.4.3Zm1.8,1.8a8.2,8.2,0,0,1,1.5,4.5,9.6,9.6,0,0,1-3,7.1,9.6,9.6,0,0,1-3-7.1,8.2,8.2,0,0,1,1.5-4.5Zm-.1-3.7h-2.6a9.5,9.5,0,0,1-1.7-5.6,8.2,8.2,0,0,1,3-6.1,8.2,8.2,0,0,1,3,6.1A9.5,9.5,0,0,1,170.1,75Zm.5.5a9.5,9.5,0,0,1,5.6-1.7,8.2,8.2,0,0,1,6.1,3,8.2,8.2,0,0,1-6.1,3,9.5,9.5,0,0,1-5.6-1.7Zm-3.7,2.8a8.2,8.2,0,0,1-4.5,1.5,9.6,9.6,0,0,1-7.1-3,9.6,9.6,0,0,1,7.1-3,8.2,8.2,0,0,1,4.5,1.5Zm-1.5,4.9a10,10,0,0,0,3.2,7.6h.3a10,10,0,0,0,3.2-7.6,8.7,8.7,0,0,0-.9-3.6L189.7,98v3.1l-18.8,18.8a9.8,9.8,0,0,0,1.2-5,8.6,8.6,0,0,0-3.3-6.5h-.2a8.6,8.6,0,0,0-3.3,6.5,9.8,9.8,0,0,0,1.2,5l-18.8-18.8V98l18.5-18.5A8.7,8.7,0,0,0,165.4,83.2Zm27.7,18.2,18.5,18.5a8.7,8.7,0,0,0-3.6-.9,10,10,0,0,0-7.6,3.2.2.2,0,0,0,0,.3,10,10,0,0,0,7.3,3.2h.3a8.7,8.7,0,0,0,3.6-.9l-18.5,18.5h-3.1l-18.8-18.8a9.9,9.9,0,0,0,4.7,1.2h.3a8.6,8.6,0,0,0,6.5-3.3.2.2,0,0,0,0-.2,8.6,8.6,0,0,0-6.5-3.3,9.8,9.8,0,0,0-5,1.2l18.8-18.8Zm-3-.4V98.1h2.9V101Zm25.3-23.4-.8-.8.4-.4.8-.6v2.1Zm0,.6h-2.3l1.2-1.1.8.8Zm-.8-2.1-.4.4-.8-.8-.2-.3h2.1Zm-.7.7-1.1,1.2V75.6l.4.3Zm1.8,1.8a8.2,8.2,0,0,1,1.5,4.5,9.6,9.6,0,0,1-3,7.1,9.6,9.6,0,0,1-3-7.1,8.2,8.2,0,0,1,1.5-4.5Zm-.1-3.7h-2.6a9.5,9.5,0,0,1-1.7-5.6,8.2,8.2,0,0,1,3-6.1,8.2,8.2,0,0,1,3,6.1A9.5,9.5,0,0,1,215.6,75Zm.5.5a9.5,9.5,0,0,1,5.6-1.7,8.2,8.2,0,0,1,6.1,3,8.2,8.2,0,0,1-6.1,3,9.5,9.5,0,0,1-5.6-1.7Zm-3.7,2.8a8.2,8.2,0,0,1-4.5,1.5,9.6,9.6,0,0,1-7.1-3,9.6,9.6,0,0,1,7.1-3,8.2,8.2,0,0,1,4.5,1.5Zm-1.5,4.9a10,10,0,0,0,3.2,7.6h.3a10,10,0,0,0,3.2-7.6,8.7,8.7,0,0,0-.9-3.6L235.2,98v3.1l-18.8,18.8a9.8,9.8,0,0,0,1.2-5,8.6,8.6,0,0,0-3.3-6.5h-.2a8.6,8.6,0,0,0-3.3,6.5,9.8,9.8,0,0,0,1.2,5l-18.8-18.8V98l18.5-18.5A8.7,8.7,0,0,0,210.9,83.2Zm27.7,18.2L257,119.8a8.7,8.7,0,0,0-3.6-.9,10,10,0,0,0-7.6,3.2.2.2,0,0,0,0,.3,10,10,0,0,0,7.3,3.2h.3a8.7,8.7,0,0,0,3.6-.9l-18.5,18.5h-3.1l-18.8-18.8a9.9,9.9,0,0,0,4.7,1.2h.3a8.6,8.6,0,0,0,6.5-3.3.2.2,0,0,0,0-.2,8.6,8.6,0,0,0-6.5-3.3,9.8,9.8,0,0,0-5,1.2l18.8-18.8Zm-3-.4V98.1h2.9V101Zm23.9,21.3-1.1,1.2v-2.3l.4.3Zm-.7-1.4h2.1l-.6.8-.4.4-.8-.8Zm1.1,1.7.8.8.3.4h-2.3Zm1.1.5-.8-.8.4-.4.8-.6v2.1Zm.2-2.6h-2.6a9.5,9.5,0,0,1-1.7-5.6,8.2,8.2,0,0,1,3-6.1,8.2,8.2,0,0,1,3,6.1A9.5,9.5,0,0,1,261.1,120.5Zm-3.2.4v2.9a8.2,8.2,0,0,1-4.5,1.5,9.6,9.6,0,0,1-7.1-3,9.6,9.6,0,0,1,7.1-3A8.2,8.2,0,0,1,258,120.9Zm3,47.8-.8-.8.4-.4.8-.6v2.1Zm0,.6h-2.3l1.2-1.1.8.8Zm-.8-2.1-.4.4-.8-.8-.2-.3h2.1Zm-.7.7-1.1,1.2v-2.3l.4.3Zm1.8,1.8a8.2,8.2,0,0,1,1.5,4.5,9.6,9.6,0,0,1-3,7.1,9.6,9.6,0,0,1-3-7.1,8.2,8.2,0,0,1,1.5-4.5Zm-.1-3.7h-2.6a9.5,9.5,0,0,1-1.7-5.6,8.2,8.2,0,0,1,3-6.1,8.2,8.2,0,0,1,3,6.1A9.5,9.5,0,0,1,261.1,166Zm.5.5a9.4,9.4,0,0,1,5.6-1.7,8.2,8.2,0,0,1,6.1,3,8.2,8.2,0,0,1-6.1,3,9.5,9.5,0,0,1-5.6-1.7Zm-3.7,2.8a8.2,8.2,0,0,1-4.5,1.5,9.6,9.6,0,0,1-7.1-3,9.6,9.6,0,0,1,7.1-3,8.2,8.2,0,0,1,4.5,1.5Zm-4.5-4.8a10,10,0,0,0-7.6,3.2.2.2,0,0,0,0,.3,10,10,0,0,0,7.3,3.2h.3a8.7,8.7,0,0,0,3.6-.9l-18.5,18.5h-3.1L216.7,170a9.9,9.9,0,0,0,4.7,1.2h.3a8.6,8.6,0,0,0,6.5-3.3.2.2,0,0,0,0-.2,8.6,8.6,0,0,0-6.5-3.3,9.7,9.7,0,0,0-5,1.2l18.8-18.8h3.1L257,165.4A8.7,8.7,0,0,0,253.4,164.5Zm-15,24.7v2.9h-2.9v-2.9ZM214,213.4l-1.1,1.2v-2.3l.4.3Zm-.7-1.4h2.1l-.6.8-.4.4-.8-.8Zm1.1,1.7.8.8.3.4h-2.3Zm1.1.5-.8-.8.4-.4.8-.6v2.1Zm.2-2.6h-2.6a9.5,9.5,0,0,1-1.7-5.6,8.2,8.2,0,0,1,3-6.1,8.2,8.2,0,0,1,3,6.1A9.5,9.5,0,0,1,215.6,211.6Zm-2.8,3.7h2.9a8.2,8.2,0,0,1,1.5,4.5,9.6,9.6,0,0,1-3,7.1,9.6,9.6,0,0,1-3-7.1A8.2,8.2,0,0,1,212.8,215.2Zm-.4-.4a8.2,8.2,0,0,1-4.5,1.5,9.6,9.6,0,0,1-7.1-3,9.6,9.6,0,0,1,7.1-3,8.2,8.2,0,0,1,4.5,1.5Zm3.7-2.8a9.4,9.4,0,0,1,5.6-1.7,8.2,8.2,0,0,1,6.1,3,8.2,8.2,0,0,1-6.1,3,9.5,9.5,0,0,1-5.6-1.7Zm1.5-6.1a8.6,8.6,0,0,0-3.3-6.5h-.2a8.6,8.6,0,0,0-3.3,6.5,9.8,9.8,0,0,0,1.2,5l-18.8-18.8v-3.1l18.5-18.5a8.7,8.7,0,0,0-.9,3.6,10,10,0,0,0,3.2,7.6h.3a10,10,0,0,0,3.2-7.6,8.7,8.7,0,0,0-.9-3.6l18.5,18.5v3.1L216.4,211A9.8,9.8,0,0,0,217.6,206Zm-27.7-17.2L171.1,170a9.9,9.9,0,0,0,4.7,1.2h.3a8.6,8.6,0,0,0,6.5-3.3.2.2,0,0,0,0-.2,8.6,8.6,0,0,0-6.5-3.3,9.7,9.7,0,0,0-5,1.2l18.8-18.8h3.1l18.5,18.5a8.7,8.7,0,0,0-3.6-.9,10,10,0,0,0-7.6,3.2.2.2,0,0,0,0,.3,10,10,0,0,0,7.3,3.2h.3a8.7,8.7,0,0,0,3.6-.9l-18.5,18.5Zm3,.4v2.9h-2.9v-2.9Zm-24.5,24.2-1.1,1.2v-2.3l.4.3Zm-.7-1.4h2.1l-.6.8-.4.4-.8-.8Zm1.1,1.7.8.8.3.4h-2.3Zm1.1.5-.8-.8.4-.4.8-.6v2.1Zm.2-2.6h-2.6a9.5,9.5,0,0,1-1.7-5.6,8.2,8.2,0,0,1,3-6.1,8.2,8.2,0,0,1,3,6.1A9.5,9.5,0,0,1,170.1,211.6Zm-2.8,3.7h2.9a8.2,8.2,0,0,1,1.5,4.5,9.6,9.6,0,0,1-3,7.1,9.6,9.6,0,0,1-3-7.1A8.2,8.2,0,0,1,167.3,215.2Zm-.4-.4a8.2,8.2,0,0,1-4.5,1.5,9.6,9.6,0,0,1-7.1-3,9.6,9.6,0,0,1,7.1-3,8.2,8.2,0,0,1,4.5,1.5Zm3.7-2.8a9.4,9.4,0,0,1,5.6-1.7,8.2,8.2,0,0,1,6.1,3,8.2,8.2,0,0,1-6.1,3,9.5,9.5,0,0,1-5.6-1.7Zm1.5-6.1a8.6,8.6,0,0,0-3.3-6.5h-.2a8.6,8.6,0,0,0-3.3,6.5,9.8,9.8,0,0,0,1.2,5l-18.8-18.8v-3.1l18.5-18.5a8.7,8.7,0,0,0-.9,3.6,10,10,0,0,0,3.2,7.6h.3a10,10,0,0,0,3.2-7.6,8.7,8.7,0,0,0-.9-3.6l18.5,18.5v3.1L170.9,211A9.8,9.8,0,0,0,172.1,206Zm-27.7-17.2L125.6,170a9.9,9.9,0,0,0,4.7,1.2h.3a8.6,8.6,0,0,0,6.5-3.3.2.2,0,0,0,0-.2,8.6,8.6,0,0,0-6.5-3.3,9.7,9.7,0,0,0-5,1.2l18.8-18.8h3.1L166,165.4a8.7,8.7,0,0,0-3.6-.9,10,10,0,0,0-7.6,3.2.2.2,0,0,0,0,.3,10,10,0,0,0,7.3,3.2h.3a8.7,8.7,0,0,0,3.6-.9l-18.5,18.5Zm3,.4v2.9h-2.9v-2.9Zm-24.5,24.2-1.1,1.2v-2.3l.4.3Zm-.7-1.4h2.1l-.6.8-.4.4-.8-.8Zm1.1,1.7.8.8.3.4H122Zm1.1.5-.8-.8.4-.4.8-.6v2.1Zm.2-2.6h-2.6a9.5,9.5,0,0,1-1.7-5.6,8.2,8.2,0,0,1,3-6.1,8.2,8.2,0,0,1,3,6.1A9.5,9.5,0,0,1,124.5,211.6Zm-2.8,3.7h2.9a8.2,8.2,0,0,1,1.5,4.5,9.6,9.6,0,0,1-3,7.1,9.6,9.6,0,0,1-3-7.1A8.2,8.2,0,0,1,121.7,215.2Zm-.4-.4a8.2,8.2,0,0,1-4.5,1.5,9.6,9.6,0,0,1-7.1-3,9.6,9.6,0,0,1,7.1-3,8.2,8.2,0,0,1,4.5,1.5Zm3.7-2.8a9.4,9.4,0,0,1,5.6-1.7,8.2,8.2,0,0,1,6.1,3,8.2,8.2,0,0,1-6.1,3,9.4,9.4,0,0,1-5.6-1.7Zm1.5-6.1a8.6,8.6,0,0,0-3.3-6.5h-.2a8.6,8.6,0,0,0-3.3,6.5,9.8,9.8,0,0,0,1.2,5l-18.8-18.8v-3.1l18.5-18.5a8.7,8.7,0,0,0-.9,3.6,10,10,0,0,0,3.2,7.6h.3a10,10,0,0,0,3.2-7.6,8.7,8.7,0,0,0-.9-3.6l18.5,18.5v3.1L125.3,211A9.8,9.8,0,0,0,126.6,206ZM98.9,188.8,80.1,170a9.9,9.9,0,0,0,4.7,1.2h.3a8.6,8.6,0,0,0,6.5-3.3.2.2,0,0,0,0-.2,8.6,8.6,0,0,0-6.5-3.3,9.7,9.7,0,0,0-5,1.2l18.8-18.8H102l18.5,18.5a8.7,8.7,0,0,0-3.6-.9,10,10,0,0,0-7.6,3.2.2.2,0,0,0,0,.3,10,10,0,0,0,7.3,3.2h.3a8.7,8.7,0,0,0,3.6-.9L102,188.8Zm3,.4v2.9H99v-2.9ZM79,166H76.3a9.5,9.5,0,0,1-1.7-5.6,8.2,8.2,0,0,1,3-6.1,8.2,8.2,0,0,1,3,6.1A9.5,9.5,0,0,1,79,166Zm.5.5a9.5,9.5,0,0,1,5.6-1.7,8.2,8.2,0,0,1,6.1,3,8.2,8.2,0,0,1-6.1,3,9.5,9.5,0,0,1-5.6-1.7Zm-2.1,1.3L76.2,169v-2.3l.4.3Zm-.7-1.4h2.1l-.6.8-.4.4-.8-.8Zm1.1,1.7.8.8.3.4H76.5Zm1.1.5-.8-.8.4-.4.8-.6v2.1Zm.3,1a8.2,8.2,0,0,1,1.5,4.5,9.6,9.6,0,0,1-3,7.1,9.6,9.6,0,0,1-3-7.1,8.2,8.2,0,0,1,1.5-4.5ZM99,146.5v-2.9h2.9v2.9Zm25.3-23.4-.8-.8.4-.4.8-.6v2.1Zm0,.6H122l1.2-1.1.8.8Zm-.8-2.1-.4.4-.8-.8-.2-.3h2.1Zm-.7.7-1.1,1.2v-2.3l.4.3Zm1.8,1.8a8.2,8.2,0,0,1,1.5,4.5,9.6,9.6,0,0,1-3,7.1,9.6,9.6,0,0,1-3-7.1,8.2,8.2,0,0,1,1.5-4.5Zm-.1-3.7h-2.6a9.5,9.5,0,0,1-1.7-5.6,8.2,8.2,0,0,1,3-6.1,8.2,8.2,0,0,1,3,6.1A9.5,9.5,0,0,1,124.5,120.5Zm.5.5a9.5,9.5,0,0,1,5.6-1.7,8.2,8.2,0,0,1,6.1,3,8.2,8.2,0,0,1-6.1,3,9.5,9.5,0,0,1-5.6-1.7Zm-3.7,2.8a8.2,8.2,0,0,1-4.5,1.5,9.6,9.6,0,0,1-7.1-3,9.6,9.6,0,0,1,7.1-3,8.2,8.2,0,0,1,4.5,1.5Zm-1.5,4.9a10,10,0,0,0,3.2,7.6h.3a10,10,0,0,0,3.2-7.6,8.7,8.7,0,0,0-.9-3.6l18.5,18.5v3.1l-18.8,18.8a9.8,9.8,0,0,0,1.2-5,8.6,8.6,0,0,0-3.3-6.5h-.2a8.6,8.6,0,0,0-3.3,6.5,9.8,9.8,0,0,0,1.2,5l-18.8-18.8v-3.1l18.5-18.5A8.7,8.7,0,0,0,119.8,128.7Zm3.1,39.2-1.1,1.2v-2.3l.4.3Zm-.7-1.4h2.1l-.6.8-.4.4-.8-.8Zm1.1,1.7.8.8.3.4H122Zm1.1.5-.8-.8.4-.4.8-.6v2.1Zm.2-2.6h-2.6a9.5,9.5,0,0,1-1.7-5.6,8.2,8.2,0,0,1,3-6.1,8.2,8.2,0,0,1,3,6.1A9.5,9.5,0,0,1,124.5,166Zm-2.8,3.7h2.9a8.2,8.2,0,0,1,1.5,4.5,9.6,9.6,0,0,1-3,7.1,9.6,9.6,0,0,1-3-7.1A8.2,8.2,0,0,1,121.7,169.7Zm-.4-.4a8.2,8.2,0,0,1-4.5,1.5,9.6,9.6,0,0,1-7.1-3,9.6,9.6,0,0,1,7.1-3,8.2,8.2,0,0,1,4.5,1.5Zm3.7-2.8a9.4,9.4,0,0,1,5.6-1.7,8.2,8.2,0,0,1,6.1,3,8.2,8.2,0,0,1-6.1,3,9.4,9.4,0,0,1-5.6-1.7Zm19.5-20v-2.9h2.9v2.9Zm25.3-23.4-.8-.8.4-.4.8-.6v2.1Zm0,.7h-2.3l1.2-1.1.8.8Zm-.8-2.1-.4.4-.8-.8-.2-.3h2.1Zm-.7.7-1.1,1.2v-2.3l.4.3Zm1.8,1.8a8.2,8.2,0,0,1,1.5,4.5,9.6,9.6,0,0,1-3,7.1,9.6,9.6,0,0,1-3-7.1,8.2,8.2,0,0,1,1.5-4.5Zm-.1-3.7h-2.6a9.5,9.5,0,0,1-1.7-5.6,8.2,8.2,0,0,1,3-6.1,8.2,8.2,0,0,1,3,6.1A9.5,9.5,0,0,1,170.1,120.5Zm.5.5a9.5,9.5,0,0,1,5.6-1.7,8.2,8.2,0,0,1,6.1,3,8.2,8.2,0,0,1-6.1,3,9.5,9.5,0,0,1-5.6-1.7Zm-3.7,2.8a8.2,8.2,0,0,1-4.5,1.5,9.6,9.6,0,0,1-7.1-3,9.6,9.6,0,0,1,7.1-3,8.2,8.2,0,0,1,4.5,1.5Zm-1.5,4.9a10,10,0,0,0,3.2,7.6h.3a10,10,0,0,0,3.2-7.6,8.7,8.7,0,0,0-.9-3.6l18.5,18.5v3.1l-18.8,18.8a9.8,9.8,0,0,0,1.2-5,8.6,8.6,0,0,0-3.3-6.5h-.2a8.6,8.6,0,0,0-3.3,6.5,9.8,9.8,0,0,0,1.2,5l-18.8-18.8v-3.1l18.5-18.5A8.7,8.7,0,0,0,165.4,128.7Zm3.1,39.2-1.1,1.2v-2.3l.4.3Zm-.7-1.4h2.1l-.6.8-.4.4-.8-.8Zm1.1,1.7.8.8.3.4h-2.3Zm1.1.5-.8-.8.4-.4.8-.6v2.1Zm.2-2.6h-2.6a9.5,9.5,0,0,1-1.7-5.6,8.2,8.2,0,0,1,3-6.1,8.2,8.2,0,0,1,3,6.1A9.5,9.5,0,0,1,170.1,166Zm-2.8,3.7h2.9a8.2,8.2,0,0,1,1.5,4.5,9.6,9.6,0,0,1-3,7.1,9.6,9.6,0,0,1-3-7.1A8.2,8.2,0,0,1,167.3,169.7Zm-.4-.4a8.2,8.2,0,0,1-4.5,1.5,9.6,9.6,0,0,1-7.1-3,9.6,9.6,0,0,1,7.1-3,8.2,8.2,0,0,1,4.5,1.5Zm3.7-2.8a9.4,9.4,0,0,1,5.6-1.7,8.2,8.2,0,0,1,6.1,3,8.2,8.2,0,0,1-6.1,3,9.5,9.5,0,0,1-5.6-1.7Zm19.5-20v-2.9h2.9v2.9Zm25.3-23.4-.8-.8.4-.4.8-.6v2.1Zm0,.7h-2.3l1.2-1.1.8.8Zm-.8-2.1-.4.4-.8-.8-.2-.3h2.1Zm-.7.7-1.1,1.2v-2.3l.4.3Zm1.8,1.8a8.2,8.2,0,0,1,1.5,4.5,9.6,9.6,0,0,1-3,7.1,9.6,9.6,0,0,1-3-7.1,8.2,8.2,0,0,1,1.5-4.5Zm-.1-3.7h-2.6a9.5,9.5,0,0,1-1.7-5.6,8.2,8.2,0,0,1,3-6.1,8.2,8.2,0,0,1,3,6.1A9.5,9.5,0,0,1,215.6,120.5Zm.5.5a9.5,9.5,0,0,1,5.6-1.7,8.2,8.2,0,0,1,6.1,3,8.2,8.2,0,0,1-6.1,3,9.5,9.5,0,0,1-5.6-1.7Zm-3.7,2.8a8.2,8.2,0,0,1-4.5,1.5,9.6,9.6,0,0,1-7.1-3,9.6,9.6,0,0,1,7.1-3,8.2,8.2,0,0,1,4.5,1.5Zm-1.5,4.9a10,10,0,0,0,3.2,7.6h.3a10,10,0,0,0,3.2-7.6,8.7,8.7,0,0,0-.9-3.6l18.5,18.5v3.1l-18.8,18.8a9.8,9.8,0,0,0,1.2-5,8.6,8.6,0,0,0-3.3-6.5h-.2a8.6,8.6,0,0,0-3.3,6.5,9.8,9.8,0,0,0,1.2,5l-18.8-18.8v-3.1l18.5-18.5A8.7,8.7,0,0,0,210.9,128.7Zm3.1,39.2-1.1,1.2v-2.3l.4.3Zm-.7-1.4h2.1l-.6.8-.4.4-.8-.8Zm1.1,1.7.8.8.3.4h-2.3Zm1.1.5-.8-.8.4-.4.8-.6v2.1Zm.2-2.6h-2.6a9.5,9.5,0,0,1-1.7-5.6,8.2,8.2,0,0,1,3-6.1,8.2,8.2,0,0,1,3,6.1A9.5,9.5,0,0,1,215.6,166Zm-2.8,3.7h2.9a8.2,8.2,0,0,1,1.5,4.5,9.6,9.6,0,0,1-3,7.1,9.6,9.6,0,0,1-3-7.1A8.2,8.2,0,0,1,212.8,169.7Zm-.4-.4a8.2,8.2,0,0,1-4.5,1.5,9.6,9.6,0,0,1-7.1-3,9.6,9.6,0,0,1,7.1-3,8.2,8.2,0,0,1,4.5,1.5Zm3.7-2.8a9.4,9.4,0,0,1,5.6-1.7,8.2,8.2,0,0,1,6.1,3,8.2,8.2,0,0,1-6.1,3,9.5,9.5,0,0,1-5.6-1.7Zm19.5-20v-2.9h2.9v2.9ZM78.8,123.1l-.8-.8.4-.4.8-.6v2.1Zm0,.7H76.5l1.2-1.1.8.8Zm-.8-2.1-.4.4-.8-.8-.2-.3h2.1Zm-.7.7-1.1,1.2v-2.3l.4.3Zm1.8,1.8a8.2,8.2,0,0,1,1.5,4.5,9.6,9.6,0,0,1-3,7.1,9.6,9.6,0,0,1-3-7.1,8.2,8.2,0,0,1,1.5-4.5Zm5.9-4.8a8.2,8.2,0,0,1,6.1,3,8.2,8.2,0,0,1-6.1,3,9.5,9.5,0,0,1-5.6-1.7V121A9.5,9.5,0,0,1,85.1,119.3ZM79,120.5H76.3a9.5,9.5,0,0,1-1.7-5.6,8.2,8.2,0,0,1,3-6.1,8.2,8.2,0,0,1,3,6.1A9.5,9.5,0,0,1,79,120.5Zm-3.2,3.3a8.2,8.2,0,0,1-4.5,1.5,9.6,9.6,0,0,1-7.1-3,9.6,9.6,0,0,1,7.1-3,8.2,8.2,0,0,1,4.5,1.5Zm-1.5,4.9a10,10,0,0,0,3.2,7.6h.3a10,10,0,0,0,3.2-7.6,8.7,8.7,0,0,0-.9-3.6l18.5,18.5v3.1L79.8,165.4a9.8,9.8,0,0,0,1.2-5,8.6,8.6,0,0,0-3.3-6.5h-.2a8.6,8.6,0,0,0-3.3,6.5,9.8,9.8,0,0,0,1.2,5L56.7,146.7v-3.1l18.5-18.5A8.7,8.7,0,0,0,74.3,128.7Zm1.5,37.7v2.9a8.2,8.2,0,0,1-4.5,1.5,9.6,9.6,0,0,1-7.1-3,9.6,9.6,0,0,1,7.1-3A8.2,8.2,0,0,1,75.8,166.4Zm-1.5,7.8a10,10,0,0,0,3.2,7.6h.3a10,10,0,0,0,3.2-7.6,8.7,8.7,0,0,0-.9-3.6l18.5,18.5v3.1L79.8,211a9.8,9.8,0,0,0,1.2-5,8.6,8.6,0,0,0-3.3-6.5h-.2a8.6,8.6,0,0,0-3.3,6.5,9.8,9.8,0,0,0,1.2,5L56.7,192.2v-3.1l18.5-18.5A8.7,8.7,0,0,0,74.3,174.2Zm3.1,39.2-1.1,1.2v-2.3l.4.3Zm-.7-1.4h2.1l-.6.8-.4.4-.8-.8Zm1.1,1.7.8.8.3.4H76.5Zm1.1.5-.8-.8.4-.4.8-.6v2.1Zm.2-2.6H76.3a9.5,9.5,0,0,1-1.7-5.6,8.2,8.2,0,0,1,3-6.1,8.2,8.2,0,0,1,3,6.1A9.5,9.5,0,0,1,79,211.6Zm.5.5a9.4,9.4,0,0,1,5.6-1.7,8.2,8.2,0,0,1,6.1,3,8.2,8.2,0,0,1-6.1,3,9.4,9.4,0,0,1-5.6-1.7Zm-3.7-.1v2.9a8.2,8.2,0,0,1-4.5,1.5,9.6,9.6,0,0,1-7.1-3,9.6,9.6,0,0,1,7.1-3A8.2,8.2,0,0,1,75.8,211.9Zm.4,3.3h2.9a8.2,8.2,0,0,1,1.5,4.5,9.6,9.6,0,0,1-3,7.1,9.6,9.6,0,0,1-3-7.1A8.2,8.2,0,0,1,76.2,215.2Zm183.3-1.8-1.1,1.2v-2.3l.4.3Zm-.7-1.4h2.1l-.6.8-.4.4-.8-.8Zm1.1,1.7.8.8.3.4h-2.3Zm1.1.5-.8-.8.4-.4.8-.6v2.1Zm.2-2.6h-2.6a9.5,9.5,0,0,1-1.7-5.6,8.2,8.2,0,0,1,3-6.1,8.2,8.2,0,0,1,3,6.1A9.5,9.5,0,0,1,261.1,211.6Zm-3.2.4v2.9a8.2,8.2,0,0,1-4.5,1.5,9.6,9.6,0,0,1-7.1-3,9.6,9.6,0,0,1,7.1-3A8.2,8.2,0,0,1,258,211.9Zm4.8,7.8a9.6,9.6,0,0,1-3,7.1,9.6,9.6,0,0,1-3-7.1,8.2,8.2,0,0,1,1.5-4.5h2.9A8.2,8.2,0,0,1,262.8,219.8Zm4.4-9.4a8.2,8.2,0,0,1,6.1,3,8.2,8.2,0,0,1-6.1,3,9.4,9.4,0,0,1-5.6-1.7v-2.7A9.4,9.4,0,0,1,267.2,210.4Zm13.5-18.2L261.9,211a9.8,9.8,0,0,0,1.2-5,8.6,8.6,0,0,0-3.3-6.5h-.2a8.6,8.6,0,0,0-3.3,6.5,9.8,9.8,0,0,0,1.2,5l-18.8-18.8v-3.1l18.5-18.5a8.7,8.7,0,0,0-.9,3.6,10,10,0,0,0,3.2,7.6h.3a10,10,0,0,0,3.2-7.6,8.7,8.7,0,0,0-.9-3.6l18.5,18.5Zm3.3-.1h-2.9v-2.9H284Zm19.5-25.7v2.9a8.2,8.2,0,0,1-4.5,1.5,9.6,9.6,0,0,1-7.1-3,9.6,9.6,0,0,1,7.1-3A8.2,8.2,0,0,1,303.5,166.4Zm-22.4-22.7H284v2.9h-2.9Zm3,3.3,18.5,18.5a8.7,8.7,0,0,0-3.6-.9,10,10,0,0,0-7.6,3.2.2.2,0,0,0,0,.3,10,10,0,0,0,7.3,3.2h.3a8.7,8.7,0,0,0,3.6-.9l-18.5,18.5H281L262.2,170a9.9,9.9,0,0,0,4.7,1.2h.3a8.6,8.6,0,0,0,6.5-3.3.2.2,0,0,0,0-.2,8.6,8.6,0,0,0-6.5-3.3,9.7,9.7,0,0,0-5,1.2L281,146.9Zm-3.4-3.4v3.1l-18.8,18.8a9.8,9.8,0,0,0,1.2-5,8.6,8.6,0,0,0-3.3-6.5h-.2a8.6,8.6,0,0,0-3.3,6.5,9.8,9.8,0,0,0,1.2,5l-18.8-18.8v-3.1l18.5-18.5a8.7,8.7,0,0,0-.9,3.6,10,10,0,0,0,3.2,7.6h.3a10,10,0,0,0,3.2-7.6,8.7,8.7,0,0,0-.9-3.6Zm-17.9-14.8a9.6,9.6,0,0,1-3,7.1,9.6,9.6,0,0,1-3-7.1,8.2,8.2,0,0,1,1.5-4.5h2.9A8.2,8.2,0,0,1,262.8,128.7Zm4.4-9.4a8.2,8.2,0,0,1,6.1,3,8.2,8.2,0,0,1-6.1,3,9.5,9.5,0,0,1-5.6-1.7V121A9.5,9.5,0,0,1,267.2,119.3ZM280.7,98v3.1l-18.8,18.8a9.8,9.8,0,0,0,1.2-5,8.6,8.6,0,0,0-3.3-6.5h-.2a8.6,8.6,0,0,0-3.3,6.5,9.8,9.8,0,0,0,1.2,5l-18.8-18.8V98l18.5-18.5a8.7,8.7,0,0,0-.9,3.6,10,10,0,0,0,3.2,7.6h.3a10,10,0,0,0,3.2-7.6,8.7,8.7,0,0,0-.9-3.6ZM262.8,83.2a9.6,9.6,0,0,1-3,7.1,9.6,9.6,0,0,1-3-7.1,8.2,8.2,0,0,1,1.5-4.5h2.9A8.2,8.2,0,0,1,262.8,83.2Zm-1.9-5.6-.8-.8.4-.4.8-.6v2.1Zm0,.6h-2.3l1.2-1.1.8.8Zm-.8-2.1-.4.4-.8-.8-.2-.3h2.1Zm-.7.7-1.1,1.2V75.6l.4.3Zm7.7-3a8.2,8.2,0,0,1,6.1,3,8.2,8.2,0,0,1-6.1,3,9.5,9.5,0,0,1-5.6-1.7V75.5A9.5,9.5,0,0,1,267.2,73.8Zm-10.4-4.4a8.2,8.2,0,0,1,3-6.1,8.2,8.2,0,0,1,3,6.1,9.5,9.5,0,0,1-1.7,5.6h-2.6A9.5,9.5,0,0,1,256.8,69.4Zm1.1,5.9v2.9a8.2,8.2,0,0,1-4.5,1.5,9.6,9.6,0,0,1-7.1-3,9.6,9.6,0,0,1,7.1-3A8.2,8.2,0,0,1,258,75.3ZM235.6,52.6h2.9v2.9h-2.9Zm3,3.3L257,74.3a8.7,8.7,0,0,0-3.6-.9,10,10,0,0,0-7.6,3.2.2.2,0,0,0,0,.3,10,10,0,0,0,7.3,3.2h.3a8.7,8.7,0,0,0,3.6-.9L238.6,97.7h-3.1L216.7,78.9a9.9,9.9,0,0,0,4.7,1.2h.3a8.6,8.6,0,0,0,6.5-3.3.2.2,0,0,0,0-.2,8.6,8.6,0,0,0-6.5-3.3,9.8,9.8,0,0,0-5,1.2l18.8-18.8ZM216.1,29.9a9.5,9.5,0,0,1,5.6-1.7,8.2,8.2,0,0,1,6.1,3,8.2,8.2,0,0,1-6.1,3,9.5,9.5,0,0,1-5.6-1.7Zm-.4.3v2.1l-.3-.2-.8-.8.4-.4Zm-.3,2.5h-2.3l1.2-1.1.8.8Zm-.1-2.9-.6.8-.4.4-.8-.8-.2-.3Zm-2.5.3.4.3.8.8-1.1,1.2Zm2.9,3a8.2,8.2,0,0,1,1.5,4.5,9.6,9.6,0,0,1-3,7.1,9.6,9.6,0,0,1-3-7.1,8.2,8.2,0,0,1,1.5-4.5Zm-7.8,1.1a9.6,9.6,0,0,1-7.1-3,9.6,9.6,0,0,1,7.1-3,8.2,8.2,0,0,1,4.5,1.5v2.9A8.2,8.2,0,0,1,207.9,34.2ZM193.3,52.5,211.8,34a8.7,8.7,0,0,0-.9,3.6,10,10,0,0,0,3.2,7.6h.3a10,10,0,0,0,3.2-7.6,8.7,8.7,0,0,0-.9-3.6l18.5,18.5v3.1L216.4,74.4a9.8,9.8,0,0,0,1.2-5,8.6,8.6,0,0,0-3.3-6.5h-.2a8.6,8.6,0,0,0-3.3,6.5,9.8,9.8,0,0,0,1.2,5L193.3,55.6Zm-3.3.1h2.9v2.9h-2.9Zm3,3.3,18.5,18.5a8.7,8.7,0,0,0-3.6-.9,10,10,0,0,0-7.6,3.2.2.2,0,0,0,0,.3,10,10,0,0,0,7.3,3.2h.3a8.7,8.7,0,0,0,3.6-.9L193.1,97.7h-3.1L171.1,78.9a9.9,9.9,0,0,0,4.7,1.2h.3a8.6,8.6,0,0,0,6.5-3.3.2.2,0,0,0,0-.2,8.6,8.6,0,0,0-6.5-3.3,9.8,9.8,0,0,0-5,1.2l18.8-18.8ZM169.9,32.1l-.8-.8.4-.4.8-.6v2.1Zm0,.6h-2.3l1.2-1.1.8.8Zm-.8-2.1-.4.4-.8-.8-.2-.3h2.1Zm-.7.7-1.1,1.2V30.1l.4.3Zm1.8,1.8a8.2,8.2,0,0,1,1.5,4.5,9.6,9.6,0,0,1-3,7.1,9.6,9.6,0,0,1-3-7.1,8.2,8.2,0,0,1,1.5-4.5Zm5.9-4.8a8.2,8.2,0,0,1,6.1,3,8.2,8.2,0,0,1-6.1,3,9.5,9.5,0,0,1-5.6-1.7V29.9A9.5,9.5,0,0,1,176.1,28.3Zm-10.4-4.4a8.2,8.2,0,0,1,3-6.1,8.2,8.2,0,0,1,3,6.1,9.5,9.5,0,0,1-1.7,5.6h-2.6A9.5,9.5,0,0,1,165.7,23.8Zm-3.4,10.4a9.6,9.6,0,0,1-7.1-3,9.6,9.6,0,0,1,7.1-3,8.2,8.2,0,0,1,4.5,1.5v2.9A8.2,8.2,0,0,1,162.4,34.2ZM147.8,52.5,166.2,34a8.7,8.7,0,0,0-.9,3.6,10,10,0,0,0,3.2,7.6h.3a10,10,0,0,0,3.2-7.6,8.7,8.7,0,0,0-.9-3.6l18.5,18.5v3.1L170.9,74.4a9.8,9.8,0,0,0,1.2-5,8.6,8.6,0,0,0-3.3-6.5h-.2a8.6,8.6,0,0,0-3.3,6.5,9.8,9.8,0,0,0,1.2,5L147.8,55.6Zm-3.3.1h2.9v2.9h-2.9Zm3,3.3L166,74.3a8.7,8.7,0,0,0-3.6-.9,10,10,0,0,0-7.6,3.2.2.2,0,0,0,0,.3,10,10,0,0,0,7.3,3.2h.3a8.7,8.7,0,0,0,3.6-.9L147.5,97.7h-3.1L125.6,78.9a9.9,9.9,0,0,0,4.7,1.2h.3a8.6,8.6,0,0,0,6.5-3.3.2.2,0,0,0,0-.2,8.6,8.6,0,0,0-6.5-3.3,9.8,9.8,0,0,0-5,1.2l18.8-18.8ZM124.3,32.1l-.8-.8.4-.4.8-.6v2.1Zm0,.6H122l1.2-1.1.8.8Zm-.8-2.1-.4.4-.8-.8-.2-.3h2.1Zm-.7.7-1.1,1.2V30.1l.4.3Zm1.8,1.8a8.2,8.2,0,0,1,1.5,4.5,9.6,9.6,0,0,1-3,7.1,9.6,9.6,0,0,1-3-7.1,8.2,8.2,0,0,1,1.5-4.5Zm5.9-4.8a8.2,8.2,0,0,1,6.1,3,8.2,8.2,0,0,1-6.1,3,9.5,9.5,0,0,1-5.6-1.7V29.9A9.5,9.5,0,0,1,130.6,28.3Zm-10.4-4.4a8.2,8.2,0,0,1,3-6.1,8.2,8.2,0,0,1,3,6.1,9.5,9.5,0,0,1-1.7,5.6h-2.6A9.5,9.5,0,0,1,120.2,23.8Zm-3.4,10.4a9.6,9.6,0,0,1-7.1-3,9.6,9.6,0,0,1,7.1-3,8.2,8.2,0,0,1,4.5,1.5v2.9A8.2,8.2,0,0,1,116.8,34.2ZM102.3,52.5,120.7,34a8.7,8.7,0,0,0-.9,3.6,10,10,0,0,0,3.2,7.6h.3a10,10,0,0,0,3.2-7.6,8.7,8.7,0,0,0-.9-3.6l18.5,18.5v3.1L125.3,74.4a9.8,9.8,0,0,0,1.2-5,8.6,8.6,0,0,0-3.3-6.5h-.2a8.6,8.6,0,0,0-3.3,6.5,9.8,9.8,0,0,0,1.2,5L102.3,55.6Zm-3.3.1h2.9v2.9H99Zm-.1,3.3H102l18.5,18.5a8.7,8.7,0,0,0-3.6-.9,10,10,0,0,0-7.6,3.2.2.2,0,0,0,0,.3,10,10,0,0,0,7.3,3.2h.3a8.7,8.7,0,0,0,3.6-.9L102,97.7H98.9L80.1,78.9a9.9,9.9,0,0,0,4.7,1.2h.3a8.6,8.6,0,0,0,6.5-3.3.2.2,0,0,0,0-.2,8.6,8.6,0,0,0-6.5-3.3,9.8,9.8,0,0,0-5,1.2ZM78.8,77.6l-.8-.8.4-.4.8-.6v2.1Zm0,.6H76.5l1.2-1.1.8.8Zm-.8-2.1-.4.4-.8-.8-.2-.3h2.1Zm-.7.7-1.1,1.2V75.6l.4.3Zm1.8,1.8a8.2,8.2,0,0,1,1.5,4.5,9.6,9.6,0,0,1-3,7.1,9.6,9.6,0,0,1-3-7.1,8.2,8.2,0,0,1,1.5-4.5Zm5.9-4.8a8.2,8.2,0,0,1,6.1,3,8.2,8.2,0,0,1-6.1,3,9.5,9.5,0,0,1-5.6-1.7V75.5A9.5,9.5,0,0,1,85.1,73.8ZM74.7,69.4a8.2,8.2,0,0,1,3-6.1,8.2,8.2,0,0,1,3,6.1A9.5,9.5,0,0,1,79,75H76.3A9.5,9.5,0,0,1,74.7,69.4ZM71.3,79.8a9.6,9.6,0,0,1-7.1-3,9.6,9.6,0,0,1,7.1-3,8.2,8.2,0,0,1,4.5,1.5v2.9A8.2,8.2,0,0,1,71.3,79.8ZM56.7,98,75.2,79.6a8.7,8.7,0,0,0-.9,3.6,10,10,0,0,0,3.2,7.6h.3A10,10,0,0,0,81,83.2a8.7,8.7,0,0,0-.9-3.6L98.6,98v3.1L79.8,119.9a9.8,9.8,0,0,0,1.2-5,8.6,8.6,0,0,0-3.3-6.5h-.2a8.6,8.6,0,0,0-3.3,6.5,9.8,9.8,0,0,0,1.2,5L56.7,101.1Zm-3.3.1h2.9V101H53.4ZM29.1,114.9a8.2,8.2,0,0,1,3-6.1,8.2,8.2,0,0,1,3,6.1,9.5,9.5,0,0,1-1.7,5.6H30.8A9.5,9.5,0,0,1,29.1,114.9Zm10.4,4.4a8.2,8.2,0,0,1,6.1,3,8.2,8.2,0,0,1-6.1,3,9.5,9.5,0,0,1-5.6-1.7V121A9.5,9.5,0,0,1,39.5,119.3Zm-7.7,3-1.1,1.2v-2.3l.4.3Zm-.7-1.4h2.1l-.6.8-.4.4-.8-.8Zm1.1,1.7.8.8.3.4H31Zm1.1.5-.8-.8.4-.4.8-.6v2.1Zm-7.5,2.2a9.6,9.6,0,0,1-7.1-3,9.6,9.6,0,0,1,7.1-3,8.2,8.2,0,0,1,4.5,1.5v2.9A8.2,8.2,0,0,1,25.7,125.3Zm9.4,3.4a9.6,9.6,0,0,1-3,7.1,9.6,9.6,0,0,1-3-7.1,8.2,8.2,0,0,1,1.5-4.5h2.9A8.2,8.2,0,0,1,35.1,128.7Zm-.6-4.2a9.9,9.9,0,0,0,4.7,1.2h.3a8.6,8.6,0,0,0,6.5-3.3.2.2,0,0,0,0-.2,8.6,8.6,0,0,0-6.5-3.3,9.8,9.8,0,0,0-5,1.2l18.8-18.8h3.1l18.5,18.5a8.7,8.7,0,0,0-3.6-.9,10,10,0,0,0-7.6,3.2.2.2,0,0,0,0,.3,10,10,0,0,0,7.3,3.2h.3a8.7,8.7,0,0,0,3.6-.9L56.4,143.3H53.3Zm21.8,19.2v2.9H53.4v-2.9ZM29.1,160.4a8.2,8.2,0,0,1,3-6.1,8.2,8.2,0,0,1,3,6.1,9.5,9.5,0,0,1-1.7,5.6H30.8A9.5,9.5,0,0,1,29.1,160.4Zm10.4,4.4a8.2,8.2,0,0,1,6.1,3,8.2,8.2,0,0,1-6.1,3,9.5,9.5,0,0,1-5.6-1.7v-2.6A9.5,9.5,0,0,1,39.5,164.9Zm-7.7,3L30.7,169v-2.3l.4.3Zm-.7-1.4h2.1l-.6.8-.4.4-.8-.8Zm1.1,1.7.8.8.3.4H31Zm1.1.5-.8-.8.4-.4.8-.6v2.1Zm-7.5,2.2a9.6,9.6,0,0,1-7.1-3,9.6,9.6,0,0,1,7.1-3,8.2,8.2,0,0,1,4.5,1.5v2.9A8.2,8.2,0,0,1,25.7,170.8Zm9.4,3.4a9.6,9.6,0,0,1-3,7.1,9.6,9.6,0,0,1-3-7.1,8.2,8.2,0,0,1,1.5-4.5h2.9A8.2,8.2,0,0,1,35.1,174.2Zm-.6-4.2a9.9,9.9,0,0,0,4.7,1.2h.3a8.6,8.6,0,0,0,6.5-3.3.2.2,0,0,0,0-.2,8.6,8.6,0,0,0-6.5-3.3,9.7,9.7,0,0,0-5,1.2l18.8-18.8h3.1l18.5,18.5a8.7,8.7,0,0,0-3.6-.9,10,10,0,0,0-7.6,3.2.2.2,0,0,0,0,.3,10,10,0,0,0,7.3,3.2h.3a8.7,8.7,0,0,0,3.6-.9L56.4,188.8H53.3Zm21.8,19.2v2.9H53.4v-2.9ZM29.1,206a8.2,8.2,0,0,1,3-6.1,8.2,8.2,0,0,1,3,6.1,9.5,9.5,0,0,1-1.7,5.6H30.8A9.5,9.5,0,0,1,29.1,206Zm10.4,4.4a8.2,8.2,0,0,1,6.1,3,8.2,8.2,0,0,1-6.1,3,9.4,9.4,0,0,1-5.6-1.7v-2.6A9.4,9.4,0,0,1,39.5,210.4Zm-7.7,3-1.1,1.2v-2.3l.4.3Zm-.7-1.4h2.1l-.6.8-.4.4-.8-.8Zm1.1,1.7.8.8.3.4H31Zm1.1.5-.8-.8.4-.4.8-.6v2.1Zm1.9,5.6a9.6,9.6,0,0,1-3,7.1,9.6,9.6,0,0,1-3-7.1,8.2,8.2,0,0,1,1.5-4.5h2.9A8.2,8.2,0,0,1,35.1,219.8Zm21.2,17.8H53.4v-2.9h2.9Zm-3-3.3L34.5,215.5a9.9,9.9,0,0,0,4.7,1.2h.3a8.6,8.6,0,0,0,6.5-3.3.2.2,0,0,0,0-.2,8.6,8.6,0,0,0-6.5-3.3,9.7,9.7,0,0,0-5,1.2l18.8-18.8h3.1l18.5,18.5a8.7,8.7,0,0,0-3.6-.9,10,10,0,0,0-7.6,3.2.2.2,0,0,0,0,.3,10,10,0,0,0,7.3,3.2h.3a8.7,8.7,0,0,0,3.6-.9L56.4,234.3Zm3.4,3.4v-3.1l18.5-18.5a8.7,8.7,0,0,0-.9,3.6,10,10,0,0,0,3.2,7.6h.3a10,10,0,0,0,3.2-7.6,8.7,8.7,0,0,0-.9-3.6l18.5,18.5v3.1L79.8,256.5a9.8,9.8,0,0,0,1.2-5,8.6,8.6,0,0,0-3.3-6.5h-.2a8.6,8.6,0,0,0-3.3,6.5,9.8,9.8,0,0,0,1.2,5Zm20.6,21.2-1.1,1.2v-2.3l.4.3Zm-.7-1.4h2.1l-.6.8-.4.4-.8-.8Zm1.1,1.7.8.8.3.4H76.5Zm1.1.5-.8-.8.4-.4.8-.6V260Zm.2-2.6H76.3a9.5,9.5,0,0,1-1.7-5.6,8.2,8.2,0,0,1,3-6.1,8.2,8.2,0,0,1,3,6.1A9.5,9.5,0,0,1,79,257.1Zm.5.5a9.4,9.4,0,0,1,5.6-1.7,8.2,8.2,0,0,1,6.1,3,8.2,8.2,0,0,1-6.1,3,9.5,9.5,0,0,1-5.6-1.7Zm-8.2,4.3a9.6,9.6,0,0,1-7.1-3,9.6,9.6,0,0,1,7.1-3,8.2,8.2,0,0,1,4.5,1.5v2.9A8.2,8.2,0,0,1,71.3,261.9Zm9.4,3.4a9.6,9.6,0,0,1-3,7.1,9.6,9.6,0,0,1-3-7.1,8.2,8.2,0,0,1,1.5-4.5h2.9A8.2,8.2,0,0,1,80.6,265.3Zm21.2,17.8H99v-2.9h2.9Zm.1-3.3H98.9L80.1,261.1a9.9,9.9,0,0,0,4.7,1.2h.3a8.6,8.6,0,0,0,6.5-3.3.2.2,0,0,0,0-.2,8.6,8.6,0,0,0-6.5-3.3,9.8,9.8,0,0,0-5,1.2L98.9,238H102l18.5,18.5a8.7,8.7,0,0,0-3.6-.9,10,10,0,0,0-7.6,3.2.2.2,0,0,0,0,.3,10,10,0,0,0,7.3,3.2h.3a8.7,8.7,0,0,0,3.6-.9Zm14.8-17.9a9.6,9.6,0,0,1-7.1-3,9.6,9.6,0,0,1,7.1-3,8.2,8.2,0,0,1,4.5,1.5v2.9A8.2,8.2,0,0,1,116.8,261.9Zm9.4,3.4a9.6,9.6,0,0,1-3,7.1,9.6,9.6,0,0,1-3-7.1,8.2,8.2,0,0,1,1.5-4.5h2.9A8.2,8.2,0,0,1,126.2,265.3Zm21.2,17.8h-2.9v-2.9h2.9Zm.1-3.3h-3.1l-18.8-18.8a9.9,9.9,0,0,0,4.7,1.2h.3a8.6,8.6,0,0,0,6.5-3.3.2.2,0,0,0,0-.2,8.6,8.6,0,0,0-6.5-3.3,9.8,9.8,0,0,0-5,1.2L144.4,238h3.1L166,256.5a8.7,8.7,0,0,0-3.6-.9,10,10,0,0,0-7.6,3.2.2.2,0,0,0,0,.3,10,10,0,0,0,7.3,3.2h.3a8.7,8.7,0,0,0,3.6-.9Zm14.8-17.9a9.6,9.6,0,0,1-7.1-3,9.6,9.6,0,0,1,7.1-3,8.2,8.2,0,0,1,4.5,1.5v2.9A8.2,8.2,0,0,1,162.4,261.9Zm9.4,3.4a9.6,9.6,0,0,1-3,7.1,9.6,9.6,0,0,1-3-7.1,8.2,8.2,0,0,1,1.5-4.5h2.9A8.2,8.2,0,0,1,171.7,265.3Zm21.2,17.8h-2.9v-2.9h2.9Zm.1-3.3h-3.1l-18.8-18.8a9.9,9.9,0,0,0,4.7,1.2h.3a8.6,8.6,0,0,0,6.5-3.3.2.2,0,0,0,0-.2,8.6,8.6,0,0,0-6.5-3.3,9.8,9.8,0,0,0-5,1.2L189.9,238h3.1l18.5,18.5a8.7,8.7,0,0,0-3.6-.9,10,10,0,0,0-7.6,3.2.2.2,0,0,0,0,.3,10,10,0,0,0,7.3,3.2h.3a8.7,8.7,0,0,0,3.6-.9Zm14.8-17.9a9.6,9.6,0,0,1-7.1-3,9.6,9.6,0,0,1,7.1-3,8.2,8.2,0,0,1,4.5,1.5v2.9A8.2,8.2,0,0,1,207.9,261.9Zm9.4,3.4a9.6,9.6,0,0,1-3,7.1,9.6,9.6,0,0,1-3-7.1,8.2,8.2,0,0,1,1.5-4.5h2.9A8.2,8.2,0,0,1,217.2,265.3Zm21.2,17.8h-2.9v-2.9h2.9Zm.1-3.3h-3.1l-18.8-18.8a9.9,9.9,0,0,0,4.7,1.2h.3a8.6,8.6,0,0,0,6.5-3.3.2.2,0,0,0,0-.2,8.6,8.6,0,0,0-6.5-3.3,9.8,9.8,0,0,0-5,1.2L235.5,238h3.1L257,256.5a8.7,8.7,0,0,0-3.6-.9,10,10,0,0,0-7.6,3.2.2.2,0,0,0,0,.3,10,10,0,0,0,7.3,3.2h.3a8.7,8.7,0,0,0,3.6-.9ZM258,260.4a8.2,8.2,0,0,1-4.5,1.5,9.6,9.6,0,0,1-7.1-3,9.6,9.6,0,0,1,7.1-3,8.2,8.2,0,0,1,4.5,1.5Zm1.5-1.5-1.1,1.2v-2.3l.4.3Zm-.7-1.4h2.1l-.6.8-.4.4-.8-.8Zm-.1,2.9,1.2-1.1.8.8.3.4Zm2.6-.4-.3-.2-.8-.8.4-.4.8-.6Zm-.1-2.9h-2.6a9.5,9.5,0,0,1-1.7-5.6,8.2,8.2,0,0,1,3-6.1,8.2,8.2,0,0,1,3,6.1A9.5,9.5,0,0,1,261.1,257.1Z"/>
        <path class="cls-4" d="M80.6,37.6a9.6,9.6,0,0,1-3,7.1,9.7,9.7,0,0,1-2.9-5.4l-.4.3a10.1,10.1,0,0,0,3.1,5.6h.3A10,10,0,0,0,81,37.6a8.8,8.8,0,0,0-.4-2.2l-.4.2A8.4,8.4,0,0,1,80.6,37.6Z"/>
        <path class="cls-4" d="M91.2,31.3a8.2,8.2,0,0,1-6.1,3L82.9,34l-.5.3a9.5,9.5,0,0,0,2.4.3h.3a8.6,8.6,0,0,0,6.5-3.3.2.2,0,0,0,0-.2l-1.3-1.3-.4.2Z"/>
      </g>
      <path class="cls-5" d="M160,12.3a147.7,147.7,0,0,0-81.3,271H241.3A147.7,147.7,0,0,0,160,12.3Z"/>
      <path class="cls-6" d="M295.8,153.5c-10.9-7.8-22.1-15.4-34.4-20.9a109.2,109.2,0,0,0-20-6.7,121.3,121.3,0,0,0-19.2-2.9l.3-.3,3.1-3.7a87.2,87.2,0,0,0,13.8-26.3c2.5-.8,5-2.9,7.3-5.6a44.8,44.8,0,0,0,7.9-13.4c1.3-4,2.1-9.8.4-14a8.8,8.8,0,0,0-1-1.8h0a7.6,7.6,0,0,0-3.5-2.6l-1.7-.5a9.2,9.2,0,0,0-2.8-.1,110.3,110.3,0,0,0-.6-15.2A147,147,0,0,0,160,12.3h-2.3a62,62,0,0,0-8.3,15.2,78.8,78.8,0,0,0-2.7,10c-2.2,10.5-3.7,23.1-3.2,25.6l.3,1.1v.4l-.2.3.2-.2a18.4,18.4,0,0,0,3.8,5.7l1.3,1.4h-.4l-1.3.2h-.2l-1.1.2h-.3l-1.3.3h0v.2h0v.2h0v.2h0V75h0v.4h0v1.8c0,.2,0,.4,0,.6h0q0,.3,0,.6V81h0v2.4l.2.7h5.1a6.2,6.2,0,0,0-1.4,5.9,44.9,44.9,0,0,0,5,10.7,4.8,4.8,0,0,0-1.8,1.4,2.2,2.2,0,0,0-.4,1.4,3.1,3.1,0,0,0,.1.6v.3c.6,2,3.4,4,6.3,5.2l.3,1.2a33.4,33.4,0,0,1,.5,4.4,8.7,8.7,0,0,1-.4,3.2h0a12.5,12.5,0,0,0-3.6.6l.4.6a41,41,0,0,0,9.2,10.9l.7.5c-16.9,7.8-29.9,21.5-38.8,37.7a113.1,113.1,0,0,0-11.2,30.5l16.6,33.6c12.3,0,19.8-2.2,19.8-2.2.1-5.4.2-10.4.4-15.1.2,1.4.4,2.8.6,4.2,1.6,9.7,4.7,14.3,5.8,15.7a2.2,2.2,0,0,0,1,.7,42.5,42.5,0,0,0,12.6,2,40.6,40.6,0,0,0,6.7-.6,163.2,163.2,0,0,1,0,36.5q-.4,3.2-.9,6.4c21.8.5,43.7.6,65.5.5a148.5,148.5,0,0,0,30.2-27.5q-3.1-13-6-24l8.6.8,12.4,1.4a146.9,146.9,0,0,0,19.1-70.1C303.8,159.4,299.9,156.4,295.8,153.5ZM153.5,194.6a207.3,207.3,0,0,1,3.4-21.8l.3-1.2s.1.9.4,2.5a89.2,89.2,0,0,0,6.9,19.9C159.8,194.2,155.7,194.3,153.5,194.6Zm99.7-64.2h0ZM273,212.2c-3.2.4-6.7.6-10.2.7-5.9-21.1-10.5-34.3-12.8-40.6-1.1-3-1.7-4.4-1.7-4.4s32.2,11.6,42.2,38.6l.7,2A135,135,0,0,1,273,212.2Z"/>
      <path class="cls-7" d="M153.3,151.5a6.4,6.4,0,0,1-1.7-2.6c-17.5,6.1-30.8,19.3-39.5,35.3C122.6,169.2,135.5,155.3,153.3,151.5Z"/>
      <path d="M227,225.5l5.7.3c-5.7-20.7-10.1-33.6-12.3-39.5C224.1,199.1,227.9,212.1,227,225.5Z"/>
      <path class="cls-7" d="M235.1,234.9h-4.3a65.5,65.5,0,0,1,2,6.3c1.6,7.5,3.2,15,2.4,22.5-.4,2.8-.4,5.9-1.2,8.7a26.7,26.7,0,0,1-2.8,7.9,32.3,32.3,0,0,1-3.1,4.5h11l6.8-4.6C242.1,262.5,238.5,247.5,235.1,234.9Z"/>
      <path class="cls-8" d="M286,214.4a8.4,8.4,0,0,0,9.5-3.4,5.4,5.4,0,0,0,0-3.7c-3.2-8.3-12.2-13-18.9-19.3l-1.2-1.4c-4.9-4.4-9.7-9-14.9-13.2-11.7-9.7-23.9-18-37.1-23.8a53,53,0,0,0-12.1-3c-8.5-1.2-23.2,1.1-21.4,12.1-4.5-1.6-5.3-6.4-4.2-10.9a45,45,0,0,1,1.7-4.9l-6.2.2a117.6,117.6,0,0,0-27.2,5l-2.3.7a6.4,6.4,0,0,0,1.7,2.6c-17.8,3.8-30.7,17.7-41.2,32.7a99,99,0,0,0-9.8,26.7l14.5,29.4c10.8,0,17.3-2,17.3-2,.4-29.7,3.9-47.3,4.8-51.5l.2-1s.1.8.4,2.2a84.4,84.4,0,0,0,13.3,30s8.8,27.6,5.1,58.5q-.3,2.8-.8,5.6c24.3.5,48.7.5,72.9.3l1.3-2a26.7,26.7,0,0,0,2.8-7.9c.8-2.8.8-5.9,1.2-8.7.8-7.5-.8-15-2.4-22.5a65.5,65.5,0,0,0-2-6.3h4.3l-2.4-9.1-5.7-.3c.9-13.4-2.9-26.4-6.6-39.2l-1.5-3.8s28.2,10.1,37,33.8C265.8,214.7,275.8,211,286,214.4Z"/>
      <path class="cls-7" d="M295.4,200.8l-3.5-3.8a229.6,229.6,0,0,0-31.4-27.1c-9.6-6.8-19.4-13.5-30.1-18.3a95.6,95.6,0,0,0-17.5-5.9,108.6,108.6,0,0,0-25.7-2.8,45,45,0,0,0-1.7,4.9c-1,4.5-.2,9.3,4.2,10.9-1.8-11,12.8-13.3,21.4-12.1a53,53,0,0,1,12.1,3c13.3,5.8,25.5,14.1,37.2,23.8,5.2,4.2,10,8.8,14.9,13.2l1.2,1.4c6.7,6.3,15.8,11,18.9,19.3a5.4,5.4,0,0,1,0,3.7,8.4,8.4,0,0,1-9.5,3.4c-10.3-3.4-20.2.3-30.1,1.8a41,41,0,0,1,1.3,4.1s11.1-4,31.6-3.6a168.7,168.7,0,0,1,17.6,1.2A79,79,0,0,0,295.4,200.8Z"/>
      <path class="cls-9" d="M176.5,233.9c-3.3,1.6-8.1,1.6-9.2,5.3h.6a23.4,23.4,0,0,0,8.7-.7C176,237,176.7,235.4,176.5,233.9Z"/>
      <path class="cls-10" d="M179.8,218.9h-.9a18.1,18.1,0,0,0-3.3,0,12.4,12.4,0,0,0-3.3.8,6.8,6.8,0,0,1,3.1.2,2.4,2.4,0,0,1,1.2,2.3,6.9,6.9,0,0,1-.2,1.5,7.9,7.9,0,0,0,4.2.2A14,14,0,0,0,179.8,218.9Z"/>
      <path class="cls-3" d="M178,223.9q0,.2,0,.4c0,6.9-3,10.8-10.1,10.2H167l-1.7,4.6h2c1.1-3.7,5.9-3.7,9.2-5.3a2.8,2.8,0,0,0-.4-1,2.8,2.8,0,0,1,.4,1l.4-.2-.4.2c.2,1.4-.4,3.1.1,4.6a8.4,8.4,0,0,0,3.2-1.8c3-2.8,3.9-8.4,3.9-12.4q0-.2,0-.5Z"/>
      <path class="cls-10" d="M189.7,156.7a30.1,30.1,0,0,1-27,6.2l-.5,1,.9.4c2.4.9,9.9,2.6,24.8-3.7l2.9-1.3A20,20,0,0,1,189.7,156.7Z"/>
      <path class="cls-11" d="M188.3,148.3,164.1,157a23.7,23.7,0,0,1-.5,2.9,18.9,18.9,0,0,1-1,2.9,30.1,30.1,0,0,0,27-6.2,24.9,24.9,0,0,1-.8-3A27.3,27.3,0,0,1,188.3,148.3Z"/>
      <path class="cls-12" d="M203,66.3c-17.5,3.5-35.1,4.5-52.8,4.7A151.1,151.1,0,0,0,203,66.3Z"/>
      <path class="cls-12" d="M205,40.5a37.7,37.7,0,0,0-7.9-7c-9.2-6.1-22.8-8.7-33.6-5.5C178,25.9,193.5,30.8,205,40.5Z"/>
      <path class="cls-12" d="M215.4,63.7c.7,6.6,1.6,13.2-2.3,18.7-.3.5-4.2,4.4-5.6,6l.4,1.2a40.5,40.5,0,0,0,3.2,6.3,40.5,40.5,0,0,1,4.9-1.1C217.3,85.1,217.5,74,215.4,63.7Z"/>
      <path class="cls-13" d="M215.4,63.7l-.3-1.5c-1.8-8.1-5-15.6-10.2-21.7C193.5,30.8,178,25.9,163.4,28l-2.4.8c-12.9,5-24,17.9-28.7,30.7a69,69,0,0,0-2.4,8.7A191.9,191.9,0,0,0,150.3,71c17.7-.2,35.3-1.2,52.8-4.7l3.9-1.2a35.6,35.6,0,0,0,.6,23.3c1.3-1.6,5.3-5.6,5.6-6C217,76.9,216.1,70.3,215.4,63.7Z"/>
      <path class="cls-10" d="M207.5,88.5a19.4,19.4,0,0,0-2.3,3.4,15.6,15.6,0,0,0,3.1-1.3Z"/>
      <path class="cls-10" d="M162.8,98.6a59.8,59.8,0,0,0,26.7-.9C180.9,95,171.1,93.9,162.8,98.6Z"/>
      <path class="cls-10" d="M131,97.2l2.2,2.5h11.6A21,21,0,0,0,131,97.2Z"/>
      <path class="cls-10" d="M146.6,100v1c4.8-1.7,9.8-2.3,14.6-.6a3.1,3.1,0,0,1,.1-.7A20.8,20.8,0,0,0,146.6,100Z"/>
      <path class="cls-11" d="M211.2,96a40.5,40.5,0,0,1-2.1-3.8l-.8-1.7a15.6,15.6,0,0,1-3.1,1.3,19.4,19.4,0,0,1,2.3-3.4,35.6,35.6,0,0,1-.6-23.3,132.7,132.7,0,0,1-13.1,3.4,155.2,155.2,0,0,1-42.7,2.5,191.4,191.4,0,0,1-21.1-2.8c-2,9.2-3.2,20.2-2.8,22.4l.3,1a15.2,15.2,0,0,0,3.5,5.5,21,21,0,0,1,13.8,2.5H133.2l.6.8c6,7.7-3.9,7.8-2.2,14.5a38.1,38.1,0,0,0,4.8,10,19.2,19.2,0,0,1,3.1,6.4c2.5,1.1,5.6.5,8,1.6a13.7,13.7,0,0,1-7.6.3,29.3,29.3,0,0,1,.5,3.9c6.4-1.3,24.2-.8,40.3,2a101.7,101.7,0,0,1,14.3,3.3l1.2.4,2.7-3.2c4.6-7.1,8.6-14.9,10.3-23.4h2a111.5,111.5,0,0,0,4.4-18.8l.3-2.6A40.5,40.5,0,0,0,211.2,96Zm-82.2-5.5c2.1-4.7,7.4-7.5,12.1-4.9a9.9,9.9,0,0,1,3.3,3.6C139.5,86.5,133.4,87.3,128.9,90.5Zm32.2,9.9c-4.7-1.7-9.8-1.1-14.6.6v-1a20.8,20.8,0,0,1,14.7-.4A3.1,3.1,0,0,0,161.1,100.4Zm21.7-17.2c2.2,1.1,3.7,3.2,5.5,5.4-1.2-.5-2-1.8-3.1-2.6-7.5-3.9-14.9-.8-21.5,2.8A14.3,14.3,0,0,1,182.8,83.2Zm-20,15.4c8.3-4.7,18.1-3.6,26.7-.9A59.8,59.8,0,0,1,162.8,98.6Z"/>
      <path class="cls-14" d="M147,100.9c-.1-1.2-.2-1.9-.2-1.9a42.7,42.7,0,0,0-18.8.3,17.1,17.1,0,0,0-.3,1.9C134,99.3,140.7,99.7,147,100.9Z"/>
      <path class="cls-15" d="M127.7,101.2a18.1,18.1,0,0,0,.7,7.9,37.4,37.4,0,0,0,18.1-.1,28.3,28.3,0,0,0,.5-8.1C140.7,99.7,134,99.3,127.7,101.2Z"/>
      <path class="cls-14" d="M192,101.4a24.9,24.9,0,0,0-.3-3.6c-19.1-3.4-30.6.9-30.6.9a19.6,19.6,0,0,0-.3,2.4A53.5,53.5,0,0,1,192,101.4Z"/>
      <path class="cls-15" d="M160.8,101.2a25,25,0,0,0,.7,7.8s12.1,4.1,30-.5a34.7,34.7,0,0,0,.6-7A53.5,53.5,0,0,0,160.8,101.2Z"/>
      <path class="cls-10" d="M182.8,83.2a14.3,14.3,0,0,0-19.1,5.5c6.6-3.5,14-6.7,21.5-2.8,1.1.9,1.9,2.1,3.1,2.6C186.5,86.4,185,84.3,182.8,83.2Z"/>
      <polygon class="cls-16" points="177.5 96.5 177.5 96.5 177.5 96.9 177.5 96.5"/>
      <path class="cls-17" d="M209.6,89.1a.4.4,0,0,0-.5-.1l-5.6,3.5a34.4,34.4,0,0,1-9.9,6.2l-1.6,1v-.4h0c-.1-1-.2-1.5-.2-1.5a81.5,81.5,0,0,0-14.3-1.3v.8A80.7,80.7,0,0,1,191,98.5a32.8,32.8,0,0,1-.2,9.3,66.6,66.6,0,0,1-16.2,2.1,47.1,47.1,0,0,1-12.5-1.5,24.8,24.8,0,0,1-.3-9,53.1,53.1,0,0,1,15.6-2v-.8c-10.4,0-16.3,2.2-16.3,2.2s-.1.4-.2,1.1a20.7,20.7,0,0,0-14,.4v-.8a42.1,42.1,0,0,0-19,.5,19,19,0,0,0,.6,9.1,32.5,32.5,0,0,0,8.6,1,40,40,0,0,0,9.5-1.2,28.1,28.1,0,0,0,.5-7.8,20,20,0,0,1,13.8-.5,25.2,25.2,0,0,0,.6,8.3,44.7,44.7,0,0,0,13.1,1.7,67.5,67.5,0,0,0,16.9-2.2,34.6,34.6,0,0,0,.5-7.9l17.5-10.9A.4.4,0,0,0,209.6,89.1Zm-63.7,19.2a39.2,39.2,0,0,1-8.9,1,33.9,33.9,0,0,1-8-.9,18.7,18.7,0,0,1-.4-8.5,36.7,36.7,0,0,1,9-1.1,44.4,44.4,0,0,1,8.4.8A28.5,28.5,0,0,1,145.9,108.3Z"/>
      <path class="cls-16" d="M193.5,98.7a34.4,34.4,0,0,0,9.9-6.2Z"/>
      <path class="cls-16" d="M146.9,99.5V99a43,43,0,0,0-9.1-.9,37.3,37.3,0,0,0-9.7,1.2v.7A42.1,42.1,0,0,1,146.9,99.5Z"/>
      <path class="cls-10" d="M144.4,89.2a9.9,9.9,0,0,0-3.3-3.6c-4.7-2.5-10,.2-12.1,4.9C133.4,87.3,139.5,86.5,144.4,89.2Z"/>
      <path class="cls-10" d="M147.6,133c-2.4-1.1-5.5-.5-8-1.6.2.6.3,1.2.4,1.9A13.7,13.7,0,0,0,147.6,133Z"/>
      <path class="cls-12" d="M146.2,151.3c10.6,8.2,25.2,9.1,38.3,1.3l.9-.5a51.4,51.4,0,0,0,7.5-5.7C180,156.5,160.9,159.5,146.2,151.3Z"/>
      <path class="cls-12" d="M147.3,139.9h-7.1a11,11,0,0,0-3.2.6l.3.5a44.1,44.1,0,0,1,10-1.1Z"/>
      <path class="cls-13" d="M140.5,137.2a7.7,7.7,0,0,1-.3,2.8h7.1a44.1,44.1,0,0,0-10,1.1,35.9,35.9,0,0,0,8,9.5l.8.7c14.7,8.2,33.8,5.2,46.7-4.9q1.8-1.6,3.4-3.4C178.5,137,149.2,135.4,140.5,137.2Z"/>
      <path class="cls-18" d="M189.4,89.1c-2.6-2.9-7.2-6.7-13.5-6.4s-9.8,3.4-12.3,5.8C171.9,85.2,181.5,85.1,189.4,89.1Z"/>
      <path class="cls-19" d="M163.6,88.5a23.6,23.6,0,0,0-2.5,2.7s16.8-9.9,30.7,1.2a21.3,21.3,0,0,0-2.4-3.3C181.5,85.1,171.9,85.2,163.6,88.5Z"/>
      <path class="cls-18" d="M145,89.4a11,11,0,0,0-8.8-3.9c-3.4.2-5.8,2.5-7.3,4.4A22.3,22.3,0,0,1,145,89.4Z"/>
      <path class="cls-19" d="M129,89.8a15,15,0,0,0-1.6,2.6s7.6-6.9,19.3-.8a13.5,13.5,0,0,0-1.6-2.2A22.3,22.3,0,0,0,129,89.8Z"/>
      <path class="cls-12" d="M159,140.2c-2.9-.2-7.5-.4-11.4-.4h0c3.9.1,8.5.5,11.3.7l11.3,1,2.7.3,2.2.2,2.1.2-2-.3-2.2-.3-2.7-.4C166.5,140.9,161.9,140.4,159,140.2Z"/>
      <path class="cls-10" d="M220.9,83.8l-1.5-.4c-5.5-1-10.5,4-13.9,8.6C209.4,87.7,214.4,83,220.9,83.8Z"/>
      <path class="cls-11" d="M224.8,87.7a6.8,6.8,0,0,0-3.9-3.9c-6.5-.8-11.4,3.9-15.4,8.2l-.7,1-1.4,2.1s.5,14.8,1.5,18.8v.4a4.1,4.1,0,0,0,2.7,1.7,8.7,8.7,0,0,0,5.8-1.1,24.1,24.1,0,0,0,4-3.7C222.8,104.7,226.2,96.3,224.8,87.7Z"/>
      <path class="cls-10" d="M224.8,87.7c1.4,8.6-2,16.9-7.4,23.4a24.2,24.2,0,0,1-4,3.7,8.7,8.7,0,0,1-5.8,1.1,4.1,4.1,0,0,1-2.7-1.7,5,5,0,0,0,4.2,2.7c-1.7,8.3-5.7,15.9-10.1,22.8a76.3,76.3,0,0,0,12.1-23.1c2.2-.7,4.4-2.6,6.4-4.9a39.2,39.2,0,0,0,6.9-11.7C225.6,96.5,226.3,91.4,224.8,87.7Z"/>
      <path class="cls-10" d="M213,89.1a17.9,17.9,0,0,0-2.3,2.5,26.3,26.3,0,0,0-2.1,3.2,29.9,29.9,0,0,0-1.4,2.8l-.5,1.2.6-1.2c.4-.7.9-1.7,1.6-2.7a29.9,29.9,0,0,1,2.3-3,23.9,23.9,0,0,1,2.3-2.4,17,17,0,0,1,2.6-2,11.7,11.7,0,0,1,3.4-1.4,10.9,10.9,0,0,1,3.1-.2h1l-.9-.2a10.7,10.7,0,0,0-3.2,0,11.5,11.5,0,0,0-3.7,1.2A14,14,0,0,0,213,89.1Z"/>
      <path class="cls-10" d="M199.9,216.9a20.8,20.8,0,0,1-10.5-11.8C189.6,210.8,194.6,215.2,199.9,216.9Z"/>
      <path class="cls-10" d="M184.4,209c-.8,4.2,1.8,8.5,5.8,10.7C186.8,217.1,184.4,213.4,184.4,209Z"/>
      <path class="cls-11" d="M206.6,219.2l-3.9-1.2-2.7-1.1c-5.3-1.7-10.3-6.1-10.5-11.8v-.3a1.4,1.4,0,0,0-2.4-.6,9.2,9.2,0,0,0-2.6,4.8c0,4.4,2.5,8.1,5.8,10.7a11.9,11.9,0,0,0,5.3,1.5Z"/>
      <path class="cls-9" d="M167.4,229.8c-.2-6,1.6-12.1.4-18.2a6.9,6.9,0,0,0-1.7-3.3,9,9,0,0,0-4.2-1.8,91.3,91.3,0,0,0-28.1,1.2,109.9,109.9,0,0,0,1.1,21c1.4,8.5,4.1,12.5,5.1,13.8a2,2,0,0,0,.9.6,37.2,37.2,0,0,0,11,1.7,36.3,36.3,0,0,0,7-.7,7.3,7.3,0,0,0,2.5-1.5C165.9,239.7,167.1,234.9,167.4,229.8Z"/>
      <path class="cls-3" d="M171.3,210.9h-1c0-1.4-.1-2.5-.1-3.3v-.2a1.6,1.6,0,0,0-.7-1.2c-1.8-1.2-33.1-1.2-34.9,0a1.6,1.6,0,0,0-.7,1.2v.3a91.3,91.3,0,0,1,28.1-1.2,9,9,0,0,1,4.2,1.8,6.9,6.9,0,0,1,1.7,3.3c1.2,6.1-.7,12.2-.4,18.2s-1.4,9.9-5.9,12.9a7.3,7.3,0,0,1-2.5,1.5l3.8-1a33.3,33.3,0,0,0,5-9.8l1-3.1v-.7l.2-.9a88.4,88.4,0,0,0,1-9.5c.1-1.3.1-2.6.1-3.8h.7A5,5,0,0,1,171.3,210.9Z"/>
      <path class="cls-3" d="M162.8,243.2h.2a2,2,0,0,0,.9-.6c1-1.2,3.4-4.7,4.8-12.2C167.5,234.9,165.8,239.4,162.8,243.2Z"/>
      <path class="cls-10" d="M208.5,230.9a20.7,20.7,0,0,1-14,14.2c-2.7.6-5.2-.3-6.2-2.7a6.2,6.2,0,0,1-.6-3.7,11.8,11.8,0,0,1-6.9,1.3c-3-.8-4.2-4-4-7.1a7.5,7.5,0,0,1-7.7-4.1c.7,2.3,2.5,5.4,6.9,4.8,0,0-.3,4.1,1.3,6.7s6.1.8,9.2-.4c.5,2.6,1.2,4.5,2.3,5.7s3.5,1.7,6.7-.1,6.9-4,10.4-6.1l4.8-8.6Z"/>
      <path class="cls-11" d="M207.3,220.3l-.7-1.1H195.8v2.1c-5.1,1.5-10.2,2.9-15.4,3v-.3a8,8,0,0,1-4-.2h-.2a6.9,6.9,0,0,0,.2-1.4,2.5,2.5,0,0,0-1.2-2.4,6.8,6.8,0,0,0-3.1-.2l-1.1.5c-3,1.8-2.6,5.3-2.3,7.4a10.1,10.1,0,0,0,.3,1.2,7.5,7.5,0,0,0,7.7,4.1c-.2,3,1,6.3,4,7.1a11.8,11.8,0,0,0,6.9-1.3,6.2,6.2,0,0,0,.6,3.7c1,2.4,3.5,3.3,6.2,2.7a20.7,20.7,0,0,0,14-14.2A22.9,22.9,0,0,0,207.3,220.3Z"/>
      <path class="cls-9" d="M183.2,219.8c-1.3-4.9-4.9-7.7-9.8-8.6l-2.1-.3a5,5,0,0,0-.3,4.7c4,.5,6.7,2.8,7.1,7.2a11,11,0,0,0,5.7-.1A15.8,15.8,0,0,0,183.2,219.8Z"/>
      <path class="cls-20" d="M134.1,206.8"/>
      <path class="cls-3" d="M183.6,222.7a15.8,15.8,0,0,0-.4-2.9c-1.3-4.9-4.9-7.7-9.8-8.6l-2.1-.3a3.8,3.8,0,0,0-.6,1.2,1.6,1.6,0,0,1,1.8-.8c1.4.1,6.7,1.4,8.6,4.7s2,5.4,2,6.1-.5.7-.8.8a11.8,11.8,0,0,1-4.3-.2c0,.3,0,.7,0,1.1h5.7C183.7,223.4,183.7,223.1,183.6,222.7Z"/>
      <path class="cls-20" d="M170,206.8"/>
      <path class="cls-10" d="M183.8,223.5l-3.3.2-3.9-.2-3.2-.4-1.3-.3,1.3.4,3.1.7,3.9.5a21.7,21.7,0,0,0,3.5-.1l3.4-.6,3.8-1,4.3-1.5-4.4,1-3.8.7Z"/>
      <path class="cls-10" d="M149.6,108v.3A29.9,29.9,0,0,1,147,114a26.4,26.4,0,0,1-5.5,6.8,24,24,0,0,1-4.3,3,7.3,7.3,0,0,0-2.7,1.9A20.2,20.2,0,0,0,149.6,108Z"/>
      <path class="cls-11" d="M150.3,105.5a21.4,21.4,0,0,1-.6,2.5,20.2,20.2,0,0,1-15.2,17.6,2,2,0,0,0-.3,1.2,2.7,2.7,0,0,0,.1.5v.3c.9,3,6.9,5.6,10.5,6h7.7Z"/>
      <path class="cls-11" d="M304.9,219.9c-2.9-2.9-7.9-2.5-12.4-2.4a16.8,16.8,0,0,1,4.2,3.1,13.4,13.4,0,0,1,2,2.5,24.6,24.6,0,0,0-8.8-5.6,38,38,0,0,0-10.5-2.2h-2.8c-15.1.6-30,8.1-45.1,7.7-4,.2-8.1-.6-12-.4-1.3,2.1-3.3,7.3,1.9,13.5l22,1.9c10.3.9,20.4,2.6,30.7,4,8.7,1.1,17.3,1.2,25.2-2.8,4.5-3,8.5-6.7,8.6-12.4A10.6,10.6,0,0,0,304.9,219.9Z"/>
      <path class="cls-10" d="M308.3,225a18.5,18.5,0,0,0-1.9-7.1c-5.6-.7-10.8-1-15.6-1.2l1.7.8c4.5-.1,9.5-.6,12.4,2.4a10.6,10.6,0,0,1,2.8,6.8c0,5.7-4.1,9.4-8.6,12.4l2-1.1a14.5,14.5,0,0,0,6.7-8.5A14.1,14.1,0,0,0,308.3,225Z"/>
      <path class="cls-10" d="M298.7,223.1c-4.1-6.8-13.8-8.8-21-8.8a62.1,62.1,0,0,0-12.3,1.5c-8.3,1.7-16.4,4.5-24.9,5.4a104.4,104.4,0,0,1-18.3.4l-2-.2-.7,1.1c3.9-.2,8,.6,12,.4h0c15,.3,30-7.1,45.1-7.7h-.4C284.5,215.3,292.8,217.2,298.7,223.1Z"/>
      <path class="cls-7" d="M220.2,221.5a82.9,82.9,0,0,1-13.6-2.3l.4,1.3a79.1,79.1,0,0,0,13.7,2.3A8.8,8.8,0,0,0,220.2,221.5Z"/>
      <path class="cls-8" d="M221.8,232.7a23.3,23.3,0,0,0-1.1-10,79.1,79.1,0,0,1-13.7-2.3c.9,3.1,2.6,11.1-1,18.7C211.9,239,218.5,237.7,221.8,232.7Z"/>
      <path class="cls-21" d="M308.3,225a18.5,18.5,0,0,0-1.9-7.1,79,79,0,0,0-11.1-17.1l-3.5-3.8a229.6,229.6,0,0,0-31.4-27.1c-9.6-6.8-19.4-13.5-30.1-18.3a95.6,95.6,0,0,0-17.5-5.9,106.2,106.2,0,0,0-16.8-2.5l.3-.3,2.7-3.2a76.3,76.3,0,0,0,12.1-23.1c2.2-.7,4.4-2.6,6.4-4.9a39.2,39.2,0,0,0,6.9-11.7c1.1-3.5,1.9-8.6.3-12.3a7.7,7.7,0,0,0-.9-1.6h0a6.6,6.6,0,0,0-3-2.3l-1.5-.4a8.1,8.1,0,0,0-2.4-.1,89.7,89.7,0,0,0-1.5-19.6l-.3-1.5c-1.8-8.1-5-15.6-10.2-21.7a37.7,37.7,0,0,0-7.9-7c-9.2-6.1-22.8-8.7-33.6-5.5l-2.4.8c-12.9,5-24,17.9-28.7,30.7a68.9,68.9,0,0,0-2.4,8.7c-2,9.2-3.2,20.2-2.8,22.4l.3,1v.6l.2-.2a16.1,16.1,0,0,0,3.4,5l1.1,1.2h-.4l-1.1.2h-.2l-1,.2h-.3l-1.1.3H128v.2h0v.2h0v1.1h0v.4h0v1.6c0,.2,0,.4,0,.5h0q0,.3,0,.5v2h0v2.1l.2.6h4.5a5.5,5.5,0,0,0-1.3,5.2,39.3,39.3,0,0,0,4.4,9.3,4.2,4.2,0,0,0-1.6,1.2,2,2,0,0,0-.3,1.2,2.7,2.7,0,0,0,.1.5v.3c.5,1.8,2.9,3.5,5.6,4.6l.2,1a29.3,29.3,0,0,1,.5,3.9,7.7,7.7,0,0,1-.3,2.8h0a11,11,0,0,0-3.2.6l.3.5a35.9,35.9,0,0,0,8,9.5l.6.5c-14.8,6.8-26.2,18.8-33.9,33a99,99,0,0,0-9.8,26.7l14.5,29.4c10.8,0,17.3-2,17.3-2,.1-4.7.2-9.1.4-13.2.1,1.2.3,2.5.5,3.7,1.4,8.5,4.1,12.5,5.1,13.8a2,2,0,0,0,.9.6,37.2,37.2,0,0,0,11,1.7,35.6,35.6,0,0,0,5.9-.5,142.9,142.9,0,0,1,0,32q-.3,2.8-.8,5.6c24.3.5,48.7.5,72.9.3l-1.8,2.5h11l6.8-4.6c-3.6-16.5-7-30.8-10.2-42.9l7.6.7c10.3.9,20.4,2.6,30.7,4,8.7,1.1,17.3,1.2,25.2-2.8l2-1.1a14.5,14.5,0,0,0,6.7-8.5A14.1,14.1,0,0,0,308.3,225ZM135.9,205.9a181.5,181.5,0,0,1,2.9-19.1l.2-1s.1.8.4,2.2a78.1,78.1,0,0,0,6,17.5C141.4,205.4,137.8,205.6,135.9,205.9Zm104.6,15.4c-2.8.3-5.8.5-8.9.6-5.2-18.5-9.2-30.1-11.2-35.6l-1.5-3.8s28.2,10.1,37,33.8l.6,1.7A118.2,118.2,0,0,1,240.5,221.3Z"/>
      <path class="cls-7" d="M206,239.2v.3s6.1.4,15.5-3.4c.2-1.2.4-2.3.4-3.3C218.5,237.7,211.9,239,206,239.2Z"/>
      <path class="cls-18" d="M253.6,274.3H66.4a147.7,147.7,0,0,0,187.2,0Z"/>
      <path class="cls-22" d="M106.4,208.1a94.2,94.2,0,0,0,21.3-.1l-4.4-19.8a2.4,2.4,0,0,0-2.3-1.9H70.3C76.7,199.7,92.5,206.3,106.4,208.1Z"/>
      <path class="cls-23" d="M106.4,208.1c-13.8-1.8-29.7-8.4-36.1-21.8H37.2c7.5,15.5,18.4,30,33.7,38.3,19.5,10.9,41.2,10.1,62.8,10.5l-6-27.2A94.2,94.2,0,0,1,106.4,208.1Z"/>
      <path class="cls-24" d="M70.9,224.6c-15.3-8.4-26.2-22.8-33.7-38.3H14.6A146.7,146.7,0,0,0,18,200.7c16.1,24.4,40.3,43.7,69.9,49.1,17.1,3.3,33.1,3.2,49.7,2.8l-3.9-17.5C112.1,234.8,90.4,235.6,70.9,224.6Z"/>
      <path class="cls-25" d="M87.9,249.8c-29.5-5.4-53.8-24.7-69.9-49.1a147.7,147.7,0,0,0,41.9,67.9h81.2l-3.5-15.9C121,253,104.9,253.1,87.9,249.8Z"/>
      <path class="cls-25" d="M59.9,268.6q3.2,2.9,6.5,5.7H169.6a2.1,2.1,0,0,0,2.1-2.1v-3.6H59.9Z"/>
      <path class="cls-19" d="M254.1,273.9H65.9l1,.8H253.1Z"/>
      <path class="cls-26" d="M254.1,273.9H170.9a2.1,2.1,0,0,0,.9-1.7v-3.6H141.1l-3.5-15.9-3.9-17.5-6-27.2-4.4-19.8a2.4,2.4,0,0,0-2.3-1.9H14.6a147.7,147.7,0,0,0,239.4,87.6Z"/>
      <circle class="cls-27" cx="160" cy="160" r="147.7"/>
    </g>
  </g>
</svg>
