<?xml version="1.0" encoding="utf-8"?>
<!-- Generator: Adobe Illustrator 21.1.0, SVG Export Plug-In . SVG Version: 6.00 Build 0)  -->
<svg version="1.1" id="Layer_1" xmlns="http://www.w3.org/2000/svg" xmlns:xlink="http://www.w3.org/1999/xlink" x="0px" y="0px"
	 viewBox="0 0 80 77" style="enable-background:new 0 0 80 77;" xml:space="preserve">
<style type="text/css">
	.st0{fill:#F9855D;}
</style>
<title>social-icons</title>
<path class="st0" d="M17.6,2.6c0.9-0.5,1.6-1.3,1.8-2.3c-0.8,0.4-1.7,0.7-2.6,0.9c-0.8-0.8-1.9-1.3-3-1.2c-1.1,0-2.1,0.4-2.9,1.2
	C10.1,2,9.7,3,9.7,4.1c0,0.3,0,0.6,0.1,0.9C6.5,4.9,3.4,3.3,1.4,0.7C1,1.4,0.8,2.1,0.8,2.8c0,1.4,0.7,2.7,1.8,3.5
	C2,6.3,1.4,6.1,0.8,5.7c0,1,0.3,1.9,0.9,2.6c0.6,0.7,1.4,1.2,2.4,1.4C3.7,9.9,3.4,9.9,3,9.9c-0.2,0-0.5,0-0.7-0.1
	c0.2,0.8,0.7,1.5,1.5,2c0.7,0.6,1.5,0.9,2.4,0.9c-1.4,1.1-3.2,1.8-5.1,1.7H0c1.9,1.2,4.1,1.8,6.3,1.8c2.2,0,4.4-0.6,6.3-1.8
	c1.7-1.1,3.1-2.6,4-4.4c0.8-1.7,1.3-3.6,1.3-5.4V4c0.9-0.5,1.6-1.2,2.2-2.1C19.3,2.3,18.5,2.5,17.6,2.6z"/>
<path class="st0" d="M30.1,16.3c-5.6,0-10.2,4.6-10.1,10.3c0,4.4,2.8,8.2,7,9.6c0.2,0.1,0.5,0,0.6-0.2c0,0,0,0,0,0v-2
	c-2.8,0.6-3.4-1.4-3.4-1.4c-0.2-0.6-0.6-1.1-1.1-1.4c-0.9-0.6,0.1-0.6,0.1-0.6c0.6,0.1,1.2,0.5,1.6,1c0.6,1,1.9,1.4,2.9,0.8l0,0
	c0-0.5,0.3-1,0.6-1.4c-2.2-0.3-4.7-1.1-4.7-5c0-1,0.4-2,1-2.8c-0.3-0.9-0.3-1.8,0.1-2.7c0,0,0.8-0.3,2.7,1c1.7-0.5,3.4-0.5,5.1,0
	c1.9-1.3,2.7-1,2.7-1c0.3,0.8,0.4,1.8,0.1,2.7c0.7,0.7,1.1,1.7,1,2.8c0,3.8-2.4,4.9-4.7,5c0.5,0.5,0.7,1.2,0.7,1.8v2.7
	c0,0.3,0.2,0.5,0.5,0.5h0.2c5.3-1.8,8.1-7.6,6.3-12.9c0,0,0-0.1,0-0.1C38.1,19,34.4,16.3,30.1,16.3z"/>
<path class="st0" d="M56.6,36.2H43.4c-1.9,0-3.4,1.5-3.4,3.4c0,0,0,0,0,0v13.3c0,1.8,1.5,3.3,3.4,3.4h13.4c1.8,0,3.3-1.5,3.3-3.4
	V39.6C60,37.7,58.5,36.2,56.6,36.2L56.6,36.2L56.6,36.2z M43.5,53.4L42,51.9l5-5l0.5,0.5L43.5,53.4z M43,40.1l0.5-0.5l6.5,5.2
	l6.5-5.2l0.5,0.5l-7,8.2L43,40.1z M56.5,53.4l-4.1-5.9l0.5-0.5l5,5L56.5,53.4z"/>
<g>
	<circle class="st0" cx="63.2" cy="73.9" r="3.2"/>
	<path class="st0" d="M60,59.6v-3.4c0,0,20.1,0,20,20.8h-3.4C76.6,77,77.2,60.6,60,59.6z"/>
	<path class="st0" d="M60,65.1v-3.4c0,0,14,0.6,13.9,15.3h-3.4C70.6,77.1,71.4,66.6,60,65.1z"/>
</g>
</svg>
