<svg id="Layer_1" data-name="Layer 1" xmlns="http://www.w3.org/2000/svg" viewBox="0 0 22 21.46"><defs><style>.cls-1{fill:#483316;fill-rule:evenodd;}</style></defs><title>icon-github</title><path class="cls-1" d="M11,0A11,11,0,0,0,7.52,21.44a0.55,0.55,0,0,0,.75-0.53c0-.26,0-1,0-1.87-3.06.66-3.71-1.47-3.71-1.47A2.91,2.91,0,0,0,3.33,16c-1-.68.08-0.67,0.08-0.67a2.31,2.31,0,0,1,1.68,1.13,2.34,2.34,0,0,0,3.2.91A2.35,2.35,0,0,1,9,15.86c-2.44-.28-5-1.22-5-5.44a4.25,4.25,0,0,1,1.13-3,4,4,0,0,1,.11-2.91s0.92-.3,3,1.13a10.43,10.43,0,0,1,5.51,0c2.1-1.42,3-1.13,3-1.13a4,4,0,0,1,.11,2.91,4.24,4.24,0,0,1,1.13,3c0,4.23-2.57,5.16-5,5.43a2.63,2.63,0,0,1,.75,2c0,1.47,0,2.66,0,3a0.55,0.55,0,0,0,.76.53A11,11,0,0,0,11,0Z"/></svg>