<?xml version="1.0" encoding="utf-8"?>
<!-- Generator: Adobe Illustrator 21.1.0, SVG Export Plug-In . SVG Version: 6.00 Build 0)  -->
<svg version="1.1" id="Layer_1" xmlns="http://www.w3.org/2000/svg" xmlns:xlink="http://www.w3.org/1999/xlink" x="0px" y="0px"
	 viewBox="0 0 88 88" style="enable-background:new 0 0 88 88;" xml:space="preserve">
<style type="text/css">
	.st0{fill:#49310A;}
	.st1{fill:#483316;}
</style>
<title>sprite</title>
<path class="st0" d="M19.4,2.8c1-0.5,1.7-1.4,2-2.5c-0.9,0.5-1.9,0.8-2.9,1c-0.8-0.9-2.1-1.4-3.3-1.3C14,0,12.9,0.4,12,1.3
	c-0.8,0.8-1.3,2-1.3,3.2c0,0.3,0,0.7,0.1,1c-3.6-0.1-7-1.8-9.3-4.7C1.1,1.5,0.9,2.3,0.9,3.1c0,1.5,0.7,2.9,2,3.8
	c-0.7,0-1.4-0.2-2-0.6c0,1.1,0.3,2.1,1,2.9s1.6,1.4,2.6,1.6c-0.4,0.1-0.8,0.1-1.2,0.1c-0.3,0-0.5,0-0.8-0.1c0.3,0.9,0.8,1.7,1.6,2.2
	c0.7,0.6,1.6,1,2.6,1c-1.6,1.3-3.6,1.9-5.6,1.9c-0.4,0-0.7,0-1.1,0c2.1,1.3,4.5,2,6.9,2c2.5,0,4.9-0.7,6.9-2
	c1.9-1.2,3.4-2.9,4.4-4.9c0.9-1.9,1.4-3.9,1.4-6V4.4c1-0.6,1.8-1.4,2.4-2.3C21.2,2.5,20.3,2.7,19.4,2.8z"/>
<path class="st1" d="M55.1,44C49,44,44,49,44,55.1c0,4.8,3,9.1,7.6,10.6c0.3,0.1,0.6,0,0.7-0.3c0-0.1,0-0.1,0-0.2v-2
	c-3.1,0.7-3.7-1.5-3.7-1.5c-0.2-0.6-0.6-1.2-1.2-1.5c-1-0.7,0.1-0.7,0.1-0.7c0.7,0.1,1.3,0.5,1.7,1.1c0.6,1.1,2,1.5,3.2,0.9l0,0l0,0
	c0-0.6,0.3-1.1,0.7-1.5c-2.4-0.3-5.1-1.2-5.1-5.5c0-1.1,0.4-2.2,1.1-3c-0.3-0.9-0.3-2,0.1-2.9c0,0,0.9-0.3,3,1.1
	c1.8-0.5,3.7-0.5,5.6,0c2.1-1.4,3-1.1,3-1.1c0.4,0.9,0.4,2,0.1,2.9c0.8,0.8,1.2,1.9,1.1,3c0,4.2-2.6,5.3-5.1,5.5
	c0.5,0.5,0.8,1.3,0.8,2v3c0,0.3,0.2,0.6,0.5,0.6c0.1,0,0.2,0,0.2,0c5.8-2,8.9-8.4,6.8-14.2C63.9,47,59.8,44.1,55.1,44z"/>
<path class="st1" d="M84.3,66H69.7c-2,0-3.7,1.6-3.7,3.7v14.6c0,2,1.7,3.7,3.7,3.7l0,0h14.7c2,0,3.6-1.7,3.6-3.7V69.7
	C88,67.6,86.3,66,84.3,66L84.3,66L84.3,66L84.3,66z M69.9,84.9l-1.7-1.6l5.5-5.5l0.6,0.6L69.9,84.9z M69.3,70.3l0.6-0.6l7.1,5.7
	l7.1-5.7l0.6,0.6l-7.7,9L69.3,70.3z M84.1,84.9l-4.5-6.5l0.6-0.6l5.5,5.5L84.1,84.9z"/>
<circle class="st1" cx="25.5" cy="41.4" r="3.5"/>
<path class="st1" d="M22,25.7V22c0,0,22.1,0,22,22.9h-3.8C40.2,44.9,40.9,26.8,22,25.7z"/>
<path class="st1" d="M22,31.8v-3.7c0,0,15.4,0.7,15.3,16.8h-3.7C33.6,45,34.5,33.4,22,31.8z"/>
</svg>
