<?xml version="1.0" encoding="utf-8"?>
<!-- Generator: Adobe Illustrator 19.2.1, SVG Export Plug-In . SVG Version: 6.00 Build 0)  -->
<svg version="1.1" id="Vector" xmlns="http://www.w3.org/2000/svg" xmlns:xlink="http://www.w3.org/1999/xlink" x="0px" y="0px"
	 viewBox="0 0 224.2 321.5" style="enable-background:new 0 0 224.2 321.5;" xml:space="preserve">
<style type="text/css">
	.st0{fill:#666666;}
	.st1{fill:#CCB293;}
	.st2{fill:#F0DBBD;}
	.st3{fill:#333333;}
	.st4{fill:#B28B60;}
	.st5{fill:#CCAB81;}
	.st6{fill:#664C12;}
	.st7{fill:#49310A;}
	.st8{fill:#D2E3F7;}
	.st9{fill:#E4EEF9;}
	.st10{fill:#FFFFFF;}
	.st11{fill:#2F3C47;}
	.st12{fill:#49535E;}
</style>
<title>jeremy</title>
<g>
	<path class="st0" d="M109.9,0c-4.6,0-9.3,0.8-13.9,2.3C87.7,5,80.2,10.2,74.9,16.7c-1.3,1.6-2.5,3.3-3.5,4.9
		c-4.9,8.2-7.2,18.6-6.8,30.8c0,0.7,0.1,1.3,0.1,2c0.1,1,0.1,1.9,0.2,2.7c0.1,0.6,0.1,1.3,0.2,2c-1.4-1.4-2.9-2.1-4.6-2.1
		c-0.5,0-1.1,0.1-1.7,0.2c-2.4,0.7-4,2.3-4.6,4.7c-1.1,4.1,0.9,9.3,1.7,11.3c1.2,2.7,4.7,9.5,8.2,12.9c1.6,1.6,3,2.3,4.3,2.3
		c0.6,0,1.2-0.2,1.7-0.5c0.3-0.2,0.6-0.5,0.9-0.8c1.2,3.8,2.5,7.7,4,11.6c0.7,1.9,1.4,3.8,2.2,5.6c2.2,5.5,4.2,9.5,6.5,12.9
		c0.7,1.1,1.6,2.2,2.4,3.2c0.7,0.8,1.4,1.6,2.2,2.3c0,1,0.1,2,0.1,2.9c0.1,5.5-0.1,13.9-1.6,23c-1.8,0.7-3.4,1.5-4.6,2.3
		c-1.5,1-3.5,2.1-5.9,3.2c-13.5,6-36.8,10.9-37,10.9c-5.6,1.4-6.7,5.5-9,14.3c-0.4,1.5-0.8,3.1-1.3,4.9c-1.7,6-5.8,17.9-10.5,30.3
		C12.7,230,7.6,241.9,4.6,247.4c-3.8,6.7-5.4,10.1-4.2,12.1c0.8,1.3,2.4,1.5,3.6,1.5c1.1,0,2.5-0.2,4.4-0.5
		c-0.2,5.1,0.1,10.8,1.1,16.9c1.9,11.7,3.5,17.8,4.6,21.8c0.6,2.2,1,3.9,1.2,5.5c0.1,0.9,0.2,1.7,0.2,2.7c0,7.3,10,8.9,26.2,11
		c4.3,0.5,10.7,0.8,17.6,0.8c8.3,0,24.7-0.5,41-3.5c7.9-1.5,14.8-3.4,20.5-5.7c1.4-0.6,2.8-1.2,4.2-1.9c4,1.5,8.3,2.9,12.8,4.2
		c24.6,7.1,50.4,9.3,57,9.3c0.4,0,0.6,0,0.8,0c4.8-0.3,8.5-3.2,9.9-7.7c0.3-1,0.5-2,0.6-3.1l0-0.7c0.3-5.4,0.7-12.1,6.3-33.3
		c3.5-13.1,4-27,3.8-36.5c0.5-0.1,0.9-0.3,1.2-0.4l0.5-0.2c3.2-1.2,5.3-2.1,6.1-4c0.8-2.1-0.3-5.1-2.6-9.8
		c-1.8-3.6-4.2-10.3-7.2-19.9c-2.5-8.1-5.5-18.3-8.8-30.3c-3.2-11.5-4-14.6-11.1-15.5c-6.1-0.7-11.1-2.2-11.2-2.2l0,0l0,0
		c-5.6-1.3-11.6-1.6-21.4-1.8c-7.7-0.1-11.1-0.7-19.9-4.9c-1.1-0.5-2.2-1-3.4-1.6c-1.2-0.6-2.6-1.1-4.3-1.6
		c-1.3-10.4-1.2-21.3-0.9-28.7c0.1-1.8,0.2-3.5,0.3-5.3c1.3-1.9,2.5-3.9,3.7-6.1c1.3-2.6,2.5-5.4,3.6-8.3c0.6-1.6,1.1-3.2,1.7-4.8
		c1.1-3.3,2.2-6.7,3.1-10c0.4,0.2,0.8,0.3,1.3,0.3c1.4,0,2.9-1,4.5-2.9c0.9-1,1.7-2.3,2.6-3.8c3-5.3,5.7-13.8,5-18.8
		c-0.2-1.6-0.8-2.9-1.6-3.6c-0.8-0.7-1.6-1-2.6-1c-1.2,0-2.5,0.6-3.9,1.7c0-0.5,0.1-1,0.1-1.4c0-0.8,0.1-1.7,0.1-2.6
		c0.4-13.2-2.1-24.3-7.4-33.1c-1.4-2.2-2.9-4.3-4.5-6.1c-1.3-1.4-2.7-2.8-4.1-4.1L135,9.2c-0.3-0.2-0.5-0.5-0.8-0.7
		C127.3,3,118.9,0,109.9,0L109.9,0z"/>
	<path d="M220.5,226.2c-2-4.2-4.6-11.8-7.2-20.1c-3.5-11.1-6.9-23.5-8.8-30.3c-3.2-11.9-4-14-10.3-14.8s-11.4-2.2-11.4-2.2
		c-5.8-1.4-12.3-1.6-21.1-1.8c-7.9-0.1-11.5-0.8-20.3-5c-1.1-0.5-2.2-1-3.4-1.6c-1.3-0.6-2.9-1.2-4.7-1.7c0.1,1,0.3,2,0.4,3
		c0.1,0.6,0.2,1.2,0.3,1.9c-1.8,1.3-3.5,2.5-5.2,3.5c-12.8,5.9-27,7.7-40.4,2.2c-0.9-0.6-1.7-1.2-2.4-1.7c0.2-0.7,0.3-1.4,0.5-2.1
		c0.4-2,0.8-4,1.2-6c-1.9,0.7-3.6,1.5-5,2.4c-1.6,1.1-3.7,2.2-6.1,3.3c-13.8,6.2-37.2,11-37.2,11c-5.8,1.5-6.1,6-9.6,18.5
		c-1.7,6-5.9,18.1-10.5,30.4c-5,13.2-10.5,26.6-14,32.8c-6.8,12.1-6.8,13.6,6.2,10.9c0,0,45.5-4.9,53.7-3.8c0.1,0,0.3,0,0.4,0
		c1.3,8.2,1.4,16.6,1.4,24.7c-1.8,0.3-3.5,0.6-5.2,0.5c-0.3,11.5-0.9,22.9-0.9,22.9l115.9-2.9c0,0-0.6-7.9-0.7-23.1
		c-7.7,0.1-16.9-4.4-16-8.1c3-10,3-19,6-29c0.6-1.1,2.4-3.2,4.5-3.9l3.4,1.2c11.5,5,36.1,4.2,42.9,1.6S225.2,236,220.5,226.2z"/>
	<path class="st1" d="M128.9,157.1c-12.8,5.9-27,7.7-40.4,2.2C95.9,164.1,109.7,169,128.9,157.1z"/>
	<g>
		<path class="st2" d="M80.5,64.4c3.1,0.2,6.1,0.1,9-0.1c0.8-0.1,1.5-0.1,2.3-0.2c2.8-0.4,5.4-0.9,7.7-1.7c1.2-4.9,0.4-8.9,0.2-9.9
			c-0.7-0.2-3-0.8-6.4-1.2c-0.6-0.1-1.3-0.1-2-0.1c-1.5-0.1-3.1-0.1-4.6,0c-0.6,0-1.3,0.1-2,0.1c-4.1,0.4-8.3,1.2-12.5,2.5
			C72,55,71.6,60,72.7,63.5c0.7,0.1,2.5,0.4,5.1,0.6C78.6,64.2,79.5,64.3,80.5,64.4z"/>
		<path class="st2" d="M149.8,58.7c0.1-1.2,0.2-2.3,0.3-3.5C141,43.9,136.3,29,136.7,14.6c-19,6-39.7,5.8-59.6,2.9
			c-0.2,14.1-3.6,27.8-11.2,39.5c0.1,1.8,0.3,3.5,0.6,5.3l4.5-4.7c0-2.3,0.2-4.2,0.2-4.3c0-0.2,0.2-0.4,0.3-0.4
			c4.3-1.4,8.7-2.3,13-2.7c0.7-0.1,1.4-0.1,2-0.1c1.6-0.1,3.2-0.1,4.7,0c0.7,0,1.4,0.1,2.1,0.1c4.3,0.4,6.8,1.2,6.9,1.3
			c0.2,0.1,0.3,0.2,0.3,0.3c0.1,0.2,1.3,4.7-0.1,10.6c-9.3,3.3-19.3,2.6-28.5,1.7c-0.6-1.6-0.8-3.6-0.9-5.4l-4.4,4.4
			C68.3,75.6,72.1,88,76,98.5c18.8-11.5,44-10.2,65.6-4c3.6-10.5,6.8-22.7,8.1-34.9l-6.8-4l0-1.1L149.8,58.7z"/>
	</g>
	<path class="st2" d="M69.8,81.9c-2.2-6.8-3.6-13.9-4.6-21c-1.5-2-3.6-3.5-6.2-2.7c-2.3,0.6-3.4,2.1-3.9,4
		c-0.9,3.4,0.5,7.9,1.7,10.7c1,2.3,4.5,9.2,8,12.6c0.3,0.2,0.5,0.3,0.8,0.5C68.3,86.9,70.5,84.5,69.8,81.9z"/>
	<path class="st2" d="M158,59.8c-0.2-1.3-0.6-2.4-1.3-3c-1.9-1.7-4.2-0.2-5.9,1.4c-0.9,5.2-1.7,10.7-2.7,16c0-0.1,0.1-0.1,0.1-0.2
		c0,0.1-0.1,0.1-0.1,0.2c-0.4,1.9-0.8,3.9-1.2,5.8c-0.2,0.6,0,0.8,0.3,1c1.1,1.1,2.2,1.1,3.5,0.7c0.8-0.9,1.6-2.2,2.5-3.6
		C156.1,72.9,158.7,64.6,158,59.8z"/>
	<path class="st3" d="M182.6,190.8c-1.8,15.8-4.6,30.5-11,45c-2.4,0.3-4.7,2.8-5.4,4.1c-3,10-3,19-6,29c-0.9,3.7,8.3,8.2,16,8.1
		c0-0.9,0-1.8,0-2.7c-0.1-17-0.4-36.6,4-55.3C183.3,205.8,183,195.6,182.6,190.8z"/>
	<path class="st4" d="M87,119.9c5,5.8,11.8,9.3,22,8.2c10-1.1,17.3-6.1,22.7-13.1c1.8-2.3,3.4-4.9,4.8-7.6
		C124.4,123.5,104.7,130.3,87,119.9z"/>
	<path class="st1" d="M131.7,115c-5.4,7-12.7,12-22.7,13.1c-8.6,0.9-14.8-1.4-19.6-5.7c0,1,0.1,2.1,0.1,3.4c2,2.1,4.2,3.8,6.1,5.2
		c13.7,10.3,29,0.7,36.8-11.7c0.1-2.1,0.2-4,0.3-5.6C132.4,114.1,132,114.6,131.7,115z"/>
	<path class="st2" d="M72.2,49c0.5-0.3,0.9-0.7,1.2-1.1C73,48.2,72.6,48.6,72.2,49z"/>
	<path class="st5" d="M141.6,94.5C120,88.4,94.8,87,76,98.5c0.7,1.9,1.4,3.8,2.2,5.6c1.8,4.6,3.9,9,6.4,12.7
		c0.7,1.1,1.5,2.1,2.4,3.1c17.8,10.3,37.4,3.5,49.5-12.5c1.4-2.6,2.5-5.4,3.6-8.2C140.5,97.7,141.1,96.1,141.6,94.5z"/>
	<path class="st4" d="M134.8,15.2c-14.1,1.6-28.2,3.7-42.3,4C106.8,20.1,121.2,19.2,134.8,15.2z"/>
	<path class="st4" d="M148.5,53.2c0.5,0.7,1,1.4,1.6,2.1c0.1-0.9,0.1-1.7,0.1-2.6c-1.3-0.5-2.5-1.4-3.7-2.5
		C147.1,51.2,147.8,52.2,148.5,53.2z"/>
	<path class="st4" d="M65.7,54.4c0,0.9,0.1,1.8,0.2,2.7c1.2-1.8,2.2-3.6,3.2-5.4C68.1,52.7,67,53.7,65.7,54.4z"/>
	<path class="st5" d="M142.9,20.1c-1.3-2.1-2.7-4.1-4.4-6c-1.2-1.4-2.6-2.7-4-4c-0.3-0.3-0.6-0.5-0.9-0.8
		c-11-8.9-24.9-10.2-37.2-6.1c-8,2.7-15.4,7.6-20.7,14.1c-1.2,1.5-2.4,3.1-3.4,4.8c-5.3,8.8-7,19.3-6.7,30.2c0,0.7,0.1,1.3,0.1,2
		c1.4-0.7,2.5-1.7,3.4-2.7c4-7.7,6.4-16.1,7.4-24.9c0.4-3,0.6-6.1,0.6-9.2c5.1,0.7,10.3,1.3,15.4,1.6c14.1-0.2,28.2-2.4,42.3-4
		c0.6-0.2,1.3-0.4,1.9-0.6c-0.4,12.3,3.1,25,9.8,35.5c1.2,1.1,2.4,1.9,3.7,2.5C150.5,40.9,148.6,29.5,142.9,20.1z"/>
	<path class="st6" d="M136.8,44.8c-3.3-4.6-10.1-11-17.9-1.5C124.8,41.1,131.8,41.2,136.8,44.8z"/>
	<path class="st7" d="M118.9,43.3c-0.5,0.7-1.1,1.4-1.6,2.2c0,0,12.1-7.4,21.7,2.9c0,0-0.8-1.6-2.2-3.6
		C131.8,41.2,124.8,41.1,118.9,43.3z"/>
	<path class="st1" d="M118.2,45c5.8-1.8,11.6-2.2,16.9,0.2C128.1,41,120.8,43.7,118.2,45z"/>
	<path class="st7" d="M73.3,46.6c-0.6,1.1-1,2.1-1.4,3.1c6.2-7.3,17.5-11.9,24.5-2.2c-0.5-1.6-1.3-3.1-2.3-4.4
		C87.4,39.4,79.3,40.6,73.3,46.6z"/>
	<path class="st1" d="M75.7,46.2c5.1-3.3,11.4-4.3,17.3-2.1C87.6,40.3,80.9,42.2,75.7,46.2z"/>
	<path class="st6" d="M83.6,38.4c-4.4,0.4-8.1,4.2-10.2,8.2c5.9-6,14.1-7.2,20.8-3.5C91.8,39.9,88.2,38,83.6,38.4z"/>
	<path class="st1" d="M16.3,304.4c0.1,0.9,0.2,1.8,0.2,2.8c0,6.4,9.5,8,25.4,10c10.4,1.3,35.9,1.5,58.3-2.7
		C71.3,317.6,39.3,321.5,16.3,304.4z"/>
	<path class="st2" d="M72.2,279c-1-0.7-2-1.4-3.1-2c-5-2-9.6-0.5-14,1.6c1.4-2.5,1.9-5.2,2.3-7.8c0.5-8.3-0.6-15.4-1.7-20.2
		c-0.1-0.5-0.2-1-0.4-1.5c-15.1-2.2-31.6,1.2-45.7,6.9c-0.1,0.7-0.2,1.5-0.2,2.3c-0.4,4.7-0.3,10.9,1,18.7
		c2.9,18.3,5.2,22.6,5.8,27.3c23,17.1,55,13.2,83.9,10.2c7.3-1.4,14.3-3.2,20.3-5.6C101.6,303.2,89.1,289.3,72.2,279z"/>
	<path class="st1" d="M10.1,253.4c-0.2,0.8-0.3,1.7-0.4,2.7c14.1-5.7,30.6-9.1,45.7-6.9c0-0.1-0.1-0.3-0.1-0.4
		C34.4,246,18.3,250.3,10.1,253.4z"/>
	<path class="st2" d="M86.2,157.6c0.7,0.6,1.5,1.1,2.4,1.7c13.3,5.5,27.6,3.7,40.4-2.2c1.7-1,3.4-2.2,5.2-3.5
		c-0.1-0.6-0.2-1.2-0.3-1.9c-1.7-11.2-1.7-23.5-1.4-32.5c-7.8,12.4-23,22.1-36.8,11.7c-2-1.5-4.1-3.2-6.1-5.2
		c0.1,7.1-0.2,18.2-2.8,29.7C86.5,156.2,86.3,156.9,86.2,157.6z"/>
	<path class="st4" d="M109.9,99.2c-2.7,0.3-7.1,0.6-10.9,0.4c-1.9-0.1-3.6-0.3-4.8-0.4c-1.2-0.2-2-0.4-2-0.4s0.7,0.3,1.9,0.6
		c1.2,0.3,2.9,0.7,4.8,0.9c3.8,0.5,8.3,0.5,11.1,0.3c2.8-0.2,7.2-1,10.9-2c0.9-0.2,1.8-0.5,2.6-0.7c0.8-0.2,1.5-0.5,2.1-0.6
		c1.2-0.4,1.9-0.6,1.9-0.6s-0.8,0.1-2,0.4c-0.6,0.1-1.3,0.3-2.1,0.4c-0.8,0.1-1.7,0.3-2.6,0.4C117,98.6,112.6,99,109.9,99.2z"/>
	<path class="st4" d="M108.8,105.3c-1.3,0.2-3.3,0.3-5.1,0.1c-0.9-0.1-1.6-0.3-2.2-0.6c-0.5-0.2-0.9-0.4-0.9-0.4s0.3,0.2,0.8,0.5
		c0.5,0.3,1.3,0.6,2.1,0.9c1.8,0.5,4,0.6,5.3,0.4c0.7-0.1,1.5-0.3,2.4-0.5c0.9-0.3,1.8-0.6,2.6-0.9c0.8-0.3,1.6-0.7,2.1-1
		c0.5-0.3,0.8-0.4,0.8-0.4s-0.3,0.1-0.9,0.3c-0.6,0.2-1.3,0.4-2.2,0.7c-0.8,0.3-1.8,0.4-2.7,0.6
		C110.2,105.1,109.4,105.2,108.8,105.3z"/>
	<path class="st1" d="M138.1,311.3c26.7,7.7,53.8,9.5,57.5,9.2c4.4-0.3,7.7-2.9,9-6.9C182.7,320.5,160,314.3,138.1,311.3z"/>
	<path class="st2" d="M62.8,251c-2,0.4-3.5,0.8-4.6,1.2c-0.1,7.1-0.3,15.2,4.8,21.5c0.4,0,0.8,0.1,1.2,0.1c0.4,0,0.7,0.1,1.1,0.1
		c0.1-2.5,0.3-4.9,0.8-7.3c0.2-5.7,1.6-11.3,3.8-16.5C66.9,250.3,64.6,250.6,62.8,251z"/>
	<path class="st3" d="M62.8,251c0.7-0.1,1.5-0.2,2.3-0.4c-0.9-4-2.1-7.9-3.8-11.6c-5.2-12.6-10.6-26.5-13.1-40.7
		c0.1,7.8,0.7,19.4,3.9,28.4c3.6,10,6.8,17.1,8.6,24.7C61.3,251.3,62,251.1,62.8,251z"/>
	<path class="st1" d="M69.8,250.1c-2.2,5.2-3.5,10.8-3.8,16.5c1-5.9,2.9-11.4,5.8-16.6C71.1,250,70.4,250.1,69.8,250.1z"/>
	<path class="st2" d="M214.7,231.3c-11.6-3.7-23.7-2.9-35.3,1.4c-0.3,0.4-0.7,0.9-1,1.3c-0.2,0.3-0.3,0.5-0.5,0.8
		c-10.2,15.7-7.1,31.5-7.1,31.5l8.4,28.2l25.8,16.2c0.3-5.7,0.5-12,6.3-34.2c4.7-17.8,3.9-37.1,3.4-43.9
		C214.7,232.1,214.7,231.7,214.7,231.3z"/>
	<path class="st1" d="M181.1,230.8c-0.6,0.6-1.2,1.2-1.8,1.9c11.6-4.3,23.7-5.1,35.3-1.4c0-0.4-0.1-0.7-0.1-0.9
		C198.1,225.6,186.9,228.4,181.1,230.8z"/>
	<path class="st1" d="M146.8,265.4c-0.3,0.3-0.6,0.6-0.9,0.9c-0.5,0.6-1.1,1.2-1.6,1.7c-3.7,4.3-6.4,8.2-6.4,8.2h26.3l0.8-10.5
		c1.3-0.2,2.4-0.3,3.5-0.4c0.3,0,0.7-0.1,1-0.1C162.7,262.1,154.5,265.9,146.8,265.4z"/>
	<path class="st2" d="M197.1,234.1c-16.6-0.7-27.7,6.4-27.7,6.4s13.1-13.5,26.6-16.6c2.8-0.6,2.1-7.2,0.4-7.4
		c-6.9-0.7-18.9,8.3-25.9,14s-8.5,8.9-9.4,14.6c-1,6.1-2.2,9.1-8.6,15c-1.8,1.7-3.9,3.3-5.7,5.2c7.7,0.5,15.9-3.3,22.8-0.2
		c7.5-0.6,11,0.9,14.8,1.9c4.5,1.2,6,3.2,6.6,2.6c2.2-2,2.8-4.3,1.8-5.2c-7.1-6.5-24.4-6.5-24.4-6.5c6.7-5.2,24-0.1,26,0.8
		s3.1,1.6,4.2-0.9c1.2-2.5,1-3.8-0.3-4.9c-8.8-6.4-28.4-3.5-28.4-3.5c8.2-8.1,25.1-7.7,29-6.7c3.9,1,4.5-2.1,5.2-4.8
		S203.4,234.5,197.1,234.1z"/>
	<path class="st2" d="M197.1,234.1c-16.6-0.7-27.7,6.4-27.7,6.4s13.1-13.5,26.6-16.6c2.8-0.6,2.1-7.2,0.4-7.4
		c-6.9-0.7-18.9,8.3-25.9,14s-8.5,8.9-9.4,14.6c-1,6.1-2.2,9.1-8.6,15c-1.8,1.7-3.9,3.3-5.7,5.2c7.7,0.5,15.9-3.3,22.8-0.2
		c7.5-0.6,11,0.9,14.8,1.9c4.5,1.2,6,3.2,6.6,2.6c2.2-2,2.8-4.3,1.8-5.2c-7.1-6.5-24.4-6.5-24.4-6.5c6.7-5.2,24-0.1,26,0.8
		s3.1,1.6,4.2-0.9c1.2-2.5,1-3.8-0.3-4.9c-8.8-6.4-28.4-3.5-28.4-3.5c8.2-8.1,25.1-7.7,29-6.7c3.9,1,4.5-2.1,5.2-4.8
		S203.4,234.5,197.1,234.1z"/>
	<g>
		<path class="st1" d="M193.2,265.1c0.4,1.1-0.3,3-2.2,4.6c-0.6,0.7-2.1-1.3-6.6-2.6c-3.6-1-7-2.4-13.9-2c0.1,0.8,0.2,1.2,0.2,1.2
			l0.3,0.8c8.1-0.7,11.6,0.8,15.6,1.9c4.5,1.2,6,3.2,6.6,2.6c2.2-2,2.8-4.3,1.8-5.2C194.5,265.9,193.9,265.5,193.2,265.1z"/>
		<path class="st1" d="M204.5,236.7c0,0.4,0,0.8-0.2,1.2c-0.8,2.8-1.3,5.8-5.2,4.8c-3.6-0.9-18.3-1.3-27,5c-0.1,0.5-0.3,1-0.4,1.5
			c0.9-0.1,2.2-0.2,3.7-0.3c8.8-5.5,22.4-5.1,25.8-4.2c3.9,1,4.5-2.1,5.2-4.8C206.9,238.1,206.4,237.2,204.5,236.7z"/>
		<path class="st1" d="M200.6,254.9c-0.4-0.3-0.8-0.6-1.3-0.8c0.4,0.9,0.3,2-0.5,3.8c-1.2,2.5-2.2,1.8-4.2,0.9
			c-1.8-0.8-16.5-5.1-24.1-1.9c0,0.4-0.1,0.8-0.1,1.2c1,0,2.2,0.1,3.7,0.3c7.9-2.2,20.9,1.6,22.6,2.4c2,0.9,3.1,1.6,4.2-0.9
			S202,256,200.6,254.9z"/>
	</g>
	<path class="st1" d="M113.1,255.6c-1.4-0.5-2.7-0.9-4.1-1.3c-6.3,10-10.8,20.8-12.7,32.4C99.7,275.3,103.7,263.1,113.1,255.6z"/>
	<path class="st2" d="M193.9,279.3l-23.1-13c-11.8-2.6-22.1,2.4-22.1,2.4c-10.4-2.5-23.7-9.1-31.9-11.9c-1.3-0.4-2.5-0.9-3.7-1.3
		c-9.4,7.5-13.4,19.8-16.8,31.1c-0.2,1.4-0.4,2.8-0.6,4.2c2.3,1.6,4.8,3.3,7.5,5.2c9.8,6.7,22.3,11.6,34.9,15.3
		c21.9,3,44.6,9.2,66.4,2.3c0.3-0.9,0.5-1.9,0.5-2.9L193.9,279.3z"/>
	<path class="st3" d="M107.6,256.5c0.5-0.8,0.9-1.5,1.4-2.3c-6.6-2-13.9-3.5-27.6-4.2c-3.7-0.2-6.8-0.2-9.6-0.1
		c-0.3,0.6-0.6,1.2-0.9,1.8C83.2,250.8,95.9,252.4,107.6,256.5z"/>
	<path d="M70.9,251.8c-3.5,6.9-5.4,14.2-5.6,22.2c1.3,0.2,2.4,0.4,3.5,0.7c6.6,1.7,11.2,5.3,26.9,16.2c1.3-12.1,5.4-23.4,11.6-33.8
		c0.1-0.2,0.2-0.3,0.3-0.5C95.9,252.4,83.2,250.8,70.9,251.8z"/>
	<path class="st1" d="M103.2,296c-2.8-1.9-5.3-3.6-7.5-5.2C80,280,75.4,276.3,68.8,274.6c-0.9-0.2-1.8-0.4-2.8-0.6
		c-1.2,0.1-2.3,0.3-3.2,0.5C59,275.2,57,276,57,276c0.1-1,0.2-1.9,0.3-2.9l0,0c2.2,0.2,4,0.3,5.7,0.5c-5.1-6.2-4.9-14.4-4.8-21.5
		c-1.3,0.5-1.9,0.8-1.9,0.8l0,0c0.9,4.6,1.6,10.7,1.2,17.8c-0.1,0.7-0.2,1.3-0.4,2v0c-0.4,2-0.9,4-2,5.8c4.4-2.1,9-3.5,14-1.6
		c1.1,0.6,2.1,1.3,3.1,2c16.9,10.3,29.4,24.2,48.2,30c1.6-0.6,3.1-1.3,4.6-2C117.1,303.9,109.6,300.3,103.2,296z"/>
	<path class="st8" d="M89.5,64.3c0.8-0.1,1.5-0.1,2.3-0.2c2.8-0.4,5.4-0.9,7.7-1.7c0.1-0.5,0.2-0.9,0.3-1.4
		c-6.4,2.3-12.9,3.3-19.7,3.4c0.2,0,0.3,0,0.5,0C83.6,64.5,86.6,64.5,89.5,64.3z"/>
	<path class="st9" d="M72.7,63.5c0.7,0.1,2.5,0.4,5.1,0.6c0.7,0.1,1.4,0.1,2.2,0.2c6.8-0.1,13.3-1.2,19.7-3.4c0.7-4,0.2-7.2-0.1-8.3
		c-9.6-0.8-19.4-1.4-27.7,3.5C71.9,58.2,72,61.2,72.7,63.5z"/>
	<path class="st10" d="M99.6,52.6c0-0.1,0-0.1,0-0.2c-0.7-0.2-3-0.8-6.4-1.2c-0.6-0.1-1.3-0.1-2-0.1c-1.5-0.1-3.1-0.1-4.6,0
		c-0.6,0-1.3,0.1-2,0.1c-4.1,0.4-8.3,1.2-12.5,2.5c0,0.4-0.1,1.3-0.2,2.4C80.2,51.2,90.1,51.7,99.6,52.6z"/>
	<path class="st1" d="M66.5,63.2L66.5,63.2l4.4-4.4c0-0.4,0-0.8,0-1.1l-4.5,4.7c0,0.2,0.1,0.4,0.1,0.6c-0.4-0.7-0.8-1.4-1.3-2
		c0.9,7.2,2.3,14.3,4.6,21.1c0.5,1.9-1.5,4.9-4.2,4c-0.2-0.2-0.5-0.4-0.8-0.5c1.7,1.7,3.4,2.6,4.8,1.7c0.5-0.3,1-0.8,1.4-1.6
		c0.1-0.2,0.2-0.5,0.4-0.8C69.3,77.8,67.6,70.5,66.5,63.2z"/>
	<path class="st11" d="M70.9,56.9c-1.6,1.6-3.2,3.4-4.6,5.1l0.1,0.6l4.5-4.6C70.9,57.6,70.9,57.3,70.9,56.9z"/>
	<path class="st11" d="M71.9,64.1C71.9,64.1,71.9,64.1,71.9,64.1c0.1,0.2,0.2,0.3,0.4,0.3c0,0,2.2,0.4,5.4,0.7
		c0.8,0.1,1.8,0.1,2.7,0.2c1.4,0.1,2.7,0.1,4,0.1c1.7,0,3.4-0.1,5.1-0.2c0.8-0.1,1.5-0.1,2.3-0.2c3-0.4,5.8-1,8.1-1.9
		c0.2-0.1,0.3-0.2,0.3-0.3c0-0.1,0.1-0.3,0.1-0.4C91.2,65.8,81.1,65,71.9,64.1z"/>
	<path class="st1" d="M91.9,65c-0.8,0.1-1.5,0.2-2.3,0.2c-1.6,0.1-3.3,0.2-5.1,0.2c-1.3,0-2.7,0-4-0.1c-1-0.1-1.9-0.1-2.7-0.2
		c-1.5-0.1-2.7-0.3-3.6-0.4c8.3,3.1,17.3,2.9,25.6-1.4C97.4,64.1,94.7,64.7,91.9,65z"/>
	<path class="st1" d="M147.2,81c-0.2-0.2-0.4-0.6-0.3-1c0,0,0,0,0,0c1.7-7.2,2.7-14.6,3.9-21.8c-0.4,0.4-0.8,0.8-1.1,1.2
		c0-0.2,0-0.4,0.1-0.6l-1.2-0.7c-0.8-0.5-1.6-0.9-2.4-1.5l-3.1-1.9c0,0.4,0.1,0.8,0.1,1.1l6.4,3.8l0.2,0.1
		c-0.8,7.9-2.5,15.7-4.5,23.2c0.2,0.4,0.4,0.8,0.7,1c0.1,0,0.1,0.1,0.2,0.1c1.1,0.7,2.8-0.1,4.6-2.2C149.5,82.1,148.3,82.1,147.2,81
		z"/>
	<path class="st11" d="M143.1,54.5c0,0.3,0,0.5,0,0.8l6.6,3.9l0.1-0.5C147.5,57.6,145.3,55.9,143.1,54.5z"/>
	<path class="st8" d="M129.4,62.8c4.2-0.1,8.3-0.8,12.1-2.1c0.1-0.2,0.1-0.4,0.2-0.8c-6.8,2.2-13.7,2.3-20.9,2.2
		c1.9,0.4,3.9,0.6,5.9,0.7C127.5,62.8,128.4,62.8,129.4,62.8z"/>
	<path class="st9" d="M115.8,60.8c0.4,0.1,1.2,0.4,2.3,0.7c0.6,0.2,1.4,0.3,2.2,0.5c0.2,0,0.3,0.1,0.5,0.1c7.2,0.1,14,0,20.9-2.2
		c0.3-1.4,0.7-4.1,0-7.7c-9.1-1.8-18-1-26.4,1.2C115.1,55,115,58,115.8,60.8z"/>
	<path class="st10" d="M141.7,52.2c0-0.2-0.1-0.4-0.1-0.7c-0.8-0.2-3.5-0.9-7.1-1.2c-0.8-0.1-1.6-0.1-2.4-0.2
		c-1.8-0.1-3.5-0.1-5.1,0c-0.5,0-0.9,0.1-1.4,0.1c-3.7,0.3-7,1-10.1,2.2c0,0.2-0.1,0.6-0.1,1C123.7,51.2,132.6,50.4,141.7,52.2z"/>
	<path class="st11" d="M114.3,53.7c-4.1-3.4-9.5-2.2-13.4,0.4c0,0.2,0.1,0.5,0.1,0.8c6.4-5.1,11.4-2,13.2-0.4
		C114.2,54.2,114.3,53.9,114.3,53.7z"/>
	<g>
		<path class="st1" d="M114.2,54.5c-1.9-1.6-6.9-4.7-13.2,0.4c0-0.1,0-0.2,0-0.2c0,0.2,0,0.4,0,0.6c6.4-5.1,11.3-2,13.2-0.4
			c0-0.2,0-0.4,0-0.6C114.2,54.3,114.2,54.4,114.2,54.5z"/>
		<path class="st1" d="M100,56.1C100,56.1,100,56.1,100,56.1c0-0.2,0-0.4,0-0.6V56.1z"/>
	</g>
	<path class="st12" d="M149.8,58.7l0-0.5l-6.9-4.9c0,0,0,0,0,0c-0.1-0.7-0.2-1.5-0.5-2.3c0-0.2-0.2-0.3-0.3-0.4
		c-0.1,0-3.1-0.9-7.6-1.3c-0.8-0.1-1.6-0.2-2.5-0.2c-1.8-0.1-3.5-0.1-5.2,0c-0.5,0-0.9,0.1-1.4,0.1c-3.9,0.3-7.4,1.1-10.6,2.4
		c-0.2,0.1-0.3,0.2-0.3,0.4c0,0.1-0.1,0.5-0.2,1.1c-1.7-1.1-6.7-3.6-13.6,0.1c-0.1-0.7-0.2-1.2-0.3-1.2c0-0.2-0.2-0.3-0.3-0.3
		c-0.1,0-2.6-0.9-6.9-1.3c-0.6-0.1-1.3-0.1-2.1-0.1c-1.6-0.1-3.2-0.1-4.7,0c-0.6,0-1.3,0.1-2,0.1c-4.3,0.4-8.7,1.3-13,2.7
		c-0.2,0.1-0.3,0.2-0.3,0.4c0,0.1-0.1,1-0.2,2.4l-4.7,5.6l0.1,0.7c1.4-1.7,2.9-3.5,4.6-5.1c0,0,0,0,0,0c0,2.2,0.1,5,0.9,7.2
		c9.3,0.9,19.3,1.6,28.5-1.7c0.8-3.4,0.7-6.4,0.5-8.3c3.9-2.6,9.3-3.8,13.4-0.4c-0.2,1.8-0.2,4.8,0.7,7.6c0,0,0,0,0,0
		c8.9,2.4,18.6,2.4,27.6-0.6c0.3-0.9,0.8-3.2,0.5-6.3v0C145.3,55.9,147.5,57.6,149.8,58.7z M99.4,62.3c-2.2,0.8-4.8,1.4-7.7,1.7
		c-0.8,0.1-1.5,0.2-2.3,0.2c-2.8,0.2-5.9,0.3-9,0.1c-1-0.1-1.9-0.1-2.7-0.2c-2.5-0.2-4.4-0.5-5.1-0.6C71.6,60,72,55,72.1,53.7
		c4.1-1.3,8.3-2.2,12.5-2.5c0.7-0.1,1.3-0.1,2-0.1c1.5-0.1,3.1-0.1,4.6,0c0.7,0,1.4,0.1,2,0.1c3.4,0.3,5.7,0.9,6.4,1.2
		C99.8,53.4,100.6,57.4,99.4,62.3z M141.5,60.7c-3.8,1.3-7.9,2-12.1,2.1c-1,0-1.9,0-2.6,0c-2.2-0.1-4.3-0.4-6.4-0.8
		c-0.8-0.2-1.5-0.3-2.2-0.5c-1.2-0.3-2-0.6-2.3-0.7c-1.1-3.6-0.5-7.4-0.4-8.5c3-1.2,6.4-1.9,10.1-2.2c0.5,0,0.9-0.1,1.4-0.1
		c1.6-0.1,3.3-0.1,5.1,0c0.9,0,1.7,0.1,2.4,0.2c3.6,0.4,6.3,1,7.1,1.2C142.7,56.4,141.8,59.8,141.5,60.7z"/>
	<path class="st11" d="M115,61.4c0.1,0.1,0.2,0.2,0.3,0.3c0,0,1,0.4,2.7,0.8c0.6,0.2,1.4,0.3,2.2,0.5c2.1,0.4,4.3,0.7,6.5,0.8
		c0.5,0,1.1,0,1.8,0c0.3,0,0.6,0,0.9,0c4.4-0.1,8.7-0.8,12.6-2.2c0.1,0,0.2-0.1,0.3-0.3c0,0,0.1-0.2,0.2-0.5
		C133.6,63.8,123.9,63.8,115,61.4z"/>
	<path class="st1" d="M129.4,63.8c-0.3,0-0.6,0-0.9,0c-0.6,0-1.2,0-1.8,0c-2.2-0.1-4.4-0.4-6.5-0.8c-0.8-0.2-1.5-0.3-2.2-0.5
		c7.1,3.4,15.8,3.8,22.7-0.5C137.1,63.1,133.3,63.7,129.4,63.8z"/>
	<path class="st1" d="M114.7,79.2c-0.3-0.5-0.5-1-0.7-1.4c-0.4-0.8-0.7-1.7-1-2.6c-2.3-6.6-2.9-14-3-20.9c-0.3,7-0.2,14.6,2.1,21.2
		c1.1,3.8,3.6,5.5-1.3,7.8c-2.6,1.2-7.2,1.6-9.6-0.3c0.3,0.2-0.6-0.4-0.6-0.4c2.6,4.6,12.3,3.5,14.1-1.4
		C114.7,81.2,115.2,80,114.7,79.2z"/>
</g>
</svg>
