<?xml version="1.0" encoding="utf-8"?>
<!-- Generator: Adobe Illustrator 21.1.0, SVG Export Plug-In . SVG Version: 6.00 Build 0)  -->
<svg version="1.1" id="Vector" xmlns="http://www.w3.org/2000/svg" xmlns:xlink="http://www.w3.org/1999/xlink" x="0px" y="0px"
	 viewBox="0 0 224.4 321.7" style="enable-background:new 0 0 224.4 321.7;" xml:space="preserve">
<style type="text/css">
	.st0{fill:#666666;}
	.st1{fill:#CCB293;}
	.st2{fill:#F0DBBD;}
	.st3{fill:#333333;}
	.st4{fill:#B28B60;}
	.st5{fill:#CCAB81;}
	.st6{fill:#664C12;}
	.st7{fill:#49310A;}
	.st8{fill:#D2E3F7;}
	.st9{fill:#E4EEF9;}
	.st10{fill:#FFFFFF;}
	.st11{fill:#2F3C47;}
	.st12{fill:#49535E;}
</style>
<title>jeremy</title>
<path class="st0" d="M109.9,0c-4.7,0-9.4,0.8-13.9,2.3C87.8,5,80.5,10,74.9,16.7c-1.3,1.6-2.4,3.2-3.5,4.9
	c-4.9,8.2-7.2,18.6-6.8,30.8c0,0.7,0.1,1.3,0.1,2c0.1,1,0.1,1.9,0.2,2.7c0.1,0.7,0.1,1.3,0.2,2c-1.2-1.3-2.8-2.1-4.6-2.2
	c-0.6,0-1.1,0.1-1.7,0.2c-2.3,0.6-4.1,2.4-4.6,4.8c-1.1,4.1,0.9,9.3,1.7,11.3c1.2,2.7,4.7,9.5,8.2,12.9c1.6,1.6,3,2.3,4.3,2.3
	c0.6,0,1.2-0.2,1.7-0.5c0.4-0.2,0.7-0.5,0.9-0.8c1.2,3.8,2.5,7.8,4,11.7c0.7,1.9,1.4,3.8,2.2,5.6c1.7,4.5,3.9,8.8,6.5,12.9
	c0.8,1.1,1.6,2.2,2.4,3.2c0.7,0.8,1.4,1.6,2.2,2.3c0,1,0.1,2,0.1,2.9c0.1,7.7-0.4,15.4-1.6,23c-1.6,0.6-3.2,1.4-4.6,2.3
	c-1.9,1.2-3.8,2.3-5.9,3.2c-13.5,6.1-36.8,10.9-37,10.9c-5.6,1.4-6.7,5.5-9,14.3c-0.4,1.5-0.8,3.1-1.3,4.9
	c-1.7,6-5.8,17.9-10.5,30.3c-5.8,15.3-10.9,27.1-14,32.6c-3.8,6.7-5.4,10.1-4.2,12.1c0.8,1.3,2.4,1.5,3.6,1.5c1.5,0,3-0.2,4.4-0.5
	c-0.2,5.6,0.2,11.3,1.1,16.9c1.1,7.3,2.6,14.6,4.6,21.8c0.5,1.8,0.9,3.6,1.2,5.5c0.1,0.9,0.2,1.8,0.2,2.7c0,7.3,10,9,26.3,11
	c5.8,0.6,11.7,0.9,17.6,0.9c13.7,0,27.5-1.1,41-3.5c7-1.2,13.9-3.1,20.5-5.7c1.4-0.6,2.8-1.2,4.2-1.9c4,1.5,8.3,2.9,12.8,4.2
	c24.6,7.1,50.4,9.3,57,9.3h0.9c4.6-0.1,8.6-3.3,9.9-7.7c0.3-1,0.5-2.1,0.6-3.1v-0.7c0.3-5.4,0.7-12.1,6.3-33.3
	c3.5-13.1,4-27,3.8-36.6c0.5-0.1,0.9-0.3,1.2-0.4l0.6-0.2c3.2-1.2,5.3-2.1,6.1-4c0.8-2.1-0.3-5.1-2.6-9.8
	c-1.8-3.6-4.2-10.3-7.2-19.9c-2.6-8.1-5.5-18.4-8.8-30.3c-3.2-11.5-4-14.6-11.1-15.5c-3.8-0.5-7.5-1.2-11.2-2.2h-0.1
	c-5.6-1.3-11.6-1.6-21.4-1.8c-7.7-0.1-11.1-0.7-19.9-4.9c-1.1-0.5-2.2-1-3.4-1.6c-1.4-0.7-2.8-1.2-4.3-1.6c-1-9.5-1.3-19.1-0.9-28.7
	c0.1-1.8,0.2-3.5,0.3-5.3c1.4-1.9,2.6-4,3.7-6.1c1.4-2.7,2.6-5.5,3.6-8.3c0.6-1.6,1.1-3.2,1.7-4.8c1.1-3.3,2.2-6.7,3.1-10
	c0.4,0.2,0.8,0.3,1.3,0.3c1.4,0,2.9-1,4.5-2.8c1-1.2,1.8-2.5,2.6-3.8c3-5.3,5.7-13.8,5-18.8c-0.1-1.4-0.7-2.6-1.6-3.6
	c-0.7-0.6-1.6-1-2.6-1c-1.5,0.1-2.8,0.7-3.9,1.6c0-0.5,0.1-1,0.1-1.5c0-0.8,0.1-1.7,0.1-2.6c0.4-13.2-2.1-24.4-7.4-33.1
	c-1.3-2.2-2.8-4.2-4.5-6.1c-1.3-1.4-2.7-2.8-4.1-4.1L135,9.2l-0.8-0.7C127.4,3,118.8-0.1,109.9,0z"/>
<path d="M220.6,226.4c-2-4.2-4.6-11.8-7.2-20.1c-3.5-11.1-6.9-23.5-8.8-30.3c-3.2-11.9-4-14-10.3-14.8c-3.8-0.5-7.6-1.2-11.3-2.2
	c-5.8-1.4-12.3-1.6-21.2-1.8c-7.9-0.1-11.5-0.8-20.3-5c-1.1-0.5-2.2-1-3.4-1.6c-1.5-0.7-3.1-1.3-4.7-1.7c0.1,1,0.3,2,0.4,3
	c0.1,0.6,0.2,1.2,0.3,1.9c-1.8,1.3-3.5,2.5-5.2,3.5c-12.8,5.9-27,7.7-40.4,2.2c-0.9-0.6-1.7-1.2-2.4-1.7c0.2-0.7,0.3-1.4,0.5-2.1
	c0.4-2,0.8-4,1.2-6c-1.8,0.6-3.4,1.4-5,2.4c-1.9,1.3-3.9,2.4-6.1,3.3c-13.8,6.2-37.2,11-37.2,11c-5.8,1.5-6.1,6-9.6,18.5
	c-1.7,6-5.9,18.1-10.5,30.4c-5,13.2-10.5,26.6-14,32.8c-6.8,12.1-6.8,13.7,6.2,10.9c0,0,45.5-4.9,53.8-3.8h0.4
	c1.3,8.2,1.3,16.6,1.4,24.8c-1.7,0.4-3.5,0.5-5.2,0.5c-0.3,11.5-0.9,22.9-0.9,22.9l115.9-2.9c0,0-0.6-7.9-0.7-23.1
	c-7.7,0.1-17-4.5-16-8.1c3-10,3-19,6-29c1-1.8,2.6-3.2,4.5-3.9l3.4,1.2c11.5,5,36.2,4.2,42.9,1.6S225.3,236.1,220.6,226.4z"/>
<path class="st1" d="M129,157.2c-12.8,5.9-27,7.7-40.4,2.2C95.9,164.2,109.8,169,129,157.2z"/>
<path class="st2" d="M80.5,64.4c3,0.2,6,0.2,9-0.1c0.8-0.1,1.5-0.2,2.3-0.2c2.6-0.3,5.2-0.9,7.7-1.7c0.8-3.3,0.8-6.7,0.2-9.9
	c-2.1-0.6-4.2-1-6.4-1.2c-0.6-0.1-1.3-0.1-2-0.1c-1.5-0.1-3.1-0.1-4.6,0c-0.6,0-1.3,0.1-2,0.1c-4.2,0.4-8.4,1.2-12.5,2.5
	c-0.1,1.3-0.6,6.2,0.6,9.8c0.7,0.1,2.5,0.4,5.1,0.6C78.7,64.3,79.6,64.3,80.5,64.4z"/>
<path class="st2" d="M149.9,58.8c0.1-1.2,0.2-2.3,0.3-3.5c-9.1-11.6-13.8-25.9-13.4-40.6c-19,6-39.7,5.8-59.7,2.9
	c-0.2,14.1-3.6,27.8-11.2,39.5c0.1,1.8,0.3,3.5,0.6,5.3l4.5-4.7c0-1.5,0.1-2.9,0.2-4.3c0-0.2,0.2-0.4,0.3-0.4
	c4.2-1.4,8.6-2.3,13-2.7c0.7-0.1,1.4-0.1,2-0.1c1.6-0.1,3.2-0.1,4.7,0c0.7,0,1.4,0.1,2.1,0.2c2.3,0.2,4.6,0.6,6.9,1.3
	c0.2,0.1,0.3,0.2,0.3,0.3c0.8,3.5,0.8,7.1-0.1,10.6c-9.3,3.3-19.3,2.6-28.6,1.7c-0.6-1.7-0.9-3.5-0.9-5.4l-4.4,4.4
	c1.8,12.4,5.6,24.8,9.5,35.4c18.8-11.5,44-10.2,65.6-4c3.6-10.5,6.8-22.7,8.1-34.9l-6.8-4v-1.1L149.9,58.8z"/>
<path class="st2" d="M69.8,82c-2.2-6.9-3.7-13.9-4.6-21.1c-1.5-2-3.6-3.5-6.2-2.7c-2,0.5-3.5,2-3.9,4c-0.9,3.4,0.5,7.9,1.7,10.7
	c1,2.3,4.5,9.2,8,12.6c0.3,0.1,0.5,0.3,0.8,0.5c1.7,0.6,3.6-0.3,4.2-2C70,83.4,70,82.7,69.8,82z"/>
<path class="st2" d="M158.1,59.9c-0.1-1.1-0.5-2.2-1.3-3c-1.9-1.7-4.2-0.2-5.9,1.4c-0.9,5.2-1.7,10.7-2.7,16l0.1-0.2l-0.1,0.2
	c-0.4,1.9-0.8,3.9-1.2,5.8c-0.1,0.6,0,0.8,0.3,1c0.9,0.9,2.3,1.2,3.5,0.7c0.9-1.1,1.8-2.4,2.5-3.6C156.2,72.9,158.7,64.6,158.1,59.9
	z"/>
<path class="st3" d="M182.7,190.9c-1.8,15.8-4.6,30.5-11,45c-2.4,0.2-4.8,2.8-5.4,4.1c-3,10-3,19-6,29c-0.9,3.7,8.3,8.2,16,8.1
	c0-0.9,0-1.8,0-2.8c-0.1-17-0.4-36.6,4-55.3C182.6,210,183.4,200.4,182.7,190.9z"/>
<path class="st4" d="M87,120c5,5.8,11.8,9.3,22,8.2c10-1.1,17.3-6.1,22.7-13.1c1.8-2.4,3.4-4.9,4.8-7.6
	C124.5,123.5,104.8,130.3,87,120z"/>
<path class="st1" d="M131.7,115.1c-5.4,7-12.7,12-22.7,13.1c-8.6,0.9-14.8-1.4-19.6-5.7c0,1,0.1,2.1,0.1,3.4
	c1.9,1.9,3.9,3.7,6.1,5.2c13.8,10.3,29,0.7,36.8-11.8c0.1-2.1,0.2-4,0.3-5.6C132.4,114.2,132.1,114.6,131.7,115.1z"/>
<path class="st2" d="M72.3,49c0.5-0.3,0.9-0.7,1.2-1.1C73.1,48.2,72.7,48.6,72.3,49z"/>
<path class="st5" d="M141.7,94.6c-21.6-6.1-46.8-7.5-65.7,4c0.7,1.9,1.4,3.8,2.2,5.6c1.7,4.5,3.8,8.7,6.4,12.7
	c0.7,1.1,1.5,2.1,2.3,3.1c17.8,10.3,37.5,3.6,49.5-12.5c1.4-2.7,2.6-5.4,3.6-8.2C140.6,97.8,141.2,96.2,141.7,94.6z"/>
<path class="st4" d="M134.9,15.2c-14.1,1.6-28.2,3.7-42.3,4C106.9,20.1,121.3,19.2,134.9,15.2z"/>
<path class="st4" d="M148.6,53.2c0.5,0.7,1,1.4,1.6,2.1c0.1-0.9,0.1-1.7,0.1-2.6c-1.4-0.6-2.6-1.4-3.7-2.5
	C147.2,51.2,147.9,52.2,148.6,53.2z"/>
<path class="st4" d="M65.7,54.4c0,0.9,0.1,1.8,0.2,2.7c1.1-1.8,2.2-3.6,3.2-5.4C68.1,52.8,67,53.7,65.7,54.4z"/>
<path class="st5" d="M143,20.1c-1.3-2.1-2.8-4.1-4.4-6c-1.2-1.4-2.6-2.8-4-4c-0.3-0.3-0.6-0.5-0.9-0.8c-11-8.9-25-10.2-37.3-6.1
	c-8.1,2.7-15.3,7.6-20.7,14.1c-1.2,1.5-2.4,3.1-3.4,4.8c-5.3,8.8-7,19.3-6.7,30.2c0,0.7,0.1,1.3,0.1,2c1.3-0.7,2.4-1.6,3.3-2.8
	c4-7.8,6.5-16.2,7.4-24.9c0.4-3.1,0.6-6.1,0.6-9.2c5.1,0.7,10.3,1.3,15.4,1.6c14.1-0.2,28.2-2.4,42.3-4c0.6-0.2,1.3-0.4,1.9-0.6
	c-0.3,12.6,3.1,24.9,9.8,35.5c1.1,1,2.4,1.9,3.7,2.5C150.6,40.9,148.7,29.5,143,20.1z"/>
<path class="st6" d="M136.9,44.8c-3.3-4.6-10.1-11-17.9-1.5C124.8,41.1,131.9,41.2,136.9,44.8z"/>
<path class="st7" d="M118.9,43.3c-0.6,0.7-1.1,1.4-1.7,2.2c0,0,12.1-7.4,21.8,2.9c-0.6-1.2-1.4-2.4-2.2-3.6
	C131.9,41.2,124.8,41.1,118.9,43.3z"/>
<path class="st1" d="M118.3,45c5.8-1.8,11.6-2.2,16.9,0.2C128.1,41,120.9,43.8,118.3,45z"/>
<path class="st7" d="M73.4,46.6c-0.6,1-1,2.1-1.4,3.1c6.2-7.3,17.5-11.9,24.5-2.2c-0.5-1.6-1.3-3.1-2.3-4.4
	C87.5,39.4,79.3,40.6,73.4,46.6z"/>
<path class="st1" d="M75.7,46.2c5.1-3.4,11.5-4.2,17.3-2.1C87.6,40.3,80.9,42.2,75.7,46.2z"/>
<path class="st6" d="M83.6,38.4c-4.4,0.4-8.1,4.2-10.2,8.2c5.9-6,14.1-7.2,20.9-3.5C91.8,39.8,87.8,38,83.6,38.4z"/>
<path class="st1" d="M16.3,304.6c0.1,0.9,0.2,1.9,0.2,2.8c0,6.4,9.5,8,25.4,10c10.4,1.3,35.9,1.5,58.3-2.7
	C71.3,317.8,39.3,321.7,16.3,304.6z"/>
<path class="st2" d="M72.3,279.1c-1-0.7-2-1.4-3.1-2c-5-2-9.6-0.5-14,1.6c1.2-2.4,2-5.1,2.3-7.8c0.4-6.8-0.2-13.6-1.7-20.2
	c-0.1-0.5-0.2-1-0.4-1.5c-15.1-2.2-31.6,1.2-45.8,6.9c-0.1,0.7-0.2,1.5-0.2,2.3c-0.4,6.3-0.1,12.5,1,18.7
	c2.9,18.3,5.2,22.6,5.8,27.3c23.1,17.1,55,13.2,83.9,10.2c6.9-1.2,13.7-3.1,20.3-5.6C101.7,303.3,89.2,289.5,72.3,279.1z"/>
<path class="st1" d="M10.1,253.6c-0.1,0.8-0.3,1.7-0.4,2.6c14.1-5.7,30.6-9.1,45.8-6.9l-0.1-0.4C34.4,246.1,18.4,250.4,10.1,253.6z"
	/>
<path class="st2" d="M86.2,157.7c0.7,0.6,1.5,1.1,2.4,1.7c13.3,5.5,27.6,3.7,40.4-2.2c1.7-1,3.4-2.2,5.2-3.5
	c-0.1-0.6-0.2-1.2-0.3-1.9c-1.7-11.2-1.7-23.6-1.4-32.5c-7.8,12.4-23.1,22.1-36.8,11.8c-2.2-1.6-4.2-3.3-6.1-5.2
	c0.2,10-0.7,20-2.8,29.8C86.5,156.3,86.4,157,86.2,157.7z"/>
<path class="st4" d="M109.9,99.3c-3.6,0.4-7.3,0.5-10.9,0.5c-1.6-0.1-3.2-0.2-4.8-0.4c-0.7-0.1-1.3-0.2-2-0.4
	c0.6,0.2,1.3,0.5,1.9,0.6c1.6,0.4,3.2,0.7,4.8,0.9c3.7,0.5,7.4,0.5,11.1,0.3c3.7-0.4,7.3-1,10.9-2c0.9-0.2,1.8-0.5,2.6-0.7l2.1-0.6
	l1.9-0.6l-2,0.4l-2.1,0.4l-2.6,0.4C117.1,98.6,112.7,99.1,109.9,99.3z"/>
<path class="st4" d="M108.8,105.3c-1.7,0.3-3.4,0.3-5.1,0.1c-0.7-0.1-1.5-0.3-2.2-0.6c-0.3-0.1-0.6-0.2-0.8-0.4
	c0.2,0.2,0.5,0.4,0.8,0.5c0.7,0.4,1.4,0.7,2.1,0.9c1.7,0.5,3.5,0.6,5.3,0.4c0.8-0.1,1.6-0.3,2.4-0.5c0.9-0.3,1.8-0.6,2.7-0.9
	c0.7-0.3,1.4-0.6,2.1-1l0.8-0.4l-0.9,0.3c-0.6,0.2-1.3,0.4-2.2,0.7s-1.8,0.4-2.7,0.6S109.5,105.3,108.8,105.3z"/>
<path class="st1" d="M138.2,311.4c26.7,7.7,53.9,9.5,57.5,9.2c4.2-0.1,7.8-3,9-7C182.8,320.6,160,314.5,138.2,311.4z"/>
<path class="st2" d="M62.8,251.1c-1.6,0.3-3.1,0.7-4.6,1.2c-0.1,7.1-0.3,15.3,4.8,21.5l1.2,0.1l1.1,0.1c0.1-2.5,0.3-4.9,0.8-7.3
	c0.3-5.7,1.5-11.3,3.8-16.5C67.5,250.4,65.1,250.7,62.8,251.1z"/>
<path class="st3" d="M62.8,251.1c0.7-0.1,1.5-0.2,2.3-0.4c-0.8-4-2.1-7.9-3.8-11.6c-5.2-12.6-10.7-26.6-13.1-40.7
	c0,7.8,0.8,19.4,4,28.4c3.5,10,6.8,17.1,8.6,24.7C61.4,251.4,62,251.3,62.8,251.1z"/>
<path class="st1" d="M69.8,250.3c-2.3,5.2-3.5,10.8-3.8,16.5c1-5.8,2.9-11.5,5.8-16.6L69.8,250.3z"/>
<path class="st2" d="M214.8,231.4c-11.6-3.7-23.8-2.9-35.3,1.4c-0.3,0.4-0.7,0.9-1,1.3c-0.2,0.3-0.3,0.5-0.5,0.8
	c-6.1,9.3-8.6,20.5-7.1,31.5l8.4,28.2l25.9,16.2c0.3-5.7,0.5-12,6.3-34.2c4.7-17.9,3.9-37.1,3.4-43.9
	C214.9,232.2,214.8,231.8,214.8,231.4z"/>
<path class="st1" d="M181.2,231c-0.6,0.6-1.2,1.2-1.8,1.9c11.6-4.3,23.7-5.1,35.3-1.4c0-0.4-0.1-0.7-0.1-0.9
	C198.2,225.7,187,228.5,181.2,231z"/>
<path class="st1" d="M146.9,265.5l-0.9,0.9c-0.5,0.6-1.1,1.2-1.6,1.7c-2.3,2.6-4.4,5.3-6.4,8.2h26.4l0.8-10.5
	c1.3-0.2,2.4-0.3,3.5-0.4l1-0.1C162.8,262.2,154.6,266,146.9,265.5z"/>
<path class="st2" d="M197.2,234.2c-16.6-0.7-27.7,6.4-27.7,6.4s13.1-13.5,26.6-16.6c2.8-0.6,2.1-7.2,0.4-7.4
	c-6.9-0.7-18.9,8.3-25.9,14s-8.5,8.9-9.4,14.6c-1,6.1-2.2,9.1-8.6,15.1c-1.8,1.7-3.9,3.3-5.7,5.2c7.7,0.5,15.9-3.3,22.8-0.2
	c7.5-0.6,11,0.9,14.8,1.9c4.5,1.2,6,3.2,6.6,2.6c2.2-2,2.8-4.3,1.8-5.2c-7.1-6.5-24.4-6.5-24.4-6.5c6.7-5.2,24.1-0.1,26.1,0.8
	s3.1,1.6,4.2-0.9s1-3.8-0.3-4.9c-8.8-6.4-28.4-3.5-28.4-3.5c8.2-8.1,25.1-7.7,29-6.7s4.5-2.1,5.2-4.8S203.5,234.6,197.2,234.2z"/>
<path class="st2" d="M197.2,234.2c-16.6-0.7-27.7,6.4-27.7,6.4s13.1-13.5,26.6-16.6c2.8-0.6,2.1-7.2,0.4-7.4
	c-6.9-0.7-18.9,8.3-25.9,14s-8.5,8.9-9.4,14.6c-1,6.1-2.2,9.1-8.6,15.1c-1.8,1.7-3.9,3.3-5.7,5.2c7.7,0.5,15.9-3.3,22.8-0.2
	c7.5-0.6,11,0.9,14.8,1.9c4.5,1.2,6,3.2,6.6,2.6c2.2-2,2.8-4.3,1.8-5.2c-7.1-6.5-24.4-6.5-24.4-6.5c6.7-5.2,24.1-0.1,26.1,0.8
	s3.1,1.6,4.2-0.9s1-3.8-0.3-4.9c-8.8-6.4-28.4-3.5-28.4-3.5c8.2-8.1,25.1-7.7,29-6.7s4.5-2.1,5.2-4.8S203.5,234.6,197.2,234.2z"/>
<path class="st1" d="M193.3,265.2c0.4,1.1-0.3,3-2.2,4.6c-0.6,0.7-2.1-1.3-6.6-2.6c-3.6-1-7-2.4-13.9-2c0.1,0.8,0.2,1.2,0.2,1.2
	l0.2,0.9c8.1-0.7,11.6,0.8,15.6,1.9c4.5,1.2,6,3.2,6.6,2.6c2.2-2,2.8-4.3,1.8-5.2C194.6,266.1,194,265.6,193.3,265.2z"/>
<path class="st1" d="M204.6,236.8c0,0.4,0,0.8-0.2,1.2c-0.8,2.8-1.3,5.8-5.2,4.8c-3.6-0.9-18.3-1.3-27,5c-0.1,0.5-0.3,1-0.4,1.5
	c0.9-0.1,2.2-0.2,3.7-0.3c8.8-5.5,22.4-5.1,25.9-4.2c3.9,1,4.5-2.1,5.2-4.8C207.1,238.3,206.6,237.4,204.6,236.8z"/>
<path class="st1" d="M200.8,255c-0.4-0.3-0.8-0.6-1.3-0.8c0.4,0.9,0.3,2-0.5,3.8c-1.2,2.5-2.2,1.8-4.2,0.9
	c-1.8-0.8-16.5-5.1-24.1-1.9c0,0.4-0.1,0.8-0.1,1.2c1,0,2.2,0.1,3.7,0.3c7.9-2.2,20.9,1.6,22.6,2.4c2,0.9,3.1,1.6,4.2-0.9
	S202.1,256.2,200.8,255z"/>
<path class="st1" d="M113.1,255.7c-1.4-0.5-2.7-0.9-4.1-1.3c-6.4,9.8-10.7,20.9-12.7,32.4C99.8,275.5,103.7,263.2,113.1,255.7z"/>
<path class="st2" d="M194,279.5l-23.1-13c-11.8-2.6-22.1,2.4-22.1,2.4c-10.4-2.5-23.7-9.1-32-11.9l-3.7-1.3
	c-9.4,7.5-13.4,19.8-16.8,31.1c-0.2,1.4-0.4,2.8-0.6,4.2c2.3,1.6,4.8,3.3,7.6,5.2c9.8,6.7,22.3,11.6,34.9,15.3
	c21.9,3,44.6,9.2,66.5,2.3c0.3-0.9,0.5-1.9,0.5-2.9L194,279.5z"/>
<path class="st3" d="M107.6,256.7c0.5-0.8,0.9-1.5,1.4-2.3c-6.6-2-13.9-3.5-27.6-4.2c-3.7-0.2-6.8-0.2-9.6-0.1
	c-0.3,0.6-0.6,1.2-0.9,1.8C83.3,250.9,95.8,252.6,107.6,256.7z"/>
<path d="M70.9,251.9c-3.5,6.9-5.4,14.5-5.6,22.2c1.3,0.2,2.4,0.4,3.5,0.7c6.6,1.7,11.2,5.3,26.9,16.2c1.4-12,5.3-23.5,11.6-33.8
	l0.3-0.5C95.9,252.6,83.4,251,70.9,251.9z"/>
<path class="st1" d="M103.3,296.2c-2.8-1.9-5.3-3.6-7.6-5.2c-15.7-10.9-20.3-14.5-26.9-16.2c-0.9-0.2-1.8-0.4-2.8-0.6
	c-1.2,0.1-2.3,0.3-3.2,0.5c-2,0.3-3.9,0.8-5.8,1.5c0.1-1,0.2-1.9,0.3-2.9l0,0c2.2,0.2,4,0.3,5.7,0.5c-5.1-6.2-4.9-14.4-4.8-21.5
	c-0.7,0.2-1.3,0.5-1.9,0.8l0,0c1.1,5.9,1.5,11.8,1.2,17.8c-0.1,0.7-0.2,1.3-0.4,2l0,0c-0.4,2-1,4-2,5.8c4.5-2.1,9-3.5,14-1.6
	c1.1,0.6,2.1,1.3,3.1,2c16.9,10.3,29.4,24.2,48.3,30c1.6-0.6,3.1-1.3,4.6-2C117.4,304.3,110.1,300.7,103.3,296.2z"/>
<path class="st8" d="M89.5,64.3c0.8-0.1,1.5-0.2,2.3-0.2c2.6-0.3,5.2-0.9,7.7-1.7c0.1-0.5,0.2-0.9,0.3-1.4c-6.4,2.2-13,3.4-19.8,3.4
	h0.5C83.5,64.6,86.5,64.5,89.5,64.3z"/>
<path class="st9" d="M72.8,63.5c0.7,0.1,2.5,0.4,5.1,0.6c0.7,0.1,1.4,0.1,2.2,0.2c6.7,0,13.4-1.2,19.7-3.4c0.5-2.8,0.5-5.6-0.1-8.3
	c-9.6-0.8-19.4-1.4-27.7,3.5C71.9,58.7,72.1,61.1,72.8,63.5z"/>
<path class="st10" d="M99.7,52.6v-0.2c-2.1-0.6-4.2-1-6.4-1.2c-0.6-0.1-1.3-0.1-2-0.1c-1.5-0.1-3.1-0.1-4.6,0c-0.6,0-1.3,0.1-2,0.1
	c-4.2,0.4-8.4,1.2-12.5,2.5c0,0.4-0.1,1.3-0.2,2.4C80.3,51.2,90.1,51.8,99.7,52.6z"/>
<path class="st1" d="M66.6,63.2L66.6,63.2l4.4-4.4c0-0.4,0-0.8,0-1.1l-4.5,4.7c0,0.2,0.1,0.4,0.1,0.6c-0.4-0.7-0.8-1.4-1.3-2
	c0.9,7.1,2.4,14.2,4.6,21c0.5,2-1.5,4.9-4.2,4c-0.2-0.2-0.5-0.4-0.8-0.5c1.7,1.7,3.4,2.6,4.8,1.7c0.6-0.4,1.1-1,1.4-1.7
	c0.1-0.2,0.2-0.5,0.3-0.8C69.3,77.7,67.7,70.5,66.6,63.2z"/>
<path class="st11" d="M71,56.9c-1.6,1.6-3.2,3.3-4.6,5.1l0.1,0.6l4.5-4.6C71,57.7,71,57.3,71,56.9z"/>
<path class="st11" d="M71.9,64.2L71.9,64.2c0.1,0.2,0.2,0.3,0.4,0.3c0,0,2.2,0.4,5.4,0.7c0.8,0.1,1.8,0.2,2.8,0.2
	c1.4,0.1,2.7,0.1,4,0.1c1.8,0,3.4-0.1,5.1-0.2c0.8-0.1,1.5-0.2,2.3-0.2c2.8-0.3,5.5-0.9,8.2-1.9c0.2-0.1,0.3-0.2,0.3-0.3
	c0-0.1,0.1-0.3,0.1-0.4C91.2,65.8,81.2,65.1,71.9,64.2z"/>
<path class="st1" d="M91.9,65.1c-0.8,0.1-1.6,0.2-2.3,0.2c-1.7,0.1-3.3,0.2-5.1,0.2c-1.3,0-2.7,0-4-0.1c-1-0.1-1.9-0.1-2.8-0.2
	c-1.5-0.1-2.7-0.3-3.6-0.4c8.3,3.3,17.6,2.7,25.5-1.4C97.2,64.2,94.6,64.8,91.9,65.1z"/>
<path class="st1" d="M147.3,81c-0.2-0.3-0.4-0.6-0.3-1l0,0c1.7-7.2,2.7-14.7,3.9-21.8c-0.4,0.4-0.8,0.8-1.1,1.2l0.1-0.6l-1.2-0.7
	c-0.8-0.5-1.6-0.9-2.4-1.5l-3.1-1.9c0,0.4,0.1,0.8,0.1,1.1l6.4,3.8l0.2,0.1c-0.9,7.8-2.4,15.6-4.5,23.2c0.2,0.4,0.4,0.7,0.7,1
	c0.1,0,0.1,0.1,0.2,0.1c1.1,0.7,2.8-0.1,4.6-2.2C149.6,82.2,148.2,81.9,147.3,81z"/>
<path class="st11" d="M143.1,54.5c0,0.3,0,0.5,0,0.8l6.6,3.9l0.1-0.5C147.5,57.4,145.3,56,143.1,54.5z"/>
<path class="st8" d="M129.5,62.8c4.1-0.1,8.2-0.8,12.1-2.1c0.1-0.2,0.1-0.4,0.2-0.8c-6.8,2.2-13.7,2.3-20.9,2.2
	c1.9,0.4,3.9,0.6,5.9,0.7C127.6,62.8,128.5,62.8,129.5,62.8z"/>
<path class="st9" d="M115.9,60.8c0.4,0.1,1.2,0.4,2.3,0.7c0.6,0.2,1.3,0.3,2.2,0.5l0.5,0.1c7.2,0.1,14,0,20.9-2.2
	c0.6-2.5,0.6-5.2,0-7.7c-8.8-1.6-17.8-1.2-26.4,1.2C115.1,55.9,115.3,58.4,115.9,60.8z"/>
<path class="st10" d="M141.8,52.2c0-0.2-0.1-0.4-0.1-0.7c-2.3-0.6-4.7-1-7.1-1.2c-0.8-0.1-1.6-0.2-2.4-0.2c-1.7-0.1-3.4-0.1-5.1,0
	l-1.4,0.1c-3.4,0.2-6.8,1-10.1,2.2c0,0.2-0.1,0.6-0.1,1C124,51,133,50.6,141.8,52.2z"/>
<path class="st11" d="M114.3,53.7c-4.1-3.4-9.5-2.2-13.4,0.4c0,0.2,0.1,0.5,0.1,0.8c6.4-5.1,11.4-2,13.2-0.5
	C114.3,54.2,114.3,54,114.3,53.7z"/>
<path class="st1" d="M114.3,54.5c-1.9-1.6-6.9-4.7-13.2,0.5c0-0.1,0-0.2,0-0.2c0,0.2,0,0.4,0,0.6c6.4-5.1,11.3-2,13.2-0.5
	c0-0.2,0-0.4,0-0.6C114.3,54.3,114.3,54.4,114.3,54.5z"/>
<path class="st1" d="M100.1,56.2L100.1,56.2c0-0.2,0-0.4,0-0.6V56.2z"/>
<path class="st12" d="M149.9,58.7v-0.5l-6.9-4.9l0,0c-0.1-0.8-0.3-1.5-0.5-2.3c0-0.2-0.2-0.3-0.4-0.4c-2.5-0.6-5-1.1-7.6-1.3
	c-0.8-0.1-1.6-0.2-2.5-0.2c-1.7-0.1-3.5-0.1-5.2,0l-1.4,0.1c-3.6,0.3-7.2,1.1-10.6,2.4c-0.2,0.1-0.3,0.2-0.3,0.4
	c0,0.1-0.1,0.5-0.2,1.1c-1.7-1.1-6.7-3.6-13.6,0.1c-0.1-0.7-0.2-1.2-0.3-1.2c0-0.2-0.2-0.3-0.3-0.3c-2.2-0.7-4.5-1.1-6.9-1.3
	c-0.7-0.1-1.3-0.1-2.1-0.2c-1.6-0.1-3.2-0.1-4.7,0c-0.7,0-1.3,0.1-2,0.1c-4.4,0.4-8.8,1.3-13,2.7c-0.2,0.1-0.3,0.2-0.3,0.4
	c0,0.1-0.1,1-0.2,2.4l-4.7,5.6l0.1,0.7c1.4-1.8,3-3.5,4.6-5.1l0,0c-0.1,2.4,0.2,4.9,0.9,7.2c9.3,0.9,19.3,1.6,28.6-1.7
	c0.6-2.7,0.8-5.5,0.5-8.3c3.9-2.6,9.3-3.8,13.4-0.4c-0.3,2.6,0,5.2,0.7,7.7l0,0c9.1,2.5,18.7,2.3,27.6-0.6c0.6-2,0.8-4.2,0.5-6.3
	l0,0C145.3,56,147.6,57.4,149.9,58.7z M99.5,62.4c-2.5,0.8-5.1,1.4-7.7,1.7c-0.8,0.1-1.5,0.2-2.3,0.2c-3,0.2-6,0.3-9,0.1
	c-1-0.1-1.9-0.1-2.7-0.2c-2.5-0.2-4.4-0.5-5.1-0.7c-1.1-3.5-0.7-8.5-0.6-9.8c4-1.3,8.2-2.2,12.5-2.5c0.7-0.1,1.3-0.1,2-0.1
	c1.5-0.1,3.1-0.1,4.6,0c0.7,0,1.4,0.1,2,0.1c2.2,0.2,4.3,0.6,6.4,1.2C100.3,55.7,100.3,59.1,99.5,62.4z M141.6,60.7
	c-3.9,1.3-8,2-12.1,2.1c-1,0-1.8,0-2.6,0c-2.2-0.1-4.3-0.3-6.4-0.8c-0.8-0.2-1.6-0.3-2.2-0.5c-1.2-0.3-2-0.6-2.3-0.7
	c-0.7-2.8-0.8-5.6-0.4-8.5c3.2-1.2,6.6-2,10.1-2.2l1.4-0.1c1.7-0.1,3.4-0.1,5.1,0c0.9,0,1.7,0.1,2.4,0.2c2.4,0.2,4.8,0.6,7.1,1.2
	C142.5,54.5,142.4,57.7,141.6,60.7L141.6,60.7z"/>
<path class="st11" d="M115,61.4c0.1,0.1,0.2,0.2,0.3,0.3c0.9,0.3,1.8,0.6,2.7,0.8c0.7,0.2,1.4,0.3,2.2,0.5c2.2,0.4,4.4,0.7,6.6,0.8
	c0.6,0,1.1,0,1.8,0h0.9c4.3-0.1,8.6-0.8,12.6-2.2c0.1,0,0.2-0.1,0.3-0.3c0,0,0.1-0.2,0.2-0.5C133.7,63.7,124.1,63.9,115,61.4z"/>
<path class="st1" d="M129.5,63.8h-0.9c-0.6,0-1.2,0-1.8,0c-2.2-0.1-4.4-0.4-6.6-0.8c-0.8-0.2-1.6-0.3-2.2-0.5
	c7.1,3.4,15.8,3.8,22.7-0.5C137.1,63.2,133.3,63.8,129.5,63.8z"/>
<path class="st1" d="M114.8,79.2c-0.3-0.5-0.5-1-0.7-1.4c-0.4-0.8-0.7-1.7-1-2.6c-2.3-6.6-2.9-14-3-21c-0.3,7-0.2,14.6,2.1,21.3
	c1.1,3.8,3.6,5.5-1.3,7.8c-2.6,1.2-7.2,1.6-9.7-0.3l-0.6-0.4c2.6,4.6,12.3,3.5,14.1-1.4C115.1,80.6,115.1,79.9,114.8,79.2z"/>
</svg>
