<svg id="Layer_1" data-name="Layer 1" xmlns="http://www.w3.org/2000/svg" viewBox="0 0 88 88">
  <defs>
    <style>
      .cls-1 {
        fill: #49310a;
      }

      .cls-2 {
        fill: #483316;
      }
    </style>
  </defs>
  <title>sprite</title>
  <path class="cls-1" d="M19.42,2.83a4.33,4.33,0,0,0,2-2.49,10.62,10.62,0,0,1-2.87,1A4.26,4.26,0,0,0,15.26,0,4.42,4.42,0,0,0,12,1.32,4.35,4.35,0,0,0,10.71,4.5a3.16,3.16,0,0,0,.14,1A12.1,12.1,0,0,1,1.53.81,4.52,4.52,0,0,0,.91,3.07a4.36,4.36,0,0,0,2,3.77,5,5,0,0,1-2-.57,4.48,4.48,0,0,0,1,2.92A4.43,4.43,0,0,0,4.5,10.77a4.84,4.84,0,0,1-1.2.14,2.24,2.24,0,0,1-.81-0.1,4.32,4.32,0,0,0,1.58,2.25A4.46,4.46,0,0,0,6.7,14a8.8,8.8,0,0,1-5.6,1.91,7.67,7.67,0,0,1-1.1,0,12.46,12.46,0,0,0,6.94,2,12.31,12.31,0,0,0,6.94-2A12.44,12.44,0,0,0,18.32,11a13.17,13.17,0,0,0,1.43-6V4.45A9.51,9.51,0,0,0,22,2.1,10,10,0,0,1,19.42,2.83Z" transform="translate(0 0)"/>
  <path class="cls-2" d="M26.89,46.44H22V29.33h4.89V46.44ZM24.44,26.89A2.37,2.37,0,0,1,22,24.59q0-.08,0-0.15A2.37,2.37,0,0,1,24.3,22h0.14a2.37,2.37,0,0,1,2.45,2.29q0,0.08,0,.15a2.37,2.37,0,0,1-2.29,2.45H24.44ZM44,46.44H39.11V36.67a2.44,2.44,0,0,0-2.44-2.44h0a2.37,2.37,0,0,0-2.44,2.3s0,0.09,0,.14v9.78h-4.9V29.33h4.89v3c1-1.32,2.44-3,4.4-3C41.54,29.33,44,32,44,35.44v11Z" transform="translate(0 0)"/>
  <path class="cls-2" d="M55,44a11,11,0,0,0-3.48,21.44,0.55,0.55,0,0,0,.75-0.53V63c-3.06.66-3.71-1.47-3.71-1.47A2.91,2.91,0,0,0,47.35,60c-1-.68.08-0.67,0.08-0.67a2.31,2.31,0,0,1,1.68,1.13,2.34,2.34,0,0,0,3.18.92h0A2.35,2.35,0,0,1,53,59.86c-2.44-.28-5-1.22-5-5.44a4.25,4.25,0,0,1,1.13-3,4,4,0,0,1,.11-2.91s0.92-.3,3,1.13a10.43,10.43,0,0,1,5.51,0c2.1-1.42,3-1.13,3-1.13a4,4,0,0,1,.11,2.91,4.24,4.24,0,0,1,1.13,3c0,4.23-2.57,5.16-5,5.43a2.63,2.63,0,0,1,.75,2v3a0.55,0.55,0,0,0,.76.53A11,11,0,0,0,55,44Z" transform="translate(0 0)"/>
  <path class="cls-2" d="M84.33,66H69.67A3.68,3.68,0,0,0,66,69.67V84.33A3.69,3.69,0,0,0,69.71,88H84.38A3.67,3.67,0,0,0,88,84.33V69.67A3.69,3.69,0,0,0,84.29,66h0ZM69.92,85l-1.66-1.61,5.5-5.5,0.63,0.63ZM69.29,70.27l0.63-.63L77,75.34l7.08-5.7,0.62,0.63L77,79.35ZM84.08,85l-4.47-6.53,0.63-.63,5.5,5.5Z" transform="translate(0 0)"/>
</svg>
