<?xml version="1.0" encoding="utf-8"?>
<!-- Generator: Adobe Illustrator 19.2.1, SVG Export Plug-In . SVG Version: 6.00 Build 0)  -->
<svg version="1.1" id="Layer_1" xmlns="http://www.w3.org/2000/svg" xmlns:xlink="http://www.w3.org/1999/xlink" x="0px" y="0px"
	 viewBox="0 0 312.2 409.5" style="enable-background:new 0 0 312.2 409.5;" xml:space="preserve">
<style type="text/css">
	.st0{fill:#49310A;}
	.st1{fill:#483316;}
	.st2{fill:#666666;}
	.st3{fill:#CCB293;}
	.st4{fill:#F0DBBD;}
	.st5{fill:#333333;}
	.st6{fill:#B28B60;}
	.st7{fill:#CCAB81;}
	.st8{fill:#664C12;}
	.st9{fill:#D2E3F7;}
	.st10{fill:#E4EEF9;}
	.st11{fill:#FFFFFF;}
	.st12{fill:#2F3C47;}
	.st13{fill:#49535E;}
</style>
<title>sprite</title>
<path class="st0" d="M19.4,2.8c1-0.5,1.7-1.4,2-2.5c-0.9,0.5-1.9,0.8-2.9,1c-0.8-0.9-2.1-1.4-3.3-1.3C14,0,12.9,0.4,12,1.3
	c-0.8,0.8-1.3,2-1.3,3.2c0,0.3,0,0.7,0.1,1C7.2,5.4,3.8,3.7,1.5,0.8C1.1,1.5,0.9,2.3,0.9,3.1c0,1.5,0.7,2.9,2,3.8
	c-0.7,0-1.4-0.2-2-0.6c0,1.1,0.3,2.1,1,2.9c0.7,0.8,1.6,1.4,2.6,1.6c-0.4,0.1-0.8,0.1-1.2,0.1c-0.3,0-0.5,0-0.8-0.1
	c0.3,0.9,0.8,1.7,1.6,2.2C4.8,13.6,5.7,14,6.7,14c-1.6,1.3-3.6,1.9-5.6,1.9c-0.4,0-0.7,0-1.1,0c2.1,1.3,4.5,2,6.9,2
	c2.5,0,4.9-0.7,6.9-2c1.9-1.2,3.4-2.9,4.4-4.9c0.9-1.9,1.4-3.9,1.4-6V4.4C20.6,3.8,21.4,3,22,2.1C21.2,2.5,20.3,2.7,19.4,2.8z"/>
<path class="st1" d="M26.9,46.4H22V29.3h4.9V46.4z M24.4,26.9c-1.3,0-2.4-1-2.4-2.3c0,0,0,0,0,0c0-0.1,0-0.1,0-0.1
	c0-1.3,1-2.4,2.3-2.4c0,0,0,0,0,0h0.1c1.3,0,2.4,1,2.4,2.3c0,0,0,0,0,0c0,0.1,0,0.1,0,0.1c0,1.3-1,2.4-2.3,2.4c0,0,0,0,0,0
	C24.6,26.9,24.4,26.9,24.4,26.9z M44,46.4h-4.9v-9.8c0-1.3-1.1-2.4-2.4-2.4l0,0c-1.3,0-2.4,1-2.4,2.3c0,0,0,0,0,0c0,0,0,0.1,0,0.1
	v9.8h-4.9V29.3h4.9v3c1-1.3,2.4-3,4.4-3c2.9,0,5.4,2.7,5.4,6.1V46.4z"/>
<path class="st1" d="M55,44c-6.1,0-11,4.9-11,11c0,4.7,3,9,7.5,10.5c0.3,0.1,0.6,0,0.7-0.3c0-0.1,0-0.1,0-0.2V63
	c-3.1,0.7-3.7-1.5-3.7-1.5c-0.2-0.6-0.6-1.2-1.2-1.5c-1-0.7,0.1-0.7,0.1-0.7c0.7,0.1,1.3,0.5,1.7,1.1c0.6,1.1,2,1.5,3.2,0.9
	c0,0,0,0,0,0l0,0c0-0.6,0.3-1.1,0.7-1.5c-2.4-0.3-5-1.2-5-5.4c0-1.1,0.4-2.2,1.1-3c-0.3-0.9-0.3-2,0.1-2.9c0,0,0.9-0.3,3,1.1
	c1.8-0.5,3.7-0.5,5.5,0c2.1-1.4,3-1.1,3-1.1c0.4,0.9,0.4,2,0.1,2.9c0.8,0.8,1.2,1.9,1.1,3c0,4.2-2.6,5.2-5,5.4
	c0.5,0.5,0.8,1.3,0.8,2v3c0,0.3,0.2,0.6,0.5,0.6c0.1,0,0.2,0,0.2,0c5.7-2,8.8-8.3,6.7-14C63.7,47,59.6,44.1,55,44z"/>
<path class="st1" d="M84.3,66H69.7c-2,0-3.7,1.6-3.7,3.7v14.7c0,2,1.7,3.7,3.7,3.7c0,0,0,0,0,0h14.7c2,0,3.6-1.7,3.6-3.7V69.7
	C88,67.6,86.3,66,84.3,66C84.3,66,84.3,66,84.3,66L84.3,66L84.3,66z M69.9,85l-1.7-1.6l5.5-5.5l0.6,0.6L69.9,85z M69.3,70.3l0.6-0.6
	l7.1,5.7l7.1-5.7l0.6,0.6L77,79.3L69.3,70.3z M84.1,85l-4.5-6.5l0.6-0.6l5.5,5.5L84.1,85z"/>
<g>
	<path class="st2" d="M197.9,88c-4.6,0-9.3,0.8-13.9,2.3c-8.3,2.7-15.8,7.9-21.1,14.4c-1.3,1.6-2.5,3.3-3.5,4.9
		c-4.9,8.2-7.2,18.6-6.8,30.8c0,0.7,0.1,1.3,0.1,2c0.1,1,0.1,1.9,0.2,2.7c0.1,0.6,0.1,1.3,0.2,2c-1.4-1.4-2.9-2.1-4.6-2.1
		c-0.5,0-1.1,0.1-1.7,0.2c-2.4,0.7-4,2.3-4.6,4.7c-1.1,4.1,0.9,9.3,1.7,11.3c1.2,2.7,4.7,9.5,8.2,12.9c1.6,1.6,3,2.3,4.3,2.3
		c0.6,0,1.2-0.2,1.7-0.5c0.3-0.2,0.6-0.5,0.9-0.8c1.2,3.8,2.5,7.7,4,11.6c0.7,1.9,1.4,3.8,2.2,5.6c2.2,5.5,4.2,9.5,6.5,12.9
		c0.7,1.1,1.6,2.2,2.4,3.2c0.7,0.8,1.4,1.6,2.2,2.3c0,1,0.1,2,0.1,2.9c0.1,5.5-0.1,13.9-1.6,23c-1.8,0.7-3.4,1.5-4.6,2.3
		c-1.5,1-3.5,2.1-5.9,3.2c-13.5,6-36.8,10.9-37,10.9c-5.6,1.4-6.7,5.5-9,14.3c-0.4,1.5-0.8,3.1-1.3,4.9c-1.7,6-5.8,17.9-10.5,30.3
		c-5.8,15.3-10.9,27.1-13.9,32.6c-3.8,6.7-5.4,10.1-4.2,12.1c0.8,1.3,2.4,1.5,3.6,1.5c1.1,0,2.5-0.2,4.4-0.5
		c-0.2,5.1,0.1,10.8,1.1,16.9c1.9,11.7,3.5,17.8,4.6,21.8c0.6,2.2,1,3.9,1.2,5.5c0.1,0.9,0.2,1.7,0.2,2.7c0,7.3,10,8.9,26.3,11
		c4.3,0.5,10.7,0.8,17.6,0.8c8.3,0,24.7-0.5,41-3.5c7.9-1.5,14.8-3.4,20.5-5.7c1.4-0.6,2.8-1.2,4.2-1.9c4,1.5,8.3,2.9,12.8,4.2
		c24.6,7.1,50.4,9.3,57,9.3c0.4,0,0.6,0,0.8,0c4.8-0.3,8.5-3.2,9.9-7.7c0.3-1,0.5-2,0.6-3.1l0-0.7c0.3-5.4,0.7-12.1,6.3-33.3
		c3.5-13.1,4-27,3.8-36.5c0.5-0.1,0.9-0.3,1.2-0.4l0.5-0.2c3.2-1.2,5.3-2.1,6.1-4c0.8-2.1-0.3-5.1-2.6-9.8
		c-1.8-3.6-4.2-10.3-7.2-19.9c-2.5-8.1-5.5-18.3-8.8-30.3c-3.2-11.5-4-14.6-11.1-15.5c-6.1-0.7-11.1-2.2-11.2-2.2l0,0l0,0
		c-5.6-1.3-11.6-1.6-21.4-1.8c-7.7-0.1-11.1-0.7-19.9-4.9c-1.1-0.5-2.2-1-3.4-1.6c-1.2-0.6-2.6-1.1-4.3-1.6
		c-1.3-10.4-1.2-21.3-0.9-28.7c0.1-1.8,0.2-3.5,0.3-5.3c1.3-1.9,2.5-3.9,3.7-6.1c1.3-2.6,2.5-5.4,3.6-8.3c0.6-1.6,1.1-3.2,1.7-4.8
		c1.1-3.3,2.2-6.7,3.1-10c0.4,0.2,0.8,0.3,1.3,0.3c1.4,0,2.9-1,4.5-2.9c0.9-1,1.7-2.3,2.6-3.8c3-5.3,5.7-13.8,5-18.8
		c-0.2-1.6-0.8-2.9-1.6-3.6c-0.8-0.7-1.6-1-2.6-1c-1.2,0-2.5,0.6-3.9,1.7c0-0.5,0.1-1,0.1-1.4c0-0.8,0.1-1.7,0.1-2.6
		c0.4-13.2-2.1-24.3-7.4-33.1c-1.4-2.2-2.9-4.3-4.5-6.1c-1.3-1.4-2.7-2.8-4.1-4.1l-0.1-0.1c-0.3-0.2-0.5-0.5-0.8-0.7
		C215.3,91,206.9,88,197.9,88L197.9,88z"/>
	<path d="M308.5,314.2c-2-4.2-4.6-11.8-7.2-20.1c-3.5-11.1-6.9-23.5-8.8-30.3c-3.2-11.9-4-14-10.3-14.8s-11.4-2.2-11.4-2.2
		c-5.8-1.4-12.3-1.6-21.1-1.8c-7.9-0.1-11.5-0.8-20.3-5c-1.1-0.5-2.2-1-3.4-1.6c-1.3-0.6-2.9-1.2-4.7-1.7c0.1,1,0.3,2,0.4,3
		c0.1,0.6,0.2,1.2,0.3,1.9c-1.8,1.3-3.5,2.5-5.2,3.5c-12.8,5.9-27,7.7-40.4,2.2c-0.9-0.6-1.7-1.2-2.4-1.7c0.2-0.7,0.3-1.4,0.5-2.1
		c0.4-2,0.8-4,1.2-6c-1.9,0.7-3.6,1.5-5,2.4c-1.6,1.1-3.7,2.2-6.1,3.3c-13.8,6.2-37.2,11-37.2,11c-5.8,1.5-6.1,6-9.6,18.5
		c-1.7,6-5.9,18.1-10.5,30.4c-5,13.2-10.5,26.6-14,32.8c-6.8,12.1-6.8,13.6,6.2,10.9c0,0,45.5-4.9,53.8-3.8c0.1,0,0.3,0,0.4,0
		c1.3,8.2,1.4,16.6,1.4,24.7c-1.8,0.3-3.5,0.6-5.2,0.5c-0.3,11.5-0.9,22.9-0.9,22.9l115.9-2.9c0,0-0.6-7.9-0.7-23.1
		c-7.7,0.1-16.9-4.4-16-8.1c3-10,3-19,6-29c0.6-1.1,2.4-3.2,4.5-3.9l3.4,1.2c11.5,5,36.1,4.2,42.9,1.6S313.2,324,308.5,314.2z"/>
	<path class="st3" d="M216.9,245.1c-12.8,5.9-27,7.7-40.4,2.2C183.9,252.1,197.7,257,216.9,245.1z"/>
	<g>
		<path class="st4" d="M168.5,152.4c3.1,0.2,6.1,0.1,9-0.1c0.8-0.1,1.5-0.1,2.3-0.2c2.8-0.4,5.4-0.9,7.7-1.7
			c1.2-4.9,0.4-8.9,0.2-9.9c-0.7-0.2-3-0.8-6.4-1.2c-0.6-0.1-1.3-0.1-2-0.1c-1.5-0.1-3.1-0.1-4.6,0c-0.6,0-1.3,0.1-2,0.1
			c-4.1,0.4-8.3,1.2-12.5,2.5c-0.1,1.3-0.6,6.3,0.6,9.8c0.7,0.1,2.5,0.4,5.1,0.6C166.6,152.2,167.5,152.3,168.5,152.4z"/>
		<path class="st4" d="M237.8,146.7c0.1-1.2,0.2-2.3,0.3-3.5c-9.1-11.3-13.8-26.2-13.4-40.6c-19,6-39.7,5.8-59.6,2.9
			c-0.2,14.1-3.6,27.8-11.2,39.5c0.1,1.8,0.3,3.5,0.6,5.3l4.5-4.7c0-2.3,0.2-4.2,0.2-4.3c0-0.2,0.2-0.4,0.3-0.4
			c4.3-1.4,8.7-2.3,13-2.7c0.7-0.1,1.4-0.1,2-0.1c1.6-0.1,3.2-0.1,4.7,0c0.7,0,1.4,0.1,2.1,0.1c4.3,0.4,6.8,1.2,6.9,1.3
			c0.2,0.1,0.3,0.2,0.3,0.3c0.1,0.2,1.3,4.7-0.1,10.6c-9.3,3.3-19.3,2.6-28.5,1.7c-0.6-1.6-0.8-3.6-0.9-5.4l-4.4,4.4
			c1.7,12.4,5.6,24.8,9.5,35.3c18.8-11.5,44-10.2,65.6-4c3.6-10.5,6.8-22.7,8.1-34.9l-6.8-4l0-1.1L237.8,146.7z"/>
	</g>
	<path class="st4" d="M157.8,169.9c-2.2-6.8-3.6-13.9-4.6-21c-1.5-2-3.6-3.5-6.2-2.7c-2.3,0.6-3.4,2.1-3.9,4
		c-0.9,3.4,0.5,7.9,1.7,10.7c1,2.3,4.5,9.2,8,12.6c0.3,0.2,0.5,0.3,0.8,0.5C156.3,174.9,158.5,172.5,157.8,169.9z"/>
	<path class="st4" d="M246,147.8c-0.2-1.3-0.6-2.4-1.3-3c-1.9-1.7-4.2-0.2-5.9,1.4c-0.9,5.2-1.7,10.7-2.7,16c0-0.1,0.1-0.1,0.1-0.2
		c0,0.1-0.1,0.1-0.1,0.2c-0.4,1.9-0.8,3.9-1.2,5.8c-0.2,0.6,0,0.8,0.3,1c1.1,1.1,2.2,1.1,3.5,0.7c0.8-0.9,1.6-2.2,2.5-3.6
		C244.1,160.9,246.7,152.6,246,147.8z"/>
	<path class="st5" d="M270.6,278.8c-1.8,15.8-4.6,30.5-11,45c-2.4,0.3-4.7,2.8-5.4,4.1c-3,10-3,19-6,29c-0.9,3.7,8.3,8.2,16,8.1
		c0-0.9,0-1.8,0-2.7c-0.1-17-0.4-36.6,4-55.2C271.3,293.8,271,283.6,270.6,278.8z"/>
	<path class="st6" d="M175,207.9c5,5.8,11.8,9.3,22,8.2c10-1.1,17.3-6.1,22.7-13.1c1.8-2.3,3.4-4.9,4.8-7.6
		C212.4,211.5,192.7,218.3,175,207.9z"/>
	<path class="st3" d="M219.7,203c-5.4,7-12.7,12-22.7,13.1c-8.6,0.9-14.8-1.4-19.6-5.7c0,1,0.1,2.1,0.1,3.4c2,2.1,4.2,3.8,6.1,5.2
		c13.7,10.3,29,0.7,36.8-11.7c0.1-2.1,0.2-4,0.3-5.6C220.4,202.1,220,202.6,219.7,203z"/>
	<path class="st4" d="M160.2,137c0.5-0.3,0.9-0.7,1.2-1.1C161,136.2,160.6,136.6,160.2,137z"/>
	<path class="st7" d="M229.6,182.5c-21.6-6.1-46.8-7.5-65.6,4c0.7,1.9,1.4,3.8,2.2,5.6c1.8,4.6,3.9,9,6.4,12.7
		c0.7,1.1,1.5,2.1,2.4,3.1c17.8,10.3,37.4,3.5,49.5-12.5c1.4-2.6,2.5-5.4,3.6-8.2C228.5,185.7,229.1,184.1,229.6,182.5z"/>
	<path class="st6" d="M222.8,103.2c-14.1,1.6-28.2,3.7-42.3,4C194.8,108.1,209.2,107.2,222.8,103.2z"/>
	<path class="st6" d="M236.5,141.2c0.5,0.7,1,1.4,1.6,2.1c0.1-0.9,0.1-1.7,0.1-2.6c-1.3-0.5-2.5-1.4-3.7-2.5
		C235.1,139.2,235.8,140.2,236.5,141.2z"/>
	<path class="st6" d="M153.7,142.4c0,0.9,0.1,1.8,0.2,2.7c1.2-1.8,2.2-3.6,3.2-5.4C156.1,140.7,155,141.7,153.7,142.4z"/>
	<path class="st7" d="M230.9,108.1c-1.3-2.1-2.7-4.1-4.4-6c-1.2-1.4-2.6-2.7-4-4c-0.3-0.3-0.6-0.5-0.9-0.8
		c-11-8.9-24.9-10.2-37.2-6.1c-8,2.7-15.4,7.6-20.7,14.1c-1.2,1.5-2.4,3.1-3.4,4.8c-5.3,8.8-7,19.3-6.7,30.2c0,0.7,0.1,1.3,0.1,2
		c1.4-0.7,2.5-1.7,3.4-2.7c4-7.7,6.4-16.1,7.4-24.9c0.4-3,0.6-6.1,0.6-9.2c5.1,0.7,10.3,1.3,15.4,1.6c14.1-0.2,28.2-2.4,42.3-4
		c0.6-0.2,1.3-0.4,1.9-0.6c-0.4,12.3,3.1,25,9.8,35.5c1.2,1.1,2.4,1.9,3.7,2.5C238.5,128.9,236.6,117.5,230.9,108.1z"/>
	<path class="st8" d="M224.8,132.8c-3.3-4.6-10.1-11-17.9-1.5C212.8,129.1,219.8,129.2,224.8,132.8z"/>
	<path class="st0" d="M206.9,131.3c-0.5,0.7-1.1,1.4-1.6,2.2c0,0,12.1-7.4,21.8,2.9c0,0-0.8-1.6-2.2-3.6
		C219.8,129.2,212.8,129.1,206.9,131.3z"/>
	<path class="st3" d="M206.2,133c5.8-1.8,11.6-2.2,16.9,0.2C216.1,129,208.8,131.7,206.2,133z"/>
	<path class="st0" d="M161.3,134.6c-0.6,1.1-1,2.1-1.4,3.1c6.2-7.3,17.5-11.9,24.5-2.2c-0.5-1.6-1.3-3.1-2.3-4.4
		C175.4,127.4,167.3,128.6,161.3,134.6z"/>
	<path class="st3" d="M163.7,134.2c5.1-3.3,11.4-4.3,17.3-2.1C175.6,128.3,168.9,130.2,163.7,134.2z"/>
	<path class="st8" d="M171.6,126.4c-4.4,0.4-8.1,4.2-10.2,8.2c5.9-6,14.1-7.2,20.8-3.5C179.8,127.9,176.2,126,171.6,126.4z"/>
	<path class="st3" d="M104.3,392.4c0.1,0.9,0.2,1.8,0.2,2.8c0,6.4,9.5,8,25.4,10c10.4,1.3,35.9,1.5,58.3-2.7
		C159.3,405.6,127.3,409.5,104.3,392.4z"/>
	<path class="st4" d="M160.2,367c-1-0.7-2-1.4-3.1-2c-5-2-9.6-0.5-14,1.6c1.4-2.5,1.9-5.2,2.3-7.8c0.5-8.3-0.6-15.4-1.7-20.2
		c-0.1-0.5-0.2-1-0.4-1.5c-15.1-2.2-31.6,1.2-45.7,6.9c-0.1,0.7-0.2,1.5-0.2,2.3c-0.4,4.7-0.3,10.9,1,18.7
		c2.9,18.3,5.2,22.6,5.8,27.3c23,17.1,55,13.2,83.9,10.2c7.3-1.4,14.3-3.2,20.3-5.6C189.6,391.2,177.1,377.3,160.2,367z"/>
	<path class="st3" d="M98.1,341.4c-0.2,0.8-0.3,1.7-0.4,2.7c14.1-5.7,30.6-9.1,45.7-6.9c0-0.1-0.1-0.3-0.1-0.4
		C122.4,334,106.3,338.3,98.1,341.4z"/>
	<path class="st4" d="M174.2,245.6c0.7,0.6,1.5,1.1,2.4,1.7c13.3,5.5,27.6,3.7,40.4-2.2c1.7-1,3.4-2.2,5.2-3.5
		c-0.1-0.6-0.2-1.2-0.3-1.9c-1.7-11.2-1.7-23.5-1.4-32.5c-7.8,12.4-23,22.1-36.8,11.7c-2-1.5-4.1-3.2-6.1-5.2
		c0.1,7.1-0.2,18.2-2.8,29.7C174.5,244.2,174.3,244.9,174.2,245.6z"/>
	<path class="st6" d="M197.9,187.2c-2.7,0.3-7.1,0.6-10.9,0.4c-1.9-0.1-3.6-0.3-4.8-0.4c-1.2-0.2-2-0.4-2-0.4s0.7,0.3,1.9,0.6
		c1.2,0.3,2.9,0.7,4.8,0.9c3.8,0.5,8.3,0.5,11.1,0.3c2.8-0.2,7.2-1,10.9-2c0.9-0.2,1.8-0.5,2.6-0.7c0.8-0.2,1.5-0.5,2.1-0.6
		c1.2-0.4,1.9-0.6,1.9-0.6s-0.8,0.1-2,0.4c-0.6,0.1-1.3,0.3-2.1,0.4c-0.8,0.1-1.7,0.3-2.6,0.4C205,186.6,200.6,187,197.9,187.2z"/>
	<path class="st6" d="M196.8,193.3c-1.3,0.2-3.3,0.3-5.1,0.1c-0.9-0.1-1.6-0.3-2.2-0.6c-0.5-0.2-0.9-0.4-0.9-0.4s0.3,0.2,0.8,0.5
		c0.5,0.3,1.3,0.6,2.1,0.9c1.8,0.5,4,0.6,5.3,0.4c0.7-0.1,1.5-0.3,2.4-0.5c0.9-0.3,1.8-0.6,2.6-0.9c0.8-0.3,1.6-0.7,2.1-1
		c0.5-0.3,0.8-0.4,0.8-0.4s-0.3,0.1-0.9,0.3c-0.6,0.2-1.3,0.4-2.2,0.7c-0.8,0.3-1.8,0.4-2.7,0.6
		C198.2,193.1,197.4,193.2,196.8,193.3z"/>
	<path class="st3" d="M226.1,399.3c26.7,7.7,53.8,9.5,57.5,9.2c4.4-0.3,7.7-2.9,9-6.9C270.7,408.5,248,402.3,226.1,399.3z"/>
	<path class="st4" d="M150.8,339c-2,0.4-3.5,0.8-4.6,1.2c-0.1,7.1-0.3,15.2,4.8,21.5c0.4,0,0.8,0.1,1.2,0.1c0.4,0,0.7,0.1,1.1,0.1
		c0.1-2.5,0.3-4.9,0.8-7.3c0.2-5.7,1.6-11.3,3.8-16.5C154.9,338.3,152.6,338.6,150.8,339z"/>
	<path class="st5" d="M150.8,339c0.7-0.1,1.5-0.2,2.3-0.4c-0.9-4-2.1-7.9-3.8-11.6c-5.2-12.6-10.6-26.5-13.1-40.7
		c0.1,7.8,0.7,19.4,3.9,28.4c3.6,10,6.8,17.1,8.6,24.7C149.3,339.3,150,339.1,150.8,339z"/>
	<path class="st3" d="M157.8,338.1c-2.2,5.2-3.5,10.8-3.8,16.5c1-5.9,2.9-11.4,5.8-16.6C159.1,338,158.4,338.1,157.8,338.1z"/>
	<path class="st4" d="M302.7,319.3c-11.6-3.7-23.7-2.9-35.3,1.4c-0.3,0.4-0.7,0.9-1,1.3c-0.2,0.3-0.3,0.5-0.5,0.8
		c-10.2,15.7-7.1,31.5-7.1,31.5l8.4,28.2l25.8,16.2c0.3-5.7,0.5-12,6.3-34.2c4.7-17.8,3.9-37.1,3.4-43.9
		C302.7,320.1,302.7,319.7,302.7,319.3z"/>
	<path class="st3" d="M269.1,318.8c-0.6,0.6-1.2,1.2-1.8,1.9c11.6-4.3,23.7-5.1,35.3-1.4c0-0.4-0.1-0.7-0.1-0.9
		C286.1,313.6,274.9,316.4,269.1,318.8z"/>
	<path class="st3" d="M234.8,353.4c-0.3,0.3-0.6,0.6-0.9,0.9c-0.5,0.6-1.1,1.2-1.6,1.7c-3.7,4.3-6.4,8.2-6.4,8.2h26.3l0.8-10.5
		c1.3-0.2,2.4-0.3,3.5-0.4c0.3,0,0.7-0.1,1-0.1C250.7,350.1,242.5,353.9,234.8,353.4z"/>
	<path class="st4" d="M285.1,322.1c-16.6-0.7-27.7,6.4-27.7,6.4s13.1-13.5,26.6-16.6c2.8-0.6,2.1-7.2,0.4-7.4
		c-6.9-0.7-18.9,8.3-25.9,14s-8.5,8.9-9.4,14.6c-1,6.1-2.2,9.1-8.6,15c-1.8,1.7-3.9,3.3-5.7,5.2c7.7,0.5,15.9-3.3,22.8-0.2
		c7.5-0.6,11,0.9,14.8,1.9c4.5,1.2,6,3.2,6.6,2.6c2.2-2,2.8-4.3,1.8-5.2c-7.1-6.5-24.4-6.5-24.4-6.5c6.7-5.2,24-0.1,26,0.8
		s3.1,1.6,4.2-0.9c1.2-2.5,1-3.8-0.3-4.9c-8.8-6.4-28.4-3.5-28.4-3.5c8.2-8.1,25.1-7.7,29-6.7c3.9,1,4.5-2.1,5.2-4.8
		S291.4,322.5,285.1,322.1z"/>
	<path class="st4" d="M285.1,322.1c-16.6-0.7-27.7,6.4-27.7,6.4s13.1-13.5,26.6-16.6c2.8-0.6,2.1-7.2,0.4-7.4
		c-6.9-0.7-18.9,8.3-25.9,14s-8.5,8.9-9.4,14.6c-1,6.1-2.2,9.1-8.6,15c-1.8,1.7-3.9,3.3-5.7,5.2c7.7,0.5,15.9-3.3,22.8-0.2
		c7.5-0.6,11,0.9,14.8,1.9c4.5,1.2,6,3.2,6.6,2.6c2.2-2,2.8-4.3,1.8-5.2c-7.1-6.5-24.4-6.5-24.4-6.5c6.7-5.2,24-0.1,26,0.8
		s3.1,1.6,4.2-0.9c1.2-2.5,1-3.8-0.3-4.9c-8.8-6.4-28.4-3.5-28.4-3.5c8.2-8.1,25.1-7.7,29-6.7c3.9,1,4.5-2.1,5.2-4.8
		S291.4,322.5,285.1,322.1z"/>
	<g>
		<path class="st3" d="M281.2,353.1c0.4,1.1-0.3,3-2.2,4.6c-0.6,0.7-2.1-1.3-6.6-2.6c-3.6-1-7-2.4-13.9-2c0.1,0.8,0.2,1.2,0.2,1.2
			l0.3,0.8c8.1-0.7,11.6,0.8,15.6,1.9c4.5,1.2,6,3.2,6.6,2.6c2.2-2,2.8-4.3,1.8-5.2C282.5,353.9,281.9,353.5,281.2,353.1z"/>
		<path class="st3" d="M292.5,324.7c0,0.4,0,0.8-0.2,1.2c-0.8,2.8-1.3,5.8-5.2,4.8c-3.6-0.9-18.3-1.3-27,5c-0.1,0.5-0.3,1-0.4,1.5
			c0.9-0.1,2.2-0.2,3.7-0.3c8.8-5.5,22.4-5.1,25.8-4.2c3.9,1,4.5-2.1,5.2-4.8C294.9,326.1,294.4,325.2,292.5,324.7z"/>
		<path class="st3" d="M288.6,342.9c-0.4-0.3-0.8-0.6-1.3-0.8c0.4,0.9,0.3,2-0.5,3.8c-1.2,2.5-2.2,1.8-4.2,0.9
			c-1.8-0.8-16.5-5.1-24.1-1.9c0,0.4-0.1,0.8-0.1,1.2c1,0,2.2,0.1,3.7,0.3c7.9-2.2,20.9,1.6,22.6,2.4c2,0.9,3.1,1.6,4.2-0.9
			S290,344,288.6,342.9z"/>
	</g>
	<path class="st3" d="M201.1,343.6c-1.4-0.5-2.7-0.9-4.1-1.3c-6.3,10-10.8,20.8-12.7,32.4C187.7,363.3,191.7,351.1,201.1,343.6z"/>
	<path class="st4" d="M281.9,367.3l-23.1-13c-11.8-2.6-22.1,2.4-22.1,2.4c-10.4-2.5-23.7-9.1-31.9-11.9c-1.3-0.4-2.5-0.9-3.7-1.3
		c-9.4,7.5-13.4,19.8-16.8,31.1c-0.2,1.4-0.4,2.8-0.6,4.2c2.3,1.6,4.8,3.3,7.5,5.2c9.8,6.7,22.3,11.6,34.9,15.3
		c21.9,3,44.6,9.2,66.4,2.3c0.3-0.9,0.5-1.9,0.5-2.9L281.9,367.3z"/>
	<path class="st5" d="M195.6,344.5c0.5-0.8,0.9-1.5,1.4-2.3c-6.6-2-13.9-3.5-27.6-4.2c-3.7-0.2-6.8-0.2-9.6-0.1
		c-0.3,0.6-0.6,1.2-0.9,1.8C171.2,338.8,183.9,340.4,195.6,344.5z"/>
	<path d="M158.9,339.8c-3.5,6.9-5.4,14.2-5.6,22.2c1.3,0.2,2.4,0.4,3.5,0.7c6.6,1.7,11.2,5.3,26.9,16.2c1.3-12.1,5.4-23.4,11.6-33.8
		c0.1-0.2,0.2-0.3,0.3-0.5C183.9,340.4,171.2,338.8,158.9,339.8z"/>
	<path class="st3" d="M191.2,384c-2.8-1.9-5.3-3.6-7.5-5.2c-15.7-10.9-20.2-14.5-26.9-16.2c-0.9-0.2-1.8-0.4-2.8-0.6
		c-1.2,0.1-2.3,0.3-3.2,0.5c-3.7,0.7-5.8,1.4-5.8,1.4c0.1-1,0.2-1.9,0.3-2.9l0,0c2.2,0.2,4,0.3,5.7,0.5c-5.1-6.2-4.9-14.4-4.8-21.5
		c-1.3,0.5-1.9,0.8-1.9,0.8l0,0c0.9,4.6,1.6,10.7,1.2,17.8c-0.1,0.7-0.2,1.3-0.4,2v0c-0.4,2-0.9,4-2,5.8c4.4-2.1,9-3.5,14-1.6
		c1.1,0.6,2.1,1.3,3.1,2c16.9,10.3,29.4,24.2,48.2,30c1.6-0.6,3.1-1.3,4.6-2C205.1,391.9,197.6,388.3,191.2,384z"/>
	<path class="st9" d="M177.5,152.3c0.8-0.1,1.5-0.1,2.3-0.2c2.8-0.4,5.4-0.9,7.7-1.7c0.1-0.5,0.2-0.9,0.3-1.4
		c-6.4,2.3-12.9,3.3-19.7,3.4c0.2,0,0.3,0,0.5,0C171.6,152.5,174.6,152.5,177.5,152.3z"/>
	<path class="st10" d="M160.7,151.5c0.7,0.1,2.5,0.4,5.1,0.6c0.7,0.1,1.4,0.1,2.2,0.2c6.8-0.1,13.3-1.2,19.7-3.4
		c0.7-4,0.2-7.2-0.1-8.3c-9.6-0.8-19.4-1.4-27.7,3.5C159.9,146.2,160,149.2,160.7,151.5z"/>
	<path class="st11" d="M187.6,140.6c0-0.1,0-0.1,0-0.2c-0.7-0.2-3-0.8-6.4-1.2c-0.6-0.1-1.3-0.1-2-0.1c-1.5-0.1-3.1-0.1-4.6,0
		c-0.6,0-1.3,0.1-2,0.1c-4.1,0.4-8.3,1.2-12.5,2.5c0,0.4-0.1,1.3-0.2,2.4C168.2,139.2,178.1,139.7,187.6,140.6z"/>
	<path class="st3" d="M154.5,151.2L154.5,151.2l4.4-4.4c0-0.4,0-0.8,0-1.1l-4.5,4.7c0,0.2,0.1,0.4,0.1,0.6c-0.4-0.7-0.8-1.4-1.3-2
		c0.9,7.2,2.3,14.3,4.6,21.1c0.5,1.9-1.5,4.9-4.2,4c-0.2-0.2-0.5-0.4-0.8-0.5c1.7,1.7,3.4,2.6,4.8,1.7c0.5-0.3,1-0.8,1.4-1.6
		c0.1-0.2,0.2-0.5,0.4-0.8C157.3,165.8,155.6,158.5,154.5,151.2z"/>
	<path class="st12" d="M158.9,144.9c-1.6,1.6-3.2,3.4-4.6,5.1l0.1,0.6l4.5-4.6C158.9,145.6,158.9,145.3,158.9,144.9z"/>
	<path class="st12" d="M159.9,152.1C159.9,152.1,159.9,152.1,159.9,152.1c0.1,0.2,0.2,0.3,0.4,0.3c0,0,2.2,0.4,5.4,0.7
		c0.8,0.1,1.8,0.1,2.7,0.2c1.4,0.1,2.7,0.1,4,0.1c1.7,0,3.4-0.1,5.1-0.2c0.8-0.1,1.5-0.1,2.3-0.2c3-0.4,5.8-1,8.1-1.9
		c0.2-0.1,0.3-0.2,0.3-0.3c0-0.1,0.1-0.3,0.1-0.4C179.2,153.8,169.1,153,159.9,152.1z"/>
	<path class="st3" d="M179.9,153c-0.8,0.1-1.5,0.2-2.3,0.2c-1.6,0.1-3.3,0.2-5.1,0.2c-1.3,0-2.7,0-4-0.1c-1-0.1-1.9-0.1-2.7-0.2
		c-1.5-0.1-2.7-0.3-3.6-0.4c8.3,3.1,17.3,2.9,25.6-1.4C185.4,152.1,182.7,152.7,179.9,153z"/>
	<path class="st3" d="M235.2,169c-0.2-0.2-0.4-0.6-0.3-1c0,0,0,0,0,0c1.7-7.2,2.7-14.6,3.9-21.8c-0.4,0.4-0.8,0.8-1.1,1.2
		c0-0.2,0-0.4,0.1-0.6l-1.2-0.7c-0.8-0.5-1.6-0.9-2.4-1.5l-3.1-1.9c0,0.4,0.1,0.8,0.1,1.1l6.4,3.8l0.2,0.1
		c-0.8,7.9-2.5,15.7-4.5,23.2c0.2,0.4,0.4,0.8,0.7,1c0.1,0,0.1,0.1,0.2,0.1c1.1,0.7,2.8-0.1,4.6-2.2
		C237.5,170.1,236.3,170.1,235.2,169z"/>
	<path class="st12" d="M231.1,142.5c0,0.3,0,0.5,0,0.8l6.6,3.9l0.1-0.5C235.5,145.6,233.3,143.9,231.1,142.5z"/>
	<path class="st9" d="M217.4,150.8c4.2-0.1,8.3-0.8,12.1-2.1c0.1-0.2,0.1-0.4,0.2-0.8c-6.8,2.2-13.7,2.3-20.9,2.2
		c1.9,0.4,3.9,0.6,5.9,0.7C215.5,150.8,216.4,150.8,217.4,150.8z"/>
	<path class="st10" d="M203.8,148.8c0.4,0.1,1.2,0.4,2.3,0.7c0.6,0.2,1.4,0.3,2.2,0.5c0.2,0,0.3,0.1,0.5,0.1c7.2,0.1,14,0,20.9-2.2
		c0.3-1.4,0.7-4.1,0-7.7c-9.1-1.8-18-1-26.4,1.2C203.1,143,203,146,203.8,148.8z"/>
	<path class="st11" d="M229.7,140.2c0-0.2-0.1-0.4-0.1-0.7c-0.8-0.2-3.5-0.9-7.1-1.2c-0.8-0.1-1.6-0.1-2.4-0.2
		c-1.8-0.1-3.5-0.1-5.1,0c-0.5,0-0.9,0.1-1.4,0.1c-3.7,0.3-7,1-10.1,2.2c0,0.2-0.1,0.6-0.1,1C211.7,139.2,220.6,138.4,229.7,140.2z"
		/>
	<path class="st12" d="M202.3,141.7c-4.1-3.4-9.5-2.2-13.4,0.4c0,0.2,0.1,0.5,0.1,0.8c6.4-5.1,11.4-2,13.2-0.4
		C202.2,142.2,202.3,141.9,202.3,141.7z"/>
	<g>
		<path class="st3" d="M202.2,142.5c-1.9-1.6-6.9-4.7-13.2,0.4c0-0.1,0-0.2,0-0.2c0,0.2,0,0.4,0,0.6c6.4-5.1,11.3-2,13.2-0.4
			c0-0.2,0-0.4,0-0.6C202.2,142.3,202.2,142.4,202.2,142.5z"/>
		<path class="st3" d="M188,144.1C188,144.1,188,144.1,188,144.1c0-0.2,0-0.4,0-0.6V144.1z"/>
	</g>
	<path class="st13" d="M237.8,146.7l0-0.5l-6.9-4.9c0,0,0,0,0,0c-0.1-0.7-0.2-1.5-0.5-2.3c0-0.2-0.2-0.3-0.3-0.4
		c-0.1,0-3.1-0.9-7.6-1.3c-0.8-0.1-1.6-0.2-2.5-0.2c-1.8-0.1-3.5-0.1-5.2,0c-0.5,0-0.9,0.1-1.4,0.1c-3.9,0.3-7.4,1.1-10.6,2.4
		c-0.2,0.1-0.3,0.2-0.3,0.4c0,0.1-0.1,0.5-0.2,1.1c-1.7-1.1-6.7-3.6-13.6,0.1c-0.1-0.7-0.2-1.2-0.3-1.2c0-0.2-0.2-0.3-0.3-0.3
		c-0.1,0-2.6-0.9-6.9-1.3c-0.6-0.1-1.3-0.1-2.1-0.1c-1.6-0.1-3.2-0.1-4.7,0c-0.6,0-1.3,0.1-2,0.1c-4.3,0.4-8.7,1.3-13,2.7
		c-0.2,0.1-0.3,0.2-0.3,0.4c0,0.1-0.1,1-0.2,2.4l-4.7,5.6l0.1,0.7c1.4-1.7,2.9-3.5,4.6-5.1c0,0,0,0,0,0c0,2.2,0.1,5,0.9,7.2
		c9.3,0.9,19.3,1.6,28.5-1.7c0.8-3.4,0.7-6.4,0.5-8.3c3.9-2.6,9.3-3.8,13.4-0.4c-0.2,1.8-0.2,4.8,0.7,7.6c0,0,0,0,0,0
		c8.9,2.4,18.6,2.4,27.6-0.6c0.3-0.9,0.8-3.2,0.5-6.3v0C233.3,143.9,235.5,145.6,237.8,146.7z M187.4,150.3
		c-2.2,0.8-4.8,1.4-7.7,1.7c-0.8,0.1-1.5,0.2-2.3,0.2c-2.8,0.2-5.9,0.3-9,0.1c-1-0.1-1.9-0.1-2.7-0.2c-2.5-0.2-4.4-0.5-5.1-0.6
		c-1.1-3.5-0.7-8.5-0.6-9.8c4.1-1.3,8.3-2.2,12.5-2.5c0.7-0.1,1.3-0.1,2-0.1c1.5-0.1,3.1-0.1,4.6,0c0.7,0,1.4,0.1,2,0.1
		c3.4,0.3,5.7,0.9,6.4,1.2C187.8,141.4,188.6,145.4,187.4,150.3z M229.5,148.7c-3.8,1.3-7.9,2-12.1,2.1c-1,0-1.9,0-2.6,0
		c-2.2-0.1-4.3-0.4-6.4-0.8c-0.8-0.2-1.5-0.3-2.2-0.5c-1.2-0.3-2-0.6-2.3-0.7c-1.1-3.6-0.5-7.4-0.4-8.5c3-1.2,6.4-1.9,10.1-2.2
		c0.5,0,0.9-0.1,1.4-0.1c1.6-0.1,3.3-0.1,5.1,0c0.9,0,1.7,0.1,2.4,0.2c3.6,0.4,6.3,1,7.1,1.2C230.7,144.4,229.8,147.8,229.5,148.7z"
		/>
	<path class="st12" d="M203,149.4c0.1,0.1,0.2,0.2,0.3,0.3c0,0,1,0.4,2.7,0.8c0.6,0.2,1.4,0.3,2.2,0.5c2.1,0.4,4.3,0.7,6.5,0.8
		c0.5,0,1.1,0,1.8,0c0.3,0,0.6,0,0.9,0c4.4-0.1,8.7-0.8,12.6-2.2c0.1,0,0.2-0.1,0.3-0.3c0,0,0.1-0.2,0.2-0.5
		C221.6,151.8,211.9,151.8,203,149.4z"/>
	<path class="st3" d="M217.4,151.8c-0.3,0-0.6,0-0.9,0c-0.6,0-1.2,0-1.8,0c-2.2-0.1-4.4-0.4-6.5-0.8c-0.8-0.2-1.5-0.3-2.2-0.5
		c7.1,3.4,15.8,3.8,22.7-0.5C225.1,151.1,221.3,151.7,217.4,151.8z"/>
	<path class="st3" d="M202.7,167.2c-0.3-0.5-0.5-1-0.7-1.4c-0.4-0.8-0.7-1.7-1-2.6c-2.3-6.6-2.9-14-3-20.9c-0.3,7-0.2,14.6,2.1,21.2
		c1.1,3.8,3.6,5.5-1.3,7.8c-2.6,1.2-7.2,1.6-9.6-0.3c0.3,0.2-0.6-0.4-0.6-0.4c2.6,4.6,12.3,3.5,14.1-1.4
		C202.7,169.2,203.2,168,202.7,167.2z"/>
</g>
</svg>
