<?xml version="1.0" encoding="utf-8"?>
<!-- Generator: Adobe Illustrator 21.1.0, SVG Export Plug-In . SVG Version: 6.00 Build 0)  -->
<svg version="1.1" id="Layer_1" xmlns="http://www.w3.org/2000/svg" xmlns:xlink="http://www.w3.org/1999/xlink" x="0px" y="0px"
	 viewBox="0 0 312.2 409.5" style="enable-background:new 0 0 312.2 409.5;" xml:space="preserve">
<style type="text/css">
	.st0{fill:#49310A;}
	.st1{fill:#483316;}
	.st2{fill:#666666;}
	.st3{fill:#CCB293;}
	.st4{fill:#F0DBBD;}
	.st5{fill:#333333;}
	.st6{fill:#B28B60;}
	.st7{fill:#CCAB81;}
	.st8{fill:#664C12;}
	.st9{fill:#D2E3F7;}
	.st10{fill:#E4EEF9;}
	.st11{fill:#FFFFFF;}
	.st12{fill:#2F3C47;}
	.st13{fill:#49535E;}
</style>
<title>sprite</title>
<path class="st0" d="M19.4,2.8c1-0.5,1.7-1.4,2-2.5c-0.9,0.5-1.9,0.8-2.9,1c-0.8-0.9-2.1-1.4-3.3-1.3C14,0,12.9,0.4,12,1.3
	c-0.8,0.8-1.3,2-1.3,3.2c0,0.3,0,0.7,0.1,1c-3.6-0.1-7-1.8-9.3-4.7C1.1,1.5,0.9,2.3,0.9,3.1c0,1.5,0.7,2.9,2,3.8
	c-0.7,0-1.4-0.2-2-0.6c0,1.1,0.3,2.1,1,2.9s1.6,1.4,2.6,1.6c-0.4,0.1-0.8,0.1-1.2,0.1c-0.3,0-0.5,0-0.8-0.1c0.3,0.9,0.8,1.7,1.6,2.2
	c0.7,0.6,1.6,1,2.6,1c-1.6,1.3-3.6,1.9-5.6,1.9c-0.4,0-0.7,0-1.1,0c2.1,1.3,4.5,2,6.9,2c2.5,0,4.9-0.7,6.9-2
	c1.9-1.2,3.4-2.9,4.4-4.9c0.9-1.9,1.4-3.9,1.4-6V4.4c1-0.6,1.8-1.4,2.4-2.3C21.2,2.5,20.3,2.7,19.4,2.8z"/>
<path class="st1" d="M55.1,44C49,44,44,49,44,55.1c0,4.8,3,9.1,7.6,10.6c0.3,0.1,0.6,0,0.7-0.3c0-0.1,0-0.1,0-0.2v-2
	c-3.1,0.7-3.7-1.5-3.7-1.5c-0.2-0.6-0.6-1.2-1.2-1.5c-1-0.7,0.1-0.7,0.1-0.7c0.7,0.1,1.3,0.5,1.7,1.1c0.6,1.1,2,1.5,3.2,0.9l0,0l0,0
	c0-0.6,0.3-1.1,0.7-1.5c-2.4-0.3-5.1-1.2-5.1-5.5c0-1.1,0.4-2.2,1.1-3c-0.3-0.9-0.3-2,0.1-2.9c0,0,0.9-0.3,3,1.1
	c1.8-0.5,3.7-0.5,5.6,0c2.1-1.4,3-1.1,3-1.1c0.4,0.9,0.4,2,0.1,2.9c0.8,0.8,1.2,1.9,1.1,3c0,4.2-2.6,5.3-5.1,5.5
	c0.5,0.5,0.8,1.3,0.8,2v3c0,0.3,0.2,0.6,0.5,0.6c0.1,0,0.2,0,0.2,0c5.8-2,8.9-8.4,6.8-14.2C63.9,47,59.8,44.1,55.1,44z"/>
<path class="st1" d="M84.3,66H69.7c-2,0-3.7,1.6-3.7,3.7v14.6c0,2,1.7,3.7,3.7,3.7l0,0h14.7c2,0,3.6-1.7,3.6-3.7V69.7
	C88,67.6,86.3,66,84.3,66L84.3,66L84.3,66L84.3,66z M69.9,84.9l-1.7-1.6l5.5-5.5l0.6,0.6L69.9,84.9z M69.3,70.3l0.6-0.6l7.1,5.7
	l7.1-5.7l0.6,0.6l-7.7,9L69.3,70.3z M84.1,84.9l-4.5-6.5l0.6-0.6l5.5,5.5L84.1,84.9z"/>
<path class="st2" d="M197.7,88.2c-4.6,0-9.3,0.8-13.9,2.3c-8.3,2.7-15.8,7.9-21.1,14.4c-1.3,1.6-2.5,3.3-3.5,4.9
	c-4.9,8.2-7.2,18.6-6.8,30.8c0,0.7,0.1,1.3,0.1,2c0.1,1,0.1,1.9,0.2,2.7c0.1,0.6,0.1,1.3,0.2,2c-1.4-1.4-2.9-2.1-4.6-2.1
	c-0.5,0-1.1,0.1-1.7,0.2c-2.4,0.7-4,2.3-4.6,4.7c-1.1,4.1,0.9,9.3,1.7,11.3c1.2,2.7,4.7,9.5,8.2,12.9c1.6,1.6,3,2.3,4.3,2.3
	c0.6,0,1.2-0.2,1.7-0.5c0.3-0.2,0.6-0.5,0.9-0.8c1.2,3.8,2.5,7.7,4,11.6c0.7,1.9,1.4,3.8,2.2,5.6c2.2,5.5,4.2,9.5,6.5,12.9
	c0.7,1.1,1.6,2.2,2.4,3.2c0.7,0.8,1.4,1.6,2.2,2.3c0,1,0.1,2,0.1,2.9c0.1,5.5-0.1,13.9-1.6,23c-1.8,0.7-3.4,1.5-4.6,2.3
	c-1.5,1-3.5,2.1-5.9,3.2c-13.5,6-36.8,10.9-37,10.9c-5.6,1.4-6.7,5.5-9,14.3c-0.4,1.5-0.8,3.1-1.3,4.9c-1.7,6-5.8,17.9-10.5,30.3
	c-5.8,15.3-10.9,27.1-13.9,32.6c-3.8,6.7-5.4,10.1-4.2,12.1c0.8,1.3,2.4,1.5,3.6,1.5c1.1,0,2.5-0.2,4.4-0.5
	c-0.2,5.1,0.1,10.8,1.1,16.9c1.9,11.7,3.5,17.8,4.6,21.8c0.6,2.2,1,3.9,1.2,5.5c0.1,0.9,0.2,1.7,0.2,2.7c0,7.3,10,8.9,26.3,11
	c4.3,0.5,10.7,0.8,17.6,0.8c8.3,0,24.7-0.5,41-3.5c7.9-1.5,14.8-3.4,20.5-5.7c1.4-0.6,2.8-1.2,4.2-1.9c4,1.5,8.3,2.9,12.8,4.2
	c24.6,7.1,50.4,9.3,57,9.3c0.4,0,0.6,0,0.8,0c4.8-0.3,8.5-3.2,9.9-7.7c0.3-1,0.5-2,0.6-3.1V398c0.3-5.4,0.7-12.1,6.3-33.3
	c3.5-13.1,4-27,3.8-36.5c0.5-0.1,0.9-0.3,1.2-0.4l0.5-0.2c3.2-1.2,5.3-2.1,6.1-4c0.8-2.1-0.3-5.1-2.6-9.8
	c-1.8-3.6-4.2-10.3-7.2-19.9c-2.5-8.1-5.5-18.3-8.8-30.3c-3.2-11.5-4-14.6-11.1-15.5c-6.1-0.7-11.1-2.2-11.2-2.2l0,0l0,0
	c-5.6-1.3-11.6-1.6-21.4-1.8c-7.7-0.1-11.1-0.7-19.9-4.9c-1.1-0.5-2.2-1-3.4-1.6s-2.6-1.1-4.3-1.6c-1.3-10.4-1.2-21.3-0.9-28.7
	c0.1-1.8,0.2-3.5,0.3-5.3c1.3-1.9,2.5-3.9,3.7-6.1c1.3-2.6,2.5-5.4,3.6-8.3c0.6-1.6,1.1-3.2,1.7-4.8c1.1-3.3,2.2-6.7,3.1-10
	c0.4,0.2,0.8,0.3,1.3,0.3c1.4,0,2.9-1,4.5-2.9c0.9-1,1.7-2.3,2.6-3.8c3-5.3,5.7-13.8,5-18.8c-0.2-1.6-0.8-2.9-1.6-3.6
	c-0.8-0.7-1.6-1-2.6-1c-1.2,0-2.5,0.6-3.9,1.7c0-0.5,0.1-1,0.1-1.4c0-0.8,0.1-1.7,0.1-2.6c0.4-13.2-2.1-24.3-7.4-33.1
	c-1.4-2.2-2.9-4.3-4.5-6.1c-1.3-1.4-2.7-2.8-4.1-4.1l-0.1-0.1c-0.3-0.2-0.5-0.5-0.8-0.7C215.1,91.2,206.7,88.2,197.7,88.2
	L197.7,88.2z"/>
<path d="M308.3,314.4c-2-4.2-4.6-11.8-7.2-20.1c-3.5-11.1-6.9-23.5-8.8-30.3c-3.2-11.9-4-14-10.3-14.8s-11.4-2.2-11.4-2.2
	c-5.8-1.4-12.3-1.6-21.1-1.8c-7.9-0.1-11.5-0.8-20.3-5c-1.1-0.5-2.2-1-3.4-1.6c-1.3-0.6-2.9-1.2-4.7-1.7c0.1,1,0.3,2,0.4,3
	c0.1,0.6,0.2,1.2,0.3,1.9c-1.8,1.3-3.5,2.5-5.2,3.5c-12.8,5.9-27,7.7-40.4,2.2c-0.9-0.6-1.7-1.2-2.4-1.7c0.2-0.7,0.3-1.4,0.5-2.1
	c0.4-2,0.8-4,1.2-6c-1.9,0.7-3.6,1.5-5,2.4c-1.6,1.1-3.7,2.2-6.1,3.3c-13.8,6.2-37.2,11-37.2,11c-5.8,1.5-6.1,6-9.6,18.5
	c-1.7,6-5.9,18.1-10.5,30.4c-5,13.2-10.5,26.6-14,32.8c-6.8,12.1-6.8,13.6,6.2,10.9c0,0,45.5-4.9,53.8-3.8c0.1,0,0.3,0,0.4,0
	c1.3,8.2,1.4,16.6,1.4,24.7c-1.8,0.3-3.5,0.6-5.2,0.5c-0.3,11.5-0.9,22.9-0.9,22.9l115.9-2.9c0,0-0.6-7.9-0.7-23.1
	c-7.7,0.1-16.9-4.4-16-8.1c3-10,3-19,6-29c0.6-1.1,2.4-3.2,4.5-3.9l3.4,1.2c11.5,5,36.1,4.2,42.9,1.6S313,324.2,308.3,314.4z"/>
<path class="st3" d="M216.7,245.3c-12.8,5.9-27,7.7-40.4,2.2C183.7,252.3,197.5,257.2,216.7,245.3z"/>
<path class="st4" d="M168.3,152.6c3.1,0.2,6.1,0.1,9-0.1c0.8-0.1,1.5-0.1,2.3-0.2c2.8-0.4,5.4-0.9,7.7-1.7c1.2-4.9,0.4-8.9,0.2-9.9
	c-0.7-0.2-3-0.8-6.4-1.2c-0.6-0.1-1.3-0.1-2-0.1c-1.5-0.1-3.1-0.1-4.6,0c-0.6,0-1.3,0.1-2,0.1c-4.1,0.4-8.3,1.2-12.5,2.5
	c-0.1,1.3-0.6,6.3,0.6,9.8c0.7,0.1,2.5,0.4,5.1,0.6C166.4,152.4,167.3,152.5,168.3,152.6z"/>
<path class="st4" d="M237.6,146.9c0.1-1.2,0.2-2.3,0.3-3.5c-9.1-11.3-13.8-26.2-13.4-40.6c-19,6-39.7,5.8-59.6,2.9
	c-0.2,14.1-3.6,27.8-11.2,39.5c0.1,1.8,0.3,3.5,0.6,5.3l4.5-4.7c0-2.3,0.2-4.2,0.2-4.3c0-0.2,0.2-0.4,0.3-0.4
	c4.3-1.4,8.7-2.3,13-2.7c0.7-0.1,1.4-0.1,2-0.1c1.6-0.1,3.2-0.1,4.7,0c0.7,0,1.4,0.1,2.1,0.1c4.3,0.4,6.8,1.2,6.9,1.3
	c0.2,0.1,0.3,0.2,0.3,0.3c0.1,0.2,1.3,4.7-0.1,10.6c-9.3,3.3-19.3,2.6-28.5,1.7c-0.6-1.6-0.8-3.6-0.9-5.4l-4.4,4.4
	c1.7,12.4,5.6,24.8,9.5,35.3c18.8-11.5,44-10.2,65.6-4c3.6-10.5,6.8-22.7,8.1-34.9l-6.8-4v-1.1L237.6,146.9z"/>
<path class="st4" d="M157.6,170.1c-2.2-6.8-3.6-13.9-4.6-21c-1.5-2-3.6-3.5-6.2-2.7c-2.3,0.6-3.4,2.1-3.9,4
	c-0.9,3.4,0.5,7.9,1.7,10.7c1,2.3,4.5,9.2,8,12.6c0.3,0.2,0.5,0.3,0.8,0.5C156.1,175.1,158.3,172.7,157.6,170.1z"/>
<path class="st4" d="M245.8,148c-0.2-1.3-0.6-2.4-1.3-3c-1.9-1.7-4.2-0.2-5.9,1.4c-0.9,5.2-1.7,10.7-2.7,16c0-0.1,0.1-0.1,0.1-0.2
	c0,0.1-0.1,0.1-0.1,0.2c-0.4,1.9-0.8,3.9-1.2,5.8c-0.2,0.6,0,0.8,0.3,1c1.1,1.1,2.2,1.1,3.5,0.7c0.8-0.9,1.6-2.2,2.5-3.6
	C243.9,161.1,246.5,152.8,245.8,148z"/>
<path class="st5" d="M270.4,279c-1.8,15.8-4.6,30.5-11,45c-2.4,0.3-4.7,2.8-5.4,4.1c-3,10-3,19-6,29c-0.9,3.7,8.3,8.2,16,8.1
	c0-0.9,0-1.8,0-2.7c-0.1-17-0.4-36.6,4-55.2C271.1,294,270.8,283.8,270.4,279z"/>
<path class="st6" d="M174.8,208.1c5,5.8,11.8,9.3,22,8.2c10-1.1,17.3-6.1,22.7-13.1c1.8-2.3,3.4-4.9,4.8-7.6
	C212.2,211.7,192.5,218.5,174.8,208.1z"/>
<path class="st3" d="M219.5,203.2c-5.4,7-12.7,12-22.7,13.1c-8.6,0.9-14.8-1.4-19.6-5.7c0,1,0.1,2.1,0.1,3.4c2,2.1,4.2,3.8,6.1,5.2
	c13.7,10.3,29,0.7,36.8-11.7c0.1-2.1,0.2-4,0.3-5.6C220.2,202.3,219.8,202.8,219.5,203.2z"/>
<path class="st4" d="M160,137.2c0.5-0.3,0.9-0.7,1.2-1.1C160.8,136.4,160.4,136.8,160,137.2z"/>
<path class="st7" d="M229.4,182.7c-21.6-6.1-46.8-7.5-65.6,4c0.7,1.9,1.4,3.8,2.2,5.6c1.8,4.6,3.9,9,6.4,12.7
	c0.7,1.1,1.5,2.1,2.4,3.1c17.8,10.3,37.4,3.5,49.5-12.5c1.4-2.6,2.5-5.4,3.6-8.2C228.3,185.9,228.9,184.3,229.4,182.7z"/>
<path class="st6" d="M222.6,103.4c-14.1,1.6-28.2,3.7-42.3,4C194.6,108.3,209,107.4,222.6,103.4z"/>
<path class="st6" d="M236.3,141.4c0.5,0.7,1,1.4,1.6,2.1c0.1-0.9,0.1-1.7,0.1-2.6c-1.3-0.5-2.5-1.4-3.7-2.5
	C234.9,139.4,235.6,140.4,236.3,141.4z"/>
<path class="st6" d="M153.5,142.6c0,0.9,0.1,1.8,0.2,2.7c1.2-1.8,2.2-3.6,3.2-5.4C155.9,140.9,154.8,141.9,153.5,142.6z"/>
<path class="st7" d="M230.7,108.3c-1.3-2.1-2.7-4.1-4.4-6c-1.2-1.4-2.6-2.7-4-4c-0.3-0.3-0.6-0.5-0.9-0.8
	c-11-8.9-24.9-10.2-37.2-6.1c-8,2.7-15.4,7.6-20.7,14.1c-1.2,1.5-2.4,3.1-3.4,4.8c-5.3,8.8-7,19.3-6.7,30.2c0,0.7,0.1,1.3,0.1,2
	c1.4-0.7,2.5-1.7,3.4-2.7c4-7.7,6.4-16.1,7.4-24.9c0.4-3,0.6-6.1,0.6-9.2c5.1,0.7,10.3,1.3,15.4,1.6c14.1-0.2,28.2-2.4,42.3-4
	c0.6-0.2,1.3-0.4,1.9-0.6c-0.4,12.3,3.1,25,9.8,35.5c1.2,1.1,2.4,1.9,3.7,2.5C238.3,129.1,236.4,117.7,230.7,108.3z"/>
<path class="st8" d="M224.6,133c-3.3-4.6-10.1-11-17.9-1.5C212.6,129.3,219.6,129.4,224.6,133z"/>
<path class="st0" d="M206.7,131.5c-0.5,0.7-1.1,1.4-1.6,2.2c0,0,12.1-7.4,21.8,2.9c0,0-0.8-1.6-2.2-3.6
	C219.6,129.4,212.6,129.3,206.7,131.5z"/>
<path class="st3" d="M206,133.2c5.8-1.8,11.6-2.2,16.9,0.2C215.9,129.2,208.6,131.9,206,133.2z"/>
<path class="st0" d="M161.1,134.8c-0.6,1.1-1,2.1-1.4,3.1c6.2-7.3,17.5-11.9,24.5-2.2c-0.5-1.6-1.3-3.1-2.3-4.4
	C175.2,127.6,167.1,128.8,161.1,134.8z"/>
<path class="st3" d="M163.5,134.4c5.1-3.3,11.4-4.3,17.3-2.1C175.4,128.5,168.7,130.4,163.5,134.4z"/>
<path class="st8" d="M171.4,126.6c-4.4,0.4-8.1,4.2-10.2,8.2c5.9-6,14.1-7.2,20.8-3.5C179.6,128.1,176,126.2,171.4,126.6z"/>
<path class="st3" d="M104.1,392.6c0.1,0.9,0.2,1.8,0.2,2.8c0,6.4,9.5,8,25.4,10c10.4,1.3,35.9,1.5,58.3-2.7
	C159.1,405.8,127.1,409.7,104.1,392.6z"/>
<path class="st4" d="M160,367.2c-1-0.7-2-1.4-3.1-2c-5-2-9.6-0.5-14,1.6c1.4-2.5,1.9-5.2,2.3-7.8c0.5-8.3-0.6-15.4-1.7-20.2
	c-0.1-0.5-0.2-1-0.4-1.5c-15.1-2.2-31.6,1.2-45.7,6.9c-0.1,0.7-0.2,1.5-0.2,2.3c-0.4,4.7-0.3,10.9,1,18.7
	c2.9,18.3,5.2,22.6,5.8,27.3c23,17.1,55,13.2,83.9,10.2c7.3-1.4,14.3-3.2,20.3-5.6C189.4,391.4,176.9,377.5,160,367.2z"/>
<path class="st3" d="M97.9,341.6c-0.2,0.8-0.3,1.7-0.4,2.7c14.1-5.7,30.6-9.1,45.7-6.9c0-0.1-0.1-0.3-0.1-0.4
	C122.2,334.2,106.1,338.5,97.9,341.6z"/>
<path class="st4" d="M174,245.8c0.7,0.6,1.5,1.1,2.4,1.7c13.3,5.5,27.6,3.7,40.4-2.2c1.7-1,3.4-2.2,5.2-3.5
	c-0.1-0.6-0.2-1.2-0.3-1.9c-1.7-11.2-1.7-23.5-1.4-32.5c-7.8,12.4-23,22.1-36.8,11.7c-2-1.5-4.1-3.2-6.1-5.2
	c0.1,7.1-0.2,18.2-2.8,29.7C174.3,244.4,174.1,245.1,174,245.8z"/>
<path class="st6" d="M197.7,187.4c-2.7,0.3-7.1,0.6-10.9,0.4c-1.9-0.1-3.6-0.3-4.8-0.4c-1.2-0.2-2-0.4-2-0.4s0.7,0.3,1.9,0.6
	s2.9,0.7,4.8,0.9c3.8,0.5,8.3,0.5,11.1,0.3s7.2-1,10.9-2c0.9-0.2,1.8-0.5,2.6-0.7s1.5-0.5,2.1-0.6c1.2-0.4,1.9-0.6,1.9-0.6
	s-0.8,0.1-2,0.4c-0.6,0.1-1.3,0.3-2.1,0.4c-0.8,0.1-1.7,0.3-2.6,0.4C204.8,186.8,200.4,187.2,197.7,187.4z"/>
<path class="st6" d="M196.6,193.5c-1.3,0.2-3.3,0.3-5.1,0.1c-0.9-0.1-1.6-0.3-2.2-0.6c-0.5-0.2-0.9-0.4-0.9-0.4s0.3,0.2,0.8,0.5
	s1.3,0.6,2.1,0.9c1.8,0.5,4,0.6,5.3,0.4c0.7-0.1,1.5-0.3,2.4-0.5c0.9-0.3,1.8-0.6,2.6-0.9c0.8-0.3,1.6-0.7,2.1-1s0.8-0.4,0.8-0.4
	s-0.3,0.1-0.9,0.3c-0.6,0.2-1.3,0.4-2.2,0.7c-0.8,0.3-1.8,0.4-2.7,0.6C198,193.3,197.2,193.4,196.6,193.5z"/>
<path class="st3" d="M225.9,399.5c26.7,7.7,53.8,9.5,57.5,9.2c4.4-0.3,7.7-2.9,9-6.9C270.5,408.7,247.8,402.5,225.9,399.5z"/>
<path class="st4" d="M150.6,339.2c-2,0.4-3.5,0.8-4.6,1.2c-0.1,7.1-0.3,15.2,4.8,21.5c0.4,0,0.8,0.1,1.2,0.1s0.7,0.1,1.1,0.1
	c0.1-2.5,0.3-4.9,0.8-7.3c0.2-5.7,1.6-11.3,3.8-16.5C154.7,338.5,152.4,338.8,150.6,339.2z"/>
<path class="st5" d="M150.6,339.2c0.7-0.1,1.5-0.2,2.3-0.4c-0.9-4-2.1-7.9-3.8-11.6c-5.2-12.6-10.6-26.5-13.1-40.7
	c0.1,7.8,0.7,19.4,3.9,28.4c3.6,10,6.8,17.1,8.6,24.7C149.1,339.5,149.8,339.3,150.6,339.2z"/>
<path class="st3" d="M157.6,338.3c-2.2,5.2-3.5,10.8-3.8,16.5c1-5.9,2.9-11.4,5.8-16.6C158.9,338.2,158.2,338.3,157.6,338.3z"/>
<path class="st4" d="M302.5,319.5c-11.6-3.7-23.7-2.9-35.3,1.4c-0.3,0.4-0.7,0.9-1,1.3c-0.2,0.3-0.3,0.5-0.5,0.8
	c-10.2,15.7-7.1,31.5-7.1,31.5l8.4,28.2l25.8,16.2c0.3-5.7,0.5-12,6.3-34.2c4.7-17.8,3.9-37.1,3.4-43.9
	C302.5,320.3,302.5,319.9,302.5,319.5z"/>
<path class="st3" d="M268.9,319c-0.6,0.6-1.2,1.2-1.8,1.9c11.6-4.3,23.7-5.1,35.3-1.4c0-0.4-0.1-0.7-0.1-0.9
	C285.9,313.8,274.7,316.6,268.9,319z"/>
<path class="st3" d="M234.6,353.6c-0.3,0.3-0.6,0.6-0.9,0.9c-0.5,0.6-1.1,1.2-1.6,1.7c-3.7,4.3-6.4,8.2-6.4,8.2H252l0.8-10.5
	c1.3-0.2,2.4-0.3,3.5-0.4c0.3,0,0.7-0.1,1-0.1C250.5,350.3,242.3,354.1,234.6,353.6z"/>
<path class="st4" d="M284.9,322.3c-16.6-0.7-27.7,6.4-27.7,6.4s13.1-13.5,26.6-16.6c2.8-0.6,2.1-7.2,0.4-7.4
	c-6.9-0.7-18.9,8.3-25.9,14c-7,5.7-8.5,8.9-9.4,14.6c-1,6.1-2.2,9.1-8.6,15c-1.8,1.7-3.9,3.3-5.7,5.2c7.7,0.5,15.9-3.3,22.8-0.2
	c7.5-0.6,11,0.9,14.8,1.9c4.5,1.2,6,3.2,6.6,2.6c2.2-2,2.8-4.3,1.8-5.2c-7.1-6.5-24.4-6.5-24.4-6.5c6.7-5.2,24-0.1,26,0.8
	s3.1,1.6,4.2-0.9c1.2-2.5,1-3.8-0.3-4.9c-8.8-6.4-28.4-3.5-28.4-3.5c8.2-8.1,25.1-7.7,29-6.7s4.5-2.1,5.2-4.8
	S291.2,322.7,284.9,322.3z"/>
<path class="st4" d="M284.9,322.3c-16.6-0.7-27.7,6.4-27.7,6.4s13.1-13.5,26.6-16.6c2.8-0.6,2.1-7.2,0.4-7.4
	c-6.9-0.7-18.9,8.3-25.9,14c-7,5.7-8.5,8.9-9.4,14.6c-1,6.1-2.2,9.1-8.6,15c-1.8,1.7-3.9,3.3-5.7,5.2c7.7,0.5,15.9-3.3,22.8-0.2
	c7.5-0.6,11,0.9,14.8,1.9c4.5,1.2,6,3.2,6.6,2.6c2.2-2,2.8-4.3,1.8-5.2c-7.1-6.5-24.4-6.5-24.4-6.5c6.7-5.2,24-0.1,26,0.8
	s3.1,1.6,4.2-0.9c1.2-2.5,1-3.8-0.3-4.9c-8.8-6.4-28.4-3.5-28.4-3.5c8.2-8.1,25.1-7.7,29-6.7s4.5-2.1,5.2-4.8
	S291.2,322.7,284.9,322.3z"/>
<path class="st3" d="M281,353.3c0.4,1.1-0.3,3-2.2,4.6c-0.6,0.7-2.1-1.3-6.6-2.6c-3.6-1-7-2.4-13.9-2c0.1,0.8,0.2,1.2,0.2,1.2
	l0.3,0.8c8.1-0.7,11.6,0.8,15.6,1.9c4.5,1.2,6,3.2,6.6,2.6c2.2-2,2.8-4.3,1.8-5.2C282.3,354.1,281.7,353.7,281,353.3z"/>
<path class="st3" d="M292.3,324.9c0,0.4,0,0.8-0.2,1.2c-0.8,2.8-1.3,5.8-5.2,4.8c-3.6-0.9-18.3-1.3-27,5c-0.1,0.5-0.3,1-0.4,1.5
	c0.9-0.1,2.2-0.2,3.7-0.3c8.8-5.5,22.4-5.1,25.8-4.2c3.9,1,4.5-2.1,5.2-4.8C294.7,326.3,294.2,325.4,292.3,324.9z"/>
<path class="st3" d="M288.4,343.1c-0.4-0.3-0.8-0.6-1.3-0.8c0.4,0.9,0.3,2-0.5,3.8c-1.2,2.5-2.2,1.8-4.2,0.9
	c-1.8-0.8-16.5-5.1-24.1-1.9c0,0.4-0.1,0.8-0.1,1.2c1,0,2.2,0.1,3.7,0.3c7.9-2.2,20.9,1.6,22.6,2.4c2,0.9,3.1,1.6,4.2-0.9
	S289.8,344.2,288.4,343.1z"/>
<path class="st3" d="M200.9,343.8c-1.4-0.5-2.7-0.9-4.1-1.3c-6.3,10-10.8,20.8-12.7,32.4C187.5,363.5,191.5,351.3,200.9,343.8z"/>
<path class="st4" d="M281.7,367.5l-23.1-13c-11.8-2.6-22.1,2.4-22.1,2.4c-10.4-2.5-23.7-9.1-31.9-11.9c-1.3-0.4-2.5-0.9-3.7-1.3
	c-9.4,7.5-13.4,19.8-16.8,31.1c-0.2,1.4-0.4,2.8-0.6,4.2c2.3,1.6,4.8,3.3,7.5,5.2c9.8,6.7,22.3,11.6,34.9,15.3
	c21.9,3,44.6,9.2,66.4,2.3c0.3-0.9,0.5-1.9,0.5-2.9L281.7,367.5z"/>
<path class="st5" d="M195.4,344.7c0.5-0.8,0.9-1.5,1.4-2.3c-6.6-2-13.9-3.5-27.6-4.2c-3.7-0.2-6.8-0.2-9.6-0.1
	c-0.3,0.6-0.6,1.2-0.9,1.8C171,339,183.7,340.6,195.4,344.7z"/>
<path d="M158.7,340c-3.5,6.9-5.4,14.2-5.6,22.2c1.3,0.2,2.4,0.4,3.5,0.7c6.6,1.7,11.2,5.3,26.9,16.2c1.3-12.1,5.4-23.4,11.6-33.8
	c0.1-0.2,0.2-0.3,0.3-0.5C183.7,340.6,171,339,158.7,340z"/>
<path class="st3" d="M191,384.2c-2.8-1.9-5.3-3.6-7.5-5.2c-15.7-10.9-20.2-14.5-26.9-16.2c-0.9-0.2-1.8-0.4-2.8-0.6
	c-1.2,0.1-2.3,0.3-3.2,0.5c-3.7,0.7-5.8,1.4-5.8,1.4c0.1-1,0.2-1.9,0.3-2.9l0,0c2.2,0.2,4,0.3,5.7,0.5c-5.1-6.2-4.9-14.4-4.8-21.5
	c-1.3,0.5-1.9,0.8-1.9,0.8l0,0c0.9,4.6,1.6,10.7,1.2,17.8c-0.1,0.7-0.2,1.3-0.4,2l0,0c-0.4,2-0.9,4-2,5.8c4.4-2.1,9-3.5,14-1.6
	c1.1,0.6,2.1,1.3,3.1,2c16.9,10.3,29.4,24.2,48.2,30c1.6-0.6,3.1-1.3,4.6-2C204.9,392.1,197.4,388.5,191,384.2z"/>
<path class="st9" d="M177.3,152.5c0.8-0.1,1.5-0.1,2.3-0.2c2.8-0.4,5.4-0.9,7.7-1.7c0.1-0.5,0.2-0.9,0.3-1.4
	c-6.4,2.3-12.9,3.3-19.7,3.4c0.2,0,0.3,0,0.5,0C171.4,152.7,174.4,152.7,177.3,152.5z"/>
<path class="st10" d="M160.5,151.7c0.7,0.1,2.5,0.4,5.1,0.6c0.7,0.1,1.4,0.1,2.2,0.2c6.8-0.1,13.3-1.2,19.7-3.4
	c0.7-4,0.2-7.2-0.1-8.3c-9.6-0.8-19.4-1.4-27.7,3.5C159.7,146.4,159.8,149.4,160.5,151.7z"/>
<path class="st11" d="M187.4,140.8c0-0.1,0-0.1,0-0.2c-0.7-0.2-3-0.8-6.4-1.2c-0.6-0.1-1.3-0.1-2-0.1c-1.5-0.1-3.1-0.1-4.6,0
	c-0.6,0-1.3,0.1-2,0.1c-4.1,0.4-8.3,1.2-12.5,2.5c0,0.4-0.1,1.3-0.2,2.4C168,139.4,177.9,139.9,187.4,140.8z"/>
<path class="st3" d="M154.3,151.4L154.3,151.4l4.4-4.4c0-0.4,0-0.8,0-1.1l-4.5,4.7c0,0.2,0.1,0.4,0.1,0.6c-0.4-0.7-0.8-1.4-1.3-2
	c0.9,7.2,2.3,14.3,4.6,21.1c0.5,1.9-1.5,4.9-4.2,4c-0.2-0.2-0.5-0.4-0.8-0.5c1.7,1.7,3.4,2.6,4.8,1.7c0.5-0.3,1-0.8,1.4-1.6
	c0.1-0.2,0.2-0.5,0.4-0.8C157.1,166,155.4,158.7,154.3,151.4z"/>
<path class="st12" d="M158.7,145.1c-1.6,1.6-3.2,3.4-4.6,5.1l0.1,0.6l4.5-4.6C158.7,145.8,158.7,145.5,158.7,145.1z"/>
<path class="st12" d="M159.7,152.3L159.7,152.3c0.1,0.2,0.2,0.3,0.4,0.3c0,0,2.2,0.4,5.4,0.7c0.8,0.1,1.8,0.1,2.7,0.2
	c1.4,0.1,2.7,0.1,4,0.1c1.7,0,3.4-0.1,5.1-0.2c0.8-0.1,1.5-0.1,2.3-0.2c3-0.4,5.8-1,8.1-1.9c0.2-0.1,0.3-0.2,0.3-0.3
	s0.1-0.3,0.1-0.4C179,154,168.9,153.2,159.7,152.3z"/>
<path class="st3" d="M179.7,153.2c-0.8,0.1-1.5,0.2-2.3,0.2c-1.6,0.1-3.3,0.2-5.1,0.2c-1.3,0-2.7,0-4-0.1c-1-0.1-1.9-0.1-2.7-0.2
	c-1.5-0.1-2.7-0.3-3.6-0.4c8.3,3.1,17.3,2.9,25.6-1.4C185.2,152.3,182.5,152.9,179.7,153.2z"/>
<path class="st3" d="M235,169.2c-0.2-0.2-0.4-0.6-0.3-1l0,0c1.7-7.2,2.7-14.6,3.9-21.8c-0.4,0.4-0.8,0.8-1.1,1.2
	c0-0.2,0-0.4,0.1-0.6l-1.2-0.7c-0.8-0.5-1.6-0.9-2.4-1.5l-3.1-1.9c0,0.4,0.1,0.8,0.1,1.1l6.4,3.8l0.2,0.1
	c-0.8,7.9-2.5,15.7-4.5,23.2c0.2,0.4,0.4,0.8,0.7,1c0.1,0,0.1,0.1,0.2,0.1c1.1,0.7,2.8-0.1,4.6-2.2
	C237.3,170.3,236.1,170.3,235,169.2z"/>
<path class="st12" d="M230.9,142.7c0,0.3,0,0.5,0,0.8l6.6,3.9l0.1-0.5C235.3,145.8,233.1,144.1,230.9,142.7z"/>
<path class="st9" d="M217.2,151c4.2-0.1,8.3-0.8,12.1-2.1c0.1-0.2,0.1-0.4,0.2-0.8c-6.8,2.2-13.7,2.3-20.9,2.2
	c1.9,0.4,3.9,0.6,5.9,0.7C215.3,151,216.2,151,217.2,151z"/>
<path class="st10" d="M203.6,149c0.4,0.1,1.2,0.4,2.3,0.7c0.6,0.2,1.4,0.3,2.2,0.5c0.2,0,0.3,0.1,0.5,0.1c7.2,0.1,14,0,20.9-2.2
	c0.3-1.4,0.7-4.1,0-7.7c-9.1-1.8-18-1-26.4,1.2C202.9,143.2,202.8,146.2,203.6,149z"/>
<path class="st11" d="M229.5,140.4c0-0.2-0.1-0.4-0.1-0.7c-0.8-0.2-3.5-0.9-7.1-1.2c-0.8-0.1-1.6-0.1-2.4-0.2
	c-1.8-0.1-3.5-0.1-5.1,0c-0.5,0-0.9,0.1-1.4,0.1c-3.7,0.3-7,1-10.1,2.2c0,0.2-0.1,0.6-0.1,1C211.5,139.4,220.4,138.6,229.5,140.4z"
	/>
<path class="st12" d="M202.1,141.9c-4.1-3.4-9.5-2.2-13.4,0.4c0,0.2,0.1,0.5,0.1,0.8c6.4-5.1,11.4-2,13.2-0.4
	C202,142.4,202.1,142.1,202.1,141.9z"/>
<path class="st3" d="M202,142.7c-1.9-1.6-6.9-4.7-13.2,0.4c0-0.1,0-0.2,0-0.2c0,0.2,0,0.4,0,0.6c6.4-5.1,11.3-2,13.2-0.4
	c0-0.2,0-0.4,0-0.6C202,142.5,202,142.6,202,142.7z"/>
<path class="st3" d="M187.8,144.3L187.8,144.3c0-0.2,0-0.4,0-0.6V144.3z"/>
<path class="st13" d="M237.6,146.9v-0.5l-6.9-4.9l0,0c-0.1-0.7-0.2-1.5-0.5-2.3c0-0.2-0.2-0.3-0.3-0.4c-0.1,0-3.1-0.9-7.6-1.3
	c-0.8-0.1-1.6-0.2-2.5-0.2c-1.8-0.1-3.5-0.1-5.2,0c-0.5,0-0.9,0.1-1.4,0.1c-3.9,0.3-7.4,1.1-10.6,2.4c-0.2,0.1-0.3,0.2-0.3,0.4
	c0,0.1-0.1,0.5-0.2,1.1c-1.7-1.1-6.7-3.6-13.6,0.1c-0.1-0.7-0.2-1.2-0.3-1.2c0-0.2-0.2-0.3-0.3-0.3s-2.6-0.9-6.9-1.3
	c-0.6-0.1-1.3-0.1-2.1-0.1c-1.6-0.1-3.2-0.1-4.7,0c-0.6,0-1.3,0.1-2,0.1c-4.3,0.4-8.7,1.3-13,2.7c-0.2,0.1-0.3,0.2-0.3,0.4
	c0,0.1-0.1,1-0.2,2.4l-4.7,5.6l0.1,0.7c1.4-1.7,2.9-3.5,4.6-5.1l0,0c0,2.2,0.1,5,0.9,7.2c9.3,0.9,19.3,1.6,28.5-1.7
	c0.8-3.4,0.7-6.4,0.5-8.3c3.9-2.6,9.3-3.8,13.4-0.4c-0.2,1.8-0.2,4.8,0.7,7.6l0,0c8.9,2.4,18.6,2.4,27.6-0.6
	c0.3-0.9,0.8-3.2,0.5-6.3l0,0C233.1,144.1,235.3,145.8,237.6,146.9z M187.2,150.5c-2.2,0.8-4.8,1.4-7.7,1.7
	c-0.8,0.1-1.5,0.2-2.3,0.2c-2.8,0.2-5.9,0.3-9,0.1c-1-0.1-1.9-0.1-2.7-0.2c-2.5-0.2-4.4-0.5-5.1-0.6c-1.1-3.5-0.7-8.5-0.6-9.8
	c4.1-1.3,8.3-2.2,12.5-2.5c0.7-0.1,1.3-0.1,2-0.1c1.5-0.1,3.1-0.1,4.6,0c0.7,0,1.4,0.1,2,0.1c3.4,0.3,5.7,0.9,6.4,1.2
	C187.6,141.6,188.4,145.6,187.2,150.5z M229.3,148.9c-3.8,1.3-7.9,2-12.1,2.1c-1,0-1.9,0-2.6,0c-2.2-0.1-4.3-0.4-6.4-0.8
	c-0.8-0.2-1.5-0.3-2.2-0.5c-1.2-0.3-2-0.6-2.3-0.7c-1.1-3.6-0.5-7.4-0.4-8.5c3-1.2,6.4-1.9,10.1-2.2c0.5,0,0.9-0.1,1.4-0.1
	c1.6-0.1,3.3-0.1,5.1,0c0.9,0,1.7,0.1,2.4,0.2c3.6,0.4,6.3,1,7.1,1.2C230.5,144.6,229.6,148,229.3,148.9z"/>
<path class="st12" d="M202.8,149.6c0.1,0.1,0.2,0.2,0.3,0.3c0,0,1,0.4,2.7,0.8c0.6,0.2,1.4,0.3,2.2,0.5c2.1,0.4,4.3,0.7,6.5,0.8
	c0.5,0,1.1,0,1.8,0c0.3,0,0.6,0,0.9,0c4.4-0.1,8.7-0.8,12.6-2.2c0.1,0,0.2-0.1,0.3-0.3c0,0,0.1-0.2,0.2-0.5
	C221.4,152,211.7,152,202.8,149.6z"/>
<path class="st3" d="M217.2,152c-0.3,0-0.6,0-0.9,0c-0.6,0-1.2,0-1.8,0c-2.2-0.1-4.4-0.4-6.5-0.8c-0.8-0.2-1.5-0.3-2.2-0.5
	c7.1,3.4,15.8,3.8,22.7-0.5C224.9,151.3,221.1,151.9,217.2,152z"/>
<path class="st3" d="M202.5,167.4c-0.3-0.5-0.5-1-0.7-1.4c-0.4-0.8-0.7-1.7-1-2.6c-2.3-6.6-2.9-14-3-20.9c-0.3,7-0.2,14.6,2.1,21.2
	c1.1,3.8,3.6,5.5-1.3,7.8c-2.6,1.2-7.2,1.6-9.6-0.3c0.3,0.2-0.6-0.4-0.6-0.4c2.6,4.6,12.3,3.5,14.1-1.4
	C202.5,169.4,203,168.2,202.5,167.4z"/>
<circle class="st1" cx="25.5" cy="41.4" r="3.5"/>
<path class="st1" d="M22,25.7V22c0,0,22.1,0,22,22.9h-3.8C40.2,44.9,40.9,26.8,22,25.7z"/>
<path class="st1" d="M22,31.8v-3.7c0,0,15.4,0.7,15.3,16.8h-3.7C33.6,45,34.5,33.4,22,31.8z"/>
</svg>
